<svg xmlns="http://www.w3.org/2000/svg" width="34.159" height="20.495" viewBox="0 0 34.159 20.495">
  <path id="graduation-cap-solid" d="M33.221,68.759,18.333,64.184a4.264,4.264,0,0,0-2.5,0L.947,68.759a1.257,1.257,0,0,0,0,2.433l2.6.8a4.206,4.206,0,0,0-.954,2.5,1.647,1.647,0,0,0-.136,2.83L1.09,83.454a.854.854,0,0,0,.833,1.039H4.918a.854.854,0,0,0,.834-1.039L4.389,77.322a1.643,1.643,0,0,0-.1-2.8,2.518,2.518,0,0,1,1.1-1.96l10.438,3.207a4.269,4.269,0,0,0,2.5,0l14.889-4.574A1.257,1.257,0,0,0,33.221,68.759ZM18.834,77.4a5.975,5.975,0,0,1-3.5,0l-7.74-2.378-.757,6.056c0,1.887,4.588,3.416,10.248,3.416s10.248-1.529,10.248-3.416l-.757-6.056Z" transform="translate(-0.005 -63.998)" fill="#fc0"/>
</svg>
