<svg xmlns="http://www.w3.org/2000/svg" width="139" height="139" viewBox="0 0 139 139">
  <g id="Group_421" data-name="Group 421" transform="translate(-420 -338)">
    <circle id="Ellipse_219" data-name="Ellipse 219" cx="69.5" cy="69.5" r="69.5" transform="translate(420 338)" fill="#fc0" opacity="0.1"/>
    <path id="users-solid" d="M11.912,55.824a7.941,7.941,0,1,0-7.941-7.941,7.941,7.941,0,0,0,7.941,7.941Zm55.59,0a7.941,7.941,0,1,0-7.941-7.941A7.941,7.941,0,0,0,67.5,55.824Zm3.971,3.971H63.531a7.918,7.918,0,0,0-5.6,2.308,18.15,18.15,0,0,1,9.319,13.575h8.19a3.966,3.966,0,0,0,3.971-3.971V67.736A7.949,7.949,0,0,0,71.473,59.795Zm-31.766,0a13.891,13.891,0,1,0-9.829-4.068,13.9,13.9,0,0,0,9.829,4.068Zm9.53,3.971h-1.03a19.188,19.188,0,0,1-17,0h-1.03A14.3,14.3,0,0,0,15.883,78.06v3.574a5.958,5.958,0,0,0,5.956,5.956H57.575a5.958,5.958,0,0,0,5.956-5.956V78.06A14.3,14.3,0,0,0,49.237,63.766ZM21.479,62.1a7.918,7.918,0,0,0-5.6-2.308H7.941A7.949,7.949,0,0,0,0,67.736v3.971a3.966,3.966,0,0,0,3.971,3.971h8.177A18.2,18.2,0,0,1,21.479,62.1Z" transform="translate(450.227 348.066)" fill="#fc0"/>
  </g>
</svg>
