<svg xmlns="http://www.w3.org/2000/svg" width="64" height="64" viewBox="0 0 64 64">
  <g id="Parents" transform="translate(-37 -42)">
    <circle id="parents-2" data-name="parents" cx="32" cy="32" r="32" transform="translate(37 42)" fill="#fc0" opacity="0.1"/>
    <path id="users-solid" d="M5.485,42.969a3.656,3.656,0,1,0-3.656-3.656,3.656,3.656,0,0,0,3.656,3.656Zm25.6,0a3.656,3.656,0,1,0-3.656-3.656A3.656,3.656,0,0,0,31.08,42.969ZM32.908,44.8H29.252a3.646,3.646,0,0,0-2.577,1.063,8.357,8.357,0,0,1,4.291,6.25h3.771a1.826,1.826,0,0,0,1.828-1.828V48.454A3.66,3.66,0,0,0,32.908,44.8Zm-14.626,0a6.4,6.4,0,1,0-4.526-1.873A6.4,6.4,0,0,0,18.282,44.8Zm4.388,1.828H22.2a8.835,8.835,0,0,1-7.827,0h-.474a6.583,6.583,0,0,0-6.582,6.582v1.645A2.743,2.743,0,0,0,10.055,57.6H26.509a2.743,2.743,0,0,0,2.742-2.742V53.208A6.583,6.583,0,0,0,22.67,46.626ZM9.89,45.86A3.646,3.646,0,0,0,7.313,44.8H3.656A3.66,3.66,0,0,0,0,48.454v1.828a1.826,1.826,0,0,0,1.828,1.828H5.593a8.378,8.378,0,0,1,4.3-6.25Z" transform="translate(51 32)" fill="#fc0"/>
  </g>
</svg>
