<svg xmlns="http://www.w3.org/2000/svg" width="496" height="504" viewBox="0 0 496 504">
  <path id="power-off-solid" d="M400,54.1A247.507,247.507,0,0,1,504,256c0,136.8-110.8,247.7-247.5,248C120,504.3,8.2,393,8,256.4A248.026,248.026,0,0,1,111.8,54.2a24.074,24.074,0,0,1,35,7.7L162.6,90a23.99,23.99,0,0,1-6.6,31A168,168,0,0,0,256,424c91.6,0,168.6-74.2,168-169.1a168.067,168.067,0,0,0-68.1-134A23.856,23.856,0,0,1,349.4,90l15.8-28.1A23.969,23.969,0,0,1,400,54.1ZM296,264V24A23.942,23.942,0,0,0,272,0H240a23.942,23.942,0,0,0-24,24V264a23.942,23.942,0,0,0,24,24h32A23.942,23.942,0,0,0,296,264Z" transform="translate(-8)" fill="#fc0"/>
</svg>
