<svg xmlns="http://www.w3.org/2000/svg" width="576" height="448" viewBox="0 0 576 448">
  <path id="tachometer-alt-solid" d="M288,32C128.94,32,0,160.94,0,320A286.5,286.5,0,0,0,39.06,464.8c5.61,9.62,16.3,15.2,27.44,15.2h443c11.14,0,21.83-5.58,27.44-15.2A286.5,286.5,0,0,0,576,320C576,160.94,447.06,32,288,32Zm0,64c14.71,0,26.58,10.13,30.32,23.65-1.11,2.26-2.64,4.23-3.45,6.67l-9.22,27.67c-5.13,3.49-10.97,6.01-17.64,6.01A32,32,0,0,1,288,96ZM96,384a32,32,0,1,1,32-32A32,32,0,0,1,96,384Zm48-160a32,32,0,1,1,32-32A32,32,0,0,1,144,224Zm246.77-72.41-61.33,184A62.8,62.8,0,0,1,343.12,416H232.88a63.339,63.339,0,0,1,51.02-95.59L345.24,136.4a24,24,0,0,1,45.53,15.19Zm14.66,57.2,15.52-46.55A31.544,31.544,0,0,1,432,160.01a32,32,0,0,1,0,64c-11.38-.01-20.89-6.28-26.57-15.22ZM480,384a32,32,0,1,1,32-32A32,32,0,0,1,480,384Z" transform="translate(0 -32)" fill="#fc0"/>
</svg>
