<svg xmlns="http://www.w3.org/2000/svg" width="297.001" height="240.221" viewBox="0 0 297.001 240.221">
  <g id="book" transform="translate(0 -28.39)">
    <g id="Group_104" data-name="Group 104">
      <path id="Path_30" data-name="Path 30" d="M287.034,60.873H266.215V39.321a9.965,9.965,0,0,0-8.49-9.856,153.036,153.036,0,0,0-45.557,1.37c-27.227,4.954-48.941,17.171-63.668,35.64-14.728-18.469-36.442-30.686-63.668-35.64a153.073,153.073,0,0,0-45.557-1.37,9.967,9.967,0,0,0-8.49,9.856V60.872H9.966A9.968,9.968,0,0,0,0,70.839v187.8a9.966,9.966,0,0,0,13.244,9.412c.748-.259,75.431-25.747,131.12-.345a9.963,9.963,0,0,0,8.273,0c55.533-25.33,130.376.088,131.12.345A9.965,9.965,0,0,0,297,258.645V70.84A9.968,9.968,0,0,0,287.034,60.873ZM19.933,245.309V80.805H30.785V213.531a9.978,9.978,0,0,0,11.427,9.858c.55-.08,43.846-6.024,75.478,15.679C78.725,232.4,39.727,240.112,19.933,245.309Zm118.6-15.229c-13.932-12.588-32.079-21.1-53.7-25.034a156.4,156.4,0,0,0-27.78-2.446c-2.292,0-4.414.049-6.333.126V48.473h0c19.155-.864,65.752,1.184,87.816,38.587ZM158.466,87.061c21.985-37.243,68.655-39.384,87.816-38.563V202.726a157.99,157.99,0,0,0-34.114,2.32c-21.623,3.934-39.77,12.445-53.7,25.034V87.061Zm20.811,152.013c31.636-21.716,74.955-15.766,75.5-15.686a9.966,9.966,0,0,0,11.443-9.857V80.806h10.852v164.5C257.267,240.11,218.253,232.4,179.277,239.074Z" fill="#009cd7"/>
    </g>
  </g>
</svg>
