<svg xmlns="http://www.w3.org/2000/svg" width="379" height="379" viewBox="0 0 379 379">
  <g id="school" transform="translate(-6941 4325)">
    <circle id="Ellipse_55" data-name="Ellipse 55" cx="189.5" cy="189.5" r="189.5" transform="translate(6941 -4325)" fill="#009cd7"/>
    <g id="_16-alarm" data-name="16-alarm" transform="translate(7019 -4241)">
      <path id="Path_117" data-name="Path 117" d="M279.994,36.632A57.646,57.646,0,0,0,291.562,38.1a15.337,15.337,0,0,0,6.664-1.2,2.563,2.563,0,0,0,1.417-2.293V19.233a2.563,2.563,0,0,0-3.375-2.431c-3.059,1.02-9.846.182-16.279-1.123,0,.046,0,.091,0,.138Z" transform="translate(-158.1 -6.69)" fill="#fefefe"/>
      <path id="Path_118" data-name="Path 118" d="M43.3,364H4v29.046a5.126,5.126,0,0,0,5.126,5.126H44.677a10.185,10.185,0,0,1-1.379-5.126Z" transform="translate(0 -206.226)" fill="#fefefe"/>
      <path id="Path_119" data-name="Path 119" d="M43.3,268H9.126A5.126,5.126,0,0,0,4,273.126v30.755H43.3Z" transform="translate(0 -151.232)" fill="#fefefe"/>
      <path id="Path_120" data-name="Path 120" d="M455.437,391.338a17.793,17.793,0,0,0,1.088,6.834H467.4a5.126,5.126,0,0,0,5.126-5.126V364H446.069C451.184,368.845,455.437,377.14,455.437,391.338Z" transform="translate(-253.239 -206.226)" fill="#fefefe"/>
      <path id="Path_121" data-name="Path 121" d="M450.745,268H417v24.172a14.559,14.559,0,0,1,8.866,11.709h30V273.126A5.126,5.126,0,0,0,450.745,268Z" transform="translate(-236.587 -151.232)" fill="#fefefe"/>
      <path id="Path_122" data-name="Path 122" d="M174,278h15.377v11.96H174Z" transform="translate(-97.384 -156.961)" fill="#fefefe"/>
      <path id="Path_123" data-name="Path 123" d="M262,364h15.377v34.172H262Z" transform="translate(-147.795 -206.226)" fill="#fefefe"/>
      <path id="Path_124" data-name="Path 124" d="M214,364h15.377v34.172H214Z" transform="translate(-120.298 -206.226)" fill="#fefefe"/>
      <path id="Path_125" data-name="Path 125" d="M198.556,157.774h-4.271v34.172h11.726a17.786,17.786,0,0,0,1.088-6.834c0-17.32,6.328-25.86,12.831-30.062q-.017-.345-.017-.693a14.539,14.539,0,0,1,14.523-14.523c.143,0,.285.007.427.011V91.139a5.126,5.126,0,0,0-2.356-4.314L176.344,50.75V9.126a5.126,5.126,0,0,0-10.252,0V50.761L110.341,86.835a5.126,5.126,0,0,0-2.341,4.3V186.82a5.126,5.126,0,0,0,5.126,5.126h35.026V157.774h-4.272a2.563,2.563,0,1,1,0-5.126h54.675a2.563,2.563,0,0,1,0,5.126ZM156.7,135.562a2.563,2.563,0,0,1-2.563,2.563h-20.5a2.563,2.563,0,0,1-2.563-2.563V118.476a2.563,2.563,0,0,1,2.563-2.563h20.5a2.563,2.563,0,0,1,2.563,2.563Zm14.523-31.609a12.815,12.815,0,1,1,12.815-12.815A12.814,12.814,0,0,1,171.218,103.953ZM188.3,138.125a2.563,2.563,0,0,1-2.563-2.563V118.476a2.563,2.563,0,0,1,2.563-2.563h20.5a2.563,2.563,0,0,1,2.563,2.563v17.086a2.563,2.563,0,0,1-2.563,2.563Z" transform="translate(-59.576)" fill="#fefefe"/>
      <circle id="Ellipse_56" data-name="Ellipse 56" cx="7.612" cy="7.612" r="7.612" transform="translate(103.807 83.834)" fill="#fefefe"/>
      <path id="Path_126" data-name="Path 126" d="M302,278h15.377v11.96H302Z" transform="translate(-170.709 -156.961)" fill="#fefefe"/>
      <path id="Path_127" data-name="Path 127" d="M373.123,334a9.391,9.391,0,0,0-8.748,12.821c-6.575,2.787-13.463,9.873-13.463,27.331a26.014,26.014,0,0,1-.812,6.834h46.047a26.015,26.015,0,0,1-.812-6.834c0-17.458-6.889-24.544-13.463-27.331A9.391,9.391,0,0,0,373.123,334Z" transform="translate(-198.263 -189.04)" fill="#fefefe"/>
      <path id="Path_128" data-name="Path 128" d="M387.8,456H333.126a5.126,5.126,0,0,0,0,10.252H387.8a5.126,5.126,0,0,0,0-10.252Z" transform="translate(-185.603 -258.928)" fill="#fefefe"/>
    </g>
  </g>
</svg>
