<svg xmlns="http://www.w3.org/2000/svg" width="173" height="173" viewBox="0 0 173 173">
  <g id="Group_444" data-name="Group 444" transform="translate(-410 -325)">
    <circle id="Ellipse_219" data-name="Ellipse 219" cx="86.5" cy="86.5" r="86.5" transform="translate(410 325)" fill="#0fbcf9" opacity="0.1"/>
    <path id="graduation-cap-solid" d="M89.792,76.867,49.548,64.5a11.525,11.525,0,0,0-6.751,0L2.552,76.867a3.4,3.4,0,0,0,0,6.577L9.568,85.6a11.369,11.369,0,0,0-2.58,6.766,4.452,4.452,0,0,0-.368,7.649L2.937,116.59A2.308,2.308,0,0,0,5.19,119.4h8.1a2.308,2.308,0,0,0,2.254-2.809l-3.683-16.574a4.44,4.44,0,0,0-.26-7.577,6.806,6.806,0,0,1,2.985-5.3L42.8,95.81a11.538,11.538,0,0,0,6.751,0L89.792,83.446A3.4,3.4,0,0,0,89.792,76.867ZM50.9,100.224a16.151,16.151,0,0,1-9.463,0L20.517,93.8l-2.046,16.369c0,5.1,12.4,9.234,27.7,9.234s27.7-4.133,27.7-9.234L71.827,93.795Z" transform="translate(450.542 320.471)" fill="#0fbcf9"/>
  </g>
</svg>
