<svg xmlns="http://www.w3.org/2000/svg" width="64" height="64" viewBox="0 0 64 64">
  <g id="students-icon" transform="translate(-914 -240)">
    <circle id="Ellipse_221" data-name="Ellipse 221" cx="32" cy="32" r="32" transform="translate(914 240)" fill="#05f" opacity="0.1"/>
    <path id="graduation-cap-solid" d="M30.3,69.388l-13.58-5.179a3.17,3.17,0,0,0-2.278,0L.865,69.388a1.534,1.534,0,0,0,0,2.755l2.368.9a5.475,5.475,0,0,0-.871,2.834,2.012,2.012,0,0,0-.8,1.654,2.049,2.049,0,0,0,.675,1.55L.995,86.027a.934.934,0,0,0,.76,1.177H4.486a.934.934,0,0,0,.76-1.177L4,79.084a2.049,2.049,0,0,0,.675-1.55,2.022,2.022,0,0,0-.762-1.624,3.058,3.058,0,0,1,1.007-2.219l9.522,3.631a3.175,3.175,0,0,0,2.278,0L30.3,72.144A1.534,1.534,0,0,0,30.3,69.388ZM17.181,79.171a4.445,4.445,0,0,1-3.193,0l-7.06-2.692-.69,6.856c0,2.136,4.185,3.868,9.348,3.868s9.348-1.731,9.348-3.868l-.69-6.857Z" transform="translate(929.995 196.002)" fill="#0fbcf9"/>
  </g>
</svg>
