<svg xmlns="http://www.w3.org/2000/svg" xmlns:xlink="http://www.w3.org/1999/xlink" width="603" height="316.409" viewBox="0 0 603 316.409">
  <defs>
    <linearGradient id="linear-gradient" x1="0.5" y1="1" x2="0.5" gradientUnits="objectBoundingBox">
      <stop offset="0" stop-color="gray" stop-opacity="0.251"/>
      <stop offset="0.54" stop-color="gray" stop-opacity="0.122"/>
      <stop offset="1" stop-color="gray" stop-opacity="0.102"/>
    </linearGradient>
    <linearGradient id="linear-gradient-2" x1="0.5" y1="1" x2="0.5" y2="-0.001" xlink:href="#linear-gradient"/>
  </defs>
  <g id="contact-us" transform="translate(0 0.359)">
    <g id="Group_33" data-name="Group 33" transform="translate(233.91 21.648)" opacity="0.1">
      <ellipse id="Ellipse_77" data-name="Ellipse 77" cx="6.261" cy="8.198" rx="6.261" ry="8.198" transform="translate(23.598 169.225)" fill="#3f3d56"/>
      <path id="Path_402" data-name="Path 402" d="M531.24,450.2a9.9,9.9,0,0,0,1.309-5.012c0-4.528-2.806-8.2-6.267-8.2S520,440.671,520,445.2a9.9,9.9,0,0,0,1.309,5.012,10.239,10.239,0,0,0,0,10.019,10.239,10.239,0,0,0,0,10.019A9.871,9.871,0,0,0,520,475.261c0,4.522,2.806,8.2,6.261,8.2s6.267-3.675,6.267-8.2a9.87,9.87,0,0,0-1.309-5.012,10.239,10.239,0,0,0,0-10.019,10.239,10.239,0,0,0,0-10.019Z" transform="translate(-496.424 -307.852)" fill="#3f3d56"/>
      <ellipse id="Ellipse_78" data-name="Ellipse 78" cx="6.261" cy="8.198" rx="6.261" ry="8.198" transform="translate(23.598 119.13)" fill="#3f3d56"/>
      <ellipse id="Ellipse_79" data-name="Ellipse 79" cx="6.261" cy="8.198" rx="6.261" ry="8.198" transform="translate(23.598 109.112)" fill="#3f3d56"/>
      <path id="Path_403" data-name="Path 403" d="M483.57,251.011a29.2,29.2,0,0,1-2.333-3.433l16.45-2.7-17.793.132a30.051,30.051,0,0,1-.55-23.768l23.872,12.385L481.21,217.439A30,30,0,1,1,530.726,251a30.011,30.011,0,0,1,3.422,5.469l-21.364,11.125,22.772-7.642a30,30,0,0,1-4.836,28.169,30,30,0,1,1-47.151,0,30,30,0,0,1,0-37.093Z" transform="translate(-477.149 -202.271)" fill="#35b23d"/>
      <path id="Path_404" data-name="Path 404" d="M537.141,324.209a29.858,29.858,0,0,1-6.421,18.547,30,30,0,1,1-47.151,0C479.548,337.649,537.141,320.841,537.141,324.209Z" transform="translate(-477.149 -256.922)" opacity="0.1"/>
    </g>
    <g id="Group_34" data-name="Group 34" transform="translate(314.55 49.065)" opacity="0.1">
      <ellipse id="Ellipse_80" data-name="Ellipse 80" cx="4.682" cy="6.124" rx="4.682" ry="6.124" transform="translate(17.633 126.353)" fill="#3f3d56"/>
      <path id="Path_405" data-name="Path 405" d="M664.144,437.19a7.389,7.389,0,0,0,.974-3.741c0-3.384-2.1-6.129-4.677-6.129s-4.682,2.751-4.682,6.129a7.334,7.334,0,0,0,.979,3.741,7.647,7.647,0,0,0,0,7.488,7.648,7.648,0,0,0,0,7.488,7.334,7.334,0,0,0-.979,3.741c0,3.384,2.1,6.129,4.682,6.129s4.677-2.751,4.677-6.129a7.389,7.389,0,0,0-.974-3.741,7.7,7.7,0,0,0,0-7.488,7.7,7.7,0,0,0,0-7.488Z" transform="translate(-638.132 -330.919)" fill="#3f3d56"/>
      <ellipse id="Ellipse_81" data-name="Ellipse 81" cx="4.682" cy="6.124" rx="4.682" ry="6.124" transform="translate(17.633 88.919)" fill="#3f3d56"/>
      <ellipse id="Ellipse_82" data-name="Ellipse 82" cx="4.682" cy="6.124" rx="4.682" ry="6.124" transform="translate(17.633 81.431)" fill="#3f3d56"/>
      <path id="Path_406" data-name="Path 406" d="M628.518,288.419a21.455,21.455,0,0,1-1.744-2.564l12.3-2.019-13.3.1a22.469,22.469,0,0,1-.429-17.765l17.842,9.26-16.456-12.1a22.42,22.42,0,1,1,37.022,25.088,22.669,22.669,0,0,1,2.558,4.088l-15.955,8.291,17.017-5.711a22.426,22.426,0,0,1-3.615,21.05,22.414,22.414,0,1,1-35.212,0,22.415,22.415,0,0,1,0-27.718Z" transform="translate(-623.72 -252.103)" fill="#35b23d"/>
      <path id="Path_407" data-name="Path 407" d="M668.558,343.03a22.321,22.321,0,0,1-4.8,13.859,22.414,22.414,0,1,1-35.212,0C625.533,353.077,668.558,340.516,668.558,343.03Z" transform="translate(-623.729 -292.855)" opacity="0.1"/>
    </g>
    <g id="Group_35" data-name="Group 35" transform="translate(541.127 -0.359)" opacity="0.1">
      <ellipse id="Ellipse_83" data-name="Ellipse 83" cx="6.261" cy="8.198" rx="6.261" ry="8.198" transform="translate(24.02 169.224)" fill="#3f3d56"/>
      <path id="Path_408" data-name="Path 408" d="M1080.5,410.2a9.9,9.9,0,0,1-1.309-5.012c0-4.528,2.806-8.2,6.266-8.2s6.261,3.67,6.261,8.2a9.9,9.9,0,0,1-1.31,5.012,10.238,10.238,0,0,1,0,10.019,10.238,10.238,0,0,1,0,10.019,9.87,9.87,0,0,1,1.31,5.012c0,4.522-2.806,8.2-6.261,8.2s-6.266-3.675-6.266-8.2a9.868,9.868,0,0,1,1.309-5.012,10.238,10.238,0,0,1,0-10.019A10.238,10.238,0,0,1,1080.5,410.2Z" transform="translate(-1055.175 -267.852)" fill="#3f3d56"/>
      <ellipse id="Ellipse_84" data-name="Ellipse 84" cx="6.261" cy="8.198" rx="6.261" ry="8.198" transform="translate(24.02 119.13)" fill="#3f3d56"/>
      <ellipse id="Ellipse_85" data-name="Ellipse 85" cx="6.261" cy="8.198" rx="6.261" ry="8.198" transform="translate(24.02 109.112)" fill="#3f3d56"/>
      <path id="Path_409" data-name="Path 409" d="M1089.26,211.011a29.2,29.2,0,0,0,2.333-3.433l-16.451-2.7,17.793.132a30.051,30.051,0,0,0,.55-23.768l-23.872,12.385,22.007-16.186A30,30,0,1,0,1042.1,211a30.005,30.005,0,0,0-3.422,5.469l21.363,11.125-22.772-7.642a30,30,0,0,0,4.836,28.169,30,30,0,1,0,47.151,0,30,30,0,0,0,0-37.093Z" transform="translate(-1035.541 -162.271)" fill="#35b23d"/>
      <path id="Path_410" data-name="Path 410" d="M1035.81,284.209a29.858,29.858,0,0,0,6.421,18.547,30,30,0,1,0,47.151,0C1093.4,297.65,1035.81,280.841,1035.81,284.209Z" transform="translate(-1035.662 -216.922)" opacity="0.1"/>
    </g>
    <g id="Group_36" data-name="Group 36" transform="translate(488.428 45.764)" opacity="0.1">
      <ellipse id="Ellipse_86" data-name="Ellipse 86" cx="4.682" cy="6.124" rx="4.682" ry="6.124" transform="translate(17.855 126.353)" fill="#3f3d56"/>
      <path id="Path_411" data-name="Path 411" d="M973.2,431.19a7.39,7.39,0,0,1-.974-3.741c0-3.384,2.1-6.129,4.677-6.129s4.682,2.751,4.682,6.129a7.334,7.334,0,0,1-.979,3.741,7.647,7.647,0,0,1,0,7.488,7.647,7.647,0,0,1,0,7.488,7.334,7.334,0,0,1,.979,3.741c0,3.384-2.1,6.129-4.682,6.129s-4.677-2.751-4.677-6.129a7.39,7.39,0,0,1,.974-3.741,7.7,7.7,0,0,1,0-7.488,7.7,7.7,0,0,1,0-7.488Z" transform="translate(-954.363 -324.919)" fill="#3f3d56"/>
      <ellipse id="Ellipse_87" data-name="Ellipse 87" cx="4.682" cy="6.124" rx="4.682" ry="6.124" transform="translate(17.855 88.919)" fill="#3f3d56"/>
      <ellipse id="Ellipse_88" data-name="Ellipse 88" cx="4.682" cy="6.124" rx="4.682" ry="6.124" transform="translate(17.855 81.431)" fill="#3f3d56"/>
      <path id="Path_412" data-name="Path 412" d="M979.812,282.419a21.45,21.45,0,0,0,1.744-2.564l-12.3-2.019,13.3.1a22.469,22.469,0,0,0,.429-17.765l-17.842,9.26,16.456-12.1a22.42,22.42,0,1,0-37.022,25.088,22.664,22.664,0,0,0-2.558,4.088l15.955,8.291-16.984-5.705a22.426,22.426,0,0,0,3.615,21.05,22.414,22.414,0,1,0,35.212,0,22.414,22.414,0,0,0,0-27.718Z" transform="translate(-939.756 -246.103)" fill="#35b23d"/>
      <path id="Path_413" data-name="Path 413" d="M939.791,337.03a22.322,22.322,0,0,0,4.8,13.859,22.414,22.414,0,1,0,35.212,0C982.815,347.077,939.791,334.516,939.791,337.03Z" transform="translate(-939.767 -286.855)" opacity="0.1"/>
    </g>
    <g id="Group_37" data-name="Group 37" transform="translate(4.021 -0.267)" opacity="0.1">
      <ellipse id="Ellipse_89" data-name="Ellipse 89" cx="6.261" cy="8.198" rx="6.261" ry="8.198" transform="translate(23.603 169.132)" fill="#3f3d56"/>
      <path id="Path_414" data-name="Path 414" d="M113.422,410.2a9.9,9.9,0,0,0,1.309-5.012c0-4.528-2.806-8.2-6.261-8.2s-6.261,3.67-6.261,8.2a9.9,9.9,0,0,0,1.3,5.012,10.272,10.272,0,0,0,0,10.019,10.272,10.272,0,0,0,0,10.019,9.865,9.865,0,0,0-1.3,5.012c0,4.522,2.8,8.2,6.261,8.2s6.278-3.664,6.278-8.187a9.87,9.87,0,0,0-1.309-5.012,10.239,10.239,0,0,0,0-10.019,10.239,10.239,0,0,0,0-10.019Z" transform="translate(-78.606 -267.944)" fill="#3f3d56"/>
      <ellipse id="Ellipse_90" data-name="Ellipse 90" cx="6.261" cy="8.198" rx="6.261" ry="8.198" transform="translate(23.603 119.038)" fill="#3f3d56"/>
      <ellipse id="Ellipse_91" data-name="Ellipse 91" cx="6.261" cy="8.198" rx="6.261" ry="8.198" transform="translate(23.603 109.019)" fill="#3f3d56"/>
      <path id="Path_415" data-name="Path 415" d="M65.741,211.087a29.889,29.889,0,0,1-2.333-3.433l16.456-2.7-17.809.16a30.051,30.051,0,0,1-.55-23.768l23.878,12.385L63.375,177.542A30,30,0,1,1,112.892,211.1a30.007,30.007,0,0,1,3.422,5.469l-21.369,11.1,22.778-7.642a30.034,30.034,0,0,1-4.842,28.169,30,30,0,1,1-47.151,0,30,30,0,0,1,0-37.093Z" transform="translate(-59.309 -162.439)" fill="#35b23d"/>
      <path id="Path_416" data-name="Path 416" d="M119.3,284.209a29.858,29.858,0,0,1-6.421,18.547,30,30,0,1,1-47.151,0C61.708,297.65,119.3,280.841,119.3,284.209Z" transform="translate(-59.309 -217.014)" opacity="0.1"/>
    </g>
    <g id="Group_38" data-name="Group 38" transform="translate(72.008 45.764)" opacity="0.1">
      <ellipse id="Ellipse_92" data-name="Ellipse 92" cx="4.682" cy="6.124" rx="4.682" ry="6.124" transform="translate(17.633 126.353)" fill="#3f3d56"/>
      <path id="Path_417" data-name="Path 417" d="M223.315,431.19a7.389,7.389,0,0,0,.974-3.741c0-3.384-2.091-6.129-4.677-6.129s-4.682,2.751-4.682,6.129a7.389,7.389,0,0,0,.979,3.741,7.648,7.648,0,0,0,0,7.488,7.648,7.648,0,0,0,0,7.488,7.389,7.389,0,0,0-.979,3.741c0,3.384,2.1,6.129,4.682,6.129s4.677-2.751,4.677-6.129a7.389,7.389,0,0,0-.974-3.741,7.7,7.7,0,0,0,0-7.488,7.7,7.7,0,0,0,0-7.488Z" transform="translate(-197.297 -324.919)" fill="#3f3d56"/>
      <ellipse id="Ellipse_93" data-name="Ellipse 93" cx="4.682" cy="6.124" rx="4.682" ry="6.124" transform="translate(17.633 88.919)" fill="#3f3d56"/>
      <ellipse id="Ellipse_94" data-name="Ellipse 94" cx="4.682" cy="6.124" rx="4.682" ry="6.124" transform="translate(17.633 81.431)" fill="#3f3d56"/>
      <path id="Path_418" data-name="Path 418" d="M187.678,282.419a22.115,22.115,0,0,1-1.744-2.564l12.3-2.019-13.3.1a22.47,22.47,0,0,1-.429-17.765l17.842,9.26-16.456-12.1a22.42,22.42,0,1,1,37.022,25.088,22.073,22.073,0,0,1,2.558,4.088l-15.955,8.291,17.017-5.711a22.425,22.425,0,0,1-3.615,21.05,22.414,22.414,0,1,1-35.212,0,22.414,22.414,0,0,1,0-27.718Z" transform="translate(-182.88 -246.103)" fill="#35b23d"/>
      <path id="Path_419" data-name="Path 419" d="M227.718,337.03a22.321,22.321,0,0,1-4.8,13.859,22.414,22.414,0,1,1-35.212,0C184.682,347.077,227.718,334.516,227.718,337.03Z" transform="translate(-182.889 -286.855)" opacity="0.1"/>
    </g>
    <ellipse id="Ellipse_95" data-name="Ellipse 95" cx="301.5" cy="4.875" rx="301.5" ry="4.875" transform="translate(0 266.275)" fill="#35b23d" opacity="0.1"/>
    <ellipse id="Ellipse_96" data-name="Ellipse 96" cx="301.5" cy="4.875" rx="301.5" ry="4.875" transform="translate(0 306.301)" fill="#35b23d" opacity="0.1"/>
    <ellipse id="Ellipse_97" data-name="Ellipse 97" cx="301.5" cy="4.875" rx="301.5" ry="4.875" transform="translate(0 182.741)" fill="#35b23d" opacity="0.1"/>
    <ellipse id="Ellipse_98" data-name="Ellipse 98" cx="301.5" cy="4.875" rx="301.5" ry="4.875" transform="translate(0 224.506)" fill="#35b23d" opacity="0.1"/>
    <path id="Path_420" data-name="Path 420" d="M836.126,262.042a10.068,10.068,0,0,0-5.832.638,8.61,8.61,0,0,1-7.009,0,9.838,9.838,0,0,0-8.253.16,5.083,5.083,0,0,1-2.371.594c-3.345,0-6.123-3.367-6.7-7.807a6.537,6.537,0,0,0,1.651-1.8c1.959-3.158,4.99-5.188,8.4-5.188s6.4,2,8.363,5.128a6.426,6.426,0,0,0,5.551,3.048h.088C832.7,256.788,835.01,258.923,836.126,262.042Z" transform="translate(-391.144 -201.48)" fill="#35b23d" opacity="0.1"/>
    <path id="Path_421" data-name="Path 421" d="M846.3,237.938l-5.4,3.422,3.3-5.964a5.337,5.337,0,0,0-3.268-1.161h-.088a6.246,6.246,0,0,1-1.1-.083l-1.86,1.161.787-1.43a6.487,6.487,0,0,1-3.208-2.432l-3.3,2.08,2.069-3.763a9.587,9.587,0,0,0-7.339-3.708c-3.411,0-6.443,2.025-8.407,5.183a6.277,6.277,0,0,1-5.551,2.993h-.182c-3.763,0-6.811,4.264-6.811,9.524s3.048,9.529,6.811,9.529a5.167,5.167,0,0,0,2.371-.594,9.826,9.826,0,0,1,8.253-.165,8.555,8.555,0,0,0,7.009,0,9.859,9.859,0,0,1,8.176.16,5.117,5.117,0,0,0,2.344.583c3.763,0,6.811-4.269,6.811-9.529A12.066,12.066,0,0,0,846.3,237.938Z" transform="translate(-391.135 -191.323)" fill="#35b23d" opacity="0.1"/>
    <path id="Path_422" data-name="Path 422" d="M426.005,259.921a7.064,7.064,0,0,0-4.088.446,6.008,6.008,0,0,1-4.9,0,6.866,6.866,0,0,0-5.771.116,3.642,3.642,0,0,1-1.651.413c-2.338,0-4.286-2.355-4.693-5.463a4.578,4.578,0,0,0,1.172-1.26,6.574,6.574,0,0,1,11.735-.044,4.506,4.506,0,0,0,3.89,2.135h.061C423.606,256.251,425.218,257.747,426.005,259.921Z" transform="translate(-210.741 -202.335)" fill="#35b23d" opacity="0.1"/>
    <path id="Path_423" data-name="Path 423" d="M433.121,243.059l-3.78,2.4,2.294-4.176a3.714,3.714,0,0,0-2.283-.814h-.066a4.122,4.122,0,0,1-.781-.061l-1.282.814.55-1a4.567,4.567,0,0,1-2.245-1.7l-2.294,1.452,1.453-2.63a6.718,6.718,0,0,0-5.139-2.6,7.037,7.037,0,0,0-5.881,3.631,4.4,4.4,0,0,1-3.89,2.1h-.127c-2.635,0-4.77,2.982-4.77,6.668s2.135,6.668,4.77,6.668a3.577,3.577,0,0,0,1.651-.418,6.877,6.877,0,0,1,5.766-.11,5.909,5.909,0,0,0,4.908.033,6.9,6.9,0,0,1,5.722.11,3.566,3.566,0,0,0,1.651.407c2.63,0,4.765-2.987,4.765-6.668A8.434,8.434,0,0,0,433.121,243.059Z" transform="translate(-210.732 -195.228)" fill="#35b23d" opacity="0.1"/>
    <path id="Path_424" data-name="Path 424" d="M321.59,338.331a7.053,7.053,0,0,1,4.082.446,6.019,6.019,0,0,0,4.908,0,6.888,6.888,0,0,1,5.771.11A3.559,3.559,0,0,0,338,339.3c2.338,0,4.286-2.36,4.688-5.469a4.485,4.485,0,0,1-1.166-1.26,6.581,6.581,0,0,0-11.741-.039,4.506,4.506,0,0,1-3.884,2.135h-.061C323.983,334.683,322.366,336.174,321.59,338.331Z" transform="translate(-173.266 -237.605)" fill="#35b23d" opacity="0.1"/>
    <path id="Path_425" data-name="Path 425" d="M307.833,321.5l3.785,2.4-2.3-4.17a3.736,3.736,0,0,1,2.289-.82h.061a4.686,4.686,0,0,0,.787-.055l1.282.809-.55-1a4.561,4.561,0,0,0,2.239-1.7l2.294,1.453-1.43-2.635a6.712,6.712,0,0,1,5.139-2.6,7.044,7.044,0,0,1,5.881,3.631,4.4,4.4,0,0,0,3.884,2.1h.132c2.63,0,4.765,2.987,4.765,6.668s-2.135,6.668-4.765,6.668a3.571,3.571,0,0,1-1.651-.413,6.866,6.866,0,0,0-5.771-.116,5.975,5.975,0,0,1-2.465.55,6.051,6.051,0,0,1-2.443-.517,6.888,6.888,0,0,0-5.716.11,3.565,3.565,0,0,1-1.651.407c-2.635,0-4.77-2.982-4.77-6.668A8.5,8.5,0,0,1,307.833,321.5Z" transform="translate(-166.639 -230.516)" fill="#35b23d" opacity="0.1"/>
    <path id="Path_426" data-name="Path 426" d="M711.262,604.993c1.436-2.663-.193-5.92-2.063-8.291s-4.159-4.842-4.11-7.862c.072-4.341,4.682-6.91,8.363-9.21a40.881,40.881,0,0,0,7.51-6.052,11.074,11.074,0,0,0,2.305-3.092,12.5,12.5,0,0,0,.693-5.5q-.237-9.293-.919-18.574" transform="translate(-345.771 -335.422)" fill="none" stroke="#3f3d56" stroke-miterlimit="10" stroke-width="4"/>
    <path id="Path_427" data-name="Path 427" d="M739.381,540.568A6.773,6.773,0,0,0,736,535.017l-1.518,3,.05-3.631a6.773,6.773,0,1,0,4.853,6.184Z" transform="translate(-355.106 -329.889)" fill="#35b23d"/>
    <path id="Path_428" data-name="Path 428" d="M718.028,621.147a6.773,6.773,0,0,1-12.786-2.751,6.6,6.6,0,0,1,.44-2.751,6.778,6.778,0,0,1,12.654.072l-4.231,3.444,4.655-1.1A6.734,6.734,0,0,1,718.028,621.147Z" transform="translate(-345.835 -364.626)" fill="#35b23d"/>
    <path id="Path_429" data-name="Path 429" d="M716.612,594.2a6.773,6.773,0,0,1-2.146-13.287l-.039,2.789,1.535-3.037h0A6.775,6.775,0,1,1,716.6,594.2Z" transform="translate(-347.764 -350.827)" fill="#35b23d"/>
    <path id="Path_430" data-name="Path 430" d="M746.477,574.313a6.773,6.773,0,1,1,2.993-12.654l-1.194,3.3,2.437-2.41a6.773,6.773,0,0,1-4.258,11.757Z" transform="translate(-361.184 -341.885)" fill="#35b23d"/>
    <path id="Path_431" data-name="Path 431" d="M738.459,545.41c-1.563.171-3.081.655-4.655.754a5.036,5.036,0,0,1-4.28-1.5,21.717,21.717,0,0,1-1.254-2.2,4.819,4.819,0,0,0-1.706-1.607,6.773,6.773,0,1,0,12.654,4.5C738.971,545.366,738.713,545.383,738.459,545.41Z" transform="translate(-355.098 -332.926)" opacity="0.1"/>
    <path id="Path_432" data-name="Path 432" d="M746.5,577.481a6.773,6.773,0,0,1-6.443-9.661,5.012,5.012,0,0,1,1.359,1.364,22.965,22.965,0,0,0,1.342,2.239,5.525,5.525,0,0,0,4.495,1.568c1.634-.083,3.213-.55,4.842-.688.226,0,.451-.033.682-.039a6.773,6.773,0,0,1-6.277,5.216Z" transform="translate(-361.208 -345.053)" opacity="0.1"/>
    <path id="Path_433" data-name="Path 433" d="M716.614,597.475a6.773,6.773,0,0,1-6.5-9.535,5.5,5.5,0,0,1,1.436,1.375,22.682,22.682,0,0,0,1.469,2.283,6.133,6.133,0,0,0,4.792,1.651c1.728-.072,3.3-.446,4.952-.55a6.784,6.784,0,0,1-6.151,4.776Z" transform="translate(-347.766 -354.103)" opacity="0.1"/>
    <path id="Path_434" data-name="Path 434" d="M718.028,624.672a6.773,6.773,0,0,1-12.786-2.751,6.6,6.6,0,0,1,.44-2.751,6.762,6.762,0,0,1,1.486,1.326c.644.781,1.067,1.651,1.816,2.4a8.464,8.464,0,0,0,5.606,1.97,28.446,28.446,0,0,0,3.439-.2Z" transform="translate(-345.835 -368.151)" opacity="0.1"/>
    <path id="Path_435" data-name="Path 435" d="M101.262,532.993c1.436-2.663-.193-5.92-2.063-8.291s-4.159-4.853-4.11-7.862c.072-4.341,4.682-6.91,8.363-9.21a40.878,40.878,0,0,0,7.51-6.052,11.076,11.076,0,0,0,2.305-3.092,12.505,12.505,0,0,0,.693-5.5q-.242-9.293-.919-18.574" transform="translate(-71.382 -303.035)" fill="none" stroke="#3f3d56" stroke-miterlimit="10" stroke-width="4"/>
    <path id="Path_436" data-name="Path 436" d="M129.381,468.568A6.773,6.773,0,0,0,126,463.017l-1.518,3,.05-3.631a6.773,6.773,0,1,0,4.853,6.184Z" transform="translate(-80.718 -297.502)" fill="#35b23d"/>
    <path id="Path_437" data-name="Path 437" d="M108.028,549.147A6.773,6.773,0,0,1,95.242,546.4a6.6,6.6,0,0,1,.44-2.751,6.778,6.778,0,0,1,12.654.071l-4.231,3.444,4.655-1.1a6.734,6.734,0,0,1-.732,3.087Z" transform="translate(-71.447 -332.239)" fill="#35b23d"/>
    <path id="Path_438" data-name="Path 438" d="M106.612,522.2a6.773,6.773,0,0,1-2.146-13.287l-.039,2.789,1.535-3.037h0A6.775,6.775,0,1,1,106.6,522.2Z" transform="translate(-73.375 -318.44)" fill="#35b23d"/>
    <path id="Path_439" data-name="Path 439" d="M136.477,502.313a6.773,6.773,0,1,1,2.993-12.654l-1.194,3.3,2.437-2.41a6.773,6.773,0,0,1-4.258,11.757Z" transform="translate(-86.795 -309.498)" fill="#35b23d"/>
    <path id="Path_440" data-name="Path 440" d="M128.459,473.41c-1.563.171-3.081.655-4.655.754a5.036,5.036,0,0,1-4.28-1.5,21.723,21.723,0,0,1-1.254-2.2,4.82,4.82,0,0,0-1.706-1.607,6.773,6.773,0,1,0,12.654,4.5C128.971,473.366,128.713,473.382,128.459,473.41Z" transform="translate(-80.709 -300.539)" opacity="0.1"/>
    <path id="Path_441" data-name="Path 441" d="M136.5,505.481a6.773,6.773,0,0,1-6.443-9.661,5.012,5.012,0,0,1,1.359,1.364,22.956,22.956,0,0,0,1.342,2.239,5.525,5.525,0,0,0,4.495,1.568c1.634-.083,3.213-.55,4.842-.688.226,0,.451-.033.682-.039A6.773,6.773,0,0,1,136.5,505.481Z" transform="translate(-86.819 -312.666)" opacity="0.1"/>
    <path id="Path_442" data-name="Path 442" d="M106.614,525.475a6.773,6.773,0,0,1-6.5-9.535,5.5,5.5,0,0,1,1.436,1.375,22.687,22.687,0,0,0,1.469,2.283,6.133,6.133,0,0,0,4.792,1.651c1.728-.072,3.3-.446,4.952-.55A6.784,6.784,0,0,1,106.614,525.475Z" transform="translate(-73.377 -321.716)" opacity="0.1"/>
    <path id="Path_443" data-name="Path 443" d="M108.028,552.672a6.773,6.773,0,0,1-12.786-2.751,6.6,6.6,0,0,1,.44-2.751,6.762,6.762,0,0,1,1.485,1.326c.644.781,1.067,1.651,1.816,2.4a8.464,8.464,0,0,0,5.606,1.97,28.446,28.446,0,0,0,3.439-.2Z" transform="translate(-71.447 -335.764)" opacity="0.1"/>
    <path id="Path_444" data-name="Path 444" d="M502.124,450.632c-1.436-2.657.193-5.914,2.069-8.286s4.154-4.842,4.1-7.862c-.066-4.346-4.677-6.91-8.363-9.21a40.712,40.712,0,0,1-7.5-6.052,10.881,10.881,0,0,1-2.311-3.087,12.679,12.679,0,0,1-.693-5.5q.248-9.293.919-18.574" transform="translate(-248.754 -265.993)" fill="none" stroke="#3f3d56" stroke-miterlimit="10" stroke-width="4"/>
    <path id="Path_445" data-name="Path 445" d="M478.384,386.209a6.767,6.767,0,0,1,3.378-5.551l1.518,3-.044-3.631a6.945,6.945,0,0,1,2.228-.27,6.773,6.773,0,1,1-7.081,6.454Z" transform="translate(-243.792 -260.455)" fill="#35b23d"/>
    <path id="Path_446" data-name="Path 446" d="M499.728,466.742a6.773,6.773,0,1,0-.325-5.452l4.231,3.444-4.655-1.1a6.734,6.734,0,0,0,.748,3.109Z" transform="translate(-253.059 -295.148)" fill="#35b23d"/>
    <path id="Path_447" data-name="Path 447" d="M501.141,439.838a6.773,6.773,0,0,0,2.151-13.287l.033,2.789-1.535-3.037h0a6.773,6.773,0,0,0-7.1,6.432,6.69,6.69,0,0,0,.292,2.311,6.767,6.767,0,0,0,6.156,4.792Z" transform="translate(-251.128 -281.392)" fill="#35b23d"/>
    <path id="Path_448" data-name="Path 448" d="M471.247,419.933a6.773,6.773,0,1,0-3-12.654l1.2,3.3-2.465-2.36a6.718,6.718,0,0,0-2.2,4.677,6.552,6.552,0,0,0,.171,1.865,6.767,6.767,0,0,0,6.294,5.172Z" transform="translate(-237.673 -272.441)" fill="#35b23d"/>
    <path id="Path_449" data-name="Path 449" d="M479.429,391.05c1.563.171,3.081.655,4.649.754a5.059,5.059,0,0,0,4.286-1.5,21.681,21.681,0,0,0,1.249-2.2,4.837,4.837,0,0,1,1.711-1.607,6.773,6.773,0,1,1-12.654,4.5C478.918,391,479.171,391.022,479.429,391.05Z" transform="translate(-243.924 -263.492)" opacity="0.1"/>
    <path id="Path_450" data-name="Path 450" d="M471.408,423.1a6.778,6.778,0,0,0,6.443-9.661,5.036,5.036,0,0,0-1.364,1.364,22.948,22.948,0,0,1-1.342,2.239,5.507,5.507,0,0,1-4.49,1.568c-1.634-.083-3.213-.55-4.842-.688-.226,0-.457-.033-.682-.039a6.767,6.767,0,0,0,6.278,5.216Z" transform="translate(-237.833 -275.61)" opacity="0.1"/>
    <path id="Path_451" data-name="Path 451" d="M501.391,443.115a6.767,6.767,0,0,0,6.5-9.535,5.408,5.408,0,0,0-1.43,1.375,22.691,22.691,0,0,1-1.469,2.283,6.145,6.145,0,0,1-4.8,1.651c-1.733-.072-3.3-.446-4.952-.55a6.767,6.767,0,0,0,6.151,4.776Z" transform="translate(-251.377 -284.669)" opacity="0.1"/>
    <path id="Path_452" data-name="Path 452" d="M500.34,470.312a6.773,6.773,0,0,0,12.352-5.5,6.5,6.5,0,0,0-1.486,1.326c-.644.781-1.1,1.651-1.816,2.4a8.478,8.478,0,0,1-5.612,1.97,29.676,29.676,0,0,1-3.439-.2Z" transform="translate(-253.671 -298.717)" opacity="0.1"/>
    <circle id="Ellipse_99" data-name="Ellipse 99" cx="54.996" cy="54.996" r="54.996" transform="translate(373.998 75.885)" fill="#3f3d56"/>
    <path id="Path_453" data-name="Path 453" d="M834.845,394.5a41.669,41.669,0,0,0-8.8-5.881c-2.635-1.265-3.6-1.243-5.469.1-1.552,1.1-2.558,2.162-4.341,1.772s-5.315-3.054-8.731-6.459-6.069-6.916-6.448-8.726.666-2.795,1.777-4.346c1.342-1.865,1.381-2.833.1-5.469a42.191,42.191,0,0,0-5.887-8.8c-1.931-1.926-2.349-1.5-3.406-1.1a19.694,19.694,0,0,0-3.12,1.651,9.412,9.412,0,0,0-3.741,3.956c-.754,1.607-1.607,4.589,2.778,12.4a69.153,69.153,0,0,0,12.159,16.214h0a69.256,69.256,0,0,0,16.269,12.181c7.8,4.4,10.789,3.527,12.4,2.778a9.237,9.237,0,0,0,3.95-3.741,19.437,19.437,0,0,0,1.651-3.12C836.347,396.849,836.776,396.419,834.845,394.5Z" transform="translate(-382.243 -249.434)" fill="#35b23d"/>
    <path id="Path_454" data-name="Path 454" d="M786.726,300.86a55.018,55.018,0,1,0,54.991,55A55.018,55.018,0,0,0,786.726,300.86Zm0,102.675a47.684,47.684,0,1,1,47.684-47.684,47.684,47.684,0,0,1-47.684,47.684Z" transform="translate(-357.732 -224.97)" opacity="0.1"/>
    <circle id="Ellipse_100" data-name="Ellipse 100" cx="54.996" cy="54.996" r="54.996" transform="translate(247.648 159.419)" fill="#3f3d56"/>
    <path id="Path_455" data-name="Path 455" d="M607.34,522.344,590.873,539.1a.3.3,0,0,0,0,.429l11.554,12.286a1.988,1.988,0,1,1-2.811,2.811l-11.493-12.242a.314.314,0,0,0-.44,0l-2.8,2.828a12.308,12.308,0,0,1-8.8,3.7,12.577,12.577,0,0,1-8.957-3.807l-2.69-2.751a.314.314,0,0,0-.44,0l-11.466,12.214a1.988,1.988,0,1,1-2.811-2.811l11.51-12.258a.33.33,0,0,0,0-.429l-16.467-16.753a.3.3,0,0,0-.517.215v33.523a4.908,4.908,0,0,0,4.891,4.891h53.846a4.908,4.908,0,0,0,4.891-4.891v-33.5a.3.3,0,0,0-.528-.215Z" transform="translate(-273.418 -324.545)" fill="#35b23d"/>
    <path id="Path_456" data-name="Path 456" d="M577.6,540.618a8.33,8.33,0,0,0,6.008-2.476l23.982-24.412a4.787,4.787,0,0,0-3.026-1.1H550.676a4.753,4.753,0,0,0-3.026,1.1l23.988,24.412A8.3,8.3,0,0,0,577.6,540.618Z" transform="translate(-274.952 -320.228)" fill="#35b23d"/>
    <path id="Path_457" data-name="Path 457" d="M555.816,452.69a55.018,55.018,0,1,0,54.991,55A55.018,55.018,0,0,0,555.816,452.69Zm0,102.675A47.684,47.684,0,1,1,603.5,507.681,47.684,47.684,0,0,1,555.816,555.365Z" transform="translate(-253.865 -293.265)" opacity="0.1"/>
    <circle id="Ellipse_101" data-name="Ellipse 101" cx="54.996" cy="54.996" r="54.996" transform="translate(117.128 118.348)" fill="#3f3d56"/>
    <path id="Path_458" data-name="Path 458" d="M346.925,430.16,325,480.744l2.047,2.047,19.884-8.77,19.884,8.77,2.047-2.047Z" transform="translate(-174.8 -283.131)" fill="#35b23d"/>
    <path id="Path_459" data-name="Path 459" d="M319.846,378a54.986,54.986,0,1,0,.009,0Zm0,102.675a39.249,39.249,0,1,1,.006.022Z" transform="translate(-147.721 -259.669)" opacity="0.1"/>
    <path id="Path_460" data-name="Path 460" d="M819.459,584.349q-.748-1.827-1.535-3.642a10.809,10.809,0,0,0-1.876-3.241,3.432,3.432,0,0,0-1.1-.825,4.7,4.7,0,0,0-1.436-.286,11.458,11.458,0,0,0-2.256-.06c-.292-.088-.622-.2-.946-.336a7.857,7.857,0,0,0,5.854-7.29c0-.11,0-.226,0-.336a7.84,7.84,0,0,0-7.807-7.873,7.7,7.7,0,0,0-4.1,1.172A7.356,7.356,0,0,0,796,565.61a9.094,9.094,0,0,0-2.806,6.767c0,.116,0,.237,0,.347.143,4.275,2.9,7.7,6.393,8.049a3.665,3.665,0,0,0-1.012.677c-1.067,1.029-1.243,2.663-1.359,4.148l-.083,1.1-1.849.66a.341.341,0,0,0-.083.6l1.766,1.26v.314a1.375,1.375,0,0,0,.033.358,2.526,2.526,0,0,0-.682.974,4.5,4.5,0,0,0-.16,1.782l.066,1.535a12.056,12.056,0,0,0,.468,3.417c.231.682,1.232,2.327,1.953,2.338a71.172,71.172,0,0,0-.842,9.408c-.083.083.149.159.55.226.4,3.037,1.689,11.554,3.983,15.3a32.274,32.274,0,0,1,.864,3.719s.655,8.093,1.518,10.5a53.437,53.437,0,0,1,1.48,8.561.842.842,0,0,0-.611.627c-.435,1.309-3.252,3.3-3.252,3.3a13.62,13.62,0,0,0-2.432,1.557c-.886.8-.853,1.518,3.081,1.067,7.593-.875,8.891-3.3,8.891-3.3s-.121-.407-.3-.935a10.161,10.161,0,0,0-1-2.349c-.11-.1-.22.072-.352.347a47.115,47.115,0,0,1-.517-10.624,17.234,17.234,0,0,0-.869-6.344,12.01,12.01,0,0,1,0-4.154c.435-1.75-1.733-10.283-1.733-10.283l-1.243-6.283a1.8,1.8,0,0,1,.347.732l.033.127.033.182a.341.341,0,0,0,.088.171c.847,3.521,3.169,13.276,3.169,14.706,0,1.75,2.168,6.124,2.168,6.124s.864,7.218,2.382,10.057c1.155,2.162,1.183,5.331,1.128,6.729h0a6.231,6.231,0,0,1-.693,2.234,5.315,5.315,0,0,0-.82,1.425l-.05.1s-.649,1.315-.215,1.535a10.658,10.658,0,0,0,5.2.655s.869-1.1.869-1.53a6.891,6.891,0,0,0-.1-.781c-.16-1.034-.457-2.663-.462-2.679a7.51,7.51,0,0,0-.55-2.663l-.22-6.124a28.267,28.267,0,0,0-1.518-12.253s-1.1-3.934-.864-5.029-.435-12.687-.435-12.687l-.066-.165a12.533,12.533,0,0,1,.066-2.459,32.67,32.67,0,0,0-.869-8.308,7.209,7.209,0,0,1-.308-1.81c.05-.457.2-1.794.4-3.455a62.1,62.1,0,0,0,6.393-.55.8.8,0,0,0,.55-.22.77.77,0,0,0,.127-.446C821.912,590.6,820.707,587.4,819.459,584.349Zm-4.363,6.938c.226-1.568.468-3.087.71-4.214l.033.1a30.607,30.607,0,0,1,1.045,3.466A11.8,11.8,0,0,1,815.1,591.287Z" transform="translate(-385.403 -341.742)" fill="url(#linear-gradient)"/>
    <path id="Path_461" data-name="Path 461" d="M802.37,648.329s1.3,11.68,4.11,16.219a31.5,31.5,0,0,1,.864,3.675s.649,8,1.513,10.376,1.513,8.869,1.513,8.869,3.026,3.455,4.11.649a45.564,45.564,0,0,1-.649-11.246,16.935,16.935,0,0,0-.864-6.272,11.729,11.729,0,0,1,0-4.1c.429-1.733-1.733-10.162-1.733-10.162l-1.728-8.434Z" transform="translate(-389.53 -381.074)" fill="#be6f72"/>
    <path id="Path_462" data-name="Path 462" d="M816.988,722.249s-1.3,2.377-8.863,3.241c-3.928.446-3.956-.264-3.07-1.056a13.693,13.693,0,0,1,2.421-1.54s2.811-1.942,3.241-3.241,1.948-.215,1.948-.215c2.162,3.241,2.6-.869,3.026-.435a9.76,9.76,0,0,1,1,2.316C816.867,721.842,816.988,722.249,816.988,722.249Z" transform="translate(-390.525 -413.043)" fill="#ff6f61"/>
    <path id="Path_463" data-name="Path 463" d="M816.988,724.17s-1.3,2.377-8.863,3.241c-3.928.446-3.956-.264-3.07-1.056.616.391,1.86.55,4.363-.457,3.6-1.474,6.217-2.327,7.268-2.657C816.867,723.763,816.988,724.17,816.988,724.17Z" transform="translate(-390.525 -414.964)" opacity="0.1"/>
    <path id="Path_464" data-name="Path 464" d="M818.441,676.873a16.936,16.936,0,0,0-.864-6.272,11.727,11.727,0,0,1,0-4.1c.429-1.733-1.733-10.162-1.733-10.162l-1.728-8.434-1.5.088,1.711,8.346s2.162,8.429,1.733,10.162a11.73,11.73,0,0,0,0,4.1,16.44,16.44,0,0,1,.864,6.272,45.564,45.564,0,0,0,.649,11.246,1.894,1.894,0,0,1-.627.891,1.413,1.413,0,0,0,2.14-.891A45.57,45.57,0,0,1,818.441,676.873Z" transform="translate(-394.14 -381.074)" opacity="0.1"/>
    <path id="Path_465" data-name="Path 465" d="M808.264,562.42a7.7,7.7,0,0,0-4.082,1.161,7.345,7.345,0,0,0-8.253,3.934,8.957,8.957,0,0,0-2.8,6.69c0,4.6,3.1,8.324,6.916,8.324a6.984,6.984,0,0,0,6.267-4.792,7.6,7.6,0,0,0,1.948.253,7.785,7.785,0,1,0,0-15.57Z" transform="translate(-385.372 -342.624)" fill="#3f3d56"/>
    <path id="Path_466" data-name="Path 466" d="M825.142,650.65l.649,1.728s.649,11.46.429,12.544.869,4.952.869,4.952a27.679,27.679,0,0,1,1.513,12.1l.215,6.052s.864,2.377.435,2.811-3.692-.385-3.692-.385.435-4.539-1.1-7.35-2.377-9.947-2.377-9.947-2.162-4.324-2.162-6.052-3.461-15.785-3.461-15.785Z" transform="translate(-395.868 -382.311)" fill="#be6f72"/>
    <path id="Path_467" data-name="Path 467" d="M801.566,639.132s.22-7.785,1.1-10.162a16.134,16.134,0,0,0,.963-3.45s13.089,2.366,14.173,1.5a18.771,18.771,0,0,0,.435,3.241,31.091,31.091,0,0,1,.864,8.22c-.237,2.6,0,2.591,0,2.591s-8.869,1.3-9.083,0-.864-1.293-.864-1.293S801.137,639.539,801.566,639.132Z" transform="translate(-389.161 -371.007)" fill="#3f3d56"/>
    <g id="Group_39" data-name="Group 39" transform="translate(412.406 256.015)" opacity="0.1">
      <path id="Path_468" data-name="Path 468" d="M808.716,649.9s-5.469-.149-7.119-.446v.446c-.429.429,7.57.649,7.57.649a.55.55,0,0,1,.3.121C809.172,649.9,808.716,649.9,808.716,649.9Z" transform="translate(-801.58 -637.786)"/>
      <path id="Path_469" data-name="Path 469" d="M825.076,631.491a18.771,18.771,0,0,1-.435-3.241.931.931,0,0,1-.369.132,10.93,10.93,0,0,0,.369,2.459,34.344,34.344,0,0,1,.864,8.22c-.237,2.6,0,2.591,0,2.591s-7.015,1.029-8.715.341a2.611,2.611,0,0,0,.066.308c.215,1.3,9.083,0,9.083,0s-.22,0,0-2.591A32.142,32.142,0,0,0,825.076,631.491Z" transform="translate(-808.422 -628.25)"/>
      <path id="Path_470" data-name="Path 470" d="M808.716,649.9s-5.469-.149-7.119-.446v.446c-.429.429,7.57.649,7.57.649a.55.55,0,0,1,.3.121C809.172,649.9,808.716,649.9,808.716,649.9Z" transform="translate(-801.58 -637.786)"/>
      <path id="Path_471" data-name="Path 471" d="M825.076,631.491a18.771,18.771,0,0,1-.435-3.241.931.931,0,0,1-.369.132,10.93,10.93,0,0,0,.369,2.459,34.344,34.344,0,0,1,.864,8.22c-.237,2.6,0,2.591,0,2.591s-7.015,1.029-8.715.341a2.611,2.611,0,0,0,.066.308c.215,1.3,9.083,0,9.083,0s-.22,0,0-2.591A32.142,32.142,0,0,0,825.076,631.491Z" transform="translate(-808.422 -628.25)"/>
    </g>
    <path id="Path_472" data-name="Path 472" d="M815.095,585.362a2.866,2.866,0,0,0,.825,1.067,1.849,1.849,0,0,0,.776.336c-.484.281-1.012.49-1.5.77a26.584,26.584,0,0,0-2.2,1.651,4.478,4.478,0,0,1-2.525.979,3.092,3.092,0,0,0,.352-3.076,2.873,2.873,0,0,1-.385-1.067,1.918,1.918,0,0,1,1.062-1.43c.413-.281.836-.55,1.265-.82.336-.209.842-.649,1.265-.633s.473.391.55.776A6.1,6.1,0,0,0,815.095,585.362Z" transform="translate(-393.16 -351.944)" fill="#be6f72"/>
    <path id="Path_473" data-name="Path 473" d="M815.095,585.362a2.866,2.866,0,0,0,.825,1.067,1.849,1.849,0,0,0,.776.336c-.484.281-1.012.49-1.5.77a26.584,26.584,0,0,0-2.2,1.651,4.478,4.478,0,0,1-2.525.979,3.092,3.092,0,0,0,.352-3.076,2.873,2.873,0,0,1-.385-1.067,1.918,1.918,0,0,1,1.062-1.43c.413-.281.836-.55,1.265-.82.336-.209.842-.649,1.265-.633s.473.391.55.776A6.1,6.1,0,0,0,815.095,585.362Z" transform="translate(-393.16 -351.944)" opacity="0.1"/>
    <circle id="Ellipse_102" data-name="Ellipse 102" cx="4.974" cy="4.974" r="4.974" transform="translate(422.028 236.23)" fill="#be6f72"/>
    <path id="Path_474" data-name="Path 474" d="M835.809,725.435c0,.435-.864,1.513-.864,1.513a10.706,10.706,0,0,1-5.188-.649c-.435-.214.215-1.513.215-1.513l.05-.1a5.249,5.249,0,0,1,.82-1.409,6.156,6.156,0,0,0,.688-2.2c1.342-2.2,3.725.952,3.725.952s.3,1.651.462,2.652A7.528,7.528,0,0,1,835.809,725.435Z" transform="translate(-401.782 -413.637)" fill="#ff6f61"/>
    <path id="Path_475" data-name="Path 475" d="M835.809,729.01c0,.435-.864,1.513-.864,1.513a10.708,10.708,0,0,1-5.188-.649c-.435-.215.215-1.513.215-1.513l.05-.1a10.453,10.453,0,0,0,4.71.968l.985-.985C835.771,728.609,835.809,728.9,835.809,729.01Z" transform="translate(-401.782 -417.213)" opacity="0.1"/>
    <circle id="Ellipse_103" data-name="Ellipse 103" cx="4.864" cy="4.864" r="4.864" transform="translate(412.191 225.958)" fill="#be6f72"/>
    <path id="Path_476" data-name="Path 476" d="M801.612,599.076c-1.067,1.018-1.243,2.63-1.354,4.1l-.165,2.151a10.856,10.856,0,0,0-.038,1.744c0,.358.088.721.121,1.1s.044.858.05,1.293v3.18a3.751,3.751,0,0,0,.352,1.909,1.3,1.3,0,0,0,1.651.594,1.881,1.881,0,0,0,.682-1.056,16.42,16.42,0,0,0,1.1-4.027c.044-.479.049-.957.094-1.436s.126-.979.2-1.463c.308-2.025.446-4.071.583-6.112.038-.605.583-2.988-.209-3.252-.385-.127-1.183.27-1.552.4A4.369,4.369,0,0,0,801.612,599.076Z" transform="translate(-388.48 -358.527)" fill="#be6f72"/>
    <path id="Path_477" data-name="Path 477" d="M801.612,599.076c-1.067,1.018-1.243,2.63-1.354,4.1l-.165,2.151a10.856,10.856,0,0,0-.038,1.744c0,.358.088.721.121,1.1s.044.858.05,1.293v3.18a3.751,3.751,0,0,0,.352,1.909,1.3,1.3,0,0,0,1.651.594,1.881,1.881,0,0,0,.682-1.056,16.42,16.42,0,0,0,1.1-4.027c.044-.479.049-.957.094-1.436s.126-.979.2-1.463c.308-2.025.446-4.071.583-6.112.038-.605.583-2.988-.209-3.252-.385-.127-1.183.27-1.552.4A4.369,4.369,0,0,0,801.612,599.076Z" transform="translate(-388.48 -358.527)" opacity="0.1"/>
    <path id="Path_478" data-name="Path 478" d="M813.691,588.16s-3.675,2.811-5.837,3.461c0,0-1.282,1.464-1.5,1.816s-.66,4.236-1.1,5.106-1.513,2.811,0,4.754a8.243,8.243,0,0,1,.215,2.6c-.215.649-1,3.026-.286,3.136s2.883,1.618,4.825,1.188,9.194,1.651,9.194,1.651,1.2-11.141,2.069-13.111l-1.948-.649s-5.4-3.241-2.162-8.214C817.152,589.893,814.115,589.244,813.691,588.16Z" transform="translate(-390.474 -354.202)" fill="#ff6f61"/>
    <path id="Path_479" data-name="Path 479" d="M796.727,610.685l4.467,3.164a.33.33,0,0,0,.391,0l1.21-.908a.341.341,0,0,0,0-.517l-3.439-3.054a.33.33,0,0,0-.336-.066l-2.206.792a.336.336,0,0,0-.088.589Z" transform="translate(-386.929 -363.704)" fill="#3f3d56"/>
    <path id="Path_480" data-name="Path 480" d="M799.111,622.189a11.973,11.973,0,0,1-.468-3.373l-.066-1.524a4.4,4.4,0,0,1,.16-1.761,2.877,2.877,0,0,1,1.854-1.623,6.4,6.4,0,0,1,2.525-.182.65.65,0,0,1,.325.088.606.606,0,0,1,.176.3,1.992,1.992,0,0,1,.1,1.59,1.65,1.65,0,0,1-.506.523c-.6.429-1.3.715-1.865,1.183a.677.677,0,0,0-.253.319.744.744,0,0,0,0,.347,5.541,5.541,0,0,0,.286.886.875.875,0,0,0,.248.374c.1.088.242.121.352.2.237.193.732.446.7.748a24.657,24.657,0,0,1-1,3.422C801.185,625.837,799.43,623.119,799.111,622.189Z" transform="translate(-387.811 -365.68)" fill="#be6f72"/>
    <g id="Group_40" data-name="Group 40" transform="translate(418.128 244.23)" opacity="0.1">
      <path id="Path_481" data-name="Path 481" d="M812.1,628.208h-.121a3.7,3.7,0,0,0,1.414,0h.138A4.953,4.953,0,0,0,812.1,628.208Z" transform="translate(-811.98 -616.423)"/>
      <path id="Path_482" data-name="Path 482" d="M831.094,606.83c-.776,1.744-1.92,11.191-2.124,13.067.759.2,1.26.341,1.26.341s1.188-11.114,2.058-13.083Z" transform="translate(-819.622 -606.83)"/>
    </g>
    <path id="Path_483" data-name="Path 483" d="M820.992,596.761a1.651,1.651,0,0,0,.71,1.073,9.521,9.521,0,0,1,1.26,1.276,9.039,9.039,0,0,1,1.249,2.5,30.674,30.674,0,0,1,1.04,3.422c-2.751,1.276-5.876,1.216-8.8,2.058a7.026,7.026,0,0,0-3.3,1.953,4.55,4.55,0,0,0-1.216,3.582.468.468,0,0,0,.066.215.462.462,0,0,0,.385.154,3.3,3.3,0,0,0,2.019-.693,9.608,9.608,0,0,0,1.546-1.519,2.487,2.487,0,0,1,1.1-.814,18.008,18.008,0,0,1,4.952-.484,62.392,62.392,0,0,0,7.378-.583.594.594,0,0,0,.66-.66c.242-3.246-.963-6.415-2.2-9.425q-.743-1.81-1.53-3.6a10.674,10.674,0,0,0-1.871-3.2,3.3,3.3,0,0,0-1.1-.814,4.653,4.653,0,0,0-1.474-.275,10.456,10.456,0,0,0-2.415-.044,5.146,5.146,0,0,0-.231,1.249,10.82,10.82,0,0,0,1.331,4.22C820.629,596.552,820.866,596.563,820.992,596.761Z" transform="translate(-393.82 -355.403)" fill="#be6f72"/>
    <path id="Path_484" data-name="Path 484" d="M811.96,606.67a4.033,4.033,0,0,0-.55,2.1,2.829,2.829,0,0,0,.138.858,2.784,2.784,0,0,0,1.755,1.651" transform="translate(-393.595 -362.528)" fill="none" stroke="#000" stroke-miterlimit="10" stroke-width="1" opacity="0.1"/>
    <path id="Path_485" data-name="Path 485" d="M809.358,572.4a2.523,2.523,0,0,0-.8.127,5.275,5.275,0,0,0-4.4-1.86c-2.63,0-4.759,1.359-4.759,3.031s2.129,3.026,4.759,3.026a6.7,6.7,0,0,0,2.855-.605,2.591,2.591,0,1,0,2.333-3.719Z" transform="translate(-388.194 -346.335)" fill="#3f3d56"/>
    <path id="Path_486" data-name="Path 486" d="M809.564,578.642a2.586,2.586,0,0,1-2.333-1.469,6.7,6.7,0,0,1-2.855.606c-2.624,0-4.754-1.353-4.754-3.026a1.822,1.822,0,0,1,0-.3,2.053,2.053,0,0,0-.242.952c0,1.651,2.129,3.026,4.759,3.026a6.7,6.7,0,0,0,2.855-.605,2.591,2.591,0,0,0,4.88-.644,2.581,2.581,0,0,1-2.311,1.464Z" transform="translate(-388.185 -348.035)" opacity="0.1"/>
    <path id="Path_487" data-name="Path 487" d="M795.916,568.791a7.345,7.345,0,0,1,8.253-3.934,7.78,7.78,0,0,1,11.84,5.975v-.649a7.78,7.78,0,0,0-11.867-6.6,7.345,7.345,0,0,0-8.253,3.934,8.957,8.957,0,0,0-2.8,6.69v.649A8.8,8.8,0,0,1,795.916,568.791Z" transform="translate(-385.354 -342.624)" opacity="0.1"/>
    <path id="Path_488" data-name="Path 488" d="M883.342,529.108c1.436-2.657-.193-5.92-2.069-8.291s-4.154-4.836-4.1-7.862c.066-4.341,4.677-6.9,8.363-9.21a40.662,40.662,0,0,0,7.5-6.052,10.965,10.965,0,0,0,2.311-3.087,12.68,12.68,0,0,0,.693-5.5q-.242-9.3-.919-18.574" transform="translate(-423.175 -301.29)" fill="none" stroke="#3f3d56" stroke-miterlimit="10" stroke-width="4"/>
    <path id="Path_489" data-name="Path 489" d="M911.451,464.652a6.762,6.762,0,0,0-3.378-5.546l-1.518,3,.044-3.631a6.646,6.646,0,0,0-2.228-.27,6.773,6.773,0,1,0,7.081,6.448Z" transform="translate(-432.507 -295.742)" fill="#35b23d"/>
    <path id="Path_490" data-name="Path 490" d="M890.108,545.19a6.773,6.773,0,1,1,.325-5.458l-4.231,3.444,4.655-1.1A6.734,6.734,0,0,1,890.108,545.19Z" transform="translate(-423.24 -330.434)" fill="#35b23d"/>
    <path id="Path_491" data-name="Path 491" d="M888.686,518.283A6.773,6.773,0,0,1,886.535,505l-.033,2.789,1.535-3.032h0a6.775,6.775,0,1,1,.633,13.534Z" transform="translate(-425.163 -316.681)" fill="#35b23d"/>
    <path id="Path_492" data-name="Path 492" d="M918.551,498.4a6.773,6.773,0,1,1,3-12.654l-1.2,3.3,2.465-2.366a6.734,6.734,0,0,1,2.2,4.677,6.536,6.536,0,0,1-.171,1.865A6.773,6.773,0,0,1,918.551,498.4Z" transform="translate(-438.588 -307.739)" fill="#35b23d"/>
    <path id="Path_493" data-name="Path 493" d="M910.538,469.49c-1.562.176-3.086.66-4.655.759a5.046,5.046,0,0,1-4.286-1.5,21.021,21.021,0,0,1-1.249-2.2,4.869,4.869,0,0,0-1.706-1.607,6.773,6.773,0,1,0,12.654,4.495C911.044,469.446,910.791,469.462,910.538,469.49Z" transform="translate(-432.501 -298.776)" opacity="0.1"/>
    <path id="Path_494" data-name="Path 494" d="M918.574,501.571a6.778,6.778,0,0,1-6.443-9.661,5.011,5.011,0,0,1,1.365,1.359,21.725,21.725,0,0,0,1.342,2.239,5.511,5.511,0,0,0,4.49,1.573c1.634-.077,3.213-.55,4.842-.688.226,0,.457-.039.682-.044a6.773,6.773,0,0,1-6.277,5.221Z" transform="translate(-438.611 -310.907)" opacity="0.1"/>
    <path id="Path_495" data-name="Path 495" d="M888.687,521.546a6.767,6.767,0,0,1-6.5-9.546,5.586,5.586,0,0,1,1.431,1.375c.55.743.853,1.6,1.469,2.283a6.27,6.27,0,0,0,4.8,1.684c1.733-.039,3.3-.451,4.952-.578A6.773,6.773,0,0,1,888.687,521.546Z" transform="translate(-425.164 -319.944)" opacity="0.1"/>
    <path id="Path_496" data-name="Path 496" d="M890.14,548.762a6.778,6.778,0,0,1-12.352-5.5,6.633,6.633,0,0,1,1.486,1.326c.649.787,1.073,1.651,1.816,2.41a8.507,8.507,0,0,0,5.612,1.97,29.671,29.671,0,0,0,3.439-.2Z" transform="translate(-423.271 -334.005)" opacity="0.1"/>
    <path id="Path_497" data-name="Path 497" d="M1042.342,681.108c1.436-2.657-.193-5.92-2.069-8.291s-4.154-4.836-4.1-7.862c.066-4.341,4.677-6.9,8.363-9.21a40.659,40.659,0,0,0,7.5-6.052,10.965,10.965,0,0,0,2.311-3.087,12.678,12.678,0,0,0,.693-5.5q-.237-9.3-.919-18.574" transform="translate(-494.696 -369.662)" fill="none" stroke="#3f3d56" stroke-miterlimit="10" stroke-width="4"/>
    <path id="Path_498" data-name="Path 498" d="M1070.474,616.652a6.762,6.762,0,0,0-3.378-5.546l-1.518,3,.044-3.631a6.645,6.645,0,0,0-2.2-.27,6.773,6.773,0,1,0,7.081,6.448Z" transform="translate(-504.05 -364.115)" fill="#35b23d"/>
    <path id="Path_499" data-name="Path 499" d="M1049.108,697.191a6.773,6.773,0,1,1,.325-5.458l-4.231,3.444,4.654-1.1a6.732,6.732,0,0,1-.748,3.114Z" transform="translate(-494.761 -398.806)" fill="#35b23d"/>
    <path id="Path_500" data-name="Path 500" d="M1047.686,670.283A6.773,6.773,0,0,1,1045.535,657l-.033,2.789,1.535-3.031h0a6.775,6.775,0,1,1,.633,13.535Z" transform="translate(-496.684 -385.054)" fill="#35b23d"/>
    <path id="Path_501" data-name="Path 501" d="M1077.551,650.4a6.773,6.773,0,1,1,3-12.654l-1.2,3.3,2.465-2.366a6.734,6.734,0,0,1,2.2,4.677,6.54,6.54,0,0,1-.171,1.865A6.773,6.773,0,0,1,1077.551,650.4Z" transform="translate(-510.109 -376.111)" fill="#35b23d"/>
    <path id="Path_502" data-name="Path 502" d="M1069.538,621.49c-1.562.176-3.087.66-4.655.759a5.046,5.046,0,0,1-4.286-1.5,21.021,21.021,0,0,1-1.249-2.2,4.869,4.869,0,0,0-1.706-1.607,6.773,6.773,0,1,0,12.654,4.495C1070.044,621.446,1069.791,621.463,1069.538,621.49Z" transform="translate(-504.022 -367.148)" opacity="0.1"/>
    <path id="Path_503" data-name="Path 503" d="M1077.574,653.571a6.778,6.778,0,0,1-6.443-9.661,5.012,5.012,0,0,1,1.364,1.359,21.741,21.741,0,0,0,1.342,2.239,5.511,5.511,0,0,0,4.49,1.573c1.634-.077,3.213-.55,4.842-.688.226,0,.457-.039.682-.044A6.773,6.773,0,0,1,1077.574,653.571Z" transform="translate(-510.132 -379.28)" opacity="0.1"/>
    <path id="Path_504" data-name="Path 504" d="M1047.687,673.546a6.767,6.767,0,0,1-6.5-9.546,5.584,5.584,0,0,1,1.43,1.375c.55.743.853,1.6,1.469,2.283a6.269,6.269,0,0,0,4.8,1.684c1.733-.039,3.3-.451,4.952-.578A6.773,6.773,0,0,1,1047.687,673.546Z" transform="translate(-496.685 -388.316)" opacity="0.1"/>
    <path id="Path_505" data-name="Path 505" d="M1049.14,700.762a6.778,6.778,0,0,1-12.352-5.5,6.637,6.637,0,0,1,1.486,1.326c.649.787,1.1,1.651,1.816,2.41a8.507,8.507,0,0,0,5.612,1.97A29.682,29.682,0,0,0,1049.14,700.762Z" transform="translate(-494.792 -402.378)" opacity="0.1"/>
    <path id="Path_506" data-name="Path 506" d="M469.69,575.279a5.4,5.4,0,0,0-2.151-4.357,6.327,6.327,0,0,0-5.287-6.206,6.316,6.316,0,0,0-4.209-4.7h0a5.371,5.371,0,0,0-.781-.182h-.93a6.2,6.2,0,0,0-5.986,5.293c-1.931-.446-3.7.132-4.022,1.354a1.651,1.651,0,0,0,.055.979,4.258,4.258,0,0,0,2.839,2.3l.187.055.281.071h.061a4.864,4.864,0,0,0-.462,2.085,4.809,4.809,0,0,0,2.591,4.291l-.127.077a1.716,1.716,0,0,0-.418.583,8.727,8.727,0,0,0-.809,1.948c-.138.583-.16,1.188-.33,1.766-.319,1.062-1.133,1.959-1.227,3.065-.044.5.039,1.1-.314,1.419a1.713,1.713,0,0,1-.281.2,2.27,2.27,0,0,0-.611.644,2.135,2.135,0,0,1-.429.616c-.319.237-.842.215-1,.583s.248.8.154,1.2-.435.479-.682.7a2.448,2.448,0,0,0-.589,1.1,3.609,3.609,0,0,1-2.971-.759,5.555,5.555,0,0,1,.308,1.1,4.821,4.821,0,0,0-1.6-.8,5.055,5.055,0,0,1-1.706-1.265l.913-.127-4.033-6.156-1.194-.248L436,583.961a.655.655,0,0,0-.363.435,1.865,1.865,0,0,0-.039.7,12.506,12.506,0,0,0,.275,1.651l.308,1.441c.027.132.061.27.1.4a3.791,3.791,0,0,0-1.194.132,10.386,10.386,0,0,0-2.481-.589,1.375,1.375,0,0,0-.55,0,1.425,1.425,0,0,0-.523.424,16.923,16.923,0,0,0-1.843,2.6,90.652,90.652,0,0,1-7.78,10.481c-1.871.759-3.758,1.48-5.645,2.2l-4.06,1.552a6.156,6.156,0,0,1-2.52.55c-.385,0-.864-.083-1.1.248a2.317,2.317,0,0,0-.248.55l-.418.044h0a4.808,4.808,0,0,0-.974-1.794.616.616,0,0,0-.457.352c-.1.182-.16.38-.275.55-.215.319-.594.473-.864.743s-.44.688-.737.963a2.915,2.915,0,0,1-1.381.55,8.716,8.716,0,0,0-2.162.82,3.485,3.485,0,0,1-.8.369,3,3,0,0,1-.941.033l-2.146-.16a1.7,1.7,0,0,0-.578.028,1.1,1.1,0,0,0-.682,1.1,1.733,1.733,0,0,0,.682,1.183,4.368,4.368,0,0,0,1.221.633,35.847,35.847,0,0,0,5.722,1.695v.435a9.766,9.766,0,0,0,4.4,1.045.683.683,0,0,0,.33-.06.726.726,0,0,0,.275-.429,17.7,17.7,0,0,0,.858-4.214h0a2.2,2.2,0,0,0,.776-.2c.737-.2,1.474.3,2.239.385a6.117,6.117,0,0,0,2.7-.781l.385-.127a4.225,4.225,0,0,1-.891.853c-.369.264-.781.462-1.139.737a7.843,7.843,0,0,1-.968.748,6.052,6.052,0,0,1-.743.286,4.9,4.9,0,0,0-1.062.55,2.151,2.151,0,0,0-.721.7,1.057,1.057,0,0,0-.06.99,1.045,1.045,0,0,0,.71.5,2.911,2.911,0,0,0,.875,0c1.166-.088,2.327-.193,3.488-.3a9.307,9.307,0,0,0,1.458-.209c.253-.061.506-.143.759-.215a6.772,6.772,0,0,1,1.326-.2,1.1,1.1,0,0,1,.385.038c.27.088.462.363.737.418a1.1,1.1,0,0,0,.55-.072,12.269,12.269,0,0,1,2.58-.275,1.065,1.065,0,0,0,1-.446c.176-.352-.143-.919-.286-1.386a4.244,4.244,0,0,1-.121-.913,5.717,5.717,0,0,0-.638-2.168,5.658,5.658,0,0,1-.479-.99,25.021,25.021,0,0,0,4.748-2.41,8.489,8.489,0,0,1,2.707-1.3,7.362,7.362,0,0,1,3.4.4,77.379,77.379,0,0,1,7.8,2.718c1.216.5,2.426,1.029,3.681,1.409a5.738,5.738,0,0,0,1.309,1.271,6.053,6.053,0,0,0,2.833.776,37.155,37.155,0,0,0,3.989.149,6.729,6.729,0,0,0,2.971-.55,3.053,3.053,0,0,0,.622-.413,2.465,2.465,0,0,0,1.959-.721,4.748,4.748,0,0,0,1.491-2.355c.325-1.254.077-2.751.847-3.752.2-.275.473-.5.677-.77a2.168,2.168,0,0,0,.352-1.271.257.257,0,0,1,.033-.049,4.661,4.661,0,0,0,.33-1.265,7.233,7.233,0,0,1,.358-1,30.914,30.914,0,0,0,1.023-2.965,17.326,17.326,0,0,0,.473-2.036c.083-.55.132-1.1.176-1.651a10.251,10.251,0,0,1,.5-2.547,20.732,20.732,0,0,0,1.155-6.1v-.121a4.088,4.088,0,0,0,3.62-4.159,4.34,4.34,0,0,0-.38-1.777,5.5,5.5,0,0,0,.737-2.773ZM450,599.2c.061.215.132.424.2.633-.325-.314-.638-.638-.963-.957.127.044.259.083.38.132a2.052,2.052,0,0,1,.363.193Zm-1.557-1.056c-1.9-1.651-4.1-2.932-6.052-4.533,1.062.523,2.1,1.133,3.12,1.717q1.821,1.04,3.692,2a3.02,3.02,0,0,1-.776.82Zm.809-4.159.094-.094v.655l-.512-.176a4.558,4.558,0,0,0,.4-.385Zm-16.742,4.456a15.753,15.753,0,0,0,2.025-2.888,19.443,19.443,0,0,0,3.021,3.373C435.882,598.706,434.2,598.524,432.515,598.436Z" transform="translate(-206.703 -341.459)" fill="url(#linear-gradient-2)"/>
    <path id="Path_507" data-name="Path 507" d="M415.35,438.25l1.2.242,4.088,6.047-1.8.242Z" transform="translate(-186.832 -197.294)" fill="#2f2e41"/>
    <path id="Path_508" data-name="Path 508" d="M414.49,645.411a23.534,23.534,0,0,0,1.2,3.12,29.7,29.7,0,0,0,3.989-1.139,12.558,12.558,0,0,0-.831-1.1,4.1,4.1,0,0,0-1.128-.864,3.1,3.1,0,0,0-1.37,0C415.733,645.411,415.112,645.422,414.49,645.411Z" transform="translate(-215.054 -379.928)" fill="#fbbebe"/>
    <path id="Path_509" data-name="Path 509" d="M409.322,645.606a2.487,2.487,0,0,1-1.364-1.552,5,5,0,0,0-1.04-1.854.594.594,0,0,0-.462.347c-.1.176-.16.374-.27.55-.22.314-.605.468-.88.732s-.44.677-.737.946a2.926,2.926,0,0,1-1.392.55,9.027,9.027,0,0,0-2.2.809,3.8,3.8,0,0,1-.809.363,3.2,3.2,0,0,1-.946,0l-2.168-.154a1.7,1.7,0,0,0-.55,0,1.051,1.051,0,0,0-.688,1.1,1.651,1.651,0,0,0,.688,1.166,4.568,4.568,0,0,0,1.232.627,36.269,36.269,0,0,0,5.81,1.651v.429a10.056,10.056,0,0,0,4.429,1.029.747.747,0,0,0,.33-.055.726.726,0,0,0,.275-.429,17.166,17.166,0,0,0,.908-4.71,3.753,3.753,0,0,0-.094-1.216c-.121-.391.286-.226-.088-.38" transform="translate(-206.651 -378.51)" fill="#2f2e41"/>
    <path id="Path_510" data-name="Path 510" d="M461.043,632.138c-6.426.385-12.775-1.5-19.212-1.695a9.382,9.382,0,0,0-2.388.149,12.032,12.032,0,0,0-2.366.919c-3.45,1.607-7.02,2.938-10.586,4.264l-4.1,1.524a6.207,6.207,0,0,1-2.536.55c-.391,0-.869-.083-1.1.242-.666.99-.352,2.437.088,3.549.143.358.385.748.77.787a2.238,2.238,0,0,0,.781-.2c.743-.2,1.486.3,2.256.385a6.339,6.339,0,0,0,2.723-.77,23.629,23.629,0,0,1,4.666-.792,20.9,20.9,0,0,0,7.306-3.031,8.529,8.529,0,0,1,2.723-1.287,7.538,7.538,0,0,1,3.428.391,78.682,78.682,0,0,1,7.862,2.674,36.631,36.631,0,0,0,4.1,1.5,14.855,14.855,0,0,0,9.2-.55c1.029-.407,2.146-1.1,2.2-2.234.039-.633-.457-1.188-.781-1.733-.209-.347-.424-.693-.649-1.029C464.339,634.157,463,632.022,461.043,632.138Z" transform="translate(-216.801 -373.213)" fill="#2f2e41"/>
    <path id="Path_511" data-name="Path 511" d="M461.043,632.138c-6.426.385-12.775-1.5-19.212-1.695a9.382,9.382,0,0,0-2.388.149,12.032,12.032,0,0,0-2.366.919c-3.45,1.607-7.02,2.938-10.586,4.264l-4.1,1.524a6.207,6.207,0,0,1-2.536.55c-.391,0-.869-.083-1.1.242-.666.99-.352,2.437.088,3.549.143.358.385.748.77.787a2.238,2.238,0,0,0,.781-.2c.743-.2,1.486.3,2.256.385a6.339,6.339,0,0,0,2.723-.77,23.629,23.629,0,0,1,4.666-.792,20.9,20.9,0,0,0,7.306-3.031,8.529,8.529,0,0,1,2.723-1.287,7.538,7.538,0,0,1,3.428.391,78.682,78.682,0,0,1,7.862,2.674,36.631,36.631,0,0,0,4.1,1.5,14.855,14.855,0,0,0,9.2-.55c1.029-.407,2.146-1.1,2.2-2.234.039-.633-.457-1.188-.781-1.733-.209-.347-.424-.693-.649-1.029C464.339,634.157,463,632.022,461.043,632.138Z" transform="translate(-216.801 -373.213)" opacity="0.1"/>
    <path id="Path_512" data-name="Path 512" d="M436.92,643.813q1.508.512,3.043.946c.55-.941,1.651-1.6,1.887-2.674a.252.252,0,0,0,0-.143.264.264,0,0,0-.116-.1,5.765,5.765,0,0,0-2.388-.7c-.66-.039-.963.649-1.26,1.133C437.971,642.487,437.19,643.917,436.92,643.813Z" transform="translate(-225.144 -378.032)" fill="#fbbebe"/>
    <path id="Path_513" data-name="Path 513" d="M431.356,643.532a2.2,2.2,0,0,1-1.48-.974c-.138-.248-.292-.583-.578-.55s-.38.33-.44.589a16.506,16.506,0,0,1-.831,2.856,5.359,5.359,0,0,1-1.777,2.338c-.374.259-.787.451-1.155.726a7.937,7.937,0,0,1-.974.737,5.783,5.783,0,0,1-.748.275,5.184,5.184,0,0,0-1.067.55,2.118,2.118,0,0,0-.732.7,1.007,1.007,0,0,0-.055.974,1.04,1.04,0,0,0,.71.484,2.992,2.992,0,0,0,.886,0c1.172-.083,2.344-.187,3.516-.292a10.139,10.139,0,0,0,1.469-.2l.765-.209a6.084,6.084,0,0,1,1.337-.2,1.041,1.041,0,0,1,.391.039c.27.088.462.358.743.413a1.242,1.242,0,0,0,.55-.071,12.151,12.151,0,0,1,2.6-.27A1.1,1.1,0,0,0,435.5,651c.22-.429-.143-.908-.292-1.37a4.4,4.4,0,0,1-.121-.9,5.469,5.469,0,0,0-.644-2.135c-.3-.55-.7-1.155-.5-1.739a1.65,1.65,0,0,0,.2-.6C434.063,643.318,431.895,643.653,431.356,643.532Z" transform="translate(-218.171 -378.423)" fill="#2f2e41"/>
    <path id="Path_514" data-name="Path 514" d="M473.994,610.18a5.018,5.018,0,0,1-2.564-2.542c-.1-.242-.193-.5-.3-.743a5.646,5.646,0,0,0-1.529-2.129.754.754,0,0,0-.55-.237.6.6,0,0,0-.413.446,1.7,1.7,0,0,0-.044.688,12.256,12.256,0,0,0,.275,1.606l.314,1.419a3.118,3.118,0,0,0,.193.633,2.2,2.2,0,0,0,.523.622c.286.264.578.517.869.77a2.99,2.99,0,0,0,.55.38,3.2,3.2,0,0,0,.974.286,8.285,8.285,0,0,1,3.653,1.408v-1.056a1.4,1.4,0,0,0-.275-.765A4.88,4.88,0,0,0,473.994,610.18Z" transform="translate(-239.385 -361.566)" fill="#fbbebe"/>
    <path id="Path_515" data-name="Path 515" d="M473.994,610.18a5.018,5.018,0,0,1-2.564-2.542c-.1-.242-.193-.5-.3-.743a5.646,5.646,0,0,0-1.529-2.129.754.754,0,0,0-.55-.237.6.6,0,0,0-.413.446,1.7,1.7,0,0,0-.044.688,12.256,12.256,0,0,0,.275,1.606l.314,1.419a3.118,3.118,0,0,0,.193.633,2.2,2.2,0,0,0,.523.622c.286.264.578.517.869.77a2.99,2.99,0,0,0,.55.38,3.2,3.2,0,0,0,.974.286,8.285,8.285,0,0,1,3.653,1.408v-1.056a1.4,1.4,0,0,0-.275-.765A4.88,4.88,0,0,0,473.994,610.18Z" transform="translate(-239.385 -361.566)" opacity="0.1"/>
    <ellipse id="Ellipse_104" data-name="Ellipse 104" cx="1.563" cy="1.574" rx="1.563" ry="1.574" transform="translate(246.13 234.607)" fill="#2f2e41"/>
    <path id="Path_516" data-name="Path 516" d="M491.6,590.442a1.689,1.689,0,0,0-1.232.176,1.711,1.711,0,0,0-.424.578,8.39,8.39,0,0,0-.814,1.915c-.138.55-.16,1.172-.336,1.739-.319,1.045-1.139,1.931-1.232,3.021-.044.49.039,1.062-.319,1.392a2.022,2.022,0,0,1-.281.2,2.113,2.113,0,0,0-.616.633,2.075,2.075,0,0,1-.435.6c-.319.237-.847.215-1,.55s.248.792.154,1.188-.44.473-.688.693a2.4,2.4,0,0,0-.594,1.1,3.67,3.67,0,0,1-2.993-.743,9.529,9.529,0,0,1,.468,3.422,1.4,1.4,0,0,1-.275,1.056,19.06,19.06,0,0,1,3.67.638,2.531,2.531,0,0,0,1.6,0,2.675,2.675,0,0,0,.737-.583,4.7,4.7,0,0,0,1.513-2.333,13.705,13.705,0,0,0,.027-1.579,8.9,8.9,0,0,1,.4-1.92,22.846,22.846,0,0,0,.7-3.95c.072-.825.787-1.485,1.161-2.2a10.775,10.775,0,0,0,1.48-4.4C492.294,591.13,492.118,590.5,491.6,590.442Z" transform="translate(-244.877 -355.208)" fill="#2f2e41"/>
    <path id="Path_517" data-name="Path 517" d="M491.6,590.442a1.689,1.689,0,0,0-1.232.176,1.711,1.711,0,0,0-.424.578,8.39,8.39,0,0,0-.814,1.915c-.138.55-.16,1.172-.336,1.739-.319,1.045-1.139,1.931-1.232,3.021-.044.49.039,1.062-.319,1.392a2.022,2.022,0,0,1-.281.2,2.113,2.113,0,0,0-.616.633,2.075,2.075,0,0,1-.435.6c-.319.237-.847.215-1,.55s.248.792.154,1.188-.44.473-.688.693a2.4,2.4,0,0,0-.594,1.1,3.67,3.67,0,0,1-2.993-.743,9.529,9.529,0,0,1,.468,3.422,1.4,1.4,0,0,1-.275,1.056,19.06,19.06,0,0,1,3.67.638,2.531,2.531,0,0,0,1.6,0,2.675,2.675,0,0,0,.737-.583,4.7,4.7,0,0,0,1.513-2.333,13.705,13.705,0,0,0,.027-1.579,8.9,8.9,0,0,1,.4-1.92,22.846,22.846,0,0,0,.7-3.95c.072-.825.787-1.485,1.161-2.2a10.775,10.775,0,0,0,1.48-4.4C492.294,591.13,492.118,590.5,491.6,590.442Z" transform="translate(-244.877 -355.208)" opacity="0.1"/>
    <path id="Path_518" data-name="Path 518" d="M471.545,625.179a14.5,14.5,0,0,1-3.4-2.839c-2.063-1.942-4.589-3.3-6.762-5.133a47.656,47.656,0,0,0-4.308-3.62,10.766,10.766,0,0,0-4.616-1.612,1.226,1.226,0,0,0-.55,0,1.264,1.264,0,0,0-.523.413,16.623,16.623,0,0,0-1.865,2.558c-2.751,4.677-6.663,8.6-9.9,12.951a.825.825,0,0,0-.16.308.765.765,0,0,0,.121.479l.66,1.287c.369.726.963,1.568,1.755,1.425a1.92,1.92,0,0,0,.919-.589l2.96-2.833,3.1-2.965a23.8,23.8,0,0,0,4.853-5.733c.924,1.607,2.569,2.657,3.692,4.126.429.55.781,1.172,1.166,1.766.611.946,1.309,1.838,2,2.751l3.56,4.539a6.81,6.81,0,0,0,1.651,1.651,6.3,6.3,0,0,0,2.855.765,37.737,37.737,0,0,0,4.022.143,6.935,6.935,0,0,0,3-.55,2.718,2.718,0,0,0,1.623-2.415,3.544,3.544,0,0,0-.512-1.5A12.262,12.262,0,0,0,471.545,625.179Z" transform="translate(-226.284 -364.9)" fill="#2f2e41"/>
    <ellipse id="Ellipse_105" data-name="Ellipse 105" cx="1.205" cy="1.21" rx="1.205" ry="1.21" transform="translate(247.45 236.059)" fill="#e8e8f0"/>
    <path id="Path_519" data-name="Path 519" d="M502.121,589.44a2.317,2.317,0,0,1,.132,1.739,7.054,7.054,0,0,1-.776,1.6,7.619,7.619,0,0,1-1.007,1.43,10.364,10.364,0,0,0,5.293-1.518,7.686,7.686,0,0,0,3.34-2.911,1.54,1.54,0,0,1-1.232-.231,4.4,4.4,0,0,1-.941-.875L506,587.63a4.187,4.187,0,0,1-.55-.754,2.08,2.08,0,0,1-.248-1.216,7.082,7.082,0,0,1-1.232,1.023c-.666.435-1.4.748-2.069,1.177-.231.154-.759.4-.622.7S501.933,589.11,502.121,589.44Z" transform="translate(-253.73 -353.078)" fill="#fbbebe"/>
    <path id="Path_520" data-name="Path 520" d="M502.121,589.44a2.317,2.317,0,0,1,.132,1.739,7.054,7.054,0,0,1-.776,1.6,7.619,7.619,0,0,1-1.007,1.43,10.364,10.364,0,0,0,5.293-1.518,7.686,7.686,0,0,0,3.34-2.911,1.54,1.54,0,0,1-1.232-.231,4.4,4.4,0,0,1-.941-.875L506,587.63a4.187,4.187,0,0,1-.55-.754,2.08,2.08,0,0,1-.248-1.216,7.082,7.082,0,0,1-1.232,1.023c-.666.435-1.4.748-2.069,1.177-.231.154-.759.4-.622.7S501.933,589.11,502.121,589.44Z" transform="translate(-253.73 -353.078)" opacity="0.1"/>
    <path id="Path_521" data-name="Path 521" d="M497.523,592.7a1.568,1.568,0,0,0,0,1.816c.055.066.253.479.336.484a.3.3,0,0,0,.209-.11,13.808,13.808,0,0,0,1.177-1.4,2.618,2.618,0,0,1,1.5-.979,3.235,3.235,0,0,1,2.063.644,1.958,1.958,0,0,1,.71.55,1.92,1.92,0,0,1,.231.787,37.908,37.908,0,0,1,.209,5,19.708,19.708,0,0,1-.237,3.6c-.121.611-.3,1.21-.38,1.832a11.687,11.687,0,0,0-.077,1.651v2.3a6.051,6.051,0,0,0,.088,1.26c.11.5.347.968.506,1.458a9.537,9.537,0,0,1,.336,1.722l.314,2.377a3.005,3.005,0,0,1-.281,2.2c-.2.27-.473.49-.682.759-.776,1.012-.55,2.459-.853,3.7a4.61,4.61,0,0,1-1.508,2.311,2.492,2.492,0,0,1-1.986.71,2.722,2.722,0,0,1-1.81-2.14,8.555,8.555,0,0,0-.93-2.789,7.4,7.4,0,0,0-1.838-1.535,3.175,3.175,0,0,1-1.436-1.865c-.061-.347,0-.7-.061-1.056a2.492,2.492,0,0,0-1.535-2.019c-.5-.193-1.1-.264-1.386-.715a3.339,3.339,0,0,0,1.447-1.942,9.974,9.974,0,0,0,.352-2.454l.165-2.751a9.188,9.188,0,0,1,.655-3.571c.242-.5.55-.963.8-1.453a15.767,15.767,0,0,0,.853-2.129c.4-1.133.792-2.267,1.144-3.411a6.426,6.426,0,0,1,.627-1.59C496.538,593.432,496.967,592.811,497.523,592.7Z" transform="translate(-249.11 -356.157)" fill="#e8e8f0"/>
    <path id="Path_522" data-name="Path 522" d="M492.3,610.251h.732l.154-1.1a2.294,2.294,0,0,1,.154-.644,3.853,3.853,0,0,1,.424-.616c.715-1.018.666-2.366.842-3.6a18.337,18.337,0,0,1,1.607-4.71l1.419-3.164a4.368,4.368,0,0,0,.308-.809,4.854,4.854,0,0,0,.088-.935c0-.49.154-2.272.171-2.751,0-.182-.4-.083-.484-.242-.176-.352-.418.6-.754.809a1.849,1.849,0,0,0-.655.957c-.308.792-.5,1.651-.781,2.437a4.979,4.979,0,0,1-1.326,2.157c-.292.253-.627.457-.9.732a4.938,4.938,0,0,0-1,3.494C492.274,603.021,492.131,610.251,492.3,610.251Z" transform="translate(-250.017 -355.749)" fill="#2f2e41"/>
    <path id="Path_523" data-name="Path 523" d="M506.044,590.409a2.5,2.5,0,0,0-1.3,1.788,9.044,9.044,0,0,1-.66,2.2c-.891,1.552-3.164,2-3.8,3.681a6.766,6.766,0,0,0-.253,1.733c-.11,1.2-.506,2.366-.627,3.565a15.886,15.886,0,0,0,.066,2.8l.8,9.474a12.654,12.654,0,0,1-.237,4.17,4.016,4.016,0,0,0,2.388-.4c.743-.341,1.425-.809,2.146-1.2a22.1,22.1,0,0,0,3.681-2.069,2.25,2.25,0,0,0,.5-.55,4.757,4.757,0,0,0,.33-1.243,6.71,6.71,0,0,1,.358-.979,28.857,28.857,0,0,0,1.034-2.927,16.8,16.8,0,0,0,.473-2c.088-.55.138-1.1.182-1.651a9.683,9.683,0,0,1,.506-2.5,20.163,20.163,0,0,0,1.161-6.008,3.144,3.144,0,0,0-.06-.88,4.715,4.715,0,0,0-.484-1.007c-.33-.622-.55-1.3-.836-1.937a9.525,9.525,0,0,0-3.252-3.417A2.476,2.476,0,0,0,506.044,590.409Z" transform="translate(-253.235 -355.18)" fill="#2f2e41"/>
    <path id="Path_524" data-name="Path 524" d="M474.247,615.958a5.738,5.738,0,0,1-1.513-1.15c-.2-.231-.363-.49-.55-.721a3.747,3.747,0,0,0-1.9-1.1,9.3,9.3,0,0,0-2.2-.215,3.993,3.993,0,0,0-1.469.176,1.5,1.5,0,0,0-.974,1.045,1.733,1.733,0,0,0,.743,1.541,3.5,3.5,0,0,0,1.48.715,11.826,11.826,0,0,0,1.337.16c2.63.275,4.979,1.706,7.284,3.01q3.037,1.728,6.2,3.213a12.877,12.877,0,0,0,.1-1.9c0-.473-.039-1.2-.484-1.48a9.714,9.714,0,0,0-1.97-.589,30.984,30.984,0,0,1-3.967-1.607A19.714,19.714,0,0,1,474.247,615.958Z" transform="translate(-238.059 -365.269)" fill="#fbbebe"/>
    <ellipse id="Ellipse_106" data-name="Ellipse 106" cx="4.688" cy="4.715" rx="4.688" ry="4.715" transform="translate(243.005 226.393)" fill="#fbbebe"/>
    <path id="Path_525" data-name="Path 525" d="M504.481,599.691a7.516,7.516,0,0,0-.908,1.7c-.55,1.188-1.485,2.2-1.942,3.461s-.462,2.877-1.4,3.906a1.37,1.37,0,0,0-.413.594,2.836,2.836,0,0,1-.044.429c-.138.374-.748.391-.864.776-.033.11,0,.231-.055.341-.094.248-.424.286-.638.435-.457.308-.363,1.023-.688,1.469a1.238,1.238,0,0,1-1.172.413,4.126,4.126,0,0,1-1.216-.457,1.174,1.174,0,0,0-.44-.138.908.908,0,0,0-.506.176,3.12,3.12,0,0,0-1.265,2.668,8.715,8.715,0,0,0,.726,2.988,1.2,1.2,0,0,0,.237.446,1.051,1.051,0,0,0,1.166.088,5.5,5.5,0,0,1,1.139-.512c.726-.132,1.436.369,2.173.325a3.021,3.021,0,0,0,1.463-.644,8.087,8.087,0,0,0,1.97-1.651c.319-.424.55-.9.836-1.353a17.368,17.368,0,0,1,1.183-1.579l2.707-3.3a7.6,7.6,0,0,0,.726-1,7.057,7.057,0,0,0,.55-1.513,11.592,11.592,0,0,0,.55-2.69,10.341,10.341,0,0,0-.2-2.256,7.975,7.975,0,0,0-.55-2.151C507.017,599.416,505.586,598.4,504.481,599.691Z" transform="translate(-250.335 -359.12)" fill="#2f2e41"/>
    <path id="Path_526" data-name="Path 526" d="M511.755,576.493a5.282,5.282,0,0,0-2.168-4.291,6.278,6.278,0,0,0-5.331-6.112,6.091,6.091,0,0,0-12,.325c-1.948-.44-3.73.132-4.055,1.331s1.051,2.751,3.1,3.3a5.782,5.782,0,0,0,1.992.2,6.1,6.1,0,0,0,4.192,2.613,6.255,6.255,0,0,0,4.578,4.721,5.254,5.254,0,0,0,1.414,1.953v.457a3.967,3.967,0,1,0,7.934,0,4.236,4.236,0,0,0-.38-1.755A5.3,5.3,0,0,0,511.755,576.493Z" transform="translate(-248.19 -342.073)" fill="#f86d70"/>
    <path id="Path_527" data-name="Path 527" d="M489.517,568c.325-1.2,2.107-1.772,4.055-1.331a6.2,6.2,0,0,1,6.052-5.216h.4a5.963,5.963,0,0,0-1.728-.259,6.2,6.2,0,0,0-6.052,5.216c-1.948-.44-3.73.132-4.055,1.331s1.051,2.751,3.1,3.3a6.047,6.047,0,0,0,1.177.2C490.508,570.653,489.193,569.223,489.517,568Z" transform="translate(-248.185 -342.071)" opacity="0.1"/>
    <path id="Path_528" data-name="Path 528" d="M509.081,589.6a4.135,4.135,0,0,1,0-.451,5.137,5.137,0,0,1-1.414-1.953,6.239,6.239,0,0,1-4.578-4.726,6.079,6.079,0,0,1-4.2-2.608,5.282,5.282,0,0,1-1.172-.033,6.113,6.113,0,0,0,4.044,2.4,6.255,6.255,0,0,0,4.578,4.721,5.254,5.254,0,0,0,1.414,1.953v.457a4.038,4.038,0,0,0,3.945,4.1A4.1,4.1,0,0,1,509.081,589.6Z" transform="translate(-252.493 -350.455)" opacity="0.1"/>
    <ellipse id="Ellipse_107" data-name="Ellipse 107" cx="0.721" cy="0.963" rx="0.721" ry="0.963" transform="translate(248.104 231.741) rotate(-37.22)" fill="#fbbebe"/>
  </g>
</svg>
