<svg xmlns="http://www.w3.org/2000/svg" xmlns:xlink="http://www.w3.org/1999/xlink" width="628.5" height="438.42" viewBox="0 0 628.5 438.42">
  <defs>
    <linearGradient id="linear-gradient" x1="0.499" y1="1" x2="0.499" y2="-0.001" gradientUnits="objectBoundingBox">
      <stop offset="0" stop-color="gray" stop-opacity="0.251"/>
      <stop offset="0.54" stop-color="gray" stop-opacity="0.122"/>
      <stop offset="1" stop-color="gray" stop-opacity="0.102"/>
    </linearGradient>
    <linearGradient id="linear-gradient-2" x1="0.5" y1="1" x2="0.5" y2="0" xlink:href="#linear-gradient"/>
  </defs>
  <g id="get-started" transform="translate(0.066 0.009)">
    <path id="Path_267" data-name="Path 267" d="M633.781,312.666c-21.84,29.967-14.632,72.743-2.008,106.821,4.228,11.408,9.031,23.474,6.839,35.886-2.678,15.173-15.263,26.542-28.344,32.734-23.848,11.285-52.019,9.483-73.351-4.736C518.509,471.1,505.55,450.7,486.784,439.018,455.378,419.465,414.6,428.2,379.65,443.129c-24.729,10.56-51.818,24.16-75.917,14.409-16.958-6.861-28.377-24.327-34.385-43-2.9-9.015-4.931-18.8-10.711-25.856-3.436-4.195-7.977-7.118-12.646-9.561-42.614-22.314-97.427-8.368-138.741-33.264C79.358,329.045,62,296.416,54.785,262.115s-5.428-70.511-2.555-106.1c2.042-25.293,5.272-52.32,20.478-72.2,16.083-21.02,43.038-29.376,67.142-26.079s45.71,16.7,64.62,32.656c23.636,19.943,45.4,44.973,74.812,52.538,20.032,5.154,41.314,1.506,62.138-.106,34.809-2.689,69.5.407,103.971,3.9,33,3.347,66.233,7.085,97.489,18.057,22.118,7.765,39.651,22.442,60.476,32.472,13.572,6.538,28.506,8.055,41.28,16.5,15.765,10.4,30.012,28.835,25.387,50.953C665.656,285.734,645.373,296.762,633.781,312.666Z" transform="translate(-42.475 -57.05)" fill="#35b23d" opacity="0.1"/>
    <rect id="Rectangle_62" data-name="Rectangle 62" width="114.614" height="77.005" rx="9.61" transform="translate(212.314 88.643)" fill="#474059"/>
    <rect id="Rectangle_63" data-name="Rectangle 63" width="109.549" height="62.908" transform="translate(214.724 97.635)" fill="#fff"/>
    <ellipse id="Ellipse_54" data-name="Ellipse 54" cx="0.965" cy="1.043" rx="0.965" ry="1.043" transform="translate(268.533 93.34)" fill="#fff"/>
    <rect id="Rectangle_64" data-name="Rectangle 64" width="20.082" height="21.198" transform="translate(259.278 162.858)" fill="#474059"/>
    <path id="Path_268" data-name="Path 268" d="M459.187,326.95h24.545a3.347,3.347,0,0,1,3.347,3.347H455.84a3.347,3.347,0,0,1,3.347-3.347Z" transform="translate(-201.582 -144.567)" fill="#474059"/>
    <rect id="Rectangle_65" data-name="Rectangle 65" width="82.561" height="28.45" transform="translate(129.859 200.234)" fill="#c0bccf"/>
    <rect id="Rectangle_66" data-name="Rectangle 66" width="17.851" height="155.08" transform="translate(466.796 186.288)" fill="#c0bccf"/>
    <rect id="Rectangle_67" data-name="Rectangle 67" width="82.561" height="1.674" transform="translate(129.859 200.234)" opacity="0.1"/>
    <rect id="Rectangle_68" data-name="Rectangle 68" width="17.851" height="15.62" transform="translate(466.796 186.288)" opacity="0.1"/>
    <rect id="Rectangle_69" data-name="Rectangle 69" width="82.561" height="28.45" transform="translate(129.859 227.568)" fill="#c0bccf"/>
    <circle id="Ellipse_55" data-name="Ellipse 55" cx="5.021" cy="5.021" r="5.021" transform="translate(166.119 236.493)" fill="#35b23d"/>
    <circle id="Ellipse_56" data-name="Ellipse 56" cx="5.021" cy="5.021" r="5.021" transform="translate(166.119 209.159)" fill="#35b23d"/>
    <rect id="Rectangle_70" data-name="Rectangle 70" width="82.561" height="28.45" transform="translate(129.859 256.018)" fill="#c0bccf"/>
    <circle id="Ellipse_57" data-name="Ellipse 57" cx="5.021" cy="5.021" r="5.021" transform="translate(166.119 264.386)" fill="#35b23d"/>
    <rect id="Rectangle_71" data-name="Rectangle 71" width="82.561" height="28.45" transform="translate(129.859 284.468)" fill="#c0bccf"/>
    <circle id="Ellipse_58" data-name="Ellipse 58" cx="5.021" cy="5.021" r="5.021" transform="translate(166.119 292.836)" fill="#35b23d"/>
    <rect id="Rectangle_72" data-name="Rectangle 72" width="82.561" height="28.45" transform="translate(129.859 312.918)" fill="#c0bccf"/>
    <circle id="Ellipse_59" data-name="Ellipse 59" cx="5.021" cy="5.021" r="5.021" transform="translate(166.119 321.285)" fill="#35b23d"/>
    <rect id="Rectangle_73" data-name="Rectangle 73" width="82.561" height="2.231" transform="translate(129.859 254.344)" opacity="0.1"/>
    <rect id="Rectangle_74" data-name="Rectangle 74" width="82.561" height="2.231" transform="translate(129.859 226.452)" opacity="0.1"/>
    <rect id="Rectangle_75" data-name="Rectangle 75" width="82.561" height="2.231" transform="translate(129.859 282.794)" opacity="0.1"/>
    <rect id="Rectangle_76" data-name="Rectangle 76" width="82.561" height="2.231" transform="translate(129.859 311.244)" opacity="0.1"/>
    <path id="Path_269" data-name="Path 269" d="M144.7,507.137s-1.841-54.535-31.345-85.35a82.664,82.664,0,0,1-22.671-47.127,139.049,139.049,0,0,1-.692-25.421" transform="translate(-60.154 -186.248)" fill="none" stroke="#535461" stroke-miterlimit="10" stroke-width="2"/>
    <path id="Path_270" data-name="Path 270" d="M56.619,302.147c2.019,6.092,18.9,20.082,18.9,20.082s5.171-21.315,3.152-27.4a11.616,11.616,0,0,0-22.052,7.313Z" transform="translate(-45.263 -158.669)" fill="#35b23d"/>
    <path id="Path_271" data-name="Path 271" d="M41,369.163c5.021,4.016,26.776,6.594,26.776,6.594s-7.252-20.7-12.273-24.712a11.617,11.617,0,0,0-14.537,18.124Z" transform="translate(-36.68 -185.916)" fill="#35b23d"/>
    <path id="Path_272" data-name="Path 272" d="M72.308,470.083c6.348.937,26.447-7.81,26.447-7.81S82.048,448.043,75.7,447.1a11.616,11.616,0,0,0-3.4,22.983Z" transform="translate(-48.076 -229.461)" fill="#35b23d"/>
    <path id="Path_273" data-name="Path 273" d="M118.336,542.181c6.1,2,27.39-3.247,27.39-3.247s-14.063-16.83-20.16-18.827a11.617,11.617,0,0,0-7.252,22.074Z" transform="translate(-69.269 -261.54)" fill="#35b23d"/>
    <path id="Path_274" data-name="Path 274" d="M116.978,372.263c-2.962,5.69-21.851,16.836-21.851,16.836s-1.718-21.862,1.244-27.557a11.615,11.615,0,0,1,20.607,10.722Z" transform="translate(-62.333 -188.921)" fill="#35b23d"/>
    <path id="Path_275" data-name="Path 275" d="M165.184,454.572c-4.53,4.546-25.884,9.522-25.884,9.522s4.9-21.377,9.428-25.923a11.615,11.615,0,0,1,16.456,16.4Z" transform="translate(-82.083 -224.059)" fill="#35b23d"/>
    <path id="Path_276" data-name="Path 276" d="M205.054,544.515c-3.693,5.244-23.9,13.762-23.9,13.762s1.216-21.9,4.915-27.145a11.614,11.614,0,1,1,18.967,13.388Z" transform="translate(-100.588 -264.359)" fill="#35b23d"/>
    <path id="Path_277" data-name="Path 277" d="M176.67,523.371s16.735-24.344,13.8-47.249a44.761,44.761,0,0,1,5.288-27.814A75.308,75.308,0,0,1,203.631,437" transform="translate(-98.607 -225.052)" fill="none" stroke="#535461" stroke-miterlimit="10" stroke-width="2"/>
    <path id="Path_278" data-name="Path 278" d="M221.647,407.707c-1.077,3.3,1.768,14.827,1.768,14.827s9.11-7.62,10.186-10.917a6.288,6.288,0,1,0-11.955-3.9Z" transform="translate(-118.386 -210.184)" fill="#35b23d"/>
    <path id="Path_279" data-name="Path 279" d="M193.243,431.858c.887,3.347,9.545,11.486,9.545,11.486s3.5-11.346,2.616-14.7a6.29,6.29,0,0,0-12.161,3.219Z" transform="translate(-105.841 -219.285)" fill="#35b23d"/>
    <path id="Path_280" data-name="Path 280" d="M174.4,485.875c2.46,2.449,14.035,5.1,14.035,5.1s-2.7-11.564-5.166-14.013a6.292,6.292,0,1,0-8.87,8.925Z" transform="translate(-96.781 -241.912)" fill="#35b23d"/>
    <path id="Path_281" data-name="Path 281" d="M171.268,532.128c2.014,2.828,12.975,7.4,12.975,7.4s-.708-11.854-2.722-14.682a6.289,6.289,0,1,0-10.253,7.285Z" transform="translate(-95.704 -262.721)" fill="#35b23d"/>
    <path id="Path_282" data-name="Path 282" d="M220.808,457.771c-3.118,1.529-14.928.3-14.928.3s6.281-10.075,9.405-11.581a6.288,6.288,0,0,1,5.528,11.3Z" transform="translate(-111.522 -228.965)" fill="#35b23d"/>
    <path id="Path_283" data-name="Path 283" d="M216.314,510.555C212.878,511.073,202,506.4,202,506.4s9.009-7.732,12.445-8.256a6.289,6.289,0,1,1,1.891,12.434Z" transform="translate(-109.807 -252.054)" fill="#35b23d"/>
    <path id="Path_284" data-name="Path 284" d="M203.949,561.82c-3.3,1.116-14.839-1.674-14.839-1.674S196.686,551,199.982,549.9a6.29,6.29,0,0,1,3.966,11.938Z" transform="translate(-104.107 -274.831)" fill="#35b23d"/>
    <path id="Path_285" data-name="Path 285" d="M221.647,407.707c-1.077,3.3,1.768,14.827,1.768,14.827s9.11-7.62,10.186-10.917a6.288,6.288,0,1,0-11.955-3.9Z" transform="translate(-118.386 -210.184)" fill="#fff" opacity="0.5"/>
    <path id="Path_286" data-name="Path 286" d="M193.243,431.858c.887,3.347,9.545,11.486,9.545,11.486s3.5-11.346,2.616-14.7a6.29,6.29,0,0,0-12.161,3.219Z" transform="translate(-105.841 -219.285)" fill="#fff" opacity="0.5"/>
    <path id="Path_287" data-name="Path 287" d="M174.4,485.875c2.46,2.449,14.035,5.1,14.035,5.1s-2.7-11.564-5.166-14.013a6.292,6.292,0,1,0-8.87,8.925Z" transform="translate(-96.781 -241.912)" fill="#fff" opacity="0.5"/>
    <path id="Path_288" data-name="Path 288" d="M171.268,532.128c2.014,2.828,12.975,7.4,12.975,7.4s-.708-11.854-2.722-14.682a6.289,6.289,0,1,0-10.253,7.285Z" transform="translate(-95.704 -262.721)" fill="#fff" opacity="0.5"/>
    <path id="Path_289" data-name="Path 289" d="M220.808,457.771c-3.118,1.529-14.928.3-14.928.3s6.281-10.075,9.405-11.581a6.288,6.288,0,0,1,5.528,11.3Z" transform="translate(-111.522 -228.965)" fill="#fff" opacity="0.5"/>
    <path id="Path_290" data-name="Path 290" d="M216.314,510.555C212.878,511.073,202,506.4,202,506.4s9.009-7.732,12.445-8.256a6.289,6.289,0,1,1,1.891,12.434Z" transform="translate(-109.807 -252.054)" fill="#fff" opacity="0.5"/>
    <path id="Path_291" data-name="Path 291" d="M203.949,561.82c-3.3,1.116-14.839-1.674-14.839-1.674S196.686,551,199.982,549.9a6.29,6.29,0,0,1,3.966,11.938Z" transform="translate(-104.107 -274.831)" fill="#fff" opacity="0.5"/>
    <path id="Path_292" data-name="Path 292" d="M148.339,595.572h-47.6L88.84,522.98h71.4Z" transform="translate(-39.31 -231.243)" fill="#474059"/>
    <path id="Path_293" data-name="Path 293" d="M159.941,522.98l-11.118,67.834H108.77l.781,4.758h47.6l11.9-72.592Z" transform="translate(-48.123 -231.243)" opacity="0.1"/>
    <rect id="Rectangle_77" data-name="Rectangle 77" width="358.693" height="16.735" transform="translate(128.185 184.056)" fill="#c0bccf"/>
    <rect id="Rectangle_78" data-name="Rectangle 78" width="51.322" height="54.239" transform="translate(217.44 101.986)" fill="#e8eaf1"/>
    <rect id="Rectangle_79" data-name="Rectangle 79" width="49.09" height="51.879" transform="translate(218.556 103.169)" fill="#fff"/>
    <path id="Path_294" data-name="Path 294" d="M473.767,280.717c.686-5.433-.686-5.774-.686-5.774L471.112,274a8.143,8.143,0,0,0,.039-.96,6.874,6.874,0,0,0,0-.8c-.2-2.142-1.467-4.011-2.371-5.963a17.891,17.891,0,0,1-1.551-5.707c-.24-2.438,0-4.97-.837-7.252a13.042,13.042,0,0,0-3.475-4.77,17.594,17.594,0,0,0-5.578-3.782,9.2,9.2,0,0,0-6.644-.19,14.521,14.521,0,0,0-4.786,3.7,16.868,16.868,0,0,0-2.706,3.291,14.877,14.877,0,0,0-1.523,4.976,82.287,82.287,0,0,0-.937,8.317c-.151,2.321-.379,4.959-2.231,6.387-.909.7-2.181,1.088-2.6,2.142a2.344,2.344,0,0,0-.134.993,3.972,3.972,0,0,0,.056.842,2.484,2.484,0,0,0,.095.485,37.961,37.961,0,0,0-1.339,4.346,114.59,114.59,0,0,0-2.75,15.279h33.091a3.9,3.9,0,0,0,.943,0h8.607Z" transform="translate(-211.432 -139.738)" fill="url(#linear-gradient)"/>
    <rect id="Rectangle_80" data-name="Rectangle 80" width="18.995" height="14.331" transform="translate(233.707 118.448)" fill="#b96b6b"/>
    <rect id="Rectangle_81" data-name="Rectangle 81" width="18.995" height="14.331" transform="translate(233.707 118.448)" opacity="0.1"/>
    <path id="Path_295" data-name="Path 295" d="M474.561,287.568l-7.33,10.331-7.693-.664s-10,.664-3.347-7c3.2-3.682,4.251-6.75,4.463-8.925a6.934,6.934,0,0,0-.474-3.721l8.334-1a6.215,6.215,0,0,0-.134,3.475C469.462,284.383,474.561,287.568,474.561,287.568Z" transform="translate(-221.19 -154.125)" fill="#ffb9b9"/>
    <path id="Path_296" data-name="Path 296" d="M473.435,280.027a8.329,8.329,0,0,1-7.721,1.233,6.934,6.934,0,0,0-.474-3.721l8.334-1A6.215,6.215,0,0,0,473.435,280.027Z" transform="translate(-226.2 -154.103)" opacity="0.1"/>
    <circle id="Ellipse_60" data-name="Ellipse 60" cx="8.334" cy="8.334" r="8.334" transform="translate(233.869 110.611)" fill="#ffb9b9"/>
    <path id="Path_297" data-name="Path 297" d="M461.242,301.711s3-3.665,3-6.666a6.739,6.739,0,0,1,4-3.347c3-1,2.667,0,2.667,0l2,8-.664,14.331.335,1.674H447.91l1.674-6.666-.34-5.651,1.333-8.663,4-2.332,3,4Z" transform="translate(-218.537 -160.609)" opacity="0.1"/>
    <path id="Path_298" data-name="Path 298" d="M461.242,302.321s3-3.665,3-6.666a6.739,6.739,0,0,1,4-3.347c3-1,2.667,0,2.667,0l2,8-.664,14.331.335,1.674H447.91l1.674-6.666-.335-5.668,1.333-8.663,4-2.332,3,4Z" transform="translate(-218.537 -160.879)" fill="#fec5d9"/>
    <path id="Path_299" data-name="Path 299" d="M450.243,292.09l-10.331,1.674s-1.674-.335-3.665,7.665a113.8,113.8,0,0,0-2.667,14.995h12.886s.775-13.332,2.789-14.331l2.789-4.312s-4.463-.351-3.8-2.683A4.723,4.723,0,0,1,450.243,292.09Z" transform="translate(-212.201 -160.979)" opacity="0.1"/>
    <path id="Path_300" data-name="Path 300" d="M449.652,292.09l-10.331,1.674s-1.674-.335-3.665,7.665A113.8,113.8,0,0,0,433,316.417h12.886s.775-13.332,2.789-14.331l2.789-4.312s-4.463-.351-3.8-2.683A4.71,4.71,0,0,1,449.652,292.09Z" transform="translate(-211.945 -160.979)" fill="#747b9c"/>
    <path id="Path_301" data-name="Path 301" d="M484.36,290.3l11,5.333s1.333.335.664,5.668l.664,14.331H484.856a42.735,42.735,0,0,0,.5-13.662A91.319,91.319,0,0,1,484.36,290.3Z" transform="translate(-234.654 -160.187)" opacity="0.1"/>
    <path id="Path_302" data-name="Path 302" d="M485,290.3l11,5.333s1.333.335.664,5.668l.664,14.331H485.474a42.736,42.736,0,0,0,.5-13.662A91.315,91.315,0,0,1,485,290.3Z" transform="translate(-234.937 -160.187)" fill="#747b9c"/>
    <path id="Path_303" data-name="Path 303" d="M454.18,255.919a8.308,8.308,0,0,1-1.841,3.581c-.77,1.121-1.439,2.5-1.01,3.793.167.5.5.948.614,1.467.2.893-.251,1.813-.173,2.722.106,1.25,1.166,2.176,1.752,3.28,1.238,2.337.29,5.233-1.049,7.509s-3.09,4.435-3.531,7.04c-.407,2.41.374,4.848,1.216,7.14a2.231,2.231,0,0,1,.19,1.434c-.257.77-1.222,1-2.036,1.054a21.47,21.47,0,0,1-2.672,0,2.232,2.232,0,0,1-.976-.206c-.614-.335-.8-1.116-1.026-1.763s-.731-1.383-1.428-1.311c-.457.05-.814.441-1.266.519a1.305,1.305,0,0,1-1.116-.457,3.115,3.115,0,0,1-.084-3.442,22.734,22.734,0,0,0,1.746-3.213c.9-2.9-1.35-5.774-1.824-8.775a2.834,2.834,0,0,1,.078-1.473c.407-1.038,1.64-1.422,2.521-2.1,1.8-1.4,2.025-3.994,2.17-6.27a81.817,81.817,0,0,1,.87-8.161,14.743,14.743,0,0,1,1.473-4.881,16.518,16.518,0,0,1,2.622-3.23,13.916,13.916,0,0,1,4.641-3.626,8.814,8.814,0,0,1,6.438.184,17.041,17.041,0,0,1,5.417,3.743,12.8,12.8,0,0,1,3.347,4.68c.82,2.259.558,4.747.809,7.14a17.735,17.735,0,0,0,1.5,5.578c.876,1.919,2.109,3.754,2.3,5.857a19.789,19.789,0,0,1-.675,4.993,32.777,32.777,0,0,0,.095,8.741,7.035,7.035,0,0,0,.435,2.058,7.358,7.358,0,0,0,1.986,2.382.853.853,0,0,1,.351.558.675.675,0,0,1-.262.491c-1.01.9-2.756.234-3.849,1.032a6.186,6.186,0,0,0-.831.881,3.749,3.749,0,0,1-6.421-1.74,12.013,12.013,0,0,1,.3-3.972c.5-4.189-1.64-8.172-3.347-12.027a10.485,10.485,0,0,1-1.238-5.707,18.017,18.017,0,0,1,1.757-4.4,12.381,12.381,0,0,0,.558-9.26,9.176,9.176,0,0,0-4.719-5.138c-.792-.357-1.919-.848-2.75-.368C453.873,253.041,454.291,254.67,454.18,255.919Z" transform="translate(-214.716 -140.611)" opacity="0.1"/>
    <path id="Path_304" data-name="Path 304" d="M454.18,255.315a8.309,8.309,0,0,1-1.841,3.581c-.77,1.121-1.439,2.5-1.01,3.793.167.5.5.948.614,1.467.2.893-.251,1.813-.173,2.722.106,1.25,1.166,2.176,1.752,3.28,1.238,2.337.29,5.233-1.049,7.509s-3.09,4.435-3.531,7.04c-.407,2.41.374,4.848,1.216,7.14a2.232,2.232,0,0,1,.19,1.434c-.257.77-1.222,1-2.036,1.054a21.47,21.47,0,0,1-2.672,0,2.232,2.232,0,0,1-.976-.206c-.614-.335-.8-1.116-1.026-1.763s-.731-1.383-1.428-1.311c-.457.05-.814.441-1.266.519a1.305,1.305,0,0,1-1.116-.457,3.115,3.115,0,0,1-.084-3.442,22.736,22.736,0,0,0,1.746-3.213c.9-2.9-1.35-5.774-1.824-8.775a2.834,2.834,0,0,1,.078-1.473c.407-1.038,1.64-1.422,2.521-2.1,1.8-1.4,2.025-3.994,2.17-6.27a81.81,81.81,0,0,1,.9-8.167,14.743,14.743,0,0,1,1.473-4.881,16.518,16.518,0,0,1,2.622-3.23,13.916,13.916,0,0,1,4.641-3.626,8.814,8.814,0,0,1,6.438.184,17.042,17.042,0,0,1,5.405,3.71,12.8,12.8,0,0,1,3.347,4.68c.82,2.259.558,4.747.809,7.14a17.735,17.735,0,0,0,1.5,5.578c.876,1.919,2.109,3.754,2.3,5.857a19.783,19.783,0,0,1-.675,4.993,32.775,32.775,0,0,0,.095,8.741,7.036,7.036,0,0,0,.424,2.07,7.358,7.358,0,0,0,1.986,2.382.854.854,0,0,1,.351.558.675.675,0,0,1-.262.491c-1.01.9-2.756.234-3.849,1.032a6.192,6.192,0,0,0-.831.881,3.749,3.749,0,0,1-6.421-1.74,12.012,12.012,0,0,1,.3-3.972c.5-4.189-1.64-8.172-3.347-12.027a10.485,10.485,0,0,1-1.238-5.707,18.014,18.014,0,0,1,1.757-4.4,12.381,12.381,0,0,0,.558-9.26A9.176,9.176,0,0,0,458,252c-.792-.357-1.919-.848-2.75-.368C453.873,252.436,454.291,254.071,454.18,255.315Z" transform="translate(-214.716 -140.342)" fill="#b96b6b"/>
    <rect id="Rectangle_82" data-name="Rectangle 82" width="40.165" height="1.674" transform="translate(279.361 105.4)" fill="#e8eaf1"/>
    <rect id="Rectangle_83" data-name="Rectangle 83" width="40.165" height="1.674" transform="translate(279.361 109.863)" fill="#e8eaf1"/>
    <rect id="Rectangle_84" data-name="Rectangle 84" width="40.165" height="1.674" transform="translate(279.361 114.326)" fill="#e8eaf1"/>
    <rect id="Rectangle_85" data-name="Rectangle 85" width="40.165" height="1.674" transform="translate(279.361 118.789)" fill="#e8eaf1"/>
    <rect id="Rectangle_86" data-name="Rectangle 86" width="40.165" height="1.674" transform="translate(279.361 123.251)" fill="#e8eaf1"/>
    <rect id="Rectangle_87" data-name="Rectangle 87" width="40.165" height="1.674" transform="translate(279.361 127.714)" fill="#e8eaf1"/>
    <rect id="Rectangle_88" data-name="Rectangle 88" width="40.165" height="1.674" transform="translate(279.361 132.177)" fill="#e8eaf1"/>
    <rect id="Rectangle_89" data-name="Rectangle 89" width="40.165" height="1.674" transform="translate(279.361 136.64)" fill="#e8eaf1"/>
    <rect id="Rectangle_90" data-name="Rectangle 90" width="40.165" height="1.674" transform="translate(279.361 141.102)" fill="#e8eaf1"/>
    <rect id="Rectangle_91" data-name="Rectangle 91" width="40.165" height="1.674" transform="translate(279.361 145.565)" fill="#e8eaf1"/>
    <rect id="Rectangle_92" data-name="Rectangle 92" width="40.165" height="1.674" transform="translate(279.361 150.028)" fill="#e8eaf1"/>
    <path id="Path_305" data-name="Path 305" d="M668.155,345.425a40.722,40.722,0,0,0,2.376-24.45,208.636,208.636,0,0,1-3.977-29.705c-.636-9.567-2.03-15.765-3.553-19.781h0s.586-13.02-8.234-19.809-29.4-17.544-29.4-17.544l2.058-8.407h-.084a8.079,8.079,0,0,0,1.768-.809,7.676,7.676,0,0,0,1.59-1.322c3.481-3.046,3.531-8.635,5.182-13.087,1.272-3.425,3.654-6.359,5.361-9.606,3.107-5.913,3.832-13.171.943-19.184s-9.734-10.337-16.568-9.561a29.771,29.771,0,0,0-6.449,1.735c-4.948,1.74-8.853-3.185-13.8-1.439-2.482.876-11.748,1.824-13.756,4.373a2.287,2.287,0,0,0-.948,1.283c-.524,2.477,4.011,7.436,7.375,11.4a18.151,18.151,0,0,0-4.139,11.525v.569a18.264,18.264,0,0,0,5.551,13.07c-.284,2.488-.708,5.288-1.316,8.156h-.407s-2.354,10.186-10,10.186c-2.042,0-4.831-.123-7.81-.3a81.658,81.658,0,0,0-26.682,3.074c-2.979.831-6.259.9-9-1.077-6.56-4.736-13.622-16.8-14.588-18.476.736-4.892.636-13.851-9.522-15.48-11.91-1.908-11.257,11.893-4.407,20.674a5.466,5.466,0,0,0-.335,1.361c-.586,7.358,6.471,20.941,8.234,22.637s1.807,12.445,14.136,15.3,21.2,3.961,21.756,18.113,12.351,28.863,6.471,45.28c-3.531,9.852-2.611,15.012-1.311,17.561-.106.335-.206.664-.318,1-1.339,4.067-3,8.15-4.842,10.6-.424.558-.837,1.16-1.233,1.785-4.786,3.1-9.785,6.571-11.715,8.686-4.117,4.53-2.354,22.637,0,30s17.053,52.069,17.053,52.069h.558l.179,1.116.591,3.7a5.507,5.507,0,0,1-.558-.346.954.954,0,0,0-1.411.379l-2.873,6.415s-11.759-5.082-12.362,6.806v1.361c-.028,6.32,3.453,8.674,6.438,9.522a24.608,24.608,0,0,1,7.665,3.559c2.828,2.031,7.135,4.106,12.033,2.979a11.9,11.9,0,0,1,3.018-.279c2.114.061,5.69-.558,5.578-5.277a9.145,9.145,0,0,0,0-1.116s-2.482-9.556-2.588-13.946a3.263,3.263,0,0,1,.234-1.305,9.331,9.331,0,0,0,.519-3.944,41.424,41.424,0,0,0-.218-4.253.658.658,0,0,0-1.2-.276l-.095.128c-.379-1.255-.82-2.722-1.233-4.106l-.34-1.116h.792s-4.714-27.786-2.951-30.018c1.155-1.478-.708-19.167-2.137-31.239,14.325.909,37.158-1.623,52.777-2.4a19.993,19.993,0,0,0,8.529-2.376c-1.411,11.447-4.033,34.324-2.717,36.014,1.763,2.265-2.94,30-2.94,30h.708l-.257.848h.089c-.435,1.467-.909,3.046-1.317,4.39l-.095-.128a.658.658,0,0,0-1.2.285,41.346,41.346,0,0,0-.218,4.245,10.11,10.11,0,0,0,.519,3.944,3.257,3.257,0,0,1,.234,1.305c-.106,4.418-2.588,13.946-2.588,13.946a9.17,9.17,0,0,0,0,1.116c-.117,4.742,3.459,5.344,5.578,5.277a11.9,11.9,0,0,1,3.018.279c4.9,1.116,9.2-.954,12.033-2.979a24.606,24.606,0,0,1,7.665-3.559c2.984-.848,6.465-3.2,6.437-9.522v-1.361c-.619-11.876-12.378-6.795-12.378-6.795l-2.89-6.437a.954.954,0,0,0-1.411-.379,5.5,5.5,0,0,1-.558.346l.775-4.836h.558s14.7-44.711,17.053-52.069,4.117-25.471,0-30c-1.947-2.142-7.04-5.668-11.876-8.8a110.272,110.272,0,0,1,11.876,8.234ZM642.762,351.1l-1.869-1.116a8.879,8.879,0,0,0-1.411-1.835,14.872,14.872,0,0,1-1.439-1.618c-1.149-3.475-5.394-17.851.268-25.265,4.111-5.4,4.424-15.832,4.1-22.715,2.789,13.673,6.694,32.913,7.073,36.862C649.947,340.343,644.893,348.1,642.762,351.1Z" transform="translate(-246.35 -107.91)" fill="url(#linear-gradient-2)"/>
    <path id="Path_306" data-name="Path 306" d="M731.62,654.714l-2.231,14.5L716,666.429s2.789-9.483,3.347-11.715.558,0,.558,0Z" transform="translate(-337.075 -320.877)" fill="#d6e6f9"/>
    <path id="Path_307" data-name="Path 307" d="M623.62,666.429l-13.388,2.789-1.545-10.041L608,654.714h11.715s0-2.231.558,0c.2.8.692,2.555,1.244,4.463C622.5,662.557,623.62,666.429,623.62,666.429Z" transform="translate(-289.322 -320.877)" fill="#d6e6f9"/>
    <path id="Path_308" data-name="Path 308" d="M621.536,659.177h-12.83l-.686-4.463h11.715s0-2.231.558,0C620.493,655.517,620.984,657.269,621.536,659.177Z" transform="translate(-289.331 -320.877)" opacity="0.1"/>
    <path id="Path_309" data-name="Path 309" d="M719.79,658.677h12.83l.686-4.463H721.581s0-2.231-.558,0C720.833,655.017,720.342,656.769,719.79,658.677Z" transform="translate(-338.751 -320.656)" opacity="0.1"/>
    <path id="Path_310" data-name="Path 310" d="M753.735,340.5s7.252.558,8.926,26.776a213.2,213.2,0,0,0,3.8,29.287,41.582,41.582,0,0,1-2.231,24.076l-7.146,17.483s-13.388-11.157-17.851-10.6c0,0,7.81-10.6,7.252-16.735S737,360.582,737,360.582Z" transform="translate(-346.361 -182.383)" fill="#d6e6f9"/>
    <path id="Path_311" data-name="Path 311" d="M598.341,489.5s-17.293,10.6-21.2,15.062-2.231,22.314,0,29.566,16.177,51.321,16.177,51.321h13.946s-4.463-27.334-2.789-29.566-3.347-41.838-3.347-41.838Z" transform="translate(-274.643 -248.265)" fill="#5f546f"/>
    <path id="Path_312" data-name="Path 312" d="M727.925,489.5s17.293,10.6,21.2,15.062,2.231,22.314,0,29.566-16.177,51.321-16.177,51.321H719s4.463-27.334,2.789-29.566,3.347-41.838,3.347-41.838Z" transform="translate(-338.402 -248.265)" fill="#5f546f"/>
    <path id="Path_313" data-name="Path 313" d="M598.341,489.5s-17.293,10.6-21.2,15.062-2.231,22.314,0,29.566,16.177,51.321,16.177,51.321h13.946s-4.463-27.334-2.789-29.566-3.347-41.838-3.347-41.838Z" transform="translate(-274.643 -248.265)" opacity="0.1"/>
    <path id="Path_314" data-name="Path 314" d="M727.925,489.5s17.293,10.6,21.2,15.062,2.231,22.314,0,29.566-16.177,51.321-16.177,51.321H719s4.463-27.334,2.789-29.566,3.347-41.838,3.347-41.838Z" transform="translate(-338.402 -248.265)" opacity="0.1"/>
    <path id="Path_315" data-name="Path 315" d="M663.066,233.356s0,21.756-7.81,32.913,35.7,1.674,35.7,1.674a11.587,11.587,0,0,1-4.184-5.857c-2.3-8.184-3.169-22.6.279-28.729C692.074,224.43,663.066,233.356,663.066,233.356Z" transform="translate(-309.802 -133.255)" fill="#ffced8"/>
    <circle id="Ellipse_61" data-name="Ellipse 61" cx="18.409" cy="18.409" r="18.409" transform="translate(347.418 78.066)" opacity="0.1"/>
    <circle id="Ellipse_62" data-name="Ellipse 62" cx="18.409" cy="18.409" r="18.409" transform="translate(347.418 77.508)" fill="#ffced8"/>
    <path id="Path_316" data-name="Path 316" d="M665.854,536.93c-19.954.881-53.146,4.6-58.177-.915-8.117-8.886-5.238-16.886-1.049-21.756a29.632,29.632,0,0,0,4.307-8.312c.4-1.082.775-2.159,1.116-3.185,1.289-3.977,5.578-6.722,10.432-6.722h40.293c4.881,0,9.177,2.789,10.443,6.767a17.9,17.9,0,0,0,2.566,5.216,12.627,12.627,0,0,0,2.058,2.231c2.031,1.724,3.347,5.439,4.2,9.528C683.845,528.44,676.213,536.472,665.854,536.93Z" transform="translate(-286.896 -251.157)" fill="#5f546f"/>
    <path id="Path_317" data-name="Path 317" d="M665.854,536.93c-19.954.881-53.146,4.6-58.177-.915-8.117-8.886-5.238-16.886-1.049-21.756a29.632,29.632,0,0,0,4.307-8.312c.4-1.082.775-2.159,1.116-3.185,1.289-3.977,5.578-6.722,10.432-6.722h40.293c4.881,0,9.177,2.789,10.443,6.767a17.9,17.9,0,0,0,2.566,5.216,12.627,12.627,0,0,0,2.058,2.231c2.031,1.724,3.347,5.439,4.2,9.528C683.845,528.44,676.213,536.472,665.854,536.93Z" transform="translate(-286.896 -251.157)" opacity="0.1"/>
    <path id="Path_318" data-name="Path 318" d="M604.842,671.986c-1.746-.351-6.3-1.356-8.072-2.7a.887.887,0,0,0-1.339.374l-2.733,6.365s-11.157-5.021-11.715,6.694c-.324,6.834,3.146,9.3,6.1,10.169a22.95,22.95,0,0,1,7.291,3.5c2.683,2,6.772,4.044,11.413,2.94a10.881,10.881,0,0,1,2.862-.279c2.081.067,5.668-.558,5.272-5.74,0,0-3.347-13.388-2.231-15.62.7-1.406.519-5.021.29-7.509a.619.619,0,0,0-1.116-.285,4.909,4.909,0,0,1-4.3,2.231A7.815,7.815,0,0,1,604.842,671.986Z" transform="translate(-277.368 -327.684)" opacity="0.1"/>
    <path id="Path_319" data-name="Path 319" d="M604.842,672.986c-1.746-.351-6.3-1.356-8.072-2.7a.887.887,0,0,0-1.339.374l-2.733,6.365s-11.157-5.021-11.715,6.694c-.324,6.833,3.146,9.3,6.1,10.169a22.948,22.948,0,0,1,7.291,3.5c2.683,2,6.772,4.044,11.413,2.94a10.879,10.879,0,0,1,2.862-.279c2.081.067,5.668-.558,5.272-5.74,0,0-3.347-13.388-2.231-15.62.7-1.406.519-5.021.29-7.509a.619.619,0,0,0-1.116-.285,4.909,4.909,0,0,1-4.3,2.231A7.808,7.808,0,0,1,604.842,672.986Z" transform="translate(-277.368 -328.126)" fill="#bc8387"/>
    <path id="Path_320" data-name="Path 320" d="M721.06,671.986c1.746-.351,6.3-1.356,8.072-2.7a.887.887,0,0,1,1.339.374l2.717,6.365S744.344,671,744.9,682.719c.324,6.834-3.146,9.3-6.1,10.169a22.95,22.95,0,0,0-7.252,3.509c-2.683,2-6.772,4.044-11.413,2.94a10.876,10.876,0,0,0-2.862-.279c-2.081.067-5.668-.558-5.272-5.74,0,0,3.347-13.388,2.231-15.62-.7-1.406-.519-5.021-.29-7.509a.619.619,0,0,1,1.116-.284,4.909,4.909,0,0,0,4.3,2.231A7.811,7.811,0,0,0,721.06,671.986Z" transform="translate(-335.296 -327.684)" opacity="0.1"/>
    <path id="Path_321" data-name="Path 321" d="M721.06,672.986c1.746-.351,6.3-1.356,8.072-2.7a.887.887,0,0,1,1.339.374l2.717,6.365S744.344,672,744.9,683.719c.324,6.833-3.146,9.3-6.1,10.169a22.95,22.95,0,0,0-7.252,3.509c-2.683,2-6.772,4.044-11.413,2.94a10.884,10.884,0,0,0-2.862-.279c-2.081.067-5.668-.558-5.272-5.74,0,0,3.347-13.388,2.231-15.62-.7-1.406-.519-5.021-.29-7.509a.619.619,0,0,1,1.116-.285,4.909,4.909,0,0,0,4.3,2.231A7.8,7.8,0,0,0,721.06,672.986Z" transform="translate(-335.296 -328.126)" fill="#bc8387"/>
    <path id="Path_322" data-name="Path 322" d="M535.368,246.769s5.021-16.177-8.368-18.409-10.041,17.293,0,24.545S535.368,246.769,535.368,246.769Z" transform="translate(-249.604 -132.722)" fill="#ffced8"/>
    <path id="Path_323" data-name="Path 323" d="M679.39,475.688c-15.62,25.661-68.057-3.347-68.057-3.347a5.588,5.588,0,0,1-2.1-2.9c.43-1.356.826-2.711,1.183-4A11.514,11.514,0,0,1,621.536,457H664.49a11.5,11.5,0,0,1,11.123,8.5,24.322,24.322,0,0,0,2.733,6.549C678.9,474.293,679.39,475.688,679.39,475.688Z" transform="translate(-289.866 -233.895)" opacity="0.1"/>
    <path id="Path_324" data-name="Path 324" d="M607.419,262.186h-3.347s-2.231,10.041-9.483,10.041c-1.936,0-4.58-.117-7.425-.3a74.7,74.7,0,0,0-25.315,3.029c-2.828.82-5.935.893-8.541-1.06-6.694-5.021-13.946-18.409-13.946-18.409s-12.83-.558-13.388,6.694,6.136,20.64,7.81,22.314,1.674,12.273,13.388,15.062,20.082,3.9,20.64,17.851,11.715,28.45,6.136,44.627.558,19.525.558,19.525,52.437,29.008,68.057,3.347c0,0-6.136-17.293,0-25.661s3.347-29.008,3.347-29.008l20.082-20.082s.558-12.83-7.81-19.524-27.892-17.293-27.892-17.293l1.953-8.29Z" transform="translate(-253.039 -144.792)" fill="#d6e6f9"/>
    <path id="Path_325" data-name="Path 325" d="M664.6,212.454c-.424,5.249-.257,11.241,3.626,14.805a15.507,15.507,0,0,0,6.967,3.235,44.512,44.512,0,0,0,8.039,1.188c2.477.134,5.115,0,7.2-1.322,4.262-2.75,4.161-8.864,5.869-13.645,1.2-3.381,3.47-6.265,5.088-9.483,2.945-5.824,3.637-12.981.893-18.905s-9.232-10.175-15.714-9.4a27.407,27.407,0,0,0-6.136,1.713c-4.7,1.718-8.4-3.141-13.093-1.423-2.566.937-12.763,1.969-13.388,5.021-.742,3.626,9.126,12.669,10.192,15.843C665.54,204.17,664.6,208.27,664.6,212.454Z" transform="translate(-309.621 -110.903)" opacity="0.1"/>
    <path id="Path_326" data-name="Path 326" d="M665.6,211.454c-.424,5.249-.257,11.241,3.626,14.805a15.507,15.507,0,0,0,6.967,3.236,44.512,44.512,0,0,0,8.039,1.188c2.477.134,5.115,0,7.2-1.322,4.262-2.75,4.161-8.864,5.869-13.645,1.2-3.381,3.47-6.265,5.088-9.483,2.945-5.824,3.637-12.981.893-18.905s-9.232-10.175-15.714-9.4a27.408,27.408,0,0,0-6.136,1.713c-4.7,1.718-8.4-3.141-13.093-1.423-2.566.937-12.763,1.969-13.388,5.021-.742,3.626,9.126,12.669,10.192,15.843C666.54,203.17,665.6,207.27,665.6,211.454Z" transform="translate(-310.063 -110.46)" fill="#ae767a"/>
    <path id="Path_327" data-name="Path 327" d="M659.52,280.49s3.347,1.4,12.83,4.189a28.173,28.173,0,0,0,16.735,0" transform="translate(-312.102 -155.85)" opacity="0.1"/>
    <path id="Path_328" data-name="Path 328" d="M614.5,423.4s15.62.893,20.64,7.587,6.694,8.926,12.83,8.926,25.661,1.116,28.45,2.231" transform="translate(-292.196 -219.038)" opacity="0.1"/>
    <rect id="Rectangle_93" data-name="Rectangle 93" width="9.327" height="10.66" transform="translate(355.027 373.41)" fill="#c0bccf"/>
    <rect id="Rectangle_94" data-name="Rectangle 94" width="7.33" height="53.966" transform="translate(413.656 242.161)" fill="#cb919b"/>
    <rect id="Rectangle_95" data-name="Rectangle 95" width="15.988" height="1.997" transform="translate(401.662 295.457)" fill="#cb919b"/>
    <rect id="Rectangle_96" data-name="Rectangle 96" width="7.33" height="53.966" transform="translate(299.058 242.161)" fill="#cb919b"/>
    <rect id="Rectangle_97" data-name="Rectangle 97" width="15.988" height="1.997" transform="translate(300.391 295.457)" fill="#cb919b"/>
    <rect id="Rectangle_98" data-name="Rectangle 98" width="15.324" height="65.295" transform="translate(353.024 298.793)" fill="#c0bccf"/>
    <path id="Path_329" data-name="Path 329" d="M650.111,457.988c41.28,1.439,42.641-14.376,42.641-14.376l-2.667-43.852c-.664-68.3-39.975-58.233-39.975-58.233S610.8,331.486,610.136,399.76l-2.667,43.852S608.8,459.427,650.111,457.988Z" transform="translate(-289.088 -182.607)" fill="#cb919b"/>
    <path id="Path_330" data-name="Path 330" d="M650.111,457.988c41.28,1.439,42.641-14.376,42.641-14.376l-2.667-43.852c-.664-68.3-39.975-58.233-39.975-58.233S610.8,331.486,610.136,399.76l-2.667,43.852S608.8,459.427,650.111,457.988Z" transform="translate(-289.088 -182.607)" fill="#fff" opacity="0.1"/>
    <path id="Path_331" data-name="Path 331" d="M649.7,457.421c39.372,1.372,40.639-13.706,40.639-13.706l-2.538-41.8c-.636-65.095-38.1-55.5-38.1-55.5s-37.465-9.595-38.1,55.5l-2.538,41.8S610.326,458.793,649.7,457.421Z" transform="translate(-289.791 -184.779)" fill="#cb919b"/>
    <rect id="Rectangle_99" data-name="Rectangle 99" width="16.657" height="28.651" rx="8.329" transform="translate(351.696 254.819)" fill="#c0bccf"/>
    <path id="Path_332" data-name="Path 332" d="M684.872,705.295v2.326h-15.3v-2.309l1.333-.351h12.657Z" transform="translate(-316.546 -343.532)" opacity="0.1"/>
    <path id="Path_333" data-name="Path 333" d="M571.477,728.125s-6.666-5.327,55.985-21.985H640.12s53.949,13.31,54.613,21.985h-7.994s-29.315-8.674-42.641-8.674-53.3,1.333-65.268,8.663Z" transform="translate(-273.083 -344.054)" fill="#c0bccf"/>
    <path id="Path_334" data-name="Path 334" d="M533.852,419.77h2.817a7.252,7.252,0,0,1,7.252,7.252v3.408H526.6v-3.408a7.252,7.252,0,0,1,7.252-7.252Z" transform="translate(-232.869 -185.608)" fill="#cb919b"/>
    <path id="Path_335" data-name="Path 335" d="M739.252,419.77h2.817a7.252,7.252,0,0,1,7.252,7.252v3.408H732v-3.408a7.252,7.252,0,0,1,7.252-7.252Z" transform="translate(-323.688 -185.608)" fill="#cb919b"/>
    <circle id="Ellipse_63" data-name="Ellipse 63" cx="4.664" cy="4.664" r="4.664" transform="translate(297.061 384.071)" fill="#5a5773"/>
    <circle id="Ellipse_64" data-name="Ellipse 64" cx="4.664" cy="4.664" r="4.664" transform="translate(355.027 384.071)" fill="#5a5773"/>
    <circle id="Ellipse_65" data-name="Ellipse 65" cx="4.664" cy="4.664" r="4.664" transform="translate(413.656 384.071)" fill="#5a5773"/>
    <rect id="Rectangle_100" data-name="Rectangle 100" width="15.324" height="2.666" transform="translate(353.024 298.793)" opacity="0.1"/>
    <path id="Path_336" data-name="Path 336" d="M645.614,580.284h44.627l3.347-6.661c2-11.324-5.327-11.994-5.327-11.994H602.973s-7.33.664-5.327,11.994l3.347,6.661Z" transform="translate(-284.591 -280.158)" fill="#cb919b"/>
    <path id="Path_337" data-name="Path 337" d="M645.614,580.284h44.627l3.347-6.661c2-11.324-5.327-11.994-5.327-11.994H602.973s-7.33.664-5.327,11.994l3.347,6.661Z" transform="translate(-284.591 -280.158)" fill="#fff" opacity="0.1"/>
    <path id="Path_338" data-name="Path 338" d="M645.614,582.393h44.627l3.347-5.712c2-9.706-5.327-10.281-5.327-10.281H602.973s-7.33.558-5.327,10.281l3.347,5.712Z" transform="translate(-284.591 -282.267)" fill="#cb919b"/>
    <path id="Path_339" data-name="Path 339" d="M838.262,357.057s-5.093-1.724-7.542,2.789a8.189,8.189,0,0,0,.106,7.882,11.562,11.562,0,0,0,11.213,6.354c5.333-.285,7.1-4.351,7.587-8.139a8.368,8.368,0,0,0-11.1-8.925Z" transform="translate(-387.376 -189.474)" fill="#35b23d"/>
    <path id="Path_340" data-name="Path 340" d="M831.923,367.926a8.189,8.189,0,0,1-.106-7.882c2.449-4.463,7.542-2.789,7.542-2.789l.262-.095a8.284,8.284,0,0,1,5.986.134,8.29,8.29,0,0,0-7.062-.675l-.262.095s-5.093-1.724-7.542,2.789a8.189,8.189,0,0,0,.106,7.882,12.239,12.239,0,0,0,5.751,5.45A12.624,12.624,0,0,1,831.923,367.926Z" transform="translate(-387.385 -189.292)" fill="#fff" opacity="0.1"/>
    <path id="Path_341" data-name="Path 341" d="M840.3,361.34s1.885,1.484,6.477,0" transform="translate(-392.036 -191.598)" opacity="0.2"/>
    <path id="Path_342" data-name="Path 342" d="M839.58,342s3.235,8.769,2.968,11.062l2.561-.268s-4.318-7.687-3.236-10.789Z" transform="translate(-391.717 -183.047)" fill="#35b23d"/>
    <path id="Path_343" data-name="Path 343" d="M839.58,342s3.235,8.769,2.968,11.062l2.561-.268s-4.318-7.687-3.236-10.789Z" transform="translate(-391.717 -183.047)" opacity="0.2"/>
    <path id="Path_344" data-name="Path 344" d="M855.332,342.276s-5.093-2.605-7.375-.452-2.627,7.654-2.627,7.654S853.636,350.622,855.332,342.276Z" transform="translate(-394.26 -182.592)" fill="#35b23d"/>
    <path id="Path_345" data-name="Path 345" d="M855.332,342.276s-5.093-2.605-7.375-.452-2.627,7.654-2.627,7.654S853.636,350.622,855.332,342.276Z" transform="translate(-394.26 -182.592)" fill="#fff" opacity="0.1"/>
    <path id="Path_346" data-name="Path 346" d="M845.33,350.512s1.339-6.387,10-7.2" transform="translate(-394.26 -183.626)" fill="none" stroke="#35b23d" stroke-miterlimit="10" stroke-width="1"/>
  </g>
</svg>
