<svg xmlns="http://www.w3.org/2000/svg" xmlns:xlink="http://www.w3.org/1999/xlink" width="653.428" height="471.188" viewBox="0 0 653.428 471.188">
  <defs>
    <linearGradient id="linear-gradient" x1="-1.02" y1="1" x2="-1.02" gradientUnits="objectBoundingBox">
      <stop offset="0" stop-color="gray" stop-opacity="0.251"/>
      <stop offset="0.54" stop-color="gray" stop-opacity="0.122"/>
      <stop offset="1" stop-color="gray" stop-opacity="0.102"/>
    </linearGradient>
    <linearGradient id="linear-gradient-2" x1="0" y1="0.5" x2="1.001" y2="0.5" xlink:href="#linear-gradient"/>
  </defs>
  <g id="posts" transform="translate(-0.001 -0.006)">
    <path id="Path_197" data-name="Path 197" d="M414.658,116.544c-41.89-1.451-81.791-14.977-119.887-29.775s-75.84-31.186-116.724-39.027c-26.3-5.043-56.376-5.754-77.563,8.344C80.105,69.629,73.5,93.078,69.963,114.809c-2.666,16.348-4.233,33.54,3.065,48.864C78.1,174.3,87.1,183.236,93.33,193.414c21.656,35.419,6.361,79.1-17.128,113.682-10.987,16.226-23.784,31.7-32.279,48.968s-12.427,37.061-5,54.675c7.373,17.464,24.929,30.579,43.949,39.8,38.634,18.736,84.161,24.1,128.555,27.138,98.271,6.72,197.069,3.811,295.6.9,36.466-1.081,73.088-2.174,108.964-7.812,19.916-3.128,40.479-8.1,54.936-20.095,18.36-15.232,22.911-41.022,10.605-60.14-20.633-32.03-77.691-39.987-92.113-74.366-7.94-18.921.214-40,11.75-57.549,24.75-37.651,66.235-70.682,68.421-113.711,1.5-29.555-18.441-59.157-49.274-73.14C587.995,57.1,543.179,58.949,519.331,83.213,494.795,108.217,451.644,117.828,414.658,116.544Z" transform="translate(-35 -43.361)" fill="#35b23d" opacity="0.1"/>
    <g id="Group_7" data-name="Group 7" transform="translate(228.128 49.705)" opacity="0.9">
      <rect id="Rectangle_30" data-name="Rectangle 30" width="5.731" height="47.262" rx="2.29" transform="translate(190.696 88.452)" fill="#3a3768"/>
      <rect id="Rectangle_31" data-name="Rectangle 31" width="3.215" height="15.561" rx="1.608" transform="translate(0.116 51.426)" fill="#3a3768"/>
      <rect id="Rectangle_32" data-name="Rectangle 32" width="3.626" height="27.086" rx="1.813" transform="translate(0 79.911)" fill="#3a3768"/>
      <rect id="Rectangle_33" data-name="Rectangle 33" width="3.452" height="27.317" rx="1.726" transform="translate(0.058 116.469)" fill="#3a3768"/>
      <rect id="Rectangle_34" data-name="Rectangle 34" width="191.853" height="389.91" rx="25" transform="translate(1.937)" fill="#3a3768"/>
      <rect id="Rectangle_35" data-name="Rectangle 35" width="26.791" height="5.442" rx="2.721" transform="translate(79.356 11.646)" fill="#e6e8ec"/>
      <circle id="Ellipse_19" data-name="Ellipse 19" cx="3.088" cy="3.088" r="3.088" transform="translate(110.195 11.276)" fill="#e6e8ec"/>
    </g>
    <path id="Path_198" data-name="Path 198" d="M606.258,146.1H584.284v2.648a12.543,12.543,0,0,1-12.548,12.543H501.718a12.548,12.548,0,0,1-12.548-12.543V146.1H468.577a15.237,15.237,0,0,0-15.237,15.237V500.458A15.237,15.237,0,0,0,468.577,515.7h137.68A15.237,15.237,0,0,0,621.5,500.458V161.337A15.237,15.237,0,0,0,606.258,146.1Z" transform="translate(-211.426 -86.235)" fill="#35b23d" opacity="0.5"/>
    <rect id="Rectangle_36" data-name="Rectangle 36" width="168.288" height="15.532" transform="translate(242.053 85.859)" fill="#e6e8ec"/>
    <rect id="Rectangle_37" data-name="Rectangle 37" width="14.243" height="1.295" transform="translate(247.234 89.091)" fill="#3a3768"/>
    <rect id="Rectangle_38" data-name="Rectangle 38" width="14.243" height="1.295" transform="translate(247.234 92.977)" fill="#3a3768"/>
    <rect id="Rectangle_39" data-name="Rectangle 39" width="14.243" height="1.295" transform="translate(247.234 96.863)" fill="#3a3768"/>
    <path id="Path_199" data-name="Path 199" d="M718.944,201.769h-.526l-.2-.162a4.43,4.43,0,0,0,1.029-2.834,4.3,4.3,0,1,0-4.279,4.331,4.441,4.441,0,0,0,2.822-1.035l.2.168v.532L721.3,206.1l.995-1Zm-3.979,0a2.978,2.978,0,1,1,2.116-.876,3,3,0,0,1-2.116.876Z" transform="translate(-319.937 -106.647)" fill="#3a3768"/>
    <circle id="Ellipse_20" data-name="Ellipse 20" cx="7.119" cy="7.119" r="7.119" transform="translate(247.234 122.752)" fill="#e6e8ec"/>
    <rect id="Rectangle_40" data-name="Rectangle 40" width="99.035" height="3.886" transform="translate(276.685 136.989)" fill="#e6e8ec"/>
    <rect id="Rectangle_41" data-name="Rectangle 41" width="99.035" height="3.886" transform="translate(277.009 145.403)" fill="#e6e8ec"/>
    <rect id="Rectangle_42" data-name="Rectangle 42" width="99.035" height="3.886" transform="translate(277.333 153.823)" fill="#e6e8ec"/>
    <circle id="Ellipse_21" data-name="Ellipse 21" cx="7.119" cy="7.119" r="7.119" transform="translate(247.234 171.298)" fill="#e6e8ec"/>
    <rect id="Rectangle_43" data-name="Rectangle 43" width="99.035" height="3.886" transform="translate(276.685 185.535)" fill="#e6e8ec"/>
    <rect id="Rectangle_44" data-name="Rectangle 44" width="99.035" height="3.886" transform="translate(277.009 193.949)" fill="#e6e8ec"/>
    <rect id="Rectangle_45" data-name="Rectangle 45" width="99.035" height="3.886" transform="translate(277.333 202.363)" fill="#e6e8ec"/>
    <circle id="Ellipse_22" data-name="Ellipse 22" cx="7.119" cy="7.119" r="7.119" transform="translate(247.234 219.844)" fill="#e6e8ec"/>
    <rect id="Rectangle_46" data-name="Rectangle 46" width="99.035" height="3.886" transform="translate(276.685 234.081)" fill="#e6e8ec"/>
    <rect id="Rectangle_47" data-name="Rectangle 47" width="99.035" height="3.886" transform="translate(277.009 242.495)" fill="#e6e8ec"/>
    <rect id="Rectangle_48" data-name="Rectangle 48" width="99.035" height="3.886" transform="translate(277.333 250.908)" fill="#e6e8ec"/>
    <circle id="Ellipse_23" data-name="Ellipse 23" cx="7.119" cy="7.119" r="7.119" transform="translate(247.234 268.39)" fill="#e6e8ec"/>
    <rect id="Rectangle_49" data-name="Rectangle 49" width="99.035" height="3.886" transform="translate(276.685 282.627)" fill="#e6e8ec"/>
    <rect id="Rectangle_50" data-name="Rectangle 50" width="99.035" height="3.886" transform="translate(277.009 291.04)" fill="#e6e8ec"/>
    <rect id="Rectangle_51" data-name="Rectangle 51" width="99.035" height="3.886" transform="translate(277.333 299.454)" fill="#e6e8ec"/>
    <circle id="Ellipse_24" data-name="Ellipse 24" cx="7.119" cy="7.119" r="7.119" transform="translate(247.234 316.935)" fill="#e6e8ec"/>
    <rect id="Rectangle_52" data-name="Rectangle 52" width="99.035" height="3.886" transform="translate(276.685 331.172)" fill="#e6e8ec"/>
    <rect id="Rectangle_53" data-name="Rectangle 53" width="99.035" height="3.886" transform="translate(277.009 339.586)" fill="#e6e8ec"/>
    <rect id="Rectangle_54" data-name="Rectangle 54" width="99.035" height="3.886" transform="translate(277.333 348)" fill="#e6e8ec"/>
    <circle id="Ellipse_25" data-name="Ellipse 25" cx="7.119" cy="7.119" r="7.119" transform="translate(247.234 365.481)" fill="#e6e8ec"/>
    <rect id="Rectangle_55" data-name="Rectangle 55" width="99.035" height="3.886" transform="translate(276.685 379.718)" fill="#e6e8ec"/>
    <rect id="Rectangle_56" data-name="Rectangle 56" width="99.035" height="3.886" transform="translate(277.009 388.132)" fill="#e6e8ec"/>
    <rect id="Rectangle_57" data-name="Rectangle 57" width="99.035" height="3.886" transform="translate(277.333 396.546)" fill="#e6e8ec"/>
    <circle id="Ellipse_26" data-name="Ellipse 26" cx="18.123" cy="18.123" r="18.123" transform="translate(357.915 382.309)" opacity="0.1"/>
    <circle id="Ellipse_27" data-name="Ellipse 27" cx="16.18" cy="16.18" r="16.18" transform="translate(359.858 384.252)" fill="#35b23d"/>
    <path id="Path_200" data-name="Path 200" d="M325.775,158.376l-31.649,17.1a.659.659,0,0,0,.046,1.157l5.4,2.03a1.312,1.312,0,0,1,.711.665l4.192,8.639c.081.382.786.48.792.093l-.642-7.136a2.568,2.568,0,0,1,.578-1.446L321.617,163.4a.4.4,0,0,1,.359-.1.376.376,0,0,1,.2.578l-14.145,17.383a3.152,3.152,0,0,0-.578,1.423l-.815,6.164c.069.538.492.74.827.26l3.047-3.579a.636.636,0,0,1,.9-.15l7.853,5.725a.636.636,0,0,0,1-.387l6.442-31.626a.642.642,0,0,0-.925-.711Z" transform="translate(-144.146 -91.381)" fill="#35b23d"/>
    <path id="Path_201" data-name="Path 201" d="M903.687,169.962l-31.649,17.123a.659.659,0,0,0,.052,1.157l5.4,2.036a1.255,1.255,0,0,1,.711.665l4.2,8.634c.081.382.781.486.792.1l-.642-7.142a2.534,2.534,0,0,1,.578-1.44l16.406-16.076a.393.393,0,0,1,.359-.1.376.376,0,0,1,.208.578l-14.15,17.3a3.163,3.163,0,0,0-.578,1.428l-.85,6.164c.069.538.492.746.833.26l3.047-3.574a.636.636,0,0,1,.9-.15l7.853,5.719a.63.63,0,0,0,.995-.387l6.442-31.626a.642.642,0,0,0-.925-.711Z" transform="translate(-387.869 -96.247)" fill="#35b23d"/>
    <path id="Path_202" data-name="Path 202" d="M573.326,61.662l-21.61,11.687a.451.451,0,0,0,.029.81l3.689,1.388a.885.885,0,0,1,.486.451l2.891,5.9c.058.26.538.33.544.069l-.439-4.881a1.769,1.769,0,0,1,.393-.983l11.207-10.987a.266.266,0,0,1,.243-.069.254.254,0,0,1,.139.411L561.24,77.27a2.163,2.163,0,0,0-.376.971l-.578,4.21c.046.37.33.509.578.179l2.082-2.44a.434.434,0,0,1,.578-.1l5.361,3.909a.434.434,0,0,0,.682-.266l4.4-21.593a.434.434,0,0,0-.63-.486Z" transform="translate(-252.814 -50.597)" fill="#35b23d"/>
    <path id="Path_203" data-name="Path 203" d="M786,42.641l-21.61,11.693a.451.451,0,0,0,.029.8l3.689,1.388a.873.873,0,0,1,.486.457l2.862,5.893c.058.26.538.33.544.069l-.416-4.875a1.775,1.775,0,0,1,.393-.989l11.207-10.987a.266.266,0,0,1,.243-.069.254.254,0,0,1,.139.411L773.9,58.26a2.163,2.163,0,0,0-.376.971l-.578,4.216c.046.364.335.5.578.173l2.082-2.44a.434.434,0,0,1,.607-.1l5.366,3.909a.428.428,0,0,0,.677-.266l4.366-21.593a.434.434,0,0,0-.63-.486Z" transform="translate(-342.507 -42.58)" fill="#35b23d"/>
    <path id="Path_204" data-name="Path 204" d="M896.593,298.553,832.8,293.285a1.157,1.157,0,0,0-1.076,1.8l6.066,8.281a2.261,2.261,0,0,1,.416,1.683L836.053,322c-.249.642.7,1.48,1.087.914l5.991-11.288a4.516,4.516,0,0,1,2.261-1.584l40.074-7.992a.711.711,0,0,1,.63.191.671.671,0,0,1-.278,1.1l-37.894,12.045a5.656,5.656,0,0,0-2.215,1.584l-7.257,8.362c-.416.873,0,1.584.983,1.2l8.021-2.365a1.157,1.157,0,0,1,1.48.648l6.13,16.157a1.157,1.157,0,0,0,1.868.393l40.346-40.843a1.157,1.157,0,0,0-.688-1.96Z" transform="translate(-370.915 -148.304)" fill="#35b23d"/>
    <path id="Path_205" data-name="Path 205" d="M646.189,388.28a10.3,10.3,0,0,0,2.174,2.2c.538.445,1.093.9,1.671,1.307.162.116.33.226.5.335,0,.029-.035.058-.046.093a1.312,1.312,0,0,0-.15.8,1.734,1.734,0,0,0,.619.833,8.558,8.558,0,0,1,2.608,4.713c.2,1.047-.509,2.169-.463,3.233a9.412,9.412,0,0,0,.821,3.019c.885,2.244,1.822,4.574,3.585,6.211a20.077,20.077,0,0,0,4.019,9.906,32.208,32.208,0,0,0,6.783,5.945,13.183,13.183,0,0,0,2.5,1.573,14.151,14.151,0,0,0,2.481.665,127.9,127.9,0,0,0,21.8,2.463q.307,6.534.266,13.063a5.387,5.387,0,0,1-.3,2.111,9.388,9.388,0,0,1-1.261,1.77c-1.671,2.221-1.735,5.239-1.619,8.021a73.87,73.87,0,0,0,1.156,9.7c.758,4.106.064,8.639,1.521,12.548.578,1.544,1.156,3.082,1.735,4.626a4.087,4.087,0,0,1,.341,1.37,6.042,6.042,0,0,1-1.157,2.753,7.974,7.974,0,0,0-1.012,4.2.873.873,0,0,0,.121.468c.191.254.578.231.891.185a37.484,37.484,0,0,1,3.863-.358,7.091,7.091,0,0,0-.625.919,13.536,13.536,0,0,0-.821,1.689,15.965,15.965,0,0,0-1.1,3.019,3.669,3.669,0,0,0-.11.463c-.069.312-.133.63-.185.943a31.22,31.22,0,0,0-.341,5.551,58.846,58.846,0,0,1-.688,8.13c-.474,1.5.116,3.892.7,6.176a14.616,14.616,0,0,0,.839,4.626,27.88,27.88,0,0,0,.578,4.881q3,16.909,6.361,33.736c.2.977.393,1.949.653,2.891a23.663,23.663,0,0,0,4.331,8.564,38.932,38.932,0,0,1,4.522,7.24c-.133.613-.272,1.226-.416,1.833-1.272,5.372-2.955,10.669-3.539,16.157a22.4,22.4,0,0,1-1.156,6.459,9.9,9.9,0,0,0-1.156,3.129,3.47,3.47,0,0,0,.48,2.03c-.15.11-.295.226-.434.341l-.237.2c-1.642,1.307-3.846,1.573-5.87,2.1s-4.2,1.6-4.829,3.608a3.159,3.159,0,0,0-.1.387,5.115,5.115,0,0,0,2.313,4.9,12.994,12.994,0,0,0,5.783,1.775,18.819,18.819,0,0,1,5.95,1.365c1.584.786,2.92,2.076,4.626,2.643l.295.087c-.376.225-.758.445-1.156.648a17.414,17.414,0,0,1-5.546,1.735c-1.955.272-4.291.4-5.3,2.1h0a3.752,3.752,0,0,0,.96,4.424,9.187,9.187,0,0,0,4.418,1.955,80.391,80.391,0,0,0,10.987,1.365l3.591.272c3.47.266,7.009.538,10.525.578a72.5,72.5,0,0,0,12.942-1.128,1.411,1.411,0,0,0,1.029-.5,1.469,1.469,0,0,0,.156-.821,63.247,63.247,0,0,0-1.642-13.046c-.295-1.284-2.047.468-3.03,1.579-.127-.642-.278-1.278-.445-1.9l.769-.364a2.77,2.77,0,0,0,1.411-1.156,2.83,2.83,0,0,0,.15-1.359c-.139-2.822-.312-5.748-1.654-8.229a17.442,17.442,0,0,0-3.273-3.984,152.021,152.021,0,0,0-3.2-26.392c-.995-4.424-2.226-8.894-4.782-12.635-.318-.468-.665-.937-1.012-1.405a113.638,113.638,0,0,0-1.544-12.681,3.273,3.273,0,0,1,0-1.689,5.211,5.211,0,0,1,.931-1.284c1.538-1.983.908-4.805.729-7.315-.255-3.608.578-7.182,1.44-10.7q1.573-6.5,3.129-13.005a21.06,21.06,0,0,1,1.1-3.6,35.586,35.586,0,0,1,2.822-4.545,25.634,25.634,0,0,0,3.921-15.446c.578.208,1.157.422,1.77.653.434-3.632-1.1-7.755,0-11.166a14.352,14.352,0,0,0,4.43-5.274c.856-1.92,1.1-4.083,1.995-5.985a18.441,18.441,0,0,0,1.515-3.209c.445-1.735-.11-3.539-.087-5.314.058-3.869,2.891-7.46,2.255-11.282-.289-1.816-1.342-3.47-1.284-5.337a8.933,8.933,0,0,1,.746-2.891c2.128-5.638,4.227-11.641,3.134-17.574a19.887,19.887,0,0,1-.688-4.568c.092-1.764.931-3.47.682-5.233a3.972,3.972,0,0,0-.786-1.833,21.976,21.976,0,0,0,1.937-3.712,5.313,5.313,0,0,0,.515-2.371,4.2,4.2,0,0,0-1.671-2.822,16.913,16.913,0,0,0-2.891-1.683,2.36,2.36,0,0,1-.85-.607,6.232,6.232,0,0,1-.48-.914c-.578-.989-1.81-1.3-2.787-1.9-3.527-2.151-3.186-7.7-6.2-10.536a6.026,6.026,0,0,0-7.518-.4,1.844,1.844,0,0,1-1.064.526,2.042,2.042,0,0,1-1.029-.578,4.146,4.146,0,0,0-2.544-.706,24.406,24.406,0,0,1-.763-6.748h.272a3.567,3.567,0,0,0,1.052-.121c1.55-.445,2.435-2.047,3.065-3.539a26.889,26.889,0,0,0,1.359-3.886c.035-.127.064-.254.093-.376,2.966,2.082,6.413,4.262,7.234,3.805,1.521-.839-6.795-6.754-6.795-6.754h0a6.619,6.619,0,0,0,1.735-3.817,20.753,20.753,0,0,0,.069-8.356,9.866,9.866,0,0,0-4.771-6.6c-1.1-.578-2.435-.96-3.233-1.833h0a2.084,2.084,0,0,1-.312-.428h0a1.08,1.08,0,0,1-.127-.226,3.153,3.153,0,0,0-.347-.682c-.457-.526-1.284-.364-1.972-.283h-.6c-2.464.052-4.852-1.324-7.344-1.324-2.735,0-5.06,1.584-7.466,2.672-.486.22-.948.422-1.382.625a6.239,6.239,0,0,0-3.47,3.152,4.887,4.887,0,0,0-1,1.937,4.561,4.561,0,0,0-.127.995,16.544,16.544,0,0,0,7.437,27.757c.058.162.116.324.168.486a13.919,13.919,0,0,1,.723,4.626v.33a12.555,12.555,0,0,0-3.568,1.451,6.9,6.9,0,0,0-3.007,3.7,3.589,3.589,0,0,0-.092.353,9.518,9.518,0,0,0-2.718-.468,2.918,2.918,0,0,0-2.313.7,2.134,2.134,0,0,0-.439.9c-.318.295-.382.8-.578,1.191-.7,1.22-2.5.821-3.863,1.157-1.475.364-2.637,1.735-4.158,1.735a7.1,7.1,0,0,0-1.735-.064c-.578.139-1.018.919-.578,1.313a1.844,1.844,0,0,0-1.735.839c-.416.544-.694,1.191-1.157,1.7a1.77,1.77,0,0,0-1.8-.7,6.7,6.7,0,0,0-1.9.752,2.736,2.736,0,0,1-.839.295,3.616,3.616,0,0,1-1.024-.092,8.176,8.176,0,0,0-4.788.671c-1.318.625-2.585-.52-4.048-.613a2.261,2.261,0,0,1-1.48-.457,2.89,2.89,0,0,1-.578-1.157,5.783,5.783,0,0,0-4.233-3.747,4.927,4.927,0,0,0-2.891-6.078,5.257,5.257,0,0,0-1.8-4.58,8.459,8.459,0,0,1-.914-.717,4.381,4.381,0,0,1-.839-1.55l-1.284-3.4c-.578-.116-1.012-.353-1.55-.445v-.347a11.146,11.146,0,0,0-.578-3.412,19.114,19.114,0,0,0-2.741-4.99,14.381,14.381,0,0,0-4.406-4.43,15.8,15.8,0,0,0-1.879-.867l-3.308-1.365a1.607,1.607,0,0,0-.578-.162c-.891,0-1.052,1.376-.578,2.111,1.006,1.486,3.273,1.9,3.915,3.585a2.55,2.55,0,0,0-2.365,1.839,1.289,1.289,0,0,1-.318.746c-.289.237-.746.1-1.081.278-.578.318-.33,1.2-.393,1.862a8.957,8.957,0,0,1-.578,1.677,3.591,3.591,0,0,0,.515,3.019Zm79.292,231.887c0-.341-.046-.682-.075-1.018.069.179.133.364.2.544.578,1.527,1.232,3.03,1.914,4.516l-.116-.063a5.71,5.71,0,0,0-1.579-.451,1.626,1.626,0,0,1-.439-.041,12.328,12.328,0,0,0,.093-3.475Z" transform="translate(-292.483 -173.693)" fill="url(#linear-gradient)"/>
    <path id="Path_206" data-name="Path 206" d="M765.239,417.962c-.064,2.417-.879,4.753-1.006,7.165,7.107.353,14.121-3.094,21.165-2.041-1.966-1.272-3.019-3.568-3.643-5.829a24.327,24.327,0,0,1-.694-8.952,3.7,3.7,0,0,1,.092-.5c.26-1.157.937-2.851.752-3.782-.237-1.226-1.394-.983-2.44-.914a91.936,91.936,0,0,0-9.489,1.226c-.815.139-8.79,2.128-8.905,1.92a37.465,37.465,0,0,1,3.47,7.107,13.8,13.8,0,0,1,.7,4.6Z" transform="translate(-341.205 -194.596)" fill="#ee8e9e"/>
    <path id="Path_207" data-name="Path 207" d="M646.2,405.034a10.407,10.407,0,0,0,2.174,2.186c.538.445,1.093.9,1.671,1.3a7.142,7.142,0,0,0,3.556,1.446c1.694.116,5.285-.879,6.361-2.313a4.175,4.175,0,0,0,.607-2.429,11.027,11.027,0,0,0-.578-3.394,18.942,18.942,0,0,0-2.741-4.962,14.622,14.622,0,0,0-4.406-4.406,16.773,16.773,0,0,0-1.879-.867l-3.308-1.353a1.607,1.607,0,0,0-.578-.162c-.891,0-1.052,1.365-.578,2.1,1.006,1.48,3.273,1.891,3.915,3.568a2.539,2.539,0,0,0-2.365,1.827,1.271,1.271,0,0,1-.318.74c-.289.237-.746.1-1.081.278-.578.318-.33,1.191-.393,1.856a8.979,8.979,0,0,1-.578,1.665A3.551,3.551,0,0,0,646.2,405.034Z" transform="translate(-292.492 -189.128)" fill="#ee8e9e"/>
    <path id="Path_208" data-name="Path 208" d="M805.449,826.415c-.544-.578-1.44-.457-2.2-.335a81.821,81.821,0,0,1-12.4,1.006c-.521-2.539.989-5.008,1.474-7.558a6.674,6.674,0,0,1,.491-1.908,4.36,4.36,0,0,1,3.14-1.9c2.238-.469,5.731-1.3,6.98.954C804.425,819.389,804.905,823.4,805.449,826.415Z" transform="translate(-353.715 -368.405)" fill="#65617d"/>
    <path id="Path_209" data-name="Path 209" d="M735.844,809.159a12.986,12.986,0,0,0,5.783,1.769,18.812,18.812,0,0,1,5.95,1.359c1.585.781,2.92,2.064,4.626,2.625a9.582,9.582,0,0,0,4.771.075c1.885-.353,3.892-1.041,4.909-2.666.9-1.446.81-3.285.682-4.985-.145-1.926-.283-3.851-.428-5.783a2.736,2.736,0,0,0-.359-1.394c-1.359-1.989-4.672.827-6.448.827a12.428,12.428,0,0,1-7.847-3.389,2.514,2.514,0,0,0-.613-.463c-.8-.358-1.6.306-2.313.885l-.237.2c-1.642,1.3-3.845,1.567-5.87,2.093s-4.2,1.585-4.828,3.585a3.089,3.089,0,0,0-.1.382A5.011,5.011,0,0,0,735.844,809.159Z" transform="translate(-329.557 -360.753)" fill="#3f3d56"/>
    <path id="Path_210" data-name="Path 210" d="M735.844,809.159a12.986,12.986,0,0,0,5.783,1.769,18.812,18.812,0,0,1,5.95,1.359c1.585.781,2.92,2.064,4.626,2.625a9.582,9.582,0,0,0,4.771.075c1.885-.353,3.892-1.041,4.909-2.666.9-1.446.81-3.285.682-4.985-.145-1.926-.283-3.851-.428-5.783a2.736,2.736,0,0,0-.359-1.394c-1.359-1.989-4.672.827-6.448.827a12.428,12.428,0,0,1-7.847-3.389,2.514,2.514,0,0,0-.613-.463c-.8-.358-1.6.306-2.313.885l-.237.2c-1.642,1.3-3.845,1.567-5.87,2.093s-4.2,1.585-4.828,3.585a3.089,3.089,0,0,0-.1.382A5.011,5.011,0,0,0,735.844,809.159Z" transform="translate(-329.557 -360.753)" opacity="0.05"/>
    <path id="Path_211" data-name="Path 211" d="M735.7,809.826a12.986,12.986,0,0,0,5.783,1.77,18.814,18.814,0,0,1,5.95,1.359c1.584.781,2.92,2.064,4.626,2.625a9.582,9.582,0,0,0,4.771.075,7.881,7.881,0,0,0,4.909-3.313c.9-1.446.81-3.285.682-4.985-.145-1.926-.283-3.851-.428-5.783a2.735,2.735,0,0,0-.359-1.394c-1.359-1.989-4.672.827-6.448.827a12.428,12.428,0,0,1-7.847-3.389,2.514,2.514,0,0,0-.613-.463c-.8-.358-1.6.307-2.313.885a16.543,16.543,0,0,0,1.972,4.048,8.506,8.506,0,0,0,6.188,3.874,20.3,20.3,0,0,1,3.759.168c1.214.324,2.313,1.561,1.914,2.747s-1.9,1.4-3.128,1.463a13.857,13.857,0,0,1-5.106-.353c-.995-.335-1.9-.885-2.891-1.284-4.117-1.735-9.316-.752-12.722-3.637a7.655,7.655,0,0,0-1.041-.8C732.467,806.166,734.121,808.745,735.7,809.826Z" transform="translate(-329.412 -360.762)" fill="#e8eaf2"/>
    <path id="Path_212" data-name="Path 212" d="M735.7,809.826a12.986,12.986,0,0,0,5.783,1.77,18.814,18.814,0,0,1,5.95,1.359c1.584.781,2.92,2.064,4.626,2.625a9.582,9.582,0,0,0,4.771.075,7.881,7.881,0,0,0,4.909-3.313c.9-1.446.81-3.285.682-4.985-.145-1.926-.283-3.851-.428-5.783a2.735,2.735,0,0,0-.359-1.394c-1.359-1.989-4.672.827-6.448.827a12.428,12.428,0,0,1-7.847-3.389,2.514,2.514,0,0,0-.613-.463c-.8-.358-1.6.307-2.313.885a16.543,16.543,0,0,0,1.972,4.048,8.506,8.506,0,0,0,6.188,3.874,20.3,20.3,0,0,1,3.759.168c1.214.324,2.313,1.561,1.914,2.747s-1.9,1.4-3.128,1.463a13.857,13.857,0,0,1-5.106-.353c-.995-.335-1.9-.885-2.891-1.284-4.117-1.735-9.316-.752-12.722-3.637a7.655,7.655,0,0,0-1.041-.8C732.467,806.166,734.121,808.745,735.7,809.826Z" transform="translate(-329.412 -360.762)" opacity="0.05"/>
    <path id="Path_213" data-name="Path 213" d="M780.527,595.856a25.311,25.311,0,0,1-3.47,18.678,34.935,34.935,0,0,0-2.822,4.522,20.876,20.876,0,0,0-1.1,3.585l-3.128,12.965c-.844,3.47-1.694,7.055-1.44,10.64.179,2.5.81,5.3-.729,7.28a5.2,5.2,0,0,0-.931,1.272,3.255,3.255,0,0,0,0,1.683c1.584,9.391,2.753,19.216-.1,28.3-2.585,8.235-2.735,17.348-4.938,25.71a5.693,5.693,0,0,1-1.365,2.851,4.516,4.516,0,0,1-2.053.977c-3.244.769-6.667-.133-9.692-1.538-2.128-.983-4.418-2.712-4.233-5.048a10.722,10.722,0,0,1,1.157-3.111,21.415,21.415,0,0,0,1.157-6.425c.578-5.459,2.267-10.727,3.539-16.07s2.14-10.924,1.064-16.307a142.732,142.732,0,0,0-10.5-32.273,3.775,3.775,0,0,0-.96-1.44,10.246,10.246,0,0,1-1.359-.931,4.088,4.088,0,0,1-.619-1.694c-.474-1.7-1.879-2.961-2.822-4.453-2.383-3.782-1.625-8.628-1.538-13.092.087-4.343-.538-8.72.173-13.005s3.163-8.674,7.292-10a15.679,15.679,0,0,1,6.4-.3C758.865,589.72,769.887,591.779,780.527,595.856Z" transform="translate(-329.563 -272.785)" fill="#303d5c"/>
    <path id="Path_214" data-name="Path 214" d="M780.527,595.856a25.311,25.311,0,0,1-3.47,18.678,34.935,34.935,0,0,0-2.822,4.522,20.876,20.876,0,0,0-1.1,3.585l-3.128,12.965c-.844,3.47-1.694,7.055-1.44,10.64.179,2.5.81,5.3-.729,7.28a5.2,5.2,0,0,0-.931,1.272,3.255,3.255,0,0,0,0,1.683c1.584,9.391,2.753,19.216-.1,28.3-2.585,8.235-2.735,17.348-4.938,25.71a5.693,5.693,0,0,1-1.365,2.851,4.516,4.516,0,0,1-2.053.977c-3.244.769-6.667-.133-9.692-1.538-2.128-.983-4.418-2.712-4.233-5.048a10.722,10.722,0,0,1,1.157-3.111,21.415,21.415,0,0,0,1.157-6.425c.578-5.459,2.267-10.727,3.539-16.07s2.14-10.924,1.064-16.307a142.732,142.732,0,0,0-10.5-32.273,3.775,3.775,0,0,0-.96-1.44,10.246,10.246,0,0,1-1.359-.931,4.088,4.088,0,0,1-.619-1.694c-.474-1.7-1.879-2.961-2.822-4.453-2.383-3.782-1.625-8.628-1.538-13.092.087-4.343-.538-8.72.173-13.005s3.163-8.674,7.292-10a15.679,15.679,0,0,1,6.4-.3C758.865,589.72,769.887,591.779,780.527,595.856Z" transform="translate(-329.563 -272.785)" opacity="0.05"/>
    <path id="Path_215" data-name="Path 215" d="M733.734,624.6a27.175,27.175,0,0,0,.578,5.019q3,16.822,6.361,33.54c.2.971.393,1.937.654,2.891a23.5,23.5,0,0,0,4.331,8.518c9.426,11.745,10.241,28.8,15.353,42.966.341.96.688,1.92,1.052,2.891a71.615,71.615,0,0,0,3.157,7.038,1.982,1.982,0,0,0,.648.838,1.936,1.936,0,0,0,1.029.2,29.984,29.984,0,0,0,13.3-3.024,2.753,2.753,0,0,0,1.411-1.157,2.815,2.815,0,0,0,.15-1.353c-.139-2.8-.312-5.719-1.654-8.183a17.349,17.349,0,0,0-3.273-3.967,150.464,150.464,0,0,0-3.2-26.254c-.995-4.4-2.226-8.848-4.782-12.572-1.885-2.747-4.586-5.453-4.256-8.767.15-1.457.758-3.267-.428-4.123-.515-.376-1.284-.422-1.631-.96a1.77,1.77,0,0,1-.231-.821,20.375,20.375,0,0,1,.422-6.8,36.623,36.623,0,0,0,1.012-4.43,5.561,5.561,0,0,0-1.116-4.279c-.064-3.024,0-6.164-.04-9.189a17.125,17.125,0,0,1,.428-5.129c.226-.792.578-1.55.752-2.359.636-2.891-.943-6.361.937-8.674a12.757,12.757,0,0,1,3.013-2.128,11.024,11.024,0,0,0,4.14-5.95A32.879,32.879,0,0,0,773,601.1a7.594,7.594,0,0,0,0-1.579,2.945,2.945,0,0,0-.214-.786c-.578-1.313-2.151-1.822-3.551-2.157a114.839,114.839,0,0,0-27.121-3.169c-3.377-2.313-5.28-1.48-6.708.96a24.724,24.724,0,0,0-1.914,4.667c-.653,1.972-.694,13.04-1.33,15.035C731.358,616.617,733.734,621.89,733.734,624.6Z" transform="translate(-328.945 -274.301)" fill="#303d5c"/>
    <path id="Path_216" data-name="Path 216" d="M824.19,471.594c.249,1.735-.578,3.47-.682,5.2a19.7,19.7,0,0,0,.688,4.545c1.093,5.9-1.006,11.872-3.134,17.481a8.836,8.836,0,0,0-.746,2.891c-.058,1.827.995,3.5,1.284,5.314.607,3.8-2.2,7.373-2.255,11.218,0,1.77.532,3.574.087,5.285a18.143,18.143,0,0,1-1.515,3.2c-.9,1.891-1.156,4.048-2,5.95-1.55,3.47-4.881,5.708-8.044,7.778-1.8-.578-3.753-1.313-4.742-2.932a7.26,7.26,0,0,1-.827-2.579,66.415,66.415,0,0,1-.636-11.941,74.472,74.472,0,0,1,.544-10.287c.642-4.337,2.047-8.518,3.059-12.786,1.272-5.384,1.926-10.947,3.909-16.111a54.33,54.33,0,0,1,7.321-12.508c1.087-1.492,1.949-3.614,4.048-3.273A4.447,4.447,0,0,1,824.19,471.594Z" transform="translate(-358.323 -221.992)" fill="#3f3d56"/>
    <path id="Path_217" data-name="Path 217" d="M824.19,471.594c.249,1.735-.578,3.47-.682,5.2a19.7,19.7,0,0,0,.688,4.545c1.093,5.9-1.006,11.872-3.134,17.481a8.836,8.836,0,0,0-.746,2.891c-.058,1.827.995,3.5,1.284,5.314.607,3.8-2.2,7.373-2.255,11.218,0,1.77.532,3.574.087,5.285a18.143,18.143,0,0,1-1.515,3.2c-.9,1.891-1.156,4.048-2,5.95-1.55,3.47-4.881,5.708-8.044,7.778-1.8-.578-3.753-1.313-4.742-2.932a7.26,7.26,0,0,1-.827-2.579,66.415,66.415,0,0,1-.636-11.941,74.472,74.472,0,0,1,.544-10.287c.642-4.337,2.047-8.518,3.059-12.786,1.272-5.384,1.926-10.947,3.909-16.111a54.33,54.33,0,0,1,7.321-12.508c1.087-1.492,1.949-3.614,4.048-3.273A4.447,4.447,0,0,1,824.19,471.594Z" transform="translate(-358.323 -221.992)" opacity="0.05"/>
    <path id="Path_218" data-name="Path 218" d="M761.07,406.257a37.466,37.466,0,0,1,3.47,7.107,16.283,16.283,0,0,0,3.921.474c5.123,0,8.755-2.891,11.768-6.6.26-1.157,1.885-2.284,1.7-3.215-.237-1.226-1.394-.983-2.44-.914A91.937,91.937,0,0,0,770,404.338C769.16,404.476,761.186,406.489,761.07,406.257Z" transform="translate(-341.205 -194.596)" opacity="0.1"/>
    <circle id="Ellipse_28" data-name="Ellipse 28" cx="16.423" cy="16.423" r="16.423" transform="translate(410.809 185.951)" fill="#ee8e9e"/>
    <path id="Path_219" data-name="Path 219" d="M737.93,594.314c2.839-.168,5.7-.058,8.553.058a29.74,29.74,0,0,1,5.314.544c2.157.492,4.175,1.475,6.3,2.088,3.406.995,7,1.035,10.53,1.388a60.537,60.537,0,0,1,6.893,1.076,2.943,2.943,0,0,0-.214-.786c-.578-1.313-2.151-1.822-3.551-2.157a114.842,114.842,0,0,0-27.121-3.169C741.261,591.065,739.358,591.886,737.93,594.314Z" transform="translate(-331.446 -274.285)" opacity="0.1"/>
    <path id="Path_220" data-name="Path 220" d="M744.1,435.546c.717.827,1.677,1.735,2.741,1.469a3.782,3.782,0,0,0,1.064-.578c1.891-1.22,4.216-1.509,6.442-1.845a94.668,94.668,0,0,0,13.3-2.984,13.559,13.559,0,0,1,3.927-.8c2.781,0,5.251,1.868,6.991,4.048s2.961,4.736,4.7,6.928c1.22,1.561,2.672,2.938,3.811,4.563,2.891,4.1,3.47,9.449,2.747,14.4s-2.718,9.622-4.678,14.225a49.028,49.028,0,0,1-3.822,7.708,18.379,18.379,0,0,1-1.475,11.438,11.481,11.481,0,0,0-1.492,3.4,8.594,8.594,0,0,0,.1,2.492l.839,5.945c.254,1.81.509,3.626.839,5.424.578,3.29,1.423,6.858-.1,9.831-1.827,3.562.092,8.136-.387,12.144a60.971,60.971,0,0,0-16.041-3.822c-3.527-.341-7.119-.387-10.525-1.376-2.128-.619-4.146-1.6-6.3-2.093a29.211,29.211,0,0,0-5.314-.544,63.2,63.2,0,0,0-11.791.266c-.318.046-.7.069-.891-.185a.851.851,0,0,1-.121-.463,7.876,7.876,0,0,1,1.012-4.181,5.966,5.966,0,0,0,1.156-2.741,4.048,4.048,0,0,0-.341-1.365l-1.735-4.626c-1.457-3.886-.763-8.4-1.521-12.479a73.1,73.1,0,0,1-1.156-9.651c-.139-2.77-.052-5.783,1.619-7.986a9.1,9.1,0,0,0,1.261-1.735,5.348,5.348,0,0,0,.3-2.1q.052-8.31-.457-16.614c1.457-2.62,2.978-5.3,4.435-7.911,1.694-3.047,3.412-6.153,4.1-9.57.451-2.267.434-4.6.758-6.881a3,3,0,0,1,.578-1.6,2.909,2.909,0,0,1,2.313-.694A10.2,10.2,0,0,1,744.1,435.546Z" transform="translate(-326.424 -206.305)" fill="#3f3d56"/>
    <path id="Path_221" data-name="Path 221" d="M653.31,419.418a7.141,7.141,0,0,0,3.556,1.446c1.694.116,5.285-.879,6.361-2.313a4.175,4.175,0,0,0,.607-2.429,3,3,0,0,0-.706-.133,18.5,18.5,0,0,0-5.511.22,6.205,6.205,0,0,0-4.279,3.209Z" transform="translate(-295.759 -200.008)" opacity="0.1"/>
    <path id="Path_222" data-name="Path 222" d="M708.131,455.213a11.462,11.462,0,0,1-3.47,3.267,11.175,11.175,0,0,1-5.389.827,129.351,129.351,0,0,1-22.553-2.475,14.154,14.154,0,0,1-2.481-.665,13.147,13.147,0,0,1-2.5-1.567,31.571,31.571,0,0,1-6.783-5.91,19.944,19.944,0,0,1-4.019-9.859c-1.764-1.625-2.7-3.938-3.585-6.176a9.32,9.32,0,0,1-.821-3c-.046-1.064.659-2.18.463-3.227a8.5,8.5,0,0,0-2.608-4.684,1.734,1.734,0,0,1-.619-.827,1.3,1.3,0,0,1,.15-.8,6.174,6.174,0,0,1,4.273-3.215,18.544,18.544,0,0,1,5.517-.22,12.79,12.79,0,0,1,1.8.48l1.284,3.383a4.361,4.361,0,0,0,.839,1.544,8.4,8.4,0,0,0,.914.711,5.2,5.2,0,0,1,1.8,4.557,4.9,4.9,0,0,1,2.891,6.049,5.783,5.783,0,0,1,4.233,3.724,2.823,2.823,0,0,0,.578,1.156,2.261,2.261,0,0,0,1.48.457c1.451.087,2.718,1.232,4.048.613a8.177,8.177,0,0,1,4.788-.671,3.61,3.61,0,0,0,1.023.087,2.581,2.581,0,0,0,.839-.289,6.868,6.868,0,0,1,1.9-.752,1.781,1.781,0,0,1,1.8.7c.463-.5.74-1.157,1.157-1.689a1.856,1.856,0,0,1,1.735-.838c-.44-.387,0-1.157.578-1.307a7.719,7.719,0,0,1,1.735.064c1.521,0,2.683-1.388,4.158-1.735,1.359-.335,3.163.064,3.863-1.157.243-.428.295-1.006.711-1.272a1.388,1.388,0,0,1,.92-.1,8.981,8.981,0,0,1,2.77.839c1.422,5.563.677,11.34-.411,16.978a14.891,14.891,0,0,1-3.018,7Z" transform="translate(-295.945 -200.303)" fill="#3f3d56"/>
    <path id="Path_223" data-name="Path 223" d="M746.693,516.489l7.072,14.26c-.763-1.318-2.377-1.833-3.649-2.677a9.7,9.7,0,0,1-3.47-4.684,28.907,28.907,0,0,1-1.336-5.783c-.145-.908-.44-2.174,0-3C746.1,514.784,746.358,515.819,746.693,516.489Z" transform="translate(-334.461 -241.646)" opacity="0.1"/>
    <path id="Path_224" data-name="Path 224" d="M780.924,536.746a62.653,62.653,0,0,0,5.3,4.14c4.1,3.267,7.026,7.743,9.883,12.144a19.623,19.623,0,0,1,2.018,3.678c-.335.289-.839,0-1.157-.3l-5.551-4.881a12.334,12.334,0,0,1-1.85-1.874c-.966-1.3-1.394-2.891-2.267-4.279a16.84,16.84,0,0,0-3.377-3.47c-1.272-1.093-7.136-6.049-5.708-7.974C779.235,534.479,780.08,535.908,780.924,536.746Z" transform="translate(-348.343 -249.794)" opacity="0.1"/>
    <path id="Path_225" data-name="Path 225" d="M759.721,429.511a16.478,16.478,0,0,1,5.881-1.937,12.324,12.324,0,0,1,3.736-.266c1.156.145,2.267.578,3.429.653a15.456,15.456,0,0,0,4.776-1c1.573-.422,3.4-.578,4.73.353a2,2,0,0,0,1.029.549,1.833,1.833,0,0,0,1.064-.521,6.049,6.049,0,0,1,7.518.4c3.013,2.822,2.672,8.339,6.2,10.478.977.578,2.221.9,2.787,1.891a6.822,6.822,0,0,0,.48.908,2.417,2.417,0,0,0,.85.578,16.861,16.861,0,0,1,2.891,1.671,4.175,4.175,0,0,1,1.671,2.81,5.267,5.267,0,0,1-.515,2.359,22.142,22.142,0,0,1-21.517,13.757,3.4,3.4,0,0,1-2.255-.7,4.273,4.273,0,0,1-.792-1.3c-1.66-3.47-4.771-6.049-6.754-9.356-1.156-1.972-1.931-4.175-3.163-6.112-1.856-2.943-4.69-5.118-7.46-7.228-1.561-1.191-3.3-2.44-5.262-2.354-1.735.075-3.019.168-2.377-1.978A6.858,6.858,0,0,1,759.721,429.511Z" transform="translate(-339.277 -204.37)" fill="#3f3d56"/>
    <path id="Path_226" data-name="Path 226" d="M759.721,429.511a16.478,16.478,0,0,1,5.881-1.937,12.324,12.324,0,0,1,3.736-.266c1.156.145,2.267.578,3.429.653a15.456,15.456,0,0,0,4.776-1c1.573-.422,3.4-.578,4.73.353a2,2,0,0,0,1.029.549,1.833,1.833,0,0,0,1.064-.521,6.049,6.049,0,0,1,7.518.4c3.013,2.822,2.672,8.339,6.2,10.478.977.578,2.221.9,2.787,1.891a6.822,6.822,0,0,0,.48.908,2.417,2.417,0,0,0,.85.578,16.861,16.861,0,0,1,2.891,1.671,4.175,4.175,0,0,1,1.671,2.81,5.267,5.267,0,0,1-.515,2.359,22.142,22.142,0,0,1-21.517,13.757,3.4,3.4,0,0,1-2.255-.7,4.273,4.273,0,0,1-.792-1.3c-1.66-3.47-4.771-6.049-6.754-9.356-1.156-1.972-1.931-4.175-3.163-6.112-1.856-2.943-4.69-5.118-7.46-7.228-1.561-1.191-3.3-2.44-5.262-2.354-1.735.075-3.019.168-2.377-1.978A6.858,6.858,0,0,1,759.721,429.511Z" transform="translate(-339.277 -204.37)" opacity="0.05"/>
    <path id="Path_227" data-name="Path 227" d="M746.314,833.956a9.2,9.2,0,0,0,4.418,1.943,80.356,80.356,0,0,0,10.987,1.353l3.591.277c3.47.266,7.009.532,10.525.549a72.485,72.485,0,0,0,12.942-1.122,1.411,1.411,0,0,0,1.029-.5,1.441,1.441,0,0,0,.156-.815,62.635,62.635,0,0,0-1.6-12.976c-.4-1.735-3.545,2.174-3.689,2.313a3.578,3.578,0,0,1-2.851,1.515c-3.614.2-7.656-2-10.53-3.955a13.3,13.3,0,0,0-1.949-1.209,5.922,5.922,0,0,0-1.579-.451,9.548,9.548,0,0,0-5.372,1.093c-2.163,1.07-4.048,2.608-6.187,3.707a17.4,17.4,0,0,1-5.546,1.735c-1.955.266-4.291.4-5.3,2.093h0A3.763,3.763,0,0,0,746.314,833.956Z" transform="translate(-334.417 -370.794)" fill="#3f3d56"/>
    <path id="Path_228" data-name="Path 228" d="M746.143,834.62a9.134,9.134,0,0,0,4.418,1.937,79.465,79.465,0,0,0,10.987,1.359l3.591.277c3.47.266,7.009.532,10.525.549a72.486,72.486,0,0,0,12.942-1.122,1.411,1.411,0,0,0,1.029-.5,5.781,5.781,0,0,0,.8-1.463c-.075-4.372-1.261-8.732-2.244-12.994-.4-1.735-3.545,2.174-3.689,2.313a3.577,3.577,0,0,1-2.851,1.515c-3.614.2-7.656-2-10.53-3.955a13.3,13.3,0,0,0-1.949-1.209,5.923,5.923,0,0,0-1.579-.451c.463,2.6,4.193,5.742,6.118,6.7,3.892,1.931,8.518.971,12.861,1.2a1.734,1.734,0,0,1,.908.22,1.838,1.838,0,0,1,.538,1.706c-.035,1.035-.168,2.255-1.07,2.781a3.11,3.11,0,0,1-1.44.3,203.434,203.434,0,0,1-32.065-1.157,17.466,17.466,0,0,1-5.2-1.156,13.745,13.745,0,0,1-3.03-1.949C743.818,830.647,744.958,833.515,746.143,834.62Z" transform="translate(-334.246 -370.809)" fill="#e8eaf2"/>
    <path id="Path_229" data-name="Path 229" d="M759.057,379.587c.064,1.694-1.1,4.99,2.076,4.048,1.9-.549,2.429-2.787,4.829-2.313s2.955,3.47,3.77,5.4a10.339,10.339,0,0,0,7.483,6.049,4.5,4.5,0,0,0,2.059,0c1.55-.445,2.435-2.041,3.065-3.522a26.845,26.845,0,0,0,1.359-3.863,16.392,16.392,0,0,0,.491-2.839h0a13.054,13.054,0,0,0,0-1.96c-.289-3.863-2.487-7.385-5.3-10.045a47.466,47.466,0,0,0-9.6-6.482,13.953,13.953,0,0,0-3.539-1.579A11.762,11.762,0,0,0,762,362.32a13.115,13.115,0,0,0-4.759,1.116,6.658,6.658,0,0,0-1.677,1.157,5.036,5.036,0,0,0-1.451,2.423c-.607,2.492.983,4.742,2.273,6.714C757.548,375.545,758.97,377.4,759.057,379.587Z" transform="translate(-338.215 -177.387)" fill="#3f3d56"/>
    <path id="Path_230" data-name="Path 230" d="M670.35,449.366c.677-1.735,3.527-6.442,2.706-8.1a21.642,21.642,0,0,0-2.174,3.88C670.344,446.5,670.784,448.273,670.35,449.366Z" transform="translate(-302.945 -210.717)" opacity="0.1"/>
    <path id="Path_231" data-name="Path 231" d="M756.24,375.308c-1.3-1.972-2.891-4.221-2.278-6.714a5.205,5.205,0,0,1,1.85-2.764,4.413,4.413,0,0,0-.468,1.157c-.613,2.5.983,4.742,2.273,6.714,1.156,1.735,2.573,3.614,2.66,5.783.064,1.7-1.1,5,2.082,4.048,1.891-.549,2.423-2.793,4.829-2.313s2.949,3.47,3.765,5.4a10.333,10.333,0,0,0,7.483,6.043,4.5,4.5,0,0,0,2.059,0,3.04,3.04,0,0,0,.971-.474,4.2,4.2,0,0,1-2.348,2.076,4.5,4.5,0,0,1-2.059,0,10.351,10.351,0,0,1-7.489-6.049c-.81-1.937-1.342-4.886-3.765-5.4s-2.938,1.735-4.829,2.313c-3.18.919-2.018-2.377-2.082-4.048C758.836,378.916,757.4,377.06,756.24,375.308Z" transform="translate(-338.15 -178.901)" opacity="0.1"/>
    <path id="Path_232" data-name="Path 232" d="M756.074,370.437a14.67,14.67,0,0,0,.977,1.394,16.7,16.7,0,0,0,2.244,2.313c.486.422.989.815,1.515,1.191a24.216,24.216,0,0,0,3.065,1.827,55.853,55.853,0,0,0,9.831,3.516l6.557,1.908c.8.578,2.278,1.706,3.9,2.845a16.386,16.386,0,0,0,.492-2.839h0a13.07,13.07,0,0,0,0-1.96c-.289-3.863-2.487-7.385-5.3-10.045a47.467,47.467,0,0,0-9.605-6.482,13.954,13.954,0,0,0-3.539-1.579,11.762,11.762,0,0,0-3.741-.156,13.114,13.114,0,0,0-4.759,1.116,6.657,6.657,0,0,0-1.677,1.157,6.42,6.42,0,0,0-.839,1.775A5.038,5.038,0,0,0,756.074,370.437Z" transform="translate(-338.666 -177.408)" opacity="0.1"/>
    <path id="Path_233" data-name="Path 233" d="M756.076,367.417a14.6,14.6,0,0,0,.977,1.388,16.091,16.091,0,0,0,2.244,2.313,17.572,17.572,0,0,0,1.509,1.2,24.951,24.951,0,0,0,3.065,1.833,56.789,56.789,0,0,0,9.831,3.516l6.558,1.9c2.313,1.735,9.946,7.408,11.23,6.7,1.521-.833-6.795-6.72-6.795-6.72l-.382.289c1.22-.763,1.856-2.539,2.128-4.048a20.555,20.555,0,0,0,.069-8.316,9.827,9.827,0,0,0-4.771-6.563c-1.1-.578-2.435-.948-3.233-1.822a2.209,2.209,0,0,1-.312-.422,1.481,1.481,0,0,1-.127-.226,2.982,2.982,0,0,0-.347-.677c-.457-.526-1.284-.37-1.972-.283h-.22a2.739,2.739,0,0,1-.376,0c-2.464.058-4.852-1.313-7.344-1.313-2.735,0-5.06,1.579-7.465,2.654-.486.22-.948.422-1.382.625a5.967,5.967,0,0,0-3.759,3.973A4.988,4.988,0,0,0,756.076,367.417Z" transform="translate(-338.668 -174.827)" fill="#35b23d"/>
    <path id="Path_234" data-name="Path 234" d="M789.68,358.447a1.2,1.2,0,0,0-.15.578,1.156,1.156,0,0,0,.411.885,2.029,2.029,0,0,0,1.035.364,7.526,7.526,0,0,0,.81.064,2.169,2.169,0,0,0,1.064-.179,1.28,1.28,0,0,0,.185-.121,2.214,2.214,0,0,1-.312-.422c-.064.046-.127.035-.37,0a6.094,6.094,0,0,1-1.33-.226,1.532,1.532,0,0,1-.5-.243,1.457,1.457,0,0,1-.468-.717Z" transform="translate(-353.207 -175.781)" opacity="0.1"/>
    <path id="Path_235" data-name="Path 235" d="M802.947,396.477a3.123,3.123,0,0,1-1.156.422,4.56,4.56,0,0,1-.879.139,4.868,4.868,0,0,1-2.151-.578" transform="translate(-357.1 -191.819)" opacity="0.1"/>
    <rect id="Rectangle_58" data-name="Rectangle 58" width="29.914" height="14.677" transform="translate(116.395 197.187)" fill="#3f3d56" opacity="0.1"/>
    <rect id="Rectangle_59" data-name="Rectangle 59" width="29.914" height="14.677" transform="translate(116.395 238.389)" fill="#3f3d56" opacity="0.1"/>
    <rect id="Rectangle_60" data-name="Rectangle 60" width="29.914" height="14.677" transform="translate(116.395 279.591)" fill="#3f3d56" opacity="0.1"/>
    <rect id="Rectangle_61" data-name="Rectangle 61" width="29.914" height="14.677" transform="translate(116.395 320.792)" fill="#3f3d56" opacity="0.1"/>
    <path id="Path_236" data-name="Path 236" d="M302.955,413.581c.833-.532.5-1.955-.358-2.44A4.2,4.2,0,0,0,299.7,411a1.157,1.157,0,0,0-.619-1.243v-.214a1.54,1.54,0,0,0-.335-2.192,4.418,4.418,0,0,0-2.695-.474,3.574,3.574,0,0,0-1.157-3.047.954.954,0,0,0-.625-.3c-.538,0-.717.723-.758,1.261a24.906,24.906,0,0,1-.694,4.169L275.3,438.32c-1.955,2.822,4.117-5.621,2.163-2.8a25.282,25.282,0,0,1-3.47,4.291,17.047,17.047,0,0,1-3.9,2.608,4.592,4.592,0,0,1-2.666-.752,10.785,10.785,0,0,1-2.562-2.539,50.091,50.091,0,0,1-4.135-6.147,7.713,7.713,0,0,1-.948-2.2c-.266-1.214,0-2.539-.486-3.678a5.707,5.707,0,0,0-.752-1.2l-1.209-1.613a.284.284,0,0,1,0-.069c-.139-2.388-2.07-4.221-3.874-5.783-1.538-1.342-3.2-2.741-5.2-3-1.087-.139-2.2.069-3.285-.069-.885-.11-1.735-.445-2.6-.578a11.437,11.437,0,0,0-2.556-.052l-.364-.33a10.155,10.155,0,0,0,4.568-3.84c.838-1.353,1.29-2.891,2.064-4.3.943-1.694,2.313-3.094,3.406-4.719a17.446,17.446,0,0,0,1.966-13.3,31.976,31.976,0,0,0-6.234-12.213c-5.418-7.009-14.509-9.611-23.067-8.235-.578.087-1.157.2-1.706.318a21.618,21.618,0,0,0-4.192,1.342,10.634,10.634,0,0,0-4.574,3.568,7.738,7.738,0,0,0-.8,1.48,8.462,8.462,0,0,0-.387,1.214,12.56,12.56,0,0,0-.208,3.817c.035.434.081.873.133,1.307a5.039,5.039,0,0,0,.081.653c.058.434.121.873.179,1.307.093.653.179,1.307.243,1.949a12.2,12.2,0,0,1,.069,1.376v.341a5.413,5.413,0,0,1-.15,1.012,5.205,5.205,0,0,1-.168.532,6.709,6.709,0,0,1-.8,1.469,19.662,19.662,0,0,1-1.428,1.735l-.492.578-.486.578a20.178,20.178,0,0,0-1.764,2.388,11.348,11.348,0,0,0-.7,1.307,9.568,9.568,0,0,0-.393,1.052,7.575,7.575,0,0,0-.306,1.463c0,.127-.029.249-.035.376a6.318,6.318,0,0,0,0,.74,5.107,5.107,0,0,0,.081.729,5.591,5.591,0,0,0,.428,1.405c0,.064.064.127.093.185s.064.121.093.185.121.249.179.37a2.688,2.688,0,0,1,.185.578c0,.064,0,.133,0,.2a1.329,1.329,0,0,1,0,.214,2.313,2.313,0,0,1-.833,1.44c-.11.1-.231.2-.347.3l-.179.145-.364.289-.353.283a6.942,6.942,0,0,0-.85.85,31.336,31.336,0,0,0-9.449.925,12.9,12.9,0,0,1-3.394.613,1.689,1.689,0,0,1-1.469-.619,2.221,2.221,0,0,1-.15-1.347,11.629,11.629,0,0,0-.9-5.534,3.111,3.111,0,0,0-.908-1.318,1.284,1.284,0,0,0-1.5-.081,14.11,14.11,0,0,1-.387,9.414,31.063,31.063,0,0,1-2.174,4.083c-1.29,2.192-2.012,4.7-3.157,6.974,1.284,4.343,1,8.981,1.671,13.456a62.187,62.187,0,0,0,3.545,12.144c1.1,2.99,2.313,6.1,4.7,8.206a4.308,4.308,0,0,0,2.891,1.261,5.106,5.106,0,0,0,2.273-.856A8.853,8.853,0,0,0,195.9,452.8a4.362,4.362,0,0,0,.578-.752,2.834,2.834,0,0,0,.422,1.064c1.376-2.967,2.891-5.869,4.51-8.709a7.465,7.465,0,0,0,1.353-.925c.029.1.052.2.075.306-.069.272-.139.549-.214.821s-.156.52-.237.775-.116.382-.179.578-.15.451-.231.677l-.278.734c-.069.173-.133.347-.208.52-.173.422-.353.844-.549,1.261a3.8,3.8,0,0,0,.48.2l.11.035a4.158,4.158,0,0,0,.445.11h.162l.335.035H203a5.308,5.308,0,0,0,1.191-.208c.075.3.145.607.22.908a32.329,32.329,0,0,1,1.087,6.193c.1,2.371-.306,4.776.145,7.113.237,1.209.705,2.371.873,3.6a14.948,14.948,0,0,1-.064,3.47l-.786,8.315a7.108,7.108,0,0,1-.711,2.932c-.393.677-1.024,1.451-.63,2.122a13.782,13.782,0,0,1,1.983-.382c-.243.885-.463,1.769-.671,2.66a4.678,4.678,0,0,0-.156,2.053,13.031,13.031,0,0,1,.578,1.879c.1,1.012-.578,1.908-.995,2.851-.995,2.406.064,5.118,1.116,7.518l3.111,7.061q1.272,2.891,2.556,5.783c.758,1.735,1.521,3.47,2.249,5.2A168.568,168.568,0,0,1,222.24,543a2.856,2.856,0,0,0,.416,1.058c.434.578,1.214.746,1.85,1.1a3.45,3.45,0,0,1,.382,5.511c.364,4.245-2.816,8.344-4.453,12.277-3.77,9.038-3.088,19.222-4.383,28.913l1.463-.856a1.926,1.926,0,0,1,.474.312c-.035.179-.069.359-.116.544a8.609,8.609,0,0,1-.943,2.348c-.85,1.469-2.151,2.77-2.348,4.453a27.194,27.194,0,0,0,.185,3.053V602c-.127-.127-.324-.116-.625.116a3.713,3.713,0,0,0-.919,1.735c-.254.723-.457,1.463-.659,2.2l-.711,2.614a30.314,30.314,0,0,1-1.527,4.591,19.307,19.307,0,0,0-1.353,3.123,9.652,9.652,0,0,0-.237,2.677,8.142,8.142,0,0,0,.37,2.533,6.309,6.309,0,0,0,3.7,3.51,17.346,17.346,0,0,0,5.135.966,4.383,4.383,0,0,0,1.347-.035,3.7,3.7,0,0,0,1.313-.682c2.377-1.735,3.608-4.973,3.822-7.922a11.457,11.457,0,0,0-.324-1.8c.145-3.209-.324-6.436-.075-9.634.046.364.1.723.156,1.087q.289,1.793.578,3.591a.758.758,0,0,0-.2-.335,8.275,8.275,0,0,0-.208,4.117,24.1,24.1,0,0,0,1.157,3.99l.769,2.145a3.845,3.845,0,0,0,3.591,3.03,29.1,29.1,0,0,0,6.477,1.1,1.486,1.486,0,0,0,.856-.156,4.928,4.928,0,0,0,.382-.324,3.525,3.525,0,0,1,.625-.364,4.083,4.083,0,0,0,1.983-2.348,3.718,3.718,0,0,0-.364-3.042,6.986,6.986,0,0,0-.879-1.064l-3.857-4.088a22.14,22.14,0,0,0-1.891-2,.705.705,0,0,0-.619-.208c-1.047-2.614-.914-5.679-.729-8.547.052-.856.52-2.637.711-4.094a6.518,6.518,0,0,0,2.047-1.1,3.134,3.134,0,0,0,1.157-1.735c1.943-9.946,5.095-19.586,8.038-29.278.289-.954.578-1.914.862-2.891l.359-1.226c.093-.335.2-.671.289-1.006.162-.578.318-1.128.468-1.694.046-.15.087-.306.127-.457a.545.545,0,0,0,0-.093c.191-.694.37-1.388.549-2.082l.208-.8c.226-.885.439-1.775.653-2.66.029-.121.058-.249.081-.376a1.63,1.63,0,0,0-.064-.943h0a1.549,1.549,0,0,0-.226-.324c-.058-.069-.127-.145-.2-.214l-.214-.237a2.134,2.134,0,0,1-.393-.74v-.81c0-.266-.035-.578-.052-.862a8.789,8.789,0,0,1,.254-1.122c.064-.22.139-.44.208-.659s.168-.578.26-.821a2.053,2.053,0,0,0,.515-1.394c.347-.873.729-1.735,1.156-2.567a7.812,7.812,0,0,0,1.035-2.776,11.1,11.1,0,0,0-.335-2.637c-.578-3.666,1.122-7.246,2.382-10.733a47.652,47.652,0,0,0,2.1-7.876c.37-2.064.625-4.221,1.735-6.008a9.02,9.02,0,0,0,.925-1.6,6.414,6.414,0,0,0,.249-1.822,19.974,19.974,0,0,1,1.775-7.211,4.244,4.244,0,0,0,.463-1.4.575.575,0,0,0,0-.1V500.1l.289-.04a38.354,38.354,0,0,0,.648-9.709,14.844,14.844,0,0,0-4.962-9.374h.058a3.047,3.047,0,0,0,1.417-2.753,5.354,5.354,0,0,0-2-4.2,2.041,2.041,0,0,1-.677-.694,2.111,2.111,0,0,1-.081-.914,4.661,4.661,0,0,0-2.891-4.314,1.064,1.064,0,0,1-.468-.272,1.156,1.156,0,0,1-.116-.821,5.048,5.048,0,0,0-2.435-4.626,7.928,7.928,0,0,0,.1-3.66,2.732,2.732,0,0,0-2.677-2.082c.995-2.712-.416-5.731-.04-8.593.162-1.226.653-2.406.717-3.643.058-1.122-.225-2.313.324-3.319s1.845-1.735,1.509-2.8c-.145-.463-.578-.775-.763-1.226s.578-1.157,1-.879c.191-.145.382-.3.578-.457a9.458,9.458,0,0,0,.341,1.694c.272.925.7,1.8.983,2.718a22.519,22.519,0,0,0,1.284,4.216c1.157,2.059,3.51,3.076,5.129,4.788.948,1,1.625,2.232,2.6,3.209a14.4,14.4,0,0,0,2.429,1.822l5.2,3.377a5.9,5.9,0,0,0,1.781.885,3.042,3.042,0,0,0,3.585-2.579,3.412,3.412,0,0,1-1.284-.792.475.475,0,0,0,.22-.035,8.235,8.235,0,0,0,3.354-1.781c3.713-2.955,6.361-6.991,8.986-10.958,2.729-4.158,15.879-15.162,15.879-15.162v-4.464a16.1,16.1,0,0,0,4.378-3.724,4.829,4.829,0,0,0,1.1-2.851A2.51,2.51,0,0,0,302.955,413.581ZM193.627,424.274q-.382,2.429-.931,4.834a46.989,46.989,0,0,1-1.556,5.459c-.069.185-.139.376-.2.578-.191-.347-.376-.694-.544-1.047-.428-.885-.769-1.81-1.11-2.729L187.11,425.5a2.708,2.708,0,0,1-.145-2.342,2.625,2.625,0,0,1,1.243-.931,24.808,24.808,0,0,1,4.771-1.619,14,14,0,0,0,1.538-.4,22.938,22.938,0,0,0-.891,4.071Zm2.406-7.321a.885.885,0,0,1,0-.85,1.879,1.879,0,0,1,.578-.393,1.158,1.158,0,0,0,.162-.116Zm4.511-6.361a11.236,11.236,0,0,0-1.735,1.781,18.263,18.263,0,0,0-1.492,2.313,1.677,1.677,0,0,0-.619-1.706,3.521,3.521,0,0,1-.578-.382,1.185,1.185,0,0,1,.237-1.66,3.47,3.47,0,0,1,1.735-.578l2.6-.382c-.035.168-.087.382-.145.584Zm24.368,188.857a9.487,9.487,0,0,0-.15-2.313c.324,0,.642,0,.96-.029Z" transform="translate(-95.691 -179.587)" fill="url(#linear-gradient-2)"/>
    <path id="Path_237" data-name="Path 237" d="M233.418,370.671c-4.516.723-9.541,2.463-11.27,6.7-1.3,3.2-.295,6.8.04,10.241a7.83,7.83,0,0,1-.1,2.724,9.547,9.547,0,0,1-2.388,3.747,19.921,19.921,0,0,0-3.441,4.817,7.064,7.064,0,0,0-.231,5.783,4.25,4.25,0,0,1,.578,1.515c.052,1.156-1.157,1.92-2.082,2.672-3.389,2.8-3.244,7.917-3.273,12.323a62.315,62.315,0,0,1-5.893,26.022,7.957,7.957,0,0,0,8.905-1.156,29.742,29.742,0,0,1-2.024,5.829c2.891,1.388,6.326-.891,7.766-3.736s1.608-6.153,2.631-9.171,2.839-5.644,3.614-8.674a8,8,0,0,1,1.029-2.891,7.574,7.574,0,0,1,1.8-1.538,17.6,17.6,0,0,0,6.361-8.674c3.516.775,7.1,1.556,10.675,1.232s7.234-1.949,9.125-5.008c.839-1.353,1.29-2.891,2.064-4.291.943-1.694,2.313-3.094,3.406-4.713a17.433,17.433,0,0,0,1.96-13.3,31.915,31.915,0,0,0-6.228-12.2C251.055,371.9,241.97,369.295,233.418,370.671Z" transform="translate(-106.846 -180.793)" fill="#303d5c"/>
    <path id="Path_238" data-name="Path 238" d="M202.417,463.13q-.382,2.429-.925,4.823a46.582,46.582,0,0,1-1.556,5.453,5.2,5.2,0,0,0-.492,2.51,4.51,4.51,0,0,0,.607,1.492c2.059,3.66,4.84,7.2,5.077,11.4a6.015,6.015,0,0,0,.578,3.042q2.394-5.135,5.274-10.021c2.007-3.412,4.244-6.853,4.823-10.767a20.39,20.39,0,0,0-.075-5.534,11.985,11.985,0,0,0-1.983-5.817c-1.365-1.787-5.106-4.476-7.518-3.921C203.365,456.457,202.775,460.834,202.417,463.13Z" transform="translate(-104.347 -216.807)" fill="#35b23d"/>
    <path id="Path_239" data-name="Path 239" d="M330.331,473.182a18.869,18.869,0,0,0,11.062-8.53l6.361-9.177c1.5-2.174,3.053-4.464,3.377-7.09a23.356,23.356,0,0,0,6.361-14.411c.046-.538.226-1.243.763-1.255a.96.96,0,0,1,.625.295,3.574,3.574,0,0,1,1.157,3.047,4.216,4.216,0,0,1,2.689.468c.752.538.954,1.885.145,2.313a1.157,1.157,0,0,1,.81,1.313,4.192,4.192,0,0,1,2.891.133c.856.486,1.191,1.908.359,2.44a2.516,2.516,0,0,1,1.608,2.411,4.817,4.817,0,0,1-1.1,2.845c-2.435,3.267-6.743,4.591-9.565,7.518a22.72,22.72,0,0,0-2.492,3.331l-8.188,12.456c-2.6,3.961-5.274,8-8.986,10.947a8.246,8.246,0,0,1-3.348,1.781,3.713,3.713,0,0,1-3.516-.977,5.764,5.764,0,0,1-1.024-3.5C330.106,477.461,330.47,475.292,330.331,473.182Z" transform="translate(-159.516 -207.111)" fill="#ee8e9e"/>
    <path id="Path_240" data-name="Path 240" d="M272.238,796.838a7.01,7.01,0,0,1,.873,1.064,3.707,3.707,0,0,1,.37,3.036,4.123,4.123,0,0,1-1.983,2.348,3.5,3.5,0,0,0-.625.359,4.937,4.937,0,0,1-.382.324,1.538,1.538,0,0,1-.856.162,29.77,29.77,0,0,1-6.477-1.1,5.2,5.2,0,0,1-2.672-1.255,5.135,5.135,0,0,1-.914-1.775l-.769-2.14a24.777,24.777,0,0,1-1.157-3.984,8.246,8.246,0,0,1,.208-4.111,1.237,1.237,0,0,1,.283.838,9.316,9.316,0,0,0,1.648,3.99,3.2,3.2,0,0,0,2.568,1.613,23.959,23.959,0,0,0,4.106.526,1.225,1.225,0,0,0,.578-.069,1,1,0,0,0,.468-.578,2.493,2.493,0,0,0,0-1.689c-.364-1.041-1.388-1.735-1.879-2.718-.359-.734.145-1.538.885-.919a22.866,22.866,0,0,1,1.891,1.995Z" transform="translate(-128.826 -357.685)" fill="#303d5c"/>
    <path id="Path_241" data-name="Path 241" d="M264.9,770.666c-.22,3.47-.376,7.165,1.515,10.062.677,1.041,1.584,1.914,2.359,2.891a3.435,3.435,0,0,1,.844,1.735,2.672,2.672,0,0,1-2.313,2.579,7.792,7.792,0,0,1-3.73-.538,9.056,9.056,0,0,1-3.163-1.492c-1.642-1.388-2.076-3.7-2.406-5.823l-.769-4.933a15.656,15.656,0,0,1-.278-3.591,15.9,15.9,0,0,1,.966-3.88l1.266-3.707a1.736,1.736,0,0,1,.578-.919,1.608,1.608,0,0,1,.96-.179c1.214.064,4.262.5,4.852,1.787C266.069,765.78,264.988,769.336,264.9,770.666Z" transform="translate(-128.603 -346.34)" fill="#ee8e9e"/>
    <path id="Path_242" data-name="Path 242" d="M264.9,770.666c-.22,3.47-.376,7.165,1.515,10.062.677,1.041,1.584,1.914,2.359,2.891a3.435,3.435,0,0,1,.844,1.735,2.672,2.672,0,0,1-2.313,2.579,7.792,7.792,0,0,1-3.73-.538,9.056,9.056,0,0,1-3.163-1.492c-1.642-1.388-2.076-3.7-2.406-5.823l-.769-4.933a15.656,15.656,0,0,1-.278-3.591,15.9,15.9,0,0,1,.966-3.88l1.266-3.707a1.736,1.736,0,0,1,.578-.919,1.608,1.608,0,0,1,.96-.179c1.214.064,4.262.5,4.852,1.787C266.069,765.78,264.988,769.336,264.9,770.666Z" transform="translate(-128.603 -346.34)" opacity="0.05"/>
    <path id="Path_243" data-name="Path 243" d="M293.108,593.334a.579.579,0,0,1,0,.1,4.331,4.331,0,0,1-.463,1.4,20.032,20.032,0,0,0-1.775,7.2,6.363,6.363,0,0,1-.249,1.816,9.012,9.012,0,0,1-.925,1.6c-1.1,1.787-1.353,3.944-1.735,6a46.839,46.839,0,0,1-2.1,7.865c-1.255,3.47-2.949,7.061-2.377,10.721a10.986,10.986,0,0,1,.335,2.631,7.812,7.812,0,0,1-1.035,2.776c-.428.833-.81,1.688-1.157,2.562s-.7,1.9-.983,2.891c-.341,1.156-.578,2.579.214,3.527a4.526,4.526,0,0,1,.636.781,2.059,2.059,0,0,1,0,1.33q-.665,2.822-1.434,5.621c-.393,1.469-.81,2.926-1.243,4.383-3.169,10.652-6.76,21.194-8.894,32.106-.306,1.567-2.313,2.695-3.88,3.036a5.1,5.1,0,0,1-4.458-1.191l-.306-.306c-1.636-1.735-1.874-4.464-1.735-6.9.578-11.224,6.2-21.5,8.894-32.412a62.1,62.1,0,0,0,1.735-12.034c.63-13.555.879-27.873-2.949-40.889-.8-2.706-1.735-5.783-.312-8.194a8.209,8.209,0,0,1,4.239-3.1,27.271,27.271,0,0,1,21.147.538,7.629,7.629,0,0,1-.029.815,8.287,8.287,0,0,0,.422,3.736,4.66,4.66,0,0,1,.416,1.6Z" transform="translate(-129.683 -271.234)" fill="#303d5c"/>
    <path id="Path_244" data-name="Path 244" d="M234.562,779.342l-.711,2.608a30.1,30.1,0,0,1-1.527,4.591,19.54,19.54,0,0,0-1.353,3.117,9.629,9.629,0,0,0-.231,2.672,7.974,7.974,0,0,0,.37,2.533,6.286,6.286,0,0,0,3.689,3.5,17.346,17.346,0,0,0,5.135.966,4.38,4.38,0,0,0,1.347-.035,3.724,3.724,0,0,0,1.307-.682c2.377-1.735,3.608-4.967,3.822-7.911a9.829,9.829,0,0,0-.4-2.018c-.185-.249-1.983.769-1.214,1.613,1.157,1.261-2.2.607-3.892.5a15.707,15.707,0,0,1-2.2-.364l-2.747-.578c-.9-.2-1.931-.5-2.249-1.365s.376-1.885.919-2.718c1.434-2.215,1.8-4.933,2.134-7.552.064-.515.705-3.846-.619-2.81a3.713,3.713,0,0,0-.919,1.735C234.967,777.867,234.765,778.607,234.562,779.342Z" transform="translate(-117.543 -351.552)" fill="#303d5c"/>
    <path id="Path_245" data-name="Path 245" d="M280.863,681.7c-.781-.948-.549-2.348-.214-3.527.127-.44.266-.879.411-1.313l-10.773-3.643c-.04.966-.081,1.931-.127,2.891a62.208,62.208,0,0,1-1.735,12.039c-2.689,10.906-8.344,21.182-8.894,32.383-.127,2.585.15,5.47,2.059,7.211a5.094,5.094,0,0,0,4.458,1.191c1.561-.341,3.574-1.469,3.88-3.042,2.134-10.906,5.719-21.448,8.894-32.106q1.486-4.962,2.677-10a2.04,2.04,0,0,0,0-1.324A4.045,4.045,0,0,0,280.863,681.7Z" transform="translate(-129.68 -308.537)" opacity="0.05"/>
    <path id="Path_246" data-name="Path 246" d="M240.181,758.623c-.85,1.463-2.151,2.764-2.348,4.447a27.018,27.018,0,0,0,.185,3.047,9.653,9.653,0,0,1-.445,2.487q-1.573,5.684-3.626,11.213a3.053,3.053,0,0,0-.283,1.521,2.647,2.647,0,0,0,1.781,1.775c2.562,1.1,5.453,1.024,8.24.908a4.32,4.32,0,0,0,2.313-.538,4.041,4.041,0,0,0,1.307-3.244c.191-3.47-.4-7.009,0-10.49.139-1.266.4-2.516.607-3.776a11.084,11.084,0,0,0-.162-5.262,12.293,12.293,0,0,0-1.972-3.313,10.338,10.338,0,0,0-2.741-2.729c-.324-.2-1.261-.792-1.59-.416-.168.191-.093.7-.121.937a8.724,8.724,0,0,1-.191,1.087A8.876,8.876,0,0,1,240.181,758.623Z" transform="translate(-118.779 -342.659)" fill="#ee8e9e"/>
    <path id="Path_247" data-name="Path 247" d="M271.77,597.659a2.956,2.956,0,0,0-.2,2.452c.359,1.492.954,2.891,1.44,4.372a60.429,60.429,0,0,1,1.85,7.945c.457,2.429,1.411,5.135,1.018,7.575a54.15,54.15,0,0,1,5.725,17.926c.22,1.608-3.354,3.689-3.285,5.314.133,3.221,2.706,3.47.8,6.06-.093.127.711,3.007.578,3.134-.775.931-1.735,1.671-2.585,2.544a19.582,19.582,0,0,0-2.724,4c-4.915,8.865-12.011,18.927-9.831,28.827a1.735,1.735,0,0,1-.937,1.781,4.7,4.7,0,0,1-2.076.48h-.341c-1.636-1.735-1.874-4.464-1.735-6.9.578-11.224,6.2-21.5,8.894-32.412a62.1,62.1,0,0,0,1.735-12.034c.63-13.555.879-27.873-2.949-40.89-.8-2.706-1.735-5.783-.312-8.194a8.208,8.208,0,0,1,4.239-3.1,27.271,27.271,0,0,1,21.147.538,7.621,7.621,0,0,1-.029.815,8.286,8.286,0,0,0,.422,3.736,4.66,4.66,0,0,1,.422,1.625c0,.035.2-2.18.191-2.151-4.4.636-8.992,3.516-13.393,4.146a30.777,30.777,0,0,0-6.719,1.48A3.013,3.013,0,0,0,271.77,597.659Z" transform="translate(-129.653 -271.188)" opacity="0.05"/>
    <path id="Path_248" data-name="Path 248" d="M226.224,562.621q-.9,2.822-1.561,5.7a4.736,4.736,0,0,0-.162,2.047,11.726,11.726,0,0,1,.578,1.879c.1,1.012-.578,1.908-.989,2.851-.995,2.4.064,5.106,1.11,7.483l3.111,7.061,2.556,5.783c.758,1.735,1.521,3.441,2.249,5.176a168.115,168.115,0,0,1,8.136,24.374,2.944,2.944,0,0,0,.416,1.064c.434.578,1.214.74,1.85,1.093a3.448,3.448,0,0,1,.382,5.505c.364,4.239-2.816,8.333-4.453,12.259-3.765,9.027-3.082,19.2-4.378,28.914l1.463-.85c1.405.642,1.353,2.631,2.111,3.979,1.157,2.024,3.9,2.313,6.222,2.157a4.735,4.735,0,0,0,2.076-.48,1.735,1.735,0,0,0,.937-1.781c-2.186-9.9,4.909-19.956,9.831-28.833a19.247,19.247,0,0,1,2.724-3.99c.833-.879,1.81-1.619,2.585-2.544,2.169-2.6,2.446-6.274,2.313-9.657A54.1,54.1,0,0,0,259.179,609c.387-2.44-.578-5.141-1.018-7.57a59.95,59.95,0,0,0-1.845-7.922c-.486-1.463-1.081-2.891-1.44-4.378a2.333,2.333,0,0,1,1.584-3.348,30.927,30.927,0,0,1,6.731-1.527l15.128-2.174a38.262,38.262,0,0,0,.648-9.7A14.92,14.92,0,0,0,268.3,559.909a2.266,2.266,0,0,0-1.978.127,78.749,78.749,0,0,0-40.1,2.585Z" transform="translate(-114.577 -260.183)" fill="#303d5c"/>
    <path id="Path_249" data-name="Path 249" d="M243.9,418.8a7.448,7.448,0,0,1-.665,4.331,6.818,6.818,0,0,1-1.735,1.9,12.959,12.959,0,0,1-4.985,2.481,5.294,5.294,0,0,0-2.984,1.3c-1.064,1.284-.353,3.221.578,4.626,1.567,2.429,3.747,4.626,6.54,5.407,2.232.607,4.626.231,6.893.63,1.654.283,3.209.966,4.84,1.359a14.3,14.3,0,0,0,13.133-3.666c-2.423-1.862-4.938-3.84-6.193-6.627a9.4,9.4,0,0,1-.474-6.361c.578-2.07,1.891-4.083,1.486-6.187s-2.487-3.562-4.545-4.273a29.27,29.27,0,0,0-5.7-1.157c-1.07-.145-7.841-1.642-8.264-.9-.237.416,1.157,2.891,1.342,3.435A12.953,12.953,0,0,1,243.9,418.8Z" transform="translate(-118.502 -198.143)" fill="#ee8e9e"/>
    <circle id="Ellipse_29" data-name="Ellipse 29" cx="13.74" cy="13.74" r="13.74" transform="translate(120.176 198.112)" fill="#ee8e9e"/>
    <path id="Path_250" data-name="Path 250" d="M233.929,444.815l9.316,1.573a35.276,35.276,0,0,0,6.939.7,19.315,19.315,0,0,1,3.834,0c.879.145,1.735.48,2.608.578,1.087.139,2.192-.069,3.279.069,2.024.26,3.689,1.66,5.2,3,1.8,1.573,3.736,3.406,3.869,5.783a1.619,1.619,0,0,1-.11.8,2.342,2.342,0,0,1-.688.723c-1.735,1.405-2.672,3.5-3.892,5.355a20.777,20.777,0,0,1-4.626,4.99c-.4-.26-1.157.428-1,.873s.619.763.763,1.226c.33,1.052-.971,1.827-1.509,2.793s-.266,2.192-.324,3.319c-.064,1.232-.578,2.411-.717,3.637-.376,2.862,1.035,5.875.04,8.582a2.716,2.716,0,0,1,2.677,2.082,7.829,7.829,0,0,1-.11,3.655,5.031,5.031,0,0,1,2.435,4.6,1.1,1.1,0,0,0,.121.821,1.157,1.157,0,0,0,.468.272,4.626,4.626,0,0,1,2.891,4.308,2.076,2.076,0,0,0,.087.908,2.036,2.036,0,0,0,.671.7,5.354,5.354,0,0,1,2,4.187,3.028,3.028,0,0,1-1.423,2.753,25.205,25.205,0,0,1-6.257,1.862,53.7,53.7,0,0,1-6.055,1.07,54.534,54.534,0,0,1-5.667.179l-12.468-.052c-3.47,0-7.009,0-10.5-.26-3.261-.22-6.6-.63-9.755.226-.393-.665.237-1.446.63-2.116a7.131,7.131,0,0,0,.711-2.932l.786-8.3a15.272,15.272,0,0,0,.058-3.47c-.168-1.22-.63-2.377-.867-3.591-.451-2.313-.04-4.73-.145-7.1a33.268,33.268,0,0,0-1.087-6.187l-2.429-10.143a36.278,36.278,0,0,0-1.214-5.095q-2.857-7.321-5.974-14.52a1.532,1.532,0,0,1,.11-1.29l2.059-3.689a23.409,23.409,0,0,1,1.885-3.007,11.843,11.843,0,0,1,6.939-4.268,12.253,12.253,0,0,1,8.1,1.2c.96.515,1.85,1.157,2.828,1.637A11.413,11.413,0,0,0,233.929,444.815Z" transform="translate(-107.288 -210.254)" fill="#35b23d"/>
    <path id="Path_251" data-name="Path 251" d="M306.261,463.85l3.25,4.325a6.024,6.024,0,0,1,.752,1.2c.492,1.157.22,2.463.486,3.678a7.748,7.748,0,0,0,.948,2.192,49.769,49.769,0,0,0,4.129,6.141,10.675,10.675,0,0,0,2.568,2.533,4.21,4.21,0,0,0,3.47.613,2.145,2.145,0,0,0-1.157,1.029,12.555,12.555,0,0,0-.8,8.038,8.4,8.4,0,0,0,.9,2.631,3.938,3.938,0,0,0,2.07,1.787,3.048,3.048,0,0,1-3.585,2.573,6.036,6.036,0,0,1-1.781-.885l-5.2-3.371a15,15,0,0,1-2.423-1.822c-.971-.971-1.654-2.2-2.6-3.2-1.613-1.735-3.984-2.729-5.129-4.782a22.078,22.078,0,0,1-1.278-4.216c-.289-.919-.711-1.787-.989-2.712a12.155,12.155,0,0,1,1.07-8.674C302.259,468.239,304.335,466.128,306.261,463.85Z" transform="translate(-146.542 -220.239)" fill="#35b23d"/>
    <path id="Path_252" data-name="Path 252" d="M254.334,385.046a18.088,18.088,0,0,0-4.834-5.025,16.475,16.475,0,0,0-8.715-3.689,9.42,9.42,0,0,0-3.926.642c-.058-3.88-1.023-6.465-3.441-6.072-4.516.723-9.541,2.463-11.271,6.7-1.3,3.2-.295,6.8.041,10.241a7.83,7.83,0,0,1-.1,2.724,9.547,9.547,0,0,1-2.388,3.747,19.921,19.921,0,0,0-3.441,4.817,7.064,7.064,0,0,0-.231,5.783,4.25,4.25,0,0,1,.578,1.515c.052,1.157-1.157,1.92-2.082,2.672-3.389,2.8-3.244,7.917-3.273,12.323a62.315,62.315,0,0,1-5.893,26.022,7.957,7.957,0,0,0,8.905-1.157,29.739,29.739,0,0,1-2.024,5.829c2.891,1.388,6.326-.891,7.766-3.736s1.608-6.153,2.631-9.171,2.839-5.644,3.614-8.674a8,8,0,0,1,1.029-2.891,7.574,7.574,0,0,1,1.8-1.538c2.961-2.122-1.394-18.2-.237-21.662,1.735.382,4.881-7.917,6.679-16.353a8.548,8.548,0,0,0,3.909.387,4.984,4.984,0,0,1,1.4-.1,3.724,3.724,0,0,1,1.22.5,30.037,30.037,0,0,0,4.158,2.14c2.984,1.11,6.263.966,9.437.8a9.385,9.385,0,0,0-1.318-6.772Z" transform="translate(-106.846 -181.023)" fill="#303d5c"/>
    <g id="Group_8" data-name="Group 8" transform="translate(98.526 189.837)" opacity="0.1">
      <path id="Path_253" data-name="Path 253" d="M206.982,447.44a62.4,62.4,0,0,0,5.893-26.022c0-4.406-.121-9.518,3.273-12.323.9-.752,2.134-1.5,2.076-2.672a4.129,4.129,0,0,0-.578-1.515,7.093,7.093,0,0,1,.226-5.783,20.084,20.084,0,0,1,3.441-4.817,9.686,9.686,0,0,0,2.394-3.747,7.975,7.975,0,0,0,.1-2.724c-.335-3.47-1.347-7.043-.04-10.241,1.671-4.1,6.43-5.858,10.831-6.621a2.314,2.314,0,0,0-1.157-.075c-4.516.723-9.541,2.463-11.27,6.7-1.3,3.2-.295,6.8.04,10.241a7.83,7.83,0,0,1-.1,2.724,9.547,9.547,0,0,1-2.388,3.747,19.921,19.921,0,0,0-3.441,4.817,7.064,7.064,0,0,0-.231,5.783,4.251,4.251,0,0,1,.578,1.515c.052,1.157-1.157,1.92-2.082,2.672-3.389,2.8-3.244,7.917-3.273,12.323a62.314,62.314,0,0,1-5.893,26.022,7.7,7.7,0,0,0,4.366.815A7.477,7.477,0,0,1,206.982,447.44Z" transform="translate(-205.38 -370.859)"/>
      <path id="Path_254" data-name="Path 254" d="M218.869,507.1a29.718,29.718,0,0,0,2.018-5.829,7.327,7.327,0,0,1-1.955,1.3,29.428,29.428,0,0,1-1.683,4.534,4.28,4.28,0,0,0,2.654.341,4.264,4.264,0,0,1-1.035-.341Z" transform="translate(-210.386 -425.857)"/>
      <path id="Path_255" data-name="Path 255" d="M262.625,380.953a9.253,9.253,0,0,1,2.614-.613l-.306-.029a9.253,9.253,0,0,0-2.313.173C262.613,380.641,262.625,380.791,262.625,380.953Z" transform="translate(-229.519 -374.84)"/>
      <path id="Path_256" data-name="Path 256" d="M273.942,403.7a30.433,30.433,0,0,1-4.164-2.14,3.626,3.626,0,0,0-1.22-.5,4.346,4.346,0,0,0-1.278.081,4.741,4.741,0,0,1,.885.416,30.032,30.032,0,0,0,4.158,2.14,18.725,18.725,0,0,0,6.968.9A16.41,16.41,0,0,1,273.942,403.7Z" transform="translate(-231.485 -383.589)"/>
      <path id="Path_257" data-name="Path 257" d="M260.261,400.57c-.029.121-.058.243-.081.37a8.312,8.312,0,0,0,2.041.052,8.784,8.784,0,0,1-1.96-.422Z" transform="translate(-228.491 -383.389)"/>
    </g>
    <path id="Path_258" data-name="Path 258" d="M197.5,474.719a5,5,0,0,1-1.347,4.013,8.779,8.779,0,0,1-1.914,1.405,5.037,5.037,0,0,1-2.273.856,4.28,4.28,0,0,1-2.891-1.261c-2.388-2.1-3.585-5.2-4.69-8.194a61.407,61.407,0,0,1-3.545-12.109c-.671-4.47-.387-9.1-1.665-13.439,1.157-2.273,1.862-4.776,3.152-6.968a31.685,31.685,0,0,0,2.174-4.077,14.023,14.023,0,0,0,.359-9.4,1.272,1.272,0,0,1,1.5.081,3.059,3.059,0,0,1,.908,1.313,11.652,11.652,0,0,1,.9,5.523,2.232,2.232,0,0,0,.162,1.353,1.735,1.735,0,0,0,1.469.619,12.908,12.908,0,0,0,3.389-.619,31.633,31.633,0,0,1,10.449-.862,5,5,0,0,1,2.035.5,1.9,1.9,0,0,1,1.052,1.706l-8.356,1.22a3.423,3.423,0,0,0-1.735.578,1.156,1.156,0,0,0-.243,1.654,3.878,3.878,0,0,0,.578.387,1.735,1.735,0,0,1-.069,2.747,1.735,1.735,0,0,0-.578.393c-.341.457.116,1.064.254,1.619a2.035,2.035,0,0,1-1,2.082,7.065,7.065,0,0,1-2.313.781,24.568,24.568,0,0,0-4.771,1.625,2.579,2.579,0,0,0-1.243.925,2.79,2.79,0,0,0,.145,2.342l2.174,5.864c.341.919.682,1.839,1.11,2.718.578,1.156,1.237,2.232,1.8,3.371a35.348,35.348,0,0,1,1.359,3.285C194.934,469.757,197.125,471.55,197.5,474.719Z" transform="translate(-95.8 -203.999)" fill="#ee8e9e"/>
    <path id="Path_259" data-name="Path 259" d="M377.219,441.369a2.6,2.6,0,0,0-.954,1.394.578.578,0,0,0,.22.624.636.636,0,0,0,.387,0,3.673,3.673,0,0,0,1.677-.8,1.736,1.736,0,0,0-.5.4.578.578,0,0,0-.064.613.792.792,0,0,0,.549.289,5.36,5.36,0,0,0,2.423-.116,3.243,3.243,0,0,0-1.012.578,1.342,1.342,0,0,0-.451,1.041.5.5,0,0,0,.179.393.729.729,0,0,0,.266.093,6.529,6.529,0,0,0,2.249,0,1.157,1.157,0,0,0,.948-.578,1.417,1.417,0,0,0-.22-1.087,6.032,6.032,0,0,1-.578-2.753,1.116,1.116,0,0,0-.081-.578,1.012,1.012,0,0,0-.5-.364,4.209,4.209,0,0,0-2.764-.549,5.708,5.708,0,0,0-1.77,1.394Z" transform="translate(-178.912 -210.134)" fill="#ee8e9e"/>
    <path id="Path_260" data-name="Path 260" d="M389.24,410.422l-27.6,14.931a.578.578,0,0,0,.04,1.029l4.707,1.775a1.1,1.1,0,0,1,.619.578l3.66,7.518c.069.335.682.422.688.087l-.578-6.228a2.226,2.226,0,0,1,.5-1.255l14.306-14.017a.335.335,0,0,1,.312-.093.33.33,0,0,1,.179.526L373.771,430.4a2.752,2.752,0,0,0-.486,1.243l-.734,5.378c.058.468.428.648.723.226l2.66-3.117a.578.578,0,0,1,.775-.133l6.853,4.99a.578.578,0,0,0,.867-.341l5.632-27.6a.578.578,0,0,0-.81-.625Z" transform="translate(-172.631 -197.685)" fill="#35b23d"/>
    <ellipse id="Ellipse_30" data-name="Ellipse 30" cx="34.39" cy="6.615" rx="34.39" ry="6.615" transform="translate(495.931 457.964)" fill="#35b23d"/>
    <ellipse id="Ellipse_31" data-name="Ellipse 31" cx="4.002" cy="5.239" rx="4.002" ry="5.239" transform="translate(525.747 456.53)" fill="#3f3d56"/>
    <ellipse id="Ellipse_32" data-name="Ellipse 32" cx="4.002" cy="5.239" rx="4.002" ry="5.239" transform="translate(525.747 450.128)" fill="#3f3d56"/>
    <ellipse id="Ellipse_33" data-name="Ellipse 33" cx="4.002" cy="5.239" rx="4.002" ry="5.239" transform="translate(525.747 443.721)" fill="#3f3d56"/>
    <ellipse id="Ellipse_34" data-name="Ellipse 34" cx="4.002" cy="5.239" rx="4.002" ry="5.239" transform="translate(525.747 437.314)" fill="#3f3d56"/>
    <ellipse id="Ellipse_35" data-name="Ellipse 35" cx="4.002" cy="5.239" rx="4.002" ry="5.239" transform="translate(525.747 430.907)" fill="#3f3d56"/>
    <ellipse id="Ellipse_36" data-name="Ellipse 36" cx="4.002" cy="5.239" rx="4.002" ry="5.239" transform="translate(525.747 424.505)" fill="#3f3d56"/>
    <ellipse id="Ellipse_37" data-name="Ellipse 37" cx="4.002" cy="5.239" rx="4.002" ry="5.239" transform="translate(525.747 418.098)" fill="#3f3d56"/>
    <path id="Path_261" data-name="Path 261" d="M952.006,676.185a20.3,20.3,0,0,0,1.492-2.192l-10.525-1.735,11.38.087a19.238,19.238,0,0,0,.364-15.2l-15.26,7.917,14.075-10.345a19.181,19.181,0,1,0-31.678,21.46,19.832,19.832,0,0,0-2.186,3.47l13.659,7.1-14.561-4.886a19.193,19.193,0,0,0,3.088,18.007,19.175,19.175,0,1,0,30.151,0,19.2,19.2,0,0,0,0-23.709Z" transform="translate(-407.275 -296.686)" fill="#35b23d"/>
    <path id="Path_262" data-name="Path 262" d="M917.78,719.144A19.084,19.084,0,0,0,921.88,731a19.175,19.175,0,1,0,30.151,0C954.6,727.737,917.78,716.993,917.78,719.144Z" transform="translate(-407.294 -327.785)" opacity="0.1"/>
    <ellipse id="Ellipse_38" data-name="Ellipse 38" cx="19.632" cy="3.776" rx="19.632" ry="3.776" transform="translate(187.418 443.097)" fill="#35b23d"/>
    <ellipse id="Ellipse_39" data-name="Ellipse 39" cx="2.284" cy="2.99" rx="2.284" ry="2.99" transform="translate(205.096 442.276)" fill="#3f3d56"/>
    <ellipse id="Ellipse_40" data-name="Ellipse 40" cx="2.284" cy="2.99" rx="2.284" ry="2.99" transform="translate(205.096 438.621)" fill="#3f3d56"/>
    <ellipse id="Ellipse_41" data-name="Ellipse 41" cx="2.284" cy="2.99" rx="2.284" ry="2.99" transform="translate(205.096 434.96)" fill="#3f3d56"/>
    <ellipse id="Ellipse_42" data-name="Ellipse 42" cx="2.284" cy="2.99" rx="2.284" ry="2.99" transform="translate(205.096 431.306)" fill="#3f3d56"/>
    <ellipse id="Ellipse_43" data-name="Ellipse 43" cx="2.284" cy="2.99" rx="2.284" ry="2.99" transform="translate(205.096 427.645)" fill="#3f3d56"/>
    <ellipse id="Ellipse_44" data-name="Ellipse 44" cx="2.284" cy="2.99" rx="2.284" ry="2.99" transform="translate(205.096 423.991)" fill="#3f3d56"/>
    <ellipse id="Ellipse_45" data-name="Ellipse 45" cx="2.284" cy="2.99" rx="2.284" ry="2.99" transform="translate(205.096 420.336)" fill="#3f3d56"/>
    <path id="Path_263" data-name="Path 263" d="M377.112,718.4a10.868,10.868,0,0,1-.85-1.255l6-.983-6.494.046a10.987,10.987,0,0,1-.208-8.674l8.715,4.522-8.038-5.91A10.952,10.952,0,1,1,394.321,718.4a10.608,10.608,0,0,1,1.249,2l-7.8,4.048,8.316-2.776a11.04,11.04,0,0,1,.578,3.516,10.884,10.884,0,0,1-2.348,6.766,10.947,10.947,0,1,1-17.209,0,10.952,10.952,0,0,1,0-13.537Z" transform="translate(-178.291 -320.1)" fill="#35b23d"/>
    <path id="Path_264" data-name="Path 264" d="M396.669,742.942a10.883,10.883,0,0,1-2.348,6.766,10.947,10.947,0,1,1-17.209,0C375.643,747.846,396.669,741.71,396.669,742.942Z" transform="translate(-178.291 -337.872)" opacity="0.1"/>
    <ellipse id="Ellipse_46" data-name="Ellipse 46" cx="13.202" cy="2.539" rx="13.202" ry="2.539" transform="translate(47.615 413.963)" fill="#35b23d"/>
    <ellipse id="Ellipse_47" data-name="Ellipse 47" cx="1.538" cy="2.012" rx="1.538" ry="2.012" transform="translate(59.504 413.414)" fill="#3f3d56"/>
    <ellipse id="Ellipse_48" data-name="Ellipse 48" cx="1.538" cy="2.012" rx="1.538" ry="2.012" transform="translate(59.504 410.956)" fill="#3f3d56"/>
    <ellipse id="Ellipse_49" data-name="Ellipse 49" cx="1.538" cy="2.012" rx="1.538" ry="2.012" transform="translate(59.504 408.493)" fill="#3f3d56"/>
    <ellipse id="Ellipse_50" data-name="Ellipse 50" cx="1.538" cy="2.012" rx="1.538" ry="2.012" transform="translate(59.504 406.035)" fill="#3f3d56"/>
    <ellipse id="Ellipse_51" data-name="Ellipse 51" cx="1.538" cy="2.012" rx="1.538" ry="2.012" transform="translate(59.504 403.578)" fill="#3f3d56"/>
    <ellipse id="Ellipse_52" data-name="Ellipse 52" cx="1.538" cy="2.012" rx="1.538" ry="2.012" transform="translate(59.504 401.12)" fill="#3f3d56"/>
    <ellipse id="Ellipse_53" data-name="Ellipse 53" cx="1.538" cy="2.012" rx="1.538" ry="2.012" transform="translate(59.504 398.662)" fill="#3f3d56"/>
    <path id="Path_265" data-name="Path 265" d="M129.454,697.64a6.362,6.362,0,0,1-.578-.844l4.048-.659h-4.366a7.356,7.356,0,0,1-.145-5.829l5.858,3.076-5.407-3.973a7.361,7.361,0,1,1,12.144,8.24,7.455,7.455,0,0,1,.839,1.342l-5.228,2.712,5.586-1.874a7.234,7.234,0,0,1,.387,2.359,7.344,7.344,0,0,1-1.573,4.551,7.367,7.367,0,1,1-11.565,0,7.35,7.35,0,0,1,0-9.1Z" transform="translate(-74.166 -313.793)" fill="#35b23d"/>
    <path id="Path_266" data-name="Path 266" d="M142.6,714.151a7.344,7.344,0,0,1-1.573,4.551,7.367,7.367,0,1,1-11.565,0C128.47,717.453,142.6,713.324,142.6,714.151Z" transform="translate(-74.17 -325.753)" opacity="0.1"/>
  </g>
</svg>
