<svg xmlns="http://www.w3.org/2000/svg" width="509" height="560.641" viewBox="0 0 509 560.641">
  <g id="pricing-image" transform="translate(-1244 -408.359)">
    <g id="undraw_online_payments_luau" transform="translate(1244 408.359)">
      <path id="Path_659" data-name="Path 659" d="M189.324,558.222l-3.055-12.051a156.493,156.493,0,0,0-16.6-5.956l-.386,5.6-1.564-6.17c-7-2-11.756-2.878-11.756-2.878s6.429,24.449,19.914,43.14l15.713,2.76-12.207,1.76a63.294,63.294,0,0,0,5.46,5.786c19.617,18.209,41.466,26.563,48.8,18.66s-2.62-29.071-22.237-47.28c-6.081-5.645-13.721-10.175-21.368-13.74Z" transform="translate(-155.96 -333.809)" fill="#e6e6e6"/>
      <path id="Path_660" data-name="Path 660" d="M247.741,524.826l3.614-11.9a156.5,156.5,0,0,0-11.133-13.681L237,503.845l1.85-6.091c-4.956-5.327-8.576-8.541-8.576-8.541s-7.134,24.253-5.252,47.223l12.024,10.485-11.359-4.8a63.322,63.322,0,0,0,1.683,7.776c7.381,25.727,21.767,44.173,32.132,41.2s12.784-26.24,5.4-51.968c-2.288-7.976-6.486-15.8-11.19-22.807Z" transform="translate(-185.319 -313.5)" fill="#e6e6e6"/>
      <rect id="Rectangle_198" data-name="Rectangle 198" width="508.753" height="1.284" transform="translate(0.046 279.384)" fill="#3f3d56"/>
      <path id="Path_661" data-name="Path 661" d="M286.308,434.324s-3.962,47.638-4.813,57.846a72.593,72.593,0,0,1-4.253,18.714,17.6,17.6,0,0,0-1.7,6.805v43.383s-3.4,0-2.552,3.4,1.7,9.357,1.7,9.357h12.76a2.635,2.635,0,0,1,1.7-3.4c2.552-.851,0-7.656,0-7.656l13.61-51.039L323.177,469.2s11.909,38.279,14.461,42.533c0,0,9.357,47.637,11.059,51.89s2.552,4.253,1.7,5.955-.851,3.4,0,4.253,17.013,0,17.013,0l-4.253-60.4L355.5,441.13l-39.13-11.909Z" transform="translate(-205.882 -287.879)" fill="#2f2e41"/>
      <path id="Path_662" data-name="Path 662" d="M276.2,663.836s-4.253-15.312-11.059-3.4-6.805,16.162-6.805,16.162-11.059,16.163,4.253,14.461S274.5,681.7,274.5,681.7s5.955-3.4,5.955-5.955S276.2,663.836,276.2,663.836Z" transform="translate(-198.033 -384.688)" fill="#2f2e41"/>
      <path id="Path_663" data-name="Path 663" d="M409.488,660.867s4.253-15.312,11.058-3.4,6.805,16.162,6.805,16.162,11.059,16.162-4.253,14.461-11.909-9.357-11.909-9.357-5.955-3.4-5.955-5.954S409.488,660.867,409.488,660.867Z" transform="translate(-262.42 -383.42)" fill="#2f2e41"/>
      <path id="Path_664" data-name="Path 664" d="M339.6,237.686s1.7,11.058-3.4,13.61,11.058,11.909,15.312,11.909,11.909-8.507,11.909-8.507-4.253-12.76-3.4-15.312Z" transform="translate(-232.516 -206.078)" fill="#a0616a"/>
      <circle id="Ellipse_138" data-name="Ellipse 138" cx="17.864" cy="17.864" r="17.864" transform="translate(98.581 4.387)" fill="#a0616a"/>
      <path id="Path_665" data-name="Path 665" d="M366.586,274.418,345.32,261.534s-12.1,13.735-25.19-1.577l-22.447,5.955,3.4,57.844s-5.1,22.968-3.4,27.221-4.253,5.955-2.552,6.805,0,6.805,0,6.805,33.176,17.013,69.754,4.253l-3.4-11.059a8.926,8.926,0,0,0-1.7-8.506s3.4-5.1-.851-9.357c0,0,1.7-7.656-2.552-11.058l-.851-11.909L358.079,311Z" transform="translate(-215.265 -215.589)" fill="#cfcce0"/>
      <path id="Path_666" data-name="Path 666" d="M336.029,196.471s-2.13,4.609,6.389,2.765c0,0,3.195,1.844,3.195-.922,0,0,4.259,4.609,5.324,1.844s3.195.922,3.195.922l2.13-4.609,2.13,2.765h7.454s2.13-18.436-23.427-16.592S329.433,213.7,329.433,213.7s.206-5.243,2.336-2.478S336.029,196.471,336.029,196.471Z" transform="translate(-228.726 -182.515)" fill="#2f2e41"/>
      <path id="Path_667" data-name="Path 667" d="M421.536,344.589l.851,17.864s3.4,33.176-3.4,47.637v7.656s-1.7,19.565-10.208,18.714,2.552-28.072,2.552-28.072l-1.7-37.429-1.7-21.266Z" transform="translate(-262.559 -251.734)" fill="#a0616a"/>
      <path id="Path_668" data-name="Path 668" d="M398.043,285.655l8.486-1.379a41.43,41.43,0,0,1,11.93,21.794c2.552,13.61,3.4,16.162,3.4,16.162l-20.416,5.1-11.059-21.266Z" transform="translate(-256.079 -225.976)" fill="#cfcce0"/>
      <rect id="Rectangle_199" data-name="Rectangle 199" width="134.242" height="66.685" transform="translate(105.427 49.972)" fill="#fff"/>
      <path id="Path_669" data-name="Path 669" d="M358.713,275.365a15.689,15.689,0,0,0-9.188-1.757,13.546,13.546,0,0,0,15.046,9.053A15.7,15.7,0,0,0,358.713,275.365Z" transform="translate(-238.628 -221.383)" fill="#009CD7"/>
      <path id="Path_670" data-name="Path 670" d="M374.166,348.571H352.611a4.85,4.85,0,0,0,0,9.7h21.555a4.85,4.85,0,1,0,0-9.7Z" transform="translate(-237.874 -253.434)" fill="#009CD7"/>
      <path id="Path_671" data-name="Path 671" d="M466.151,259.215H345.3a10.706,10.706,0,0,0-10.706,10.706V328.8A10.706,10.706,0,0,0,345.3,339.509H466.151A10.706,10.706,0,0,0,476.857,328.8V269.921a10.705,10.705,0,0,0-10.706-10.706Zm-123.844,7.3c.239-.043,5.9-1.006,10.584,1.814s6.486,8.271,6.56,8.5l.189.588-.608.108a16.15,16.15,0,0,1-2.623.193,15.616,15.616,0,0,1-7.961-2.007c-4.686-2.819-6.486-8.27-6.56-8.5l-.189-.588Zm26.234,54.669H346.987a5.928,5.928,0,1,1,0-11.855h21.555a5.928,5.928,0,1,1,0,11.855Zm98.077-1.078a6.486,6.486,0,0,1-6.467,6.467H443.985a6.486,6.486,0,0,1-6.467-6.467v-9.7a6.486,6.486,0,0,1,6.467-6.467h16.166a6.486,6.486,0,0,1,6.467,6.467Z" transform="translate(-232.25 -215.272)" fill="#009CD7"/>
      <path id="Path_672" data-name="Path 672" d="M527.839,362.209h-7.006a1.886,1.886,0,1,0,0,3.772h7.006a1.886,1.886,0,1,0,0-3.772Zm0,2.694h-7.006a.808.808,0,1,1,0-1.617h7.006a.808.808,0,1,1,0,1.617Z" transform="translate(-310.984 -259.259)" fill="#009CD7"/>
      <path id="Path_673" data-name="Path 673" d="M550.413,362.209h-7.006a1.886,1.886,0,1,0,0,3.772h7.005a1.886,1.886,0,1,0,0-3.772Zm0,2.694h-7.006a.808.808,0,1,1,0-1.617h7.005a.808.808,0,1,1,0,1.617Z" transform="translate(-320.625 -259.259)" fill="#009CD7"/>
      <path id="Path_674" data-name="Path 674" d="M527.839,353.744h-7.006a1.886,1.886,0,1,0,0,3.772h7.006a1.886,1.886,0,1,0,0-3.772Zm0,2.694h-7.006a.808.808,0,1,1,0-1.617h7.006a.808.808,0,1,1,0,1.617Z" transform="translate(-310.984 -255.644)" fill="#009CD7"/>
      <path id="Path_675" data-name="Path 675" d="M550.413,353.744h-7.006a1.886,1.886,0,1,0,0,3.772h7.005a1.886,1.886,0,1,0,0-3.772Zm0,2.694h-7.006a.808.808,0,1,1,0-1.617h7.005a.808.808,0,1,1,0,1.617Z" transform="translate(-320.625 -255.644)" fill="#009CD7"/>
      <path id="Path_676" data-name="Path 676" d="M527.839,345.279h-7.006a1.886,1.886,0,1,0,0,3.772h7.006a1.886,1.886,0,1,0,0-3.772Zm0,2.694h-7.006a.808.808,0,1,1,0-1.617h7.006a.808.808,0,1,1,0,1.617Z" transform="translate(-310.984 -252.028)" fill="#009CD7"/>
      <path id="Path_677" data-name="Path 677" d="M550.413,345.279h-7.006a1.886,1.886,0,1,0,0,3.772h7.005a1.886,1.886,0,1,0,0-3.772Zm0,2.694h-7.006a.808.808,0,1,1,0-1.617h7.005a.808.808,0,1,1,0,1.617Z" transform="translate(-320.625 -252.028)" fill="#009CD7"/>
      <path id="Path_678" data-name="Path 678" d="M275.346,310.827s-7.656,32.325,1.7,32.325,31.474-36.578,31.474-36.578,22.968-11.909,13.61-16.162-21.266,6.805-21.266,6.805L287.125,316.3l-.72-9.721Z" transform="translate(-205.688 -228.18)" fill="#a0616a"/>
      <path id="Path_679" data-name="Path 679" d="M292.872,275.454l-5.1-5.1s-10.208,5.955-11.059,11.909-5.1,24.669-5.1,24.669l15.737,1.276,5.1-7.656Z" transform="translate(-205.35 -220.028)" fill="#cfcce0"/>
      <path id="Path_680" data-name="Path 680" d="M726.761,241.3c-.641-1.892-8.677-8.324-3.753-9.406l4.038,5.385,18.567-18.566,1.867,1.867Z" transform="translate(-397.456 -197.975)" fill="#009CD7"/>
      <path id="Path_681" data-name="Path 681" d="M726.761,351.495c-.641-1.892-8.677-8.324-3.753-9.406l4.038,5.385,18.567-18.566,1.867,1.867Z" transform="translate(-397.456 -245.037)" fill="#009CD7"/>
      <path id="Path_682" data-name="Path 682" d="M726.761,463.263c-.641-1.892-8.677-8.324-3.753-9.405l4.038,5.385,18.567-18.566,1.867,1.867Z" transform="translate(-397.456 -292.771)" fill="#009CD7"/>
      <circle id="Ellipse_139" data-name="Ellipse 139" cx="5.729" cy="5.729" r="5.729" transform="translate(379.812 29.92)" fill="#3f3d56"/>
      <rect id="Rectangle_200" data-name="Rectangle 200" width="92.24" height="1.146" transform="translate(407.026 35.076)" fill="#3f3d56"/>
      <circle id="Ellipse_140" data-name="Ellipse 140" cx="5.729" cy="5.729" r="5.729" transform="translate(379.812 93.052)" fill="#3f3d56"/>
      <rect id="Rectangle_201" data-name="Rectangle 201" width="92.24" height="1.146" transform="translate(407.026 98.208)" fill="#3f3d56"/>
      <circle id="Ellipse_141" data-name="Ellipse 141" cx="5.729" cy="5.729" r="5.729" transform="translate(379.812 157.086)" fill="#3f3d56"/>
      <rect id="Rectangle_202" data-name="Rectangle 202" width="92.24" height="1.146" transform="translate(407.026 162.242)" fill="#3f3d56"/>
      <path id="Path_683" data-name="Path 683" d="M578.686,290.7H550.04V261.485h19.479v1.146H551.186v26.927H577.54V276.381h1.146Z" transform="translate(-234.911 -111.675)" fill="#3f3d56"/>
      <path id="Path_684" data-name="Path 684" d="M578.686,178.7H550.04V149.485h19.479v1.146H551.186v26.927H577.54V164.381h1.146Z" transform="translate(-234.911 -63.842)" fill="#3f3d56"/>
      <path id="Path_685" data-name="Path 685" d="M578.686,64.7H550.04V35.485h19.479v1.146H551.186V63.558H577.54V50.381h1.146Z" transform="translate(-234.911 -15.155)" fill="#3f3d56"/>
    </g>
    <rect id="Rectangle_204" data-name="Rectangle 204" width="509" height="232" rx="5" transform="translate(1244 737)" fill="#009CD7"/>
    <text id="Payment_method" data-name="Payment method" transform="translate(1268 772)" fill="#fff" font-size="18" font-family="Montserrat-Bold, Montserrat" font-weight="700"><tspan x="0" y="0">Payment method</tspan></text>
    <text id="EFT" transform="translate(1268 825)" fill="#fff" font-size="25" font-family="Montserrat-Bold, Montserrat" font-weight="700"><tspan x="0" y="0">EFT</tspan></text>
    <text id="_14..._.47" data-name="14...…….47" transform="translate(1268 917)" fill="#fff" font-size="25" font-family="Montserrat-Bold, Montserrat" font-weight="700"><tspan x="0" y="0">14...…….47</tspan></text>
    <text id="Capitec_Bank" data-name="Capitec Bank" transform="translate(1520 825)" fill="#fff" font-size="25" font-family="Montserrat-Bold, Montserrat" font-weight="700"><tspan x="0" y="0">Capitec Bank</tspan></text>
    <text id="Bank" transform="translate(1520 850)" fill="#fff" font-size="13" font-family="Montserrat-Medium, Montserrat" font-weight="500"><tspan x="0" y="0">Bank</tspan></text>
    <text id="Payment_method-2" data-name="Payment method" transform="translate(1268 850)" fill="#fff" font-size="13" font-family="Montserrat-Medium, Montserrat" font-weight="500"><tspan x="0" y="0">Payment method</tspan></text>
    <text id="Account_number" data-name="Account number" transform="translate(1268 942)" fill="#fff" font-size="13" font-family="Montserrat-Medium, Montserrat" font-weight="500"><tspan x="0" y="0">Account number</tspan></text>
    <text id="Registered_users_only." data-name="Registered users only." transform="translate(1392 918)" fill="#fff" font-size="13" font-family="Montserrat-Regular, Montserrat"><tspan x="0" y="0">Registered users only.</tspan></text>
  </g>
</svg>
