<svg xmlns="http://www.w3.org/2000/svg" xmlns:xlink="http://www.w3.org/1999/xlink" width="469" height="372.856" viewBox="0 0 469 372.856">
  <defs>
    <linearGradient id="linear-gradient" x1="0.5" y1="1" x2="0.5" gradientUnits="objectBoundingBox">
      <stop offset="0" stop-color="gray" stop-opacity="0.251"/>
      <stop offset="0.54" stop-color="gray" stop-opacity="0.122"/>
      <stop offset="1" stop-color="gray" stop-opacity="0.102"/>
    </linearGradient>
  </defs>
  <g id="study-book" transform="translate(0 -0.008)">
    <path id="Path_1" data-name="Path 1" d="M370.836,120.519c-29.676-1.032-57.944-10.61-84.933-21.092s-53.721-22.1-82.686-27.649c-18.63-3.572-39.938-4.076-54.945,5.91-14.448,9.629-19.116,26.2-21.624,41.6-1.889,11.582-3,23.77,2.178,34.614,3.59,7.529,9.968,13.857,14.375,21.092,15.347,25.091,4.5,56.032-12.128,80.531-7.795,11.5-16.851,22.468-22.867,34.692s-8.8,26.251-3.54,38.732c5.223,12.38,17.662,21.661,31.134,28.195,27.369,13.274,59.608,17.071,91.068,19.221,69.618,4.764,139.6,2.7,209.4.637,25.833-.766,51.777-1.541,77.188-5.534,14.113-2.219,28.681-5.736,38.929-14.237,13-10.789,16.227-29.061,7.515-42.588-14.622-22.692-55.023-28.328-65.257-52.685-5.622-13.4.156-28.332,8.327-40.768,17.534-26.668,46.921-50.066,48.471-80.549,1.064-20.941-13.068-41.9-34.912-51.813-22.894-10.422-54.652-9.1-71.535,8.088C427.6,114.631,397.037,121.427,370.836,120.519Z" transform="translate(-95.785 -57.504)" fill="#35b23d" opacity="0.1"/>
    <path id="Path_2" data-name="Path 2" d="M231.7,532.162,74.754,531.4,59.16,494.82l55.142-4-9.611-40.1,109.065-14.136L109.318,400.272l9.226-2.192,167.935,27.4-9.248,62.584-13.219,34.394Z" transform="translate(-32.034 -215.546)" fill="#35b23d"/>
    <path id="Path_3" data-name="Path 3" d="M187,698.663s9.629-1.541,15.406,5.264c0,0-4.237,3.338-13.352-1.284Z" transform="translate(-141.872 -398.132)" fill="#35b23d"/>
    <path id="Path_4" data-name="Path 4" d="M180.128,698.51s-6.144,7.561-3.118,15.98c0,0,5.007-2,5.553-12.211Z" transform="translate(-136.009 -398.13)" fill="#35b23d"/>
    <path id="Path_5" data-name="Path 5" d="M172.76,668.512s3.852-7.066,19.258,2.825c0,0-2.054,4.75-8.859,4.365S174.557,672.236,172.76,668.512Z" transform="translate(-134.161 -380.563)" fill="#35b23d"/>
    <path id="Path_6" data-name="Path 6" d="M160.237,670.281s-7.992-.917-8.767,17.378c0,0,5.067,1.05,8.666-4.737S162.259,673.89,160.237,670.281Z" transform="translate(-122.633 -382.841)" fill="#35b23d"/>
    <path id="Path_7" data-name="Path 7" d="M160.44,630.458s4.494-12.454,20.8-3.595c0,0-3.723,11.426-19.13,7.832Z" transform="translate(-127.49 -357.612)" fill="#35b23d"/>
    <path id="Path_8" data-name="Path 8" d="M149.52,590.923s8.474-12.582,23.495-.917c0,0-5.264,11.812-22.211,5.392Z" transform="translate(-121.577 -336.694)" fill="#35b23d"/>
    <path id="Path_9" data-name="Path 9" d="M145.6,553.153s9.886-11.56,24.76,0c0,0-9.372,10.143-24.76,2.953Z" transform="translate(-119.455 -316.641)" fill="#35b23d"/>
    <path id="Path_10" data-name="Path 10" d="M142.24,515.125s10.014-12.068,24.265-.642c0,0-11.3,10.656-24.265,3.466Z" transform="translate(-117.635 -295.822)" fill="#35b23d"/>
    <path id="Path_11" data-name="Path 11" d="M144.2,478.136s10.546-15.535,23.88-5.007c0,0-11.3,13.352-23.88,7.96Z" transform="translate(-118.697 -274.11)" fill="#35b23d"/>
    <path id="Path_12" data-name="Path 12" d="M149.52,439.943s11.17-15.406,24.137-3.595c0,0-13.224,13.352-24.137,6.419Z" transform="translate(-121.577 -253.763)" fill="#35b23d"/>
    <path id="Path_13" data-name="Path 13" d="M156.958,402.769s13.224-14.48,24.76-8.712c0,0-13.779,15.379-25.338,12.554Z" transform="translate(-125.292 -232.541)" fill="#35b23d"/>
    <path id="Path_14" data-name="Path 14" d="M166.442,366.3s15.26-17.736,24.137-11.812c0,0-11.243,13.756-25.219,15.131Z" transform="translate(-130.154 -211.196)" fill="#35b23d"/>
    <path id="Path_15" data-name="Path 15" d="M180.153,329.9s13.357-14.48,23.114-10.885c0,0-11.426,15.021-24.907,15.406Z" transform="translate(-137.194 -192.332)" fill="#35b23d"/>
    <path id="Path_16" data-name="Path 16" d="M194.682,293.817s14.765-13.866,21.184-11.426c0,0-10.656,15.406-21.826,14.508Z" transform="translate(-145.684 -172.656)" fill="#35b23d"/>
    <path id="Path_17" data-name="Path 17" d="M208.32,256.479s12.71-16.567,19.648-15.283c0,0-7.708,14.769-19.648,16.965Z" transform="translate(-153.416 -150.468)" fill="#35b23d"/>
    <path id="Path_18" data-name="Path 18" d="M221.753,215.1s11.234-12.7,17.3-12.669c0,0-8.868,16.965-17.768,16.81Z" transform="translate(-160.439 -129.516)" fill="#35b23d"/>
    <path id="Path_19" data-name="Path 19" d="M228.95,169.168,239.8,142.72s.541,23.908-12.233,31.354Z" transform="translate(-163.839 -97.184)" fill="#35b23d"/>
    <path id="Path_20" data-name="Path 20" d="M240.1,108.585s1.8-22.087.642-23.885c0,0,7.758,18.364-.715,33.642Z" transform="translate(-170.586 -65.768)" fill="#35b23d"/>
    <path id="Path_21" data-name="Path 21" d="M137.628,636.154s-11.252-6.974-18.538,10.088c0,0,10.014,6.649,19.863-5.736Z" transform="translate(-105.1 -363.602)" fill="#35b23d"/>
    <path id="Path_22" data-name="Path 22" d="M124.526,595.035s-13.8-6.3-20.5,11.518c0,0,10.661,7.336,21.752-7.015Z" transform="translate(-96.946 -341.516)" fill="#35b23d"/>
    <path id="Path_23" data-name="Path 23" d="M114.96,555.463s-9.886-11.56-24.76,0c0,0,9.372,10.143,24.76,2.953Z" transform="translate(-89.457 -317.892)" fill="#35b23d"/>
    <path id="Path_24" data-name="Path 24" d="M112.845,515.125s-10.014-12.068-24.265-.642c0,0,11.3,10.656,24.265,3.466Z" transform="translate(-88.58 -295.822)" fill="#35b23d"/>
    <path id="Path_25" data-name="Path 25" d="M117.874,475.41s-7.025-17.4-22.294-9.918c0,0,8.253,15.429,21.67,12.807Z" transform="translate(-92.37 -270.945)" fill="#35b23d"/>
    <path id="Path_26" data-name="Path 26" d="M124.918,435.482s-6.983-17.7-22.468-9.5c0,0,9.482,16.227,21.78,12.229Z" transform="translate(-96.09 -249.389)" fill="#35b23d"/>
    <path id="Path_27" data-name="Path 27" d="M142.48,389.877s-2.751-19.409-15.59-21.147c0,0,2.724,20.469,13.861,24.646Z" transform="translate(-109.324 -219.563)" fill="#35b23d"/>
    <path id="Path_28" data-name="Path 28" d="M154.628,353.181s-1.073-23.385-11.688-24.2c0,0,.358,17.75,10.491,27.512Z" transform="translate(-118.015 -198.039)" fill="#35b23d"/>
    <path id="Path_29" data-name="Path 29" d="M168.967,316.231s-3.164-19.446-13.3-21.821c0,0,1.256,18.832,12.293,26.595Z" transform="translate(-124.907 -179.32)" fill="#35b23d"/>
    <path id="Path_30" data-name="Path 30" d="M189.585,280.564s-.105-20.258-6.3-23.234c0,0-3.838,18.341,4.5,25.82Z" transform="translate(-139.385 -159.243)" fill="#35b23d"/>
    <path id="Path_31" data-name="Path 31" d="M200.458,246.008s-.867-20.858-7.277-23.8c0,0-2.192,16.507,6.319,25.164Z" transform="translate(-145.081 -140.226)" fill="#35b23d"/>
    <path id="Path_32" data-name="Path 32" d="M217.038,208.955S217,191.99,212.425,188.01c0,0-4.549,18.584,2.224,24.357Z" transform="translate(-154.829 -121.708)" fill="#35b23d"/>
    <path id="Path_33" data-name="Path 33" d="M222.143,165.236,217.691,137s-6.048,23.137,4.663,33.335Z" transform="translate(-157.569 -94.087)" fill="#35b23d"/>
    <path id="Path_34" data-name="Path 34" d="M218.078,112.462S206.652,93.479,206.886,91.37c0,0,1.215,19.9,15.59,29.8Z" transform="translate(-152.638 -69.38)" fill="#35b23d"/>
    <path id="Path_35" data-name="Path 35" d="M215.723,90.724S204.939,63.763,200.06,61.58c0,0,15.406,7.832,16.562,28.374Z" transform="translate(-148.943 -53.249)" fill="#35b23d"/>
    <path id="Path_36" data-name="Path 36" d="M220.3,175.514l-.738-.225c9.1-29.68,11.371-48.6,6.4-53.35l.527-.559C231.761,126.387,229.62,145.1,220.3,175.514Z" transform="translate(-159.502 -85.629)" fill="#444053"/>
    <path id="Path_37" data-name="Path 37" d="M165.221,306.373l-1.091-.39c.967-2.719,2.008-5.479,3.1-8.2,9.5-23.678,17.589-45.706,22.775-62.616l.949-.459c-5.2,16.943-13.141,39.814-22.651,63.524C167.216,300.9,166.18,303.649,165.221,306.373Z" transform="translate(-129.488 -146.994)" fill="#444053"/>
    <path id="Path_38" data-name="Path 38" d="M175.035,551.321c-.147-.16-14.9-16.773-25.182-45.133a166.986,166.986,0,0,1-9.936-51.713c-.706-22.069,3.925-46.71,11.857-69.1l.862,1.009c-17.809,50.241-10.734,93.292-1.348,119.217,10.175,28.1,24.76,44.532,24.9,44.7Z" transform="translate(-116.339 -228.578)" fill="#444053"/>
    <path id="Path_39" data-name="Path 39" d="M605.037,670.36s-10.395,12.687-2.141,31.868L519.9,738.222l-7.965,1.669-3.668-16.048,2.453-20.253V692.521Z" transform="translate(-315.831 -382.887)" fill="#d5d6db"/>
    <path id="Path_40" data-name="Path 40" d="M59.16,584.331,174.03,563.39l152.208,24.247L231.7,621.673Z" transform="translate(-32.034 -305.057)" fill="#35b23d"/>
    <path id="Path_41" data-name="Path 41" d="M59.16,584.331,174.03,563.39l152.208,24.247L231.7,621.673Z" transform="translate(-32.034 -305.057)" fill="#35b23d"/>
    <path id="Path_42" data-name="Path 42" d="M142.633,652.47s-10.743,20.354,1.637,39.154l170.342,36.911s-10.574-16.214.546-38.718Z" transform="translate(-115.507 -373.2)" fill="#35b23d"/>
    <path id="Path_43" data-name="Path 43" d="M142.633,652.47s-10.743,20.354,1.637,39.154l170.342,36.911s-10.574-16.214.546-38.718Z" transform="translate(-115.507 -373.2)" opacity="0.1"/>
    <path id="Path_44" data-name="Path 44" d="M155.588,667.86s-6.14,14.893,0,24.531" transform="translate(-123.385 -381.534)" opacity="0.1"/>
    <path id="Path_45" data-name="Path 45" d="M321.652,770.44l95.1-40.58s5.319,1.146,1.88,5.044-95.144,39.433-95.144,39.433L151.31,733.528Z" transform="translate(-122.547 -415.105)" fill="#35b23d"/>
    <path id="Path_46" data-name="Path 46" d="M321.652,770.44l95.1-40.58s5.319,1.146,1.88,5.044-95.144,39.433-95.144,39.433L151.31,733.528Z" transform="translate(-122.547 -415.105)" opacity="0.1"/>
    <path id="Path_47" data-name="Path 47" d="M501,742.86s-9.171,11,0,27.512" transform="translate(-309.686 -422.144)" opacity="0.1"/>
    <rect id="Rectangle_2" data-name="Rectangle 2" width="43.363" height="0.459" transform="translate(194.576 334.252) rotate(-18.45)" opacity="0.1"/>
    <rect id="Rectangle_3" data-name="Rectangle 3" width="52.836" height="0.459" transform="translate(194.56 337.944) rotate(-20.82)" opacity="0.1"/>
    <rect id="Rectangle_4" data-name="Rectangle 4" width="61.241" height="0.459" transform="translate(194.836 342.295) rotate(-22.26)" opacity="0.1"/>
    <rect id="Rectangle_5" data-name="Rectangle 5" width="70.494" height="0.459" transform="translate(195.497 346.132) rotate(-24.31)" opacity="0.1"/>
    <rect id="Rectangle_6" data-name="Rectangle 6" width="77.101" height="0.459" transform="matrix(0.916, -0.401, 0.401, 0.916, 196.007, 348)" opacity="0.1"/>
    <rect id="Rectangle_7" data-name="Rectangle 7" width="92.265" height="0.459" transform="translate(197.073 351.136) rotate(-23.36)" opacity="0.1"/>
    <path id="Path_48" data-name="Path 48" d="M152.23,593.905l80.7-16.966,49.163,9.4-66.129,21.321Z" transform="translate(-82.429 -312.394)" fill="#fff" opacity="0.3"/>
    <path id="Path_49" data-name="Path 49" d="M618.553,659.69s4.173,1.683,1.724,4.283S524,693.726,524,693.726Z" transform="translate(-324.348 -377.11)" fill="#35b23d"/>
    <path id="Path_50" data-name="Path 50" d="M704.333,574.18s-10.39,12.683-2.137,31.868L619.2,642.042l-7.965,1.678-3.668-16.048,2.49-20.248V596.341Z" transform="translate(-369.599 -330.809)" fill="#d5d6db"/>
    <path id="Path_51" data-name="Path 51" d="M158.46,488.146,273.325,467.21l152.212,24.247L331,525.493Z" transform="translate(-85.802 -252.978)" fill="#3a3768"/>
    <path id="Path_52" data-name="Path 52" d="M241.89,556.29s-10.748,20.354,1.632,39.154l170.343,36.911s-10.569-16.227.564-38.723Z" transform="translate(-169.25 -321.122)" fill="#3a3768"/>
    <path id="Path_53" data-name="Path 53" d="M241.89,556.29s-10.748,20.354,1.632,39.154l170.343,36.911s-10.569-16.227.564-38.723l-53.868-11.66Z" transform="translate(-169.25 -321.122)" opacity="0.1"/>
    <path id="Path_54" data-name="Path 54" d="M254.88,571.68s-6.135,14.888,0,24.531" transform="translate(-177.151 -329.455)" opacity="0.1"/>
    <path id="Path_55" data-name="Path 55" d="M420.943,674.26l95.1-40.58s5.314,1.146,1.875,5.044-95.144,39.433-95.144,39.433L250.6,637.348Z" transform="translate(-176.31 -363.026)" fill="#3a3768"/>
    <path id="Path_56" data-name="Path 56" d="M420.943,674.26l95.1-40.58s5.314,1.146,1.875,5.044-95.144,39.433-95.144,39.433L250.6,637.348Z" transform="translate(-176.31 -363.026)" opacity="0.1"/>
    <path id="Path_57" data-name="Path 57" d="M600.287,646.68s-9.171,11,0,27.512" transform="translate(-363.449 -370.065)" opacity="0.1"/>
    <rect id="Rectangle_8" data-name="Rectangle 8" width="43.363" height="0.459" transform="translate(240.106 290.156) rotate(-18.45)" opacity="0.1"/>
    <rect id="Rectangle_9" data-name="Rectangle 9" width="52.836" height="0.459" transform="translate(240.097 293.846) rotate(-20.82)" opacity="0.1"/>
    <rect id="Rectangle_10" data-name="Rectangle 10" width="61.241" height="0.459" transform="translate(240.366 298.191) rotate(-22.26)" opacity="0.1"/>
    <rect id="Rectangle_11" data-name="Rectangle 11" width="70.494" height="0.459" transform="translate(241.032 302.029) rotate(-24.31)" opacity="0.1"/>
    <rect id="Rectangle_12" data-name="Rectangle 12" width="77.101" height="0.459" transform="matrix(0.916, -0.401, 0.401, 0.916, 241.535, 303.89)" opacity="0.1"/>
    <rect id="Rectangle_13" data-name="Rectangle 13" width="92.265" height="0.459" transform="translate(242.605 307.026) rotate(-23.36)" opacity="0.1"/>
    <path id="Path_58" data-name="Path 58" d="M251.53,497.725l80.7-16.965,49.163,9.4-66.129,21.321Z" transform="translate(-136.197 -260.315)" fill="#fff" opacity="0.45"/>
    <path id="Path_59" data-name="Path 59" d="M717.869,563.51s4.168,1.683,1.724,4.278-96.263,29.754-96.263,29.754Z" transform="translate(-378.133 -325.031)" fill="#3a3768"/>
    <path id="Path_60" data-name="Path 60" d="M713.749,464.15s-10.395,22.775-2.141,41.955l-82.993,25.907-7.946,1.683L617,517.646l2.453-20.253V486.311Z" transform="translate(-374.706 -271.23)" fill="#d5d6db"/>
    <path id="Path_61" data-name="Path 61" d="M167.89,378.121,282.76,357.18l152.212,24.247-94.544,34.036Z" transform="translate(-90.908 -193.399)" fill="#35b23d"/>
    <path id="Path_62" data-name="Path 62" d="M251.348,446.26s-10.762,20.354,1.619,39.154l170.343,36.911s-10.574-16.227.559-38.718Z" transform="translate(-174.366 -261.543)" fill="#35b23d"/>
    <path id="Path_63" data-name="Path 63" d="M251.348,446.26s-10.762,20.354,1.619,39.154l170.343,36.911s-10.574-16.227.559-38.718Z" transform="translate(-174.366 -261.543)" opacity="0.1"/>
    <path id="Path_64" data-name="Path 64" d="M264.318,461.65s-6.14,14.893,0,24.531" transform="translate(-182.26 -269.876)" opacity="0.1"/>
    <path id="Path_65" data-name="Path 65" d="M430.382,568.561l95.1-30.492s5.319,1.146,1.88,5.044-95.144,29.346-95.144,29.346L260.04,531.65Z" transform="translate(-181.421 -307.78)" fill="#35b23d"/>
    <path id="Path_66" data-name="Path 66" d="M430.382,568.561l95.1-30.492s5.319,1.146,1.88,5.044-95.144,29.346-95.144,29.346L260.04,531.65Z" transform="translate(-181.421 -307.78)" opacity="0.1"/>
    <path id="Path_67" data-name="Path 67" d="M609.727,536.65s-9.171,11,0,27.512" transform="translate(-368.56 -310.487)" opacity="0.1"/>
    <rect id="Rectangle_14" data-name="Rectangle 14" width="43.363" height="0.459" transform="translate(244.436 239.703) rotate(-18.45)" opacity="0.1"/>
    <rect id="Rectangle_15" data-name="Rectangle 15" width="52.836" height="0.459" transform="translate(244.424 243.396) rotate(-20.82)" opacity="0.1"/>
    <rect id="Rectangle_16" data-name="Rectangle 16" width="61.241" height="0.459" transform="translate(244.688 247.743) rotate(-22.26)" opacity="0.1"/>
    <rect id="Rectangle_17" data-name="Rectangle 17" width="70.494" height="0.459" transform="translate(245.361 251.577) rotate(-24.31)" opacity="0.1"/>
    <rect id="Rectangle_18" data-name="Rectangle 18" width="77.101" height="0.459" transform="matrix(0.916, -0.401, 0.401, 0.916, 245.867, 253.442)" opacity="0.1"/>
    <rect id="Rectangle_19" data-name="Rectangle 19" width="92.265" height="0.459" transform="translate(246.935 256.581) rotate(-23.36)" opacity="0.1"/>
    <path id="Path_68" data-name="Path 68" d="M260.96,387.7l80.7-16.965,49.163,9.4L324.7,401.451Z" transform="translate(-141.303 -200.736)" fill="#fff" opacity="0.3"/>
    <path id="Path_69" data-name="Path 69" d="M727.3,453.48s4.173,1.683,1.724,4.283-96.263,29.754-96.263,29.754Z" transform="translate(-383.239 -265.453)" fill="#35b23d"/>
    <path id="Path_70" data-name="Path 70" d="M380.633,149.893s-17.424-1.05-15.388,11.174a2.982,2.982,0,0,0,1.55,3.141s.032-.917,1.788-.6a7.817,7.817,0,0,0,1.9.092,3.952,3.952,0,0,0,2.316-.954h0s4.9-2.027,6.809-10.042c0,0,1.412-1.747,1.376-2.2l-2.953,1.256a5.29,5.29,0,0,1,.216,3.888s-.1-3.81-.665-3.723c-.115,0-1.527.738-1.527.738s1.729,3.7.422,6.387c0,0,.5-4.558-.963-6.121l-2.073,1.21s2.022,3.82.651,6.938c0,0,.353-4.782-1.087-6.644l-1.88,1.467s1.9,3.765.743,6.351c0,0-.151-5.567-1.146-5.988a11.332,11.332,0,0,0-1.894,2.045s1.3,2.751.491,4.177c0,0-.491-3.709-.917-3.728a12.342,12.342,0,0,0-1.807,4.127A8.923,8.923,0,0,1,368,158.514a4.911,4.911,0,0,0-2.5,1.3s.252-1.738,2.912-1.889a11.271,11.271,0,0,1,1.715-1.976,10.734,10.734,0,0,0-4.246.486s1.412-1.637,4.727-.917L372.439,154s-3.476-.459-4.952.05c0,0,1.7-1.449,5.452-.394l2.022-1.206a18.375,18.375,0,0,0-4.732-.408s1.862-1,5.323.083l1.44-.647s-2.169-.426-2.806-.5-.669-.243-.669-.243a7.57,7.57,0,0,1,4.081.459A18.2,18.2,0,0,0,380.633,149.893Z" transform="translate(-238.297 -101.056)" fill="#35b23d"/>
    <path id="Path_71" data-name="Path 71" d="M915.233,259.473s-17.424-1.05-15.388,11.174a2.982,2.982,0,0,0,1.55,3.141s.032-.917,1.788-.6a8.079,8.079,0,0,0,1.9.092,3.939,3.939,0,0,0,2.293-.954h0s4.906-2.027,6.809-10.042c0,0,1.412-1.747,1.376-2.2l-2.944,1.256a5.291,5.291,0,0,1,.216,3.888s-.1-3.81-.66-3.723c-.115,0-1.531.738-1.531.738s1.729,3.7.426,6.387c0,0,.5-4.558-.967-6.121l-2.073,1.211s2.022,3.819.651,6.938c0,0,.353-4.782-1.087-6.644l-1.875,1.467s1.9,3.764.738,6.351c0,0-.151-5.566-1.146-5.988a11.5,11.5,0,0,0-1.894,2.045s1.3,2.751.5,4.177c0,0-.5-3.709-.917-3.728a12.343,12.343,0,0,0-1.807,4.127,8.894,8.894,0,0,1,1.412-4.374,4.933,4.933,0,0,0-2.508,1.3s.257-1.738,2.912-1.889a11.447,11.447,0,0,1,1.715-1.981,10.777,10.777,0,0,0-4.246.491s1.412-1.637,4.727-.917l1.834-1.513s-3.48-.459-4.952.05c0,0,1.7-1.449,5.452-.394l2.018-1.206a18.375,18.375,0,0,0-4.732-.408s1.862-1,5.323.083l1.444-.647s-2.173-.426-2.811-.5-.669-.243-.669-.243a7.515,7.515,0,0,1,4.081.459A18.5,18.5,0,0,0,915.233,259.473Z" transform="translate(-527.769 -160.391)" fill="#35b23d" opacity="0.1"/>
    <path id="Path_72" data-name="Path 72" d="M440.27,302.655s-7.593-15.741-17.259-7.983a2.978,2.978,0,0,0-1.985,2.884s.8-.417,1.376,1.27a8.126,8.126,0,0,0,.844,1.7,3.957,3.957,0,0,0,1.967,1.559h0s4.159,3.292,12.087,1.045c0,0,2.215.381,2.577.115l-2.531-1.958a5.322,5.322,0,0,1-3.292,2.082s3.283-1.94,2.93-2.389c-.073-.092-1.376-.977-1.376-.977s-2.389,3.315-5.369,3.485c0,0,4.218-1.788,4.87-3.829l-2.063-1.22s-2.352,3.632-5.741,3.952c0,0,4.347-2.022,5.268-4.186l-2.192-.917s-2.361,3.494-5.186,3.746c0,0,4.787-2.847,4.668-3.925a11.621,11.621,0,0,0-2.71-.656s-1.752,2.471-3.4,2.471c0,0,2.994-2.242,2.811-2.6a12.1,12.1,0,0,0-4.494.459,8.927,8.927,0,0,1,4.507-.917,4.939,4.939,0,0,0-2.357-1.554s1.642-.624,3.068,1.619a11.312,11.312,0,0,1,2.563.532,10.765,10.765,0,0,0-2.494-3.462s2.118.426,3.086,3.668l2.224.88s-1.279-3.265-2.458-4.3c0,0,2.091.775,3,4.585l2.036,1.174a18.143,18.143,0,0,0-1.949-4.328s1.784,1.137,2.522,4.686l1.27.945s-.688-2.1-.917-2.692-.115-.706-.115-.706a7.524,7.524,0,0,1,1.6,3.783A17.106,17.106,0,0,0,440.27,302.655Z" transform="translate(-268.589 -178.299)" fill="#35b23d" opacity="0.1"/>
    <path id="Path_73" data-name="Path 73" d="M824.051,199.035s-7.589-15.741-17.259-7.983a2.984,2.984,0,0,0-1.985,2.884s.807-.413,1.376,1.27a7.949,7.949,0,0,0,.848,1.7,3.934,3.934,0,0,0,1.962,1.554h0s4.163,3.292,12.087,1.05c0,0,2.215.376,2.582.11l-2.517-1.962a5.32,5.32,0,0,1-3.288,2.086s3.278-1.944,2.925-2.394c-.073-.092-1.376-.977-1.376-.977s-2.384,3.315-5.369,3.485c0,0,4.223-1.788,4.874-3.824l-2.1-1.211s-2.348,3.627-5.741,3.952c0,0,4.347-2.027,5.273-4.191l-2.2-.917s-2.361,3.5-5.181,3.746c0,0,4.782-2.847,4.663-3.92a11.342,11.342,0,0,0-2.705-.656s-1.752,2.467-3.407,2.467c0,0,3-2.242,2.815-2.6a12.124,12.124,0,0,0-4.5.459,8.923,8.923,0,0,1,4.507-.917,4.91,4.91,0,0,0-2.352-1.554s1.641-.624,3.068,1.619a11.351,11.351,0,0,1,2.563.536,10.731,10.731,0,0,0-2.5-3.466s2.118.431,3.086,3.691l2.228.88s-1.279-3.269-2.458-4.3c0,0,2.091.775,3,4.585l2.04,1.174a18.312,18.312,0,0,0-1.953-4.328s1.788,1.137,2.522,4.686l1.27.945s-.683-2.1-.917-2.692-.115-.7-.115-.7a7.543,7.543,0,0,1,1.591,3.783A17.608,17.608,0,0,0,824.051,199.035Z" transform="translate(-476.396 -122.191)" fill="#35b23d" opacity="0.1"/>
    <path id="Path_74" data-name="Path 74" d="M876.924,368.84s-7.589-15.746-17.273-7.987a2.984,2.984,0,0,0-1.985,2.884s.807-.413,1.376,1.27a7.942,7.942,0,0,0,.844,1.7,3.934,3.934,0,0,0,1.963,1.554h0s4.163,3.3,12.091,1.05c0,0,2.21.381,2.577.11l-2.531-1.958a5.321,5.321,0,0,1-3.292,2.086s3.279-1.944,2.925-2.394c-.073-.092-1.376-.977-1.376-.977s-2.384,3.315-5.369,3.489c0,0,4.223-1.793,4.874-3.829l-2.068-1.22s-2.348,3.632-5.741,3.953c0,0,4.347-2.027,5.273-4.191l-2.2-.917s-2.361,3.494-5.181,3.746c0,0,4.787-2.847,4.668-3.925a11.391,11.391,0,0,0-2.71-.656s-1.752,2.467-3.407,2.467c0,0,3-2.242,2.815-2.6a12.124,12.124,0,0,0-4.5.459,8.95,8.95,0,0,1,4.512-.917,4.9,4.9,0,0,0-2.357-1.554s1.641-.628,3.068,1.619a11.313,11.313,0,0,1,2.563.532,10.815,10.815,0,0,0-2.494-3.466s2.118.431,3.086,3.691l2.224.88s-1.279-3.269-2.458-4.3c0,0,2.091.77,3,4.585l2.04,1.169a18.312,18.312,0,0,0-1.953-4.328s1.788,1.137,2.526,4.691l1.27.917s-.688-2.1-.917-2.692-.115-.7-.115-.7a7.5,7.5,0,0,1,1.591,3.783A18.562,18.562,0,0,0,876.924,368.84Z" transform="translate(-505.018 -214.134)" fill="#35b23d" opacity="0.1"/>
    <ellipse id="Ellipse_2" data-name="Ellipse 2" cx="10.542" cy="1.178" rx="10.542" ry="1.178" transform="translate(82.058 357.205)" fill="#35b23d" opacity="0.1"/>
    <ellipse id="Ellipse_3" data-name="Ellipse 3" cx="10.542" cy="1.178" rx="10.542" ry="1.178" transform="translate(12.953 337.177)" fill="#35b23d" opacity="0.1"/>
    <ellipse id="Ellipse_4" data-name="Ellipse 4" cx="10.542" cy="1.178" rx="10.542" ry="1.178" transform="translate(134.733 370.507)" fill="#35b23d" opacity="0.1"/>
    <ellipse id="Ellipse_5" data-name="Ellipse 5" cx="10.542" cy="1.178" rx="10.542" ry="1.178" transform="translate(404.668 341.533)" fill="#35b23d" opacity="0.1"/>
    <ellipse id="Ellipse_6" data-name="Ellipse 6" cx="10.542" cy="1.178" rx="10.542" ry="1.178" transform="translate(316.947 335.815)" fill="#35b23d" opacity="0.1"/>
    <ellipse id="Ellipse_7" data-name="Ellipse 7" cx="12.467" cy="2.141" rx="12.467" ry="2.141" transform="translate(258.274 361.777)" fill="#35b23d" opacity="0.1"/>
    <path id="Path_75" data-name="Path 75" d="M678.223,790.14s-17.36,8.969-8.391,19.533a3.355,3.355,0,0,0,3.283,2.132s-.486-.89,1.376-1.6a8.94,8.94,0,0,0,1.875-.995,4.406,4.406,0,0,0,1.678-2.242h0s3.549-4.75.8-13.54c0,0,.358-2.485.046-2.889l-2.109,2.893a5.907,5.907,0,0,1,2.43,3.613s-2.293-3.609-2.751-3.21c-.1.083-1.045,1.582-1.045,1.582s3.778,2.563,4.058,5.892c0,0-2.128-4.663-4.425-5.328l-1.316,2.348s4.127,2.513,4.585,6.291c0,0-2.4-4.792-4.847-5.759l-.968,2.481s3.98,2.531,4.347,5.677c0,0-3.329-5.259-4.526-5.094a12.713,12.713,0,0,0-.651,3.049s2.811,1.88,2.861,3.728c0,0-2.6-3.279-2.994-3.063,0,0-.165,3.3.633,5.012a9.894,9.894,0,0,1-1.151-5.012,5.5,5.5,0,0,0-1.664,2.678s-.747-1.811,1.715-3.48a12.684,12.684,0,0,1,.518-2.88,12.086,12.086,0,0,0-3.8,2.9s.417-2.38,4.03-3.563l.917-2.513s-3.613,1.531-4.727,2.88c0,0,.8-2.361,5.012-3.494l1.247-2.293a21.053,21.053,0,0,0-4.778,2.293s1.215-2.031,5.163-2.967l1.013-1.444s-2.329.83-2.98,1.128-.78.151-.78.151a8.432,8.432,0,0,1,4.177-1.9S678.383,790.3,678.223,790.14Z" transform="translate(-401.919 -447.745)" fill="#35b23d"/>
    <path id="Path_76" data-name="Path 76" d="M619.887,216.421c-3-8.148-19.506-8.914-26.668-6.837-5.09,1.481-15.819,3.15-21.551,3.989l-.371-.353c.743-.22.761-.761.669-1.564a24.466,24.466,0,0,1,.046-3.173c3.512,1.091,6.639-1.49,6.639-1.49h0c4.127-1.834,3.017-9.684,3.806-11.83.591-1.6,1.229-11.06,1.513-15.773h.06l.032-1.582c.041-.683.06-1.082.06-1.082s.4-11.527,1.192-13.861c.734-2.146,1.33-12.958,1.421-14.673v-.225l-.06-1c.041-.729.06-1.541.055-2.394,0-3.92-.408-8.859-.458-9.657V134.5c.032-1.674-.179-10.055-7.309-13.224-2.627-1.174-5.787-2.572-8.845-3.934-.789-6.809-2.591-13.582-2.435-20.441,0-1.032.092-2.063.193-3.09,0,.3-.032.6-.037.917v2c.271-8.579,3.512-17.2,3.21-25.6-.027.821-.087,1.646-.165,2.471a26.654,26.654,0,0,0-.88-8.432,4.989,4.989,0,0,0-1.44-2.614,5.928,5.928,0,0,0-2.513-.995,50.532,50.532,0,0,0-6.6-1.229,10.188,10.188,0,0,0-1.486-2.884c-4.649-6.383-11.536-12.38-19.68-13.756C534.2,43,529.5,43.575,526.724,46.5a8.673,8.673,0,0,0-.816.825c-1.495,1.784-2.137,4.127-3.668,5.906-.1.119-.215.229-.326.344-3,2.682-7.671,3.242-11,5.649a13.209,13.209,0,0,0-1.646,1.435,27.913,27.913,0,0,0-3.595,4.37c-1.5,2.109-3.04,4.306-3.517,6.823-.958,5.044,2.476,9.826,3.113,14.9,1.421,11.358-11.147,21.436-8.767,32.642a14.948,14.948,0,0,0,4.044,7.258c-4.9,4.439-9.074,8.744-9.074,8.744v.257h-.775l.078.917h-.078l.426,4.975-.426,7.245v.683h.028c.142,2.655.706,12.2,1.376,14.214.789,2.334,1.188,13.861,1.188,13.861s.871,16.291,1.669,18.447-.335,9.982,3.806,11.83h0a8.712,8.712,0,0,0,4.159,1.724c-.211,1.715-.078,2.958.605,3.347a2,2,0,0,0,.963.275,10.22,10.22,0,0,0-.747,1.307,19.422,19.422,0,0,1-4.805-1.133c-4.448-1.834-19.208-5.961-23.495-3.058s-14.6,5.534-9.84,17.218,6.983,11.977,6.983,11.977a16.965,16.965,0,0,1,3.81,3.829c1.431,2.15,14.76,7.07,18.093,7.07a32.643,32.643,0,0,1,4.241.211s-3.618,3.173-3.136,5.016-1.1,16.6-1.1,16.6,3.668,3.7,5.236-1.151l.055.073c.293.4,1.88,2.2,4.865-.073a27.273,27.273,0,0,1,3.879-2.458l14.453-2.045a40.909,40.909,0,0,1,4.526-.032c2.293.188,4.544-1.169,5.961-2.219,2.994,1.137,6.36,2.38,7.96,2.834,3.246.917,18.167,4.92,21.656,3.668a4.846,4.846,0,0,0,1.88-1.339l3.329.105-1.559.312s3.035.05,7.162.105l-.174.1,5.177-.046c7.575.069,16.085.092,17.2-.16,1.752-.39,10.853-.115,13.536,0h.747s10-1.995,5.874-12.142c-3.173-7.795-12.926-10.06-17.254-10.684,1.22-.243,2.27-.431,2.967-.541,3.022-.459,8.891-3.21,9.368-4.15s5.4-3.668,6.667-5.223S622.9,224.569,619.887,216.421Zm-82.833,22.8-.491.16-.33.11-.633.624c-.5-.339-1.045-.7-1.609-1.064C534.986,239.114,536.009,239.174,537.054,239.224Zm43.7,12.921Z" transform="translate(-292.059 -43.42)" fill="url(#linear-gradient)"/>
    <path id="Path_77" data-name="Path 77" d="M686.65,298.22s7.015,18.341,11,16.507,2.907-9.629,3.668-11.766,1.6-18.341,1.6-18.341.385-11.463,1.146-13.783c.706-2.132,1.279-12.885,1.376-14.577v-.225l-.757-13.3-4.283-1.068-9.932,3.668-1.376,7.855-.536,3.068-.229,1.307Z" transform="translate(-412.419 -150.763)" fill="#be6f72"/>
    <path id="Path_78" data-name="Path 78" d="M691.69,358.3s6.694,5.479,8.712,5.961,3.256,4.755,3.256,4.755" transform="translate(-415.148 -213.915)" opacity="0.1"/>
    <path id="Path_79" data-name="Path 79" d="M544.8,299.97s-7.015,18.341-11,16.507-2.907-9.629-3.668-11.766-1.6-18.341-1.6-18.341-.385-11.463-1.146-13.783c-.706-2.132-1.279-12.885-1.376-14.577v-.225l.761-13.3,4.283-1.068,9.932,3.668,1.376,7.855.536,3.068.229,1.307Z" transform="translate(-325.431 -151.711)" fill="#be6f72"/>
    <rect id="Rectangle_20" data-name="Rectangle 20" width="15.659" height="24.407" transform="translate(249.392 50.107)" fill="#3e373a"/>
    <rect id="Rectangle_21" data-name="Rectangle 21" width="15.659" height="24.407" transform="translate(249.392 50.107)" opacity="0.1"/>
    <path id="Path_80" data-name="Path 80" d="M556.5,404.867s-5.351,5.883-3.366,6.951,14.829,21.092,14.829,21.092,42.184,5.2,50.14-2.6,7.795-21.72,7.795-21.72-6.392,1.376-7.089.628-4.526-4.351-4.526-4.351S560.172,401.584,556.5,404.867Z" transform="translate(-339.887 -238.34)" fill="#4b4b5b"/>
    <path id="Path_81" data-name="Path 81" d="M556.5,404.867s-5.351,5.883-3.366,6.951,14.829,21.092,14.829,21.092,42.184,5.2,50.14-2.6,7.795-21.72,7.795-21.72-6.392,1.376-7.089.628-4.526-4.351-4.526-4.351S560.172,401.584,556.5,404.867Z" transform="translate(-339.887 -238.34)" opacity="0.02"/>
    <path id="Path_82" data-name="Path 82" d="M618.888,194.584l-13.756,11-4.159.3-1.527.11-25.645,1.88-26.595-1.944-3.957-.289-5.044-.367L527.66,195.194a180.594,180.594,0,0,1,14-13.394,28.728,28.728,0,0,1,6.786-4.535l.3-.105a7.547,7.547,0,0,0,2.907-2.027c5.163-5.323,9.936-18.46,9.936-18.46s22.775-11.766,20.024,3.668,10.239,11.619,10.239,11.619l4.283,1.953,1.692.775,4.315,1.976,9.734,4.466C619.521,184.647,618.888,194.584,618.888,194.584Z" transform="translate(-326.33 -102.416)" fill="#be6f72"/>
    <circle id="Ellipse_8" data-name="Ellipse 8" cx="20.482" cy="20.482" r="20.482" transform="translate(225.92 25.86)" opacity="0.1"/>
    <path id="Path_83" data-name="Path 83" d="M618.022,238.4H526v-.225l.761-13.3a180.6,180.6,0,0,1,14-13.394l57.774-2.293,2.687-2.834,9.734,4.466c7.644,3.512,7.029,13.449,7.029,13.449S619.035,235.788,618.022,238.4Z" transform="translate(-325.431 -131.644)" opacity="0.1"/>
    <path id="Path_84" data-name="Path 84" d="M618.022,237.4H526v-.225l.761-13.3a180.6,180.6,0,0,1,14-13.394l57.774-2.293,2.687-2.834,9.734,4.466c7.644,3.512,7.029,13.449,7.029,13.449S619.035,234.788,618.022,237.4Z" transform="translate(-325.431 -131.102)" fill="#e7c7ca"/>
    <path id="Path_85" data-name="Path 85" d="M587.022,189.189s14.517,18.5,33.853-.381,2.141,42.106,2.141,42.106l-41.726,4.952Z" transform="translate(-355.37 -120.177)" opacity="0.1"/>
    <path id="Path_86" data-name="Path 86" d="M587.022,191.189s14.517,18.5,33.853-.381,2.141,42.106,2.141,42.106l-41.726,4.952Z" transform="translate(-355.37 -121.26)" fill="#e7c7ca"/>
    <path id="Path_87" data-name="Path 87" d="M610.739,202.107l1.536,23.426,1.646,7.795,1.256,5.961s3.21,45.853,2.293,48.145.459,4.127.651,5.346-.193,4.283-.041,5.658,0,1.985-3.512,1.495-8.409-1.343-8.409-1.343-12.38.917-16.658-.61-12.38-1.531-12.38-1.531-12.229.307-16.2-.151-6.117,4.892-8.712,3.361,3.054-16.351,4.888-20.634-2.444-15.131-2.444-15.131l5.5-30.524,1.224-6.919V204.7l.3-.105a7.547,7.547,0,0,0,2.907-2.027l1.376,21.89,43.1,1.531V201.35" transform="translate(-339.259 -128.931)" opacity="0.1"/>
    <path id="Path_88" data-name="Path 88" d="M610.739,200.107l1.536,23.426,1.646,7.795,1.256,5.961s3.21,45.853,2.293,48.145.459,4.127.651,5.346-.193,4.283-.041,5.658,0,1.985-3.512,1.495-8.409-1.343-8.409-1.343-12.38.917-16.658-.61-12.38-1.531-12.38-1.531-12.229.307-16.2-.151-6.117,4.892-8.712,3.361,3.054-16.351,4.888-20.634-2.444-15.131-2.444-15.131l5.5-30.524,1.224-6.919V202.7l.3-.105a7.547,7.547,0,0,0,2.907-2.027l1.376,21.89,43.1,1.531V199.35" transform="translate(-339.259 -127.848)" fill="#e7c7ca"/>
    <path id="Path_89" data-name="Path 89" d="M608.122,68.865a5.052,5.052,0,0,0-1.376-2.6,5.63,5.63,0,0,0-2.421-.99,47.834,47.834,0,0,0-6.364-1.22,10.188,10.188,0,0,0-1.376-2.857c-4.494-6.346-11.142-12.33-18.965-13.682-4.095-.711-8.84-.073-11.463,3.155-1.44,1.774-2.059,4.127-3.512,5.869-2.8,3.384-7.859,3.8-11.39,6.419a21.1,21.1,0,0,0-4.585,5.305c-1.444,2.1-2.93,4.278-3.389,6.782-.917,5,2.389,9.771,3,14.82,1.376,11.294-10.73,21.312-8.441,32.454,1.334,6.5,7.336,11.073,13.545,13.394,2.187.821,4.686,1.637,5.709,3.737.459.917.536,1.976.968,2.9,1.449,3.09,6.213,3.21,8.772.958s3.366-5.892,3.668-9.29c1.229-14.838-4.714-29.5-4.021-44.372.206-4.5,1.472-9.6,5.5-11.637,5.424-2.751,11.949,1.834,17.919.958a35.55,35.55,0,0,1,1.715,21.693c-.949,3.957-2.591,7.795-2.71,11.876-.179,6.213,3.173,11.89,6.071,17.383a9.247,9.247,0,0,1,1.224,3.352,8.079,8.079,0,0,1-.656,3.508c-1.637,4.406-4.461,8.5-4.782,13.187a2.132,2.132,0,0,0,.344,1.568,1.972,1.972,0,0,0,1.183.532c4.952.848,9.235-3.54,11.651-7.946a37.251,37.251,0,0,0,4.594-15.828c.5-9.336-2.847-18.52-2.641-27.865C606.132,89.811,610.933,79.114,608.122,68.865Z" transform="translate(-331.686 -45.495)" opacity="0.1"/>
    <path id="Path_90" data-name="Path 90" d="M609.122,67.865a5.052,5.052,0,0,0-1.376-2.6,5.63,5.63,0,0,0-2.421-.99,47.833,47.833,0,0,0-6.364-1.22,10.188,10.188,0,0,0-1.376-2.857c-4.494-6.346-11.142-12.33-18.965-13.682-4.095-.711-8.84-.073-11.463,3.155-1.44,1.774-2.059,4.127-3.512,5.869-2.8,3.384-7.859,3.8-11.39,6.419a21.1,21.1,0,0,0-4.585,5.305c-1.444,2.1-2.93,4.278-3.389,6.782-.917,5,2.389,9.771,3,14.82,1.376,11.294-10.729,21.312-8.441,32.454,1.334,6.5,7.336,11.073,13.545,13.394,2.187.821,4.686,1.637,5.709,3.737.459.917.536,1.976.967,2.9,1.449,3.09,6.213,3.21,8.772.958s3.366-5.892,3.668-9.29c1.229-14.838-4.714-29.5-4.021-44.372.206-4.5,1.472-9.6,5.5-11.637,5.424-2.751,11.949,1.834,17.919.958a35.549,35.549,0,0,1,1.715,21.693c-.949,3.957-2.591,7.795-2.71,11.876-.179,6.213,3.173,11.89,6.071,17.383a9.25,9.25,0,0,1,1.224,3.352,8.08,8.08,0,0,1-.656,3.508c-1.637,4.406-4.461,8.5-4.782,13.187a2.132,2.132,0,0,0,.344,1.568,1.972,1.972,0,0,0,1.183.532c4.952.848,9.235-3.54,11.651-7.946a37.251,37.251,0,0,0,4.594-15.828c.5-9.336-2.847-18.52-2.641-27.865C607.132,88.811,611.933,78.114,609.122,67.865Z" transform="translate(-332.227 -44.953)" fill="#3e373a"/>
    <path id="Path_91" data-name="Path 91" d="M581.79,477.487l18.19.582-2.609-13.49-13.935,1.325Z" transform="translate(-315.024 -251.554)" fill="#c3c7d9"/>
    <path id="Path_92" data-name="Path 92" d="M693.48,432.856c-1.224,1.527-5.961,4.278-6.419,5.2s-6.112,3.668-9.019,4.127-12.073,2.449-13.756,3.517c-1.206.77-10.885,3.21-17.245,4.562a48.945,48.945,0,0,1-5.223.94c-2.751.151-32.858-10.088-32.858-10.088l5.8-5.961.321-.11c1.642-.555,9.226-3.118,13.435-4.338,4.741-1.376,10.243-7.029,10.243-7.029s8.1-2.751,9.171-3.058-2.751-10.7-2.751-10.7,17.575-2.439,24.453-4.507,22.775-1.3,25.677,6.8S694.723,431.329,693.48,432.856Z" transform="translate(-370.352 -238.896)" fill="#4b4b5b"/>
    <path id="Path_93" data-name="Path 93" d="M572.779,503.62s-3.512,3.668-7.029,3.366-15.815.917-15.815.917a24.653,24.653,0,0,0-6.195,3.59c-2.875,2.265-4.4.459-4.686.073l-.05-.073c-1.531,4.819-5.044,1.146-5.044,1.146s1.527-14.673,1.059-16.507,3.022-4.984,3.022-4.984l4.127-1.05,10.454-2.678,14.98,5.2Z" transform="translate(-329.742 -283.83)" fill="#e7c7ca"/>
    <path id="Path_94" data-name="Path 94" d="M542.149,493.26l-3.1,21.468-.05-.073c-1.531,4.819-5.044,1.146-5.044,1.146s1.527-14.673,1.059-16.507,3.022-4.984,3.022-4.984Z" transform="translate(-329.742 -286.992)" opacity="0.1"/>
    <path id="Path_95" data-name="Path 95" d="M599,360.08s8.1,2.751,15.131,0" transform="translate(-364.959 -214.879)" opacity="0.1"/>
    <path id="Path_96" data-name="Path 96" d="M659.29,371.42s3.361,1.678,5.961,0" transform="translate(-397.604 -221.019)" opacity="0.1"/>
    <path id="Path_97" data-name="Path 97" d="M659.29,379.19s5.654.757,6.727-.77" transform="translate(-397.604 -224.81)" opacity="0.1"/>
    <path id="Path_98" data-name="Path 98" d="M655.29,394.96s10.619-1.376,13.256-3.21" transform="translate(-395.439 -232.027)" opacity="0.1"/>
    <path id="Path_99" data-name="Path 99" d="M584.62,391.75s5.961,3.361,10.395,3.21" transform="translate(-357.173 -232.027)" opacity="0.1"/>
    <path id="Path_100" data-name="Path 100" d="M647.031,486.4a48.97,48.97,0,0,1-5.223.94c-2.751.151-32.858-10.088-32.858-10.088l5.8-5.961.321-.11c.917.647,1.669,1.2,2.206,1.623,2.526,1.99,4.966-.61,5.883-.61s8.863,6.571,8.863,6.571,7.336,1.683,8.561,3.21,5.5,1.224,6.263,2.293A4.09,4.09,0,0,1,647.031,486.4Z" transform="translate(-370.347 -275.037)" opacity="0.1"/>
    <path id="Path_101" data-name="Path 101" d="M515.687,411.342s-7.419.426-11.7-1.376-18.492-5.961-22.619-3.04-14.063,5.5-9.478,17.121,6.727,11.922,6.727,11.922a16.553,16.553,0,0,1,3.668,3.806c1.376,2.141,14.214,7.029,17.424,7.029s8.863,0,16.81,5.5a34.548,34.548,0,0,0,15.131,6.117s10.088,4.127,13.228,5.044,17.493,4.888,20.858,3.668,5.5-8.868,5.5-8.868,1.527-6.878.761-7.946-5.044-.766-6.263-2.293-8.561-3.21-8.561-3.21-7.928-6.575-8.845-6.575-3.356,2.6-5.883.61a134.209,134.209,0,0,0-15.824-10.088C520.822,425.708,515.687,411.342,515.687,411.342Z" transform="translate(-295.493 -239.698)" fill="#4b4b5b"/>
    <path id="Path_102" data-name="Path 102" d="M536.27,427.211a8.758,8.758,0,0,1,7.515,1.985c3.668,3.058,16.012,9.2,16.012,9.2" transform="translate(-330.992 -251.132)" opacity="0.1"/>
    <path id="Path_103" data-name="Path 103" d="M713.369,427s-16.356,2.476-19.409,5.837" transform="translate(-416.377 -251.114)" opacity="0.1"/>
    <path id="Path_104" data-name="Path 104" d="M727.653,510.346h-.72c-2.586-.092-11.349-.367-13.036,0-1.985.458-28.277,0-28.277,0l5.14-1.068s-1.907-6.685-.7-7.24c0,0-6.878-4.53-1.692-7.589a16.088,16.088,0,0,1,10.775-1.77l13.018-4.411,2.5-.848s14.673.766,18.644,10.853S727.653,510.346,727.653,510.346Z" transform="translate(-411.861 -283.83)" fill="#e7c7ca"/>
    <path id="Path_105" data-name="Path 105" d="M759,510.373h-.72c4.269-3.521,13.925-14.242-14.769-22.055l2.5-.848s14.673.766,18.644,10.853S759,510.373,759,510.373Z" transform="translate(-443.207 -283.857)" opacity="0.1"/>
    <circle id="Ellipse_9" data-name="Ellipse 9" cx="0.802" cy="0.802" r="0.802" transform="translate(288.014 213.026)" fill="#4b4b5b"/>
    <circle id="Ellipse_10" data-name="Ellipse 10" cx="0.802" cy="0.802" r="0.802" transform="translate(283.351 214.351)" fill="#4b4b5b"/>
    <g id="Group_6" data-name="Group 6" transform="translate(206.448 28.841)" opacity="0.1">
      <path id="Path_106" data-name="Path 106" d="M627.911,123.246a35.578,35.578,0,0,0-2.632-14.737c-5.961.89-12.49-3.709-17.919-.958-4.017,2.036-5.278,7.139-5.5,11.637-.055,1.188-.064,2.375-.041,3.563,0-.422,0-.848.041-1.27.211-4.5,1.472-9.6,5.5-11.637,5.429-2.751,11.949,1.834,17.919.958a35.481,35.481,0,0,1,2.632,12.444Z" transform="translate(-572.926 -106.501)"/>
      <path id="Path_107" data-name="Path 107" d="M554.211,123.494a15.282,15.282,0,0,0-.06-3c-.486-4.035-2.692-7.891-3.09-11.825-.514,4.746,2.508,9.3,3.09,14.118A2.865,2.865,0,0,1,554.211,123.494Z" transform="translate(-545.418 -107.588)"/>
      <path id="Path_108" data-name="Path 108" d="M571.776,214.815c-.284,3.4-1.087,7.038-3.668,9.294s-7.336,2.132-8.772-.958c-.459-.917-.527-1.985-.972-2.9-1.018-2.1-3.521-2.916-5.709-3.737-6.213-2.325-12.206-6.878-13.54-13.394a14.069,14.069,0,0,1-.243-1.788,14.45,14.45,0,0,0,.243,4.081c1.334,6.5,7.336,11.069,13.54,13.394,2.187.821,4.691,1.637,5.709,3.737.459.917.536,1.976.972,2.9,1.444,3.09,6.208,3.21,8.772.958s3.361-5.892,3.668-9.294a52.4,52.4,0,0,0,.142-5.383C571.918,212.766,571.858,213.793,571.776,214.815Z" transform="translate(-538.823 -157.761)"/>
      <path id="Path_109" data-name="Path 109" d="M687.93,129.777v1.985c.257-8.529,3.384-17.1,3.077-25.453C690.768,114.032,688.1,121.927,687.93,129.777Z" transform="translate(-619.56 -106.31)"/>
      <path id="Path_110" data-name="Path 110" d="M657.977,208.152a5.911,5.911,0,0,0,.105-1.655,9.17,9.17,0,0,0-1.224-3.352c-2.65-5.044-5.672-10.207-6.03-15.805,0,.238-.032.459-.037.715-.183,6.208,3.168,11.89,6.066,17.383a11,11,0,0,1,1.119,2.714Z" transform="translate(-599.447 -150.186)"/>
      <path id="Path_111" data-name="Path 111" d="M672.612,217.177a37.31,37.31,0,0,1-4.627,15.828c-2.421,4.406-6.7,8.795-11.656,7.946a1.949,1.949,0,0,1-1.183-.536,1.147,1.147,0,0,1-.216-.358c-.055.358-.1.72-.128,1.087a2.114,2.114,0,0,0,.344,1.564,1.949,1.949,0,0,0,1.183.536c4.957.848,9.235-3.54,11.656-7.946a37.311,37.311,0,0,0,4.627-15.828c.055-1.073.06-2.141.028-3.21C672.631,216.567,672.631,216.87,672.612,217.177Z" transform="translate(-601.606 -165.845)"/>
    </g>
    <path id="Path_112" data-name="Path 112" d="M695.31,512.326s11.605,4.87,19.258-5.906" transform="translate(-417.108 -294.118)" fill="none" stroke="#000" stroke-miterlimit="10" stroke-width="1" opacity="0.1"/>
    <path id="Path_113" data-name="Path 113" d="M700.29,534.554s9.478-6.163,21.551-.2" transform="translate(-419.805 -307.836)" fill="none" stroke="#000" stroke-miterlimit="10" stroke-width="1" opacity="0.1"/>
    <path id="Path_114" data-name="Path 114" d="M561.93,529.253s3.98-8.978,14.609-2.132" transform="translate(-344.887 -303.934)" fill="none" stroke="#000" stroke-miterlimit="10" stroke-width="1" opacity="0.1"/>
    <path id="Path_115" data-name="Path 115" d="M533.79,234.656l8.116-7.336s31.469-2.063,32.771,8.634c0,0,11.156-12.683,34.619-9.858l9.927,7.9-27.438,12.041-26.663,9.248-19.639-8.79Z" transform="translate(-329.65 -142.108)" opacity="0.1"/>
    <path id="Path_116" data-name="Path 116" d="M533.79,235.656l8.116-7.336s31.469-2.063,32.771,8.634c0,0,11.156-12.683,34.619-9.858l9.927,7.9-27.438,12.041-26.663,9.249-19.639-8.79Z" transform="translate(-329.65 -142.649)" fill="#d5d6db"/>
    <path id="Path_117" data-name="Path 117" d="M437.38,204.83l3.59,42.95,38.058,1.912-1.651-42.767-.032-.72Z" transform="translate(-236.83 -110.906)" opacity="0.1"/>
    <path id="Path_118" data-name="Path 118" d="M437.38,202.83l3.59,42.95,38.058,1.912-1.651-42.767-.032-.72Z" transform="translate(-236.83 -109.823)" fill="#35b23d"/>
    <path id="Path_119" data-name="Path 119" d="M588.969,202.83l-39.259,5.887V251.86l38.365-5.544Z" transform="translate(-297.654 -109.823)" opacity="0.1"/>
    <path id="Path_120" data-name="Path 120" d="M588.969,200.83l-39.259,5.887V249.86l38.365-5.544Z" transform="translate(-297.654 -108.74)" fill="#35b23d"/>
    <path id="Path_121" data-name="Path 121" d="M590.1,223.79l-21.207,2.357.463,7.226,20.73-2.265Z" transform="translate(-308.039 -121.172)" fill="#fff" opacity="0.3"/>
    <path id="Path_122" data-name="Path 122" d="M537.2,344.91l2.16,5.81s3.21,2.751,6.722,1.376,6.575-2.059,8.1-3.4,3.668-8.065,3.668-8.065,2.141-7.336,4.278-9.171,7.795-27.1,0-24.632-13.756,25.4-13.756,25.4a5.437,5.437,0,0,1-3.361,1.834c-1.985.156-5.961-.307-6.727,1.376S534.909,341.549,537.2,344.91Z" transform="translate(-330.998 -185.953)" fill="#be6f72"/>
    <path id="Path_123" data-name="Path 123" d="M624.694,255.69a13.206,13.206,0,0,1-11.514-2.87l1.655,42.762a11.67,11.67,0,0,0,9.858,3.256Z" transform="translate(-372.637 -156.801)" opacity="0.1"/>
    <path id="Path_124" data-name="Path 124" d="M624.694,253.69a13.206,13.206,0,0,1-11.514-2.87l1.655,42.762a11.67,11.67,0,0,0,9.858,3.256Z" transform="translate(-372.637 -155.718)" fill="#35b23d"/>
    <path id="Path_125" data-name="Path 125" d="M624.694,253.69a13.206,13.206,0,0,1-11.514-2.87l1.655,42.762a11.67,11.67,0,0,0,9.858,3.256Z" transform="translate(-372.637 -155.718)" opacity="0.1"/>
    <path id="Path_126" data-name="Path 126" d="M640.29,241.537s15.971-4.883,20.134-4.2" transform="translate(-387.316 -148.383)" opacity="0.1"/>
    <path id="Path_127" data-name="Path 127" d="M580,238.6s-15.48-3.668-18.066-2.627" transform="translate(-344.887 -147.576)" opacity="0.1"/>
    <path id="Path_128" data-name="Path 128" d="M662.25,244.881s10.679-3.916,14.54-2.054" transform="translate(-399.207 -151.118)" opacity="0.1"/>
    <path id="Path_129" data-name="Path 129" d="M650.52,452.643a35.1,35.1,0,0,1,5.264-3.269,85.888,85.888,0,0,0,7.795-4.764" transform="translate(-392.856 -260.65)" opacity="0.1"/>
    <path id="Path_130" data-name="Path 130" d="M547.8,360.08s-6.7,5.479-8.712,5.961-3.256,4.755-3.256,4.755" transform="translate(-330.754 -214.879)" opacity="0.1"/>
    <path id="Path_131" data-name="Path 131" d="M681.189,343.146l-2.137,5.823s-3.21,2.751-6.727,1.376-6.571-2.059-8.1-3.4-3.668-8.065-3.668-8.065-2.137-7.336-4.278-9.171-7.795-27.1,0-24.632,13.756,25.4,13.756,25.4a5.437,5.437,0,0,0,3.361,1.834c1.985.156,5.961-.307,6.727,1.376S683.481,339.8,681.189,343.146Z" transform="translate(-393.812 -185.006)" fill="#be6f72"/>
    <path id="Path_132" data-name="Path 132" d="M707.15,364.94s4.379,2.815,4.361,6.181" transform="translate(-423.519 -217.511)" opacity="0.1"/>
    <circle id="Ellipse_11" data-name="Ellipse 11" cx="20.482" cy="20.482" r="20.482" transform="translate(225.994 24.856)" fill="#be6f72"/>
    <path id="Path_133" data-name="Path 133" d="M586.093,104.8c2.485-.39,4.663-1.834,7.038-2.664,5.314-1.866,11.193-.587,16.571,1.1a21.491,21.491,0,0,0,6.323,1.376,6.4,6.4,0,0,0,5.567-2.751,6.22,6.22,0,0,0-.037-5.745,16.181,16.181,0,0,0-3.742-4.617c-4.769-4.5-10.684-8.712-17.227-8.253a23.708,23.708,0,0,0-7.57,2.169,83.457,83.457,0,0,0-8.886,4.475c-2.206,1.279-6.291,2.99-7.561,5.328C573.681,100.48,581.6,105.506,586.093,104.8Z" transform="translate(-352.479 -64.959)" fill="#3e373a"/>
    <path id="Path_134" data-name="Path 134" d="M621.59,115.392a6.4,6.4,0,0,1-5.567,2.751,21.507,21.507,0,0,1-6.328-1.348c-5.379-1.683-11.252-2.967-16.571-1.1-2.371.83-4.553,2.293-7.038,2.659-3.622.569-9.455-2.586-10.088-6.6-.711,4.636,6.053,8.607,10.088,7.974,2.485-.39,4.668-1.834,7.038-2.659,5.319-1.871,11.193-.587,16.571,1.1a20.637,20.637,0,0,0,6.328,1.348,6.448,6.448,0,0,0,5.567-2.751,5.37,5.37,0,0,0,.642-3.352,4.942,4.942,0,0,1-.642,1.976Z" transform="translate(-352.476 -80.42)" opacity="0.1"/>
    <path id="Path_135" data-name="Path 135" d="M1029.164,661.63s2.719,3.554-1.256,8.923-7.249,9.9-5.929,13.247c0,0,6-9.968,10.876-10.11S1034.524,667.623,1029.164,661.63Z" transform="translate(-593.83 -378.16)" fill="#35b23d"/>
    <path id="Path_136" data-name="Path 136" d="M1029.347,661.63a4.4,4.4,0,0,1,.555,1.114c4.76,5.594,7.3,10.817,2.719,10.945-4.264.124-9.377,7.749-10.6,9.67a4.5,4.5,0,0,0,.142.458s6-9.968,10.876-10.11S1034.707,667.623,1029.347,661.63Z" transform="translate(-594.013 -378.16)" opacity="0.1"/>
    <path id="Path_137" data-name="Path 137" d="M1048.258,670.565c0,1.252-.142,2.265-.312,2.265s-.316-1.013-.316-2.265.174-.66.349-.66S1048.258,669.314,1048.258,670.565Z" transform="translate(-607.88 -382.566)" fill="#ffd037"/>
    <path id="Path_138" data-name="Path 138" d="M1050.26,673.728c-1.1.6-2.054.958-2.137.807s.738-.761,1.834-1.376.665-.165.747,0S1051.36,673.128,1050.26,673.728Z" transform="translate(-608.144 -384.234)" fill="#ffd037"/>
    <path id="Path_139" data-name="Path 139" d="M999.458,661.63s-2.719,3.554,1.256,8.923,7.249,9.9,5.924,13.247c0,0-5.993-9.968-10.876-10.11S994.112,667.623,999.458,661.63Z" transform="translate(-578.495 -378.16)" fill="#35b23d"/>
    <path id="Path_140" data-name="Path 140" d="M999.458,661.63a4.4,4.4,0,0,0-.555,1.114c-4.76,5.594-7.3,10.817-2.719,10.945,4.26.124,9.377,7.749,10.6,9.67a3.543,3.543,0,0,1-.147.458s-5.993-9.968-10.876-10.11S994.112,667.623,999.458,661.63Z" transform="translate(-578.495 -378.16)" opacity="0.1"/>
    <path id="Path_141" data-name="Path 141" d="M995.64,670.565c0,1.252.138,2.265.312,2.265s.316-1.013.316-2.265-.179-.66-.348-.66S995.64,669.314,995.64,670.565Z" transform="translate(-579.729 -382.566)" fill="#ffd037"/>
    <path id="Path_142" data-name="Path 142" d="M991.072,673.728c1.1.6,2.054.958,2.137.807s-.738-.761-1.834-1.376-.665-.165-.747,0S989.972,673.128,991.072,673.728Z" transform="translate(-576.894 -384.234)" fill="#ffd037"/>
    <ellipse id="Ellipse_12" data-name="Ellipse 12" cx="28.429" cy="4.361" rx="28.429" ry="4.361" transform="translate(399.72 324.118)" fill="#35b23d" opacity="0.1"/>
    <path id="Path_143" data-name="Path 143" d="M1019.671,697.57l-.138,1.11-.193,1.568-.078.656-.193,1.568-.083.656-.188,1.564-2.178,17.837c-.193,1.591-2.792,2.834-5.933,2.834h-11.3c-3.141,0-5.736-1.243-5.933-2.834l-2.178-17.837-.193-1.564-.078-.656-.193-1.568-.083-.656-.188-1.568-.138-1.11c-.105-.917,1.3-1.66,3.077-1.66H1016.6C1018.374,695.91,1019.781,696.667,1019.671,697.57Z" transform="translate(-576.891 -396.722)" fill="#65617d"/>
    <path id="Path_144" data-name="Path 144" d="M931.123,658.53l-.188,1.568H902.323l-.193-1.568Z" transform="translate(-488.48 -356.573)" fill="#9d9cb5"/>
    <path id="Path_145" data-name="Path 145" d="M931.172,663.38l-.188,1.568H902.913l-.193-1.568Z" transform="translate(-488.799 -359.199)" fill="#9d9cb5"/>
    <path id="Path_146" data-name="Path 146" d="M931.226,668.23l-.193,1.568H903.508l-.188-1.568Z" transform="translate(-489.124 -361.825)" fill="#9d9cb5"/>
  </g>
</svg>
