<svg xmlns="http://www.w3.org/2000/svg" width="494.709" height="358.588" viewBox="0 0 494.709 358.588">
  <g id="swipe-1" transform="translate(0 0)">
    <path id="Path_48" data-name="Path 48" d="M570.432,584.643v86.441H353.864c-24.675,0-44.751-19.389-44.751-43.221s20.076-43.221,44.751-43.221Z" transform="translate(-255.179 -315.821)" fill="#f2f2f2"/>
    <path id="Path_49" data-name="Path 49" d="M573.406,669.414a3.326,3.326,0,0,1-3.325,3.325H347.662a45.548,45.548,0,1,1,0-91.1H570.081a3.325,3.325,0,0,1,0,6.649H347.662a38.9,38.9,0,0,0,0,77.8H570.081A3.326,3.326,0,0,1,573.406,669.414Z" transform="translate(-252.833 -314.815)" fill="#009cd7"/>
    <path id="Path_50" data-name="Path 50" d="M584.5,613.973H351.779a.665.665,0,0,1,0-1.33H584.5a.665.665,0,0,1,0,1.33Z" transform="translate(-269.252 -325.203)" fill="#ccc"/>
    <path id="Path_51" data-name="Path 51" d="M584.5,637.973H351.779a.665.665,0,0,1,0-1.33H584.5a.665.665,0,0,1,0,1.33Z" transform="translate(-269.252 -333.244)" fill="#ccc"/>
    <path id="Path_52" data-name="Path 52" d="M584.5,661.973H351.779a.665.665,0,0,1,0-1.33H584.5a.665.665,0,0,1,0,1.33Z" transform="translate(-269.252 -341.286)" fill="#ccc"/>
    <path id="Path_53" data-name="Path 53" d="M584.5,685.973H351.779a.665.665,0,0,1,0-1.33H584.5a.665.665,0,0,1,0,1.33Z" transform="translate(-269.252 -349.328)" fill="#ccc"/>
    <path id="Path_54" data-name="Path 54" d="M832.947,535.525l-54.235,67.31L610.076,466.956c-19.214-15.482-22.681-43.176-7.729-61.732s42.75-21.059,61.964-5.577Z" transform="translate(-350.319 -250.431)" fill="#f2f2f2"/>
    <path id="Path_55" data-name="Path 55" d="M780.941,603.689a3.326,3.326,0,0,1-4.675.5L603.073,464.642a45.548,45.548,0,1,1,57.155-70.934l173.193,139.55a3.325,3.325,0,0,1-4.172,5.178L656.056,398.885a38.9,38.9,0,1,0-48.811,60.579L780.438,599.015A3.326,3.326,0,0,1,780.941,603.689Z" transform="translate(-347.989 -248.466)" fill="#ccc"/>
    <path id="Path_56" data-name="Path 56" d="M843.565,558.3,662.346,412.281a.665.665,0,1,1,.834-1.036L844.4,557.263a.665.665,0,1,1-.834,1.036Z" transform="translate(-373.453 -257.671)" fill="#ccc"/>
    <path id="Path_57" data-name="Path 57" d="M828.507,576.987,647.288,430.969a.665.665,0,0,1,.834-1.036L829.342,575.951a.665.665,0,1,1-.834,1.036Z" transform="translate(-368.407 -263.933)" fill="#ccc"/>
    <path id="Path_58" data-name="Path 58" d="M813.449,595.675,632.23,449.658a.665.665,0,0,1,.834-1.036L814.284,594.64a.665.665,0,1,1-.834,1.036Z" transform="translate(-363.362 -270.195)" fill="#ccc"/>
    <path id="Path_59" data-name="Path 59" d="M798.391,614.363,617.172,468.346a.665.665,0,0,1,.834-1.036L799.225,613.328a.665.665,0,1,1-.834,1.036Z" transform="translate(-358.317 -276.457)" fill="#ccc"/>
    <path id="Path_60" data-name="Path 60" d="M722.044,718.973H228.665a.665.665,0,1,1,0-1.33H722.044a.665.665,0,0,1,0,1.33Z" transform="translate(-228 -360.385)" fill="#ccc"/>
    <path id="Path_61" data-name="Path 61" d="M332.429,375.846h-7.6l-3.615-29.321h11.219Z" transform="translate(-107.628 -116.11)" fill="#ffb8b8"/>
    <path id="Path_62" data-name="Path 62" d="M313.831,387.355h14.66v9.231H304.6a9.231,9.231,0,0,1,9.231-9.231Z" transform="translate(-102.062 -129.79)" fill="#2f2e41"/>
    <path id="Path_63" data-name="Path 63" d="M215.634,375.846h-7.6l-3.615-29.321h11.219Z" transform="translate(-68.494 -116.11)" fill="#ffb8b8"/>
    <path id="Path_64" data-name="Path 64" d="M197.037,387.355H211.7v9.231H187.806a9.231,9.231,0,0,1,9.231-9.231Z" transform="translate(-62.928 -129.79)" fill="#2f2e41"/>
    <path id="Path_65" data-name="Path 65" d="M487.471,231.409v-3.325a21.444,21.444,0,0,1,21.444-21.444h0a21.444,21.444,0,0,1,21.444,21.444v3.325a15.46,15.46,0,0,1-15.46,15.46H502.931a15.46,15.46,0,0,1-15.46-15.46Z" transform="translate(-314.941 -189.163)" fill="#2f2e41"/>
    <circle id="Ellipse_37" data-name="Ellipse 37" cx="16.331" cy="16.331" r="16.331" transform="translate(177.643 26.186)" fill="#ffb8b8"/>
    <path id="Path_66" data-name="Path 66" d="M634.488,376.475" transform="translate(-364.201 -246.07)" fill="#ffb8b8"/>
    <path id="Path_67" data-name="Path 67" d="M385.12,327.856a6.235,6.235,0,0,1,9.5,1.115l14-2.648,3.684,8.115L392.476,337.9a6.269,6.269,0,0,1-7.357-10.044Z" transform="translate(-279.978 -229.209)" fill="#ffb8b8"/>
    <path id="Path_68" data-name="Path 68" d="M468.76,283.916l.183.277-22.958,15.124-38.738,12.37a2.332,2.332,0,0,0-1.6,2.486l.845,7.279a2.328,2.328,0,0,0,2.8,2.007l36.458-7.815a13.169,13.169,0,0,0,4.9-2.158l25.791-18.35a6.633,6.633,0,0,0-7.5-10.942Z" transform="translate(-287.518 -214.782)" fill="#ccc"/>
    <path id="Path_69" data-name="Path 69" d="M512.719,487.427a3,3,0,0,1-2.751-1.8l-34.849-86.109a1,1,0,0,0-1.868.105l-28.431,83.83a2.993,2.993,0,0,1-3.911,1.922l-9.534-3.575a2.985,2.985,0,0,1-1.926-2.463c-4.289-37.364,33.114-131.676,33.492-132.624l.1-.263,34.1,7.542.071.077c13.6,14.84,24.784,108.438,26.888,127.051a2.978,2.978,0,0,1-1.976,3.156l-8.416,2.976a2.963,2.963,0,0,1-.99.171Z" transform="translate(-295.385 -236.011)" fill="#2f2e41"/>
    <path id="Path_70" data-name="Path 70" d="M499.989,332.7c-8.261,0-17.471-1.647-20.306-8.445l-.065-.156.088-.145c2.238-3.671,5.2-9.934,3.606-11.11-3.131-2.315-4.651-6.124-4.516-11.321A27.275,27.275,0,0,1,497.924,276.6h0a84.892,84.892,0,0,1,9.484-2.442,16.145,16.145,0,0,1,13.387,3.306,16.308,16.308,0,0,1,6.048,12.548c.117,12.056-1.739,28.847-11.245,40.375a2.958,2.958,0,0,1-1.751,1.018,81.28,81.28,0,0,1-13.857,1.3Z" transform="translate(-312.031 -211.681)" fill="#ccc"/>
    <path id="Path_71" data-name="Path 71" d="M505.931,354.756a6.354,6.354,0,0,1,7.765-4.431,6.251,6.251,0,0,1,.963.357l10.63-9.674,7.393,4.981-15.2,13.452a6.343,6.343,0,0,1-7.19,3.05,6.246,6.246,0,0,1-4.359-7.734Z" transform="translate(-321.046 -234.186)" fill="#ffb8b8"/>
    <path id="Path_72" data-name="Path 72" d="M529.013,335.554a2.984,2.984,0,0,1-1.892-.675l-4.192-3.426a2.992,2.992,0,0,1,.073-4.691l17.582-13.485a1,1,0,0,0,.188-1.393l-10.852-14.347a8.834,8.834,0,0,1,.59-11.38h0a8.809,8.809,0,0,1,11.894-.951l.069.072L553.8,301.505a10.1,10.1,0,0,1-.239,16.082l-22.771,17.38A3,3,0,0,1,529.013,335.554Z" transform="translate(-326.453 -214.861)" fill="#ccc"/>
    <path id="Path_73" data-name="Path 73" d="M497.965,230.124v-8.1l14.466-6.317,13.794,6.317v8.1a1.33,1.33,0,0,1-1.33,1.33h-25.6a1.33,1.33,0,0,1-1.33-1.33Z" transform="translate(-318.457 -192.201)" fill="#2f2e41"/>
    <path id="Path_74" data-name="Path 74" d="M518.452,198.909c-2.127-6.808,2.34-14.61,8.944-17.3s14.5-.811,20.077,3.641,9.03,11.121,10.861,18.014,2.18,14.081,2.518,21.206c8.114,1.49,13.633,11.114,10.822,18.87s-13.214,11.609-20.4,7.555-9.266-14.951-4.08-21.367a17.537,17.537,0,0,0-20.405-27.2C522.792,203.992,517.774,199.647,518.452,198.909Z" transform="translate(-325.142 -180.357)" fill="#2f2e41"/>
    <path id="Path_75" data-name="Path 75" d="M366.536,263.247a69.451,69.451,0,0,1-28.159-6.167,2.974,2.974,0,0,1-1.763-2.729V230.135a3,3,0,0,1,2.992-2.992h53.859a3,3,0,0,1,2.992,2.992v24.215a2.974,2.974,0,0,1-1.763,2.729h0A69.452,69.452,0,0,1,366.536,263.247Z" transform="translate(-264.393 -196.033)" fill="#009cd7"/>
    <path id="Path_76" data-name="Path 76" d="M358.573,231.677a3,3,0,0,1-1.163-.234L314.7,213.424a2.992,2.992,0,0,1,.1-5.554l42.71-16.2a2.981,2.981,0,0,1,2.135,0l42.138,16.2a2.992,2.992,0,0,1,.1,5.544L359.75,231.437A3,3,0,0,1,358.573,231.677Z" transform="translate(-256.438 -184.081)" fill="#009cd7"/>
    <circle id="Ellipse_38" data-name="Ellipse 38" cx="3.99" cy="3.99" r="3.99" transform="translate(73.218 54.715)" fill="#3f3d56"/>
    <path id="Path_77" data-name="Path 77" d="M402.341,220.07,360.2,238.089a2.66,2.66,0,0,1-2.08.005l-42.71-18.019a2.61,2.61,0,0,1-1.272-1.118,2.658,2.658,0,0,0,1.272,3.778l42.71,18.019a2.66,2.66,0,0,0,2.08-.005l42.139-18.019a2.658,2.658,0,0,0,1.26-3.772A2.611,2.611,0,0,1,402.341,220.07Z" transform="translate(-256.744 -193.291)" opacity="0.2"/>
    <path id="Path_78" data-name="Path 78" d="M344.283,252.377a.665.665,0,0,0,.665-.665v-22.25l21.93-7.989a.665.665,0,1,0,.02-1.33l-21.93,7.989a1.3,1.3,0,0,0-.953.382,1.32,1.32,0,0,0-.4.947v22.25A.665.665,0,0,0,344.283,252.377Z" transform="translate(-266.74 -193.688)" fill="#3f3d56"/>
  </g>
</svg>
