<svg xmlns="http://www.w3.org/2000/svg" width="489.33" height="369.289" viewBox="0 0 489.33 369.289">
  <g id="swipe-3" transform="translate(0 0)">
    <path id="Path_31" data-name="Path 31" d="M474.3,238.8c0,56.8-33.3,107.05-84.35,137.639-32.731,19.616-72.762,31.15-115.985,31.15-57.582,0-101.505-21.762-134.546-55.1C108.96,321.768,87.755,281.212,73.626,238.8,10.549,49.422,115.92-2.243,273.961,70.007,374.586,116.014,474.3,145.58,474.3,238.8Z" transform="translate(-55.067 -38.747)" fill="#009cd7"/>
    <path id="Path_32" data-name="Path 32" d="M493.464,263.5V500.73c-32.731,19.616-72.762,31.15-115.985,31.15-57.582,0-101.505-21.762-134.546-55.1V263.5Z" transform="translate(-158.585 -162.592)" fill="#f2f2f2"/>
    <path id="Path_33" data-name="Path 33" d="M295.589,510.308a156.739,156.739,0,0,1,40.478-7.217,126.688,126.688,0,0,1,20.64.808,129.116,129.116,0,0,1,20.032,4.289c6.475,1.875,12.86,4.04,19.312,5.986a180.132,180.132,0,0,0,19.96,4.871,169.221,169.221,0,0,0,20.28,2.417,123.513,123.513,0,0,0,20.255-.25,61.969,61.969,0,0,0,18.224-4.62,55.658,55.658,0,0,0,14.821-9.506q1.649-1.472,3.172-3.073c.6-.626-.352-1.58-.952-.952a55.672,55.672,0,0,1-32.114,16.4,107.01,107.01,0,0,1-20.192.81A166.14,166.14,0,0,1,418.98,518.2a171.518,171.518,0,0,1-19.879-4.525c-6.415-1.858-12.743-4-19.135-5.933a144,144,0,0,0-19.7-4.694,123.89,123.89,0,0,0-20.212-1.4,154.538,154.538,0,0,0-39.947,5.916q-2.449.688-4.876,1.451c-.824.258-.472,1.559.358,1.3Z" transform="translate(-187.143 -293.806)" fill="#3f3d56"/>
    <path id="Path_34" data-name="Path 34" d="M295.589,586.308a156.739,156.739,0,0,1,40.478-7.217,126.675,126.675,0,0,1,20.64.808,129.109,129.109,0,0,1,20.032,4.289c6.475,1.875,12.86,4.04,19.312,5.986a180.1,180.1,0,0,0,19.96,4.871,169.232,169.232,0,0,0,20.28,2.417,123.513,123.513,0,0,0,20.255-.25,61.967,61.967,0,0,0,18.224-4.62,55.659,55.659,0,0,0,14.821-9.506q1.649-1.472,3.172-3.073c.6-.626-.352-1.58-.952-.952a55.672,55.672,0,0,1-32.114,16.4,107.015,107.015,0,0,1-20.192.81A166.14,166.14,0,0,1,418.98,594.2a171.54,171.54,0,0,1-19.879-4.525c-6.415-1.858-12.743-4-19.135-5.933a143.985,143.985,0,0,0-19.7-4.694,123.9,123.9,0,0,0-20.212-1.4,154.538,154.538,0,0,0-39.947,5.916q-2.449.688-4.876,1.451c-.824.258-.472,1.559.358,1.3Z" transform="translate(-187.143 -335.684)" fill="#3f3d56"/>
    <path id="Path_35" data-name="Path 35" d="M295.589,441.308a156.742,156.742,0,0,1,40.478-7.217,126.685,126.685,0,0,1,20.64.808,129.108,129.108,0,0,1,20.032,4.289c6.475,1.875,12.86,4.04,19.312,5.986a180.132,180.132,0,0,0,19.96,4.871,169.215,169.215,0,0,0,20.28,2.417,123.509,123.509,0,0,0,20.255-.25,61.97,61.97,0,0,0,18.224-4.62,55.662,55.662,0,0,0,14.821-9.506q1.649-1.472,3.173-3.073c.6-.626-.352-1.58-.952-.952a55.672,55.672,0,0,1-32.114,16.4,107.015,107.015,0,0,1-20.192.81A166.15,166.15,0,0,1,418.98,449.2a171.534,171.534,0,0,1-19.879-4.525c-6.415-1.858-12.743-4-19.135-5.933a144,144,0,0,0-19.7-4.694,123.883,123.883,0,0,0-20.212-1.4,154.538,154.538,0,0,0-39.947,5.916q-2.449.688-4.876,1.451c-.824.258-.472,1.559.358,1.3Z" transform="translate(-187.143 -255.786)" fill="#3f3d56"/>
    <path id="Path_36" data-name="Path 36" d="M291.765,318.6c3.259-1.444,6.992-1.192,10.374-.355,3.647.9,7.081,2.472,10.671,3.558a36.938,36.938,0,0,0,19.745.375,36.4,36.4,0,0,0,10.341-4.432c.732-.46.057-1.626-.68-1.163a35.688,35.688,0,0,1-19,5.417,34.861,34.861,0,0,1-9.946-1.465c-3.564-1.069-6.97-2.62-10.58-3.54-3.825-.975-7.927-1.186-11.6.443-.791.35-.106,1.511.68,1.163Z" transform="translate(-184.924 -191.648)" fill="#3f3d56"/>
    <circle id="Ellipse_26" data-name="Ellipse 26" cx="20.653" cy="20.653" r="20.653" transform="translate(186.267 292.177)" fill="#3f3d56"/>
    <circle id="Ellipse_27" data-name="Ellipse 27" cx="11.224" cy="11.224" r="11.224" transform="translate(84.348 36.258)" fill="#f2f2f2"/>
    <circle id="Ellipse_28" data-name="Ellipse 28" cx="7.633" cy="7.633" r="7.633" transform="translate(186.267 71.728)" fill="#f2f2f2"/>
    <circle id="Ellipse_29" data-name="Ellipse 29" cx="7.633" cy="7.633" r="7.633" transform="translate(62.348 144.911)" fill="#f2f2f2"/>
    <rect id="Rectangle_77" data-name="Rectangle 77" width="0.842" height="150.518" transform="translate(38.409 95.841)" fill="#3f3d56"/>
    <ellipse id="Ellipse_30" data-name="Ellipse 30" cx="16.413" cy="37.456" rx="16.413" ry="37.456" transform="translate(22.579 158.548)" fill="#3f3d56"/>
    <ellipse id="Ellipse_31" data-name="Ellipse 31" cx="16.413" cy="37.456" rx="16.413" ry="37.456" transform="translate(22.579 73.115)" fill="#3f3d56"/>
    <path id="Path_37" data-name="Path 37" d="M109.26,169.711l-.806-.242c.051-.17,5-17.127-3.126-28.044-4.589-6.165-12.464-9.291-23.406-9.291v-.842c11.224,0,19.327,3.241,24.083,9.634C114.382,152.185,109.312,169.537,109.26,169.711Z" transform="translate(-69.865 -89.742)" fill="#3f3d56"/>
    <circle id="Ellipse_32" data-name="Ellipse 32" cx="10.521" cy="10.521" r="10.521" transform="translate(1.536 31.451)" fill="#3f3d56"/>
    <path id="Path_38" data-name="Path 38" d="M816.146,657.036l-7.872,72.42h54.315l2.362-5.51,3.149,5.51h51.166s-3.936-74.782-11.02-77.143S816.146,657.036,816.146,657.036Z" transform="translate(-470.099 -376.568)" fill="#2f2e41"/>
    <circle id="Ellipse_33" data-name="Ellipse 33" cx="27.551" cy="27.551" r="27.551" transform="translate(364.939 66.356)" fill="#ffb8b8"/>
    <path id="Path_39" data-name="Path 39" d="M894.06,278.746s2.361,25.19,0,26.764,37.784.787,37.784.787-5.51-22.828,0-33.848Z" transform="translate(-517.314 -167.522)" fill="#ffb8b8"/>
    <path id="Path_40" data-name="Path 40" d="M858.839,329.952s20.255,3.155,21.935-3.146l10.339,14.166.787,141.691s-84.228,10.233-87.376-6.3,32.274-147.2,32.274-147.2l8.918-.577S857.265,329.952,858.839,329.952Z" transform="translate(-467.924 -197.474)" fill="#d0cde1"/>
    <path id="Path_41" data-name="Path 41" d="M807.246,316.375l-13.507,4.68L755.167,330.5l1.574,94.461s-33.061,94.461-18.105,101.545,36.21-9.446,42.507-21.254,28.338-175.54,28.338-178.689S807.246,316.375,807.246,316.375Z" transform="translate(-429.587 -191.726)" fill="#3f3d56"/>
    <path id="Path_42" data-name="Path 42" d="M970.767,316.375l5.335,4.68,37.784,17.318-18.892,95.248s25.19,86.589,15.743,91.312-23.615,18.105-26.764,10.233S962.284,325.077,970.767,316.375Z" transform="translate(-558.423 -191.726)" fill="#3f3d56"/>
    <path id="Path_43" data-name="Path 43" d="M977.717,588.038s-35.423-14.956-36.21-1.574,40.146,22.828,40.146,18.892S977.717,588.038,977.717,588.038Z" transform="translate(-543.507 -337.483)" fill="#ffb8b8"/>
    <path id="Path_44" data-name="Path 44" d="M815.788,584.528s40.933,30.7,25.19,38.572-36.21-27.551-36.21-27.551Z" transform="translate(-468.167 -339.483)" fill="#ffb8b8"/>
    <path id="Path_45" data-name="Path 45" d="M901.753,156.731a1.52,1.52,0,0,1,1.462-.868c-12.613-.754-25.9.716-36.452,7.666-2.955,1.947-5.715,4.327-9.08,5.424l2.731,2.142-3.263.995,4.8,3.1a4.162,4.162,0,0,1-3.964,1.328,7.213,7.213,0,0,1,4.4,4.5,21.338,21.338,0,0,1,1.052,6.41c.807-3.131,4.224-4.975,7.452-5.162s6.376.878,9.518,1.643a52.653,52.653,0,0,0,20.9.8c-2.36,4.736-.369,10.385,1.634,15.283l4,9.779c2.221.223,3.79-1.985,5.464-3.462,1.525-1.346-4.546,10.5-3.606,10.062,1.221-.564,14.108-14.791,14.711-15.993a36.589,36.589,0,0,0,4.157-17.732,25.859,25.859,0,0,0-6.718-16.714c-2.869-3.02-6.839-3.549-9.763-6.06-1.151-.988-1.156-1.76-2.737-2.336A46.156,46.156,0,0,0,901.753,156.731Z" transform="translate(-497.032 -103.182)" fill="#2f2e41"/>
    <path id="Path_46" data-name="Path 46" d="M728.956,350.2l-5.51-2.362-44.082,72.42s-7.872,18.892,6.3,27.551,47.23,34.636,47.23,34.636l18.892-29.125s-38.571-18.105-36.21-25.19,14.956-25.977,14.956-25.977Z" transform="translate(-397.866 -209.063)" fill="#3f3d56"/>
    <path id="Path_47" data-name="Path 47" d="M1025.466,361.865l10.233,1.574s42.508,83.441,32.274,99.184-51.954,37.784-51.954,37.784-.787-25.977-7.872-35.423l24.4-9.446-13.382-51.954Z" transform="translate(-580.234 -216.792)" fill="#3f3d56"/>
  </g>
</svg>
