<svg id="swipe-2" xmlns="http://www.w3.org/2000/svg" width="516.053" height="321.591" viewBox="0 0 516.053 321.591">
  <circle id="Ellipse_39" data-name="Ellipse 39" cx="116.845" cy="116.845" r="116.845" transform="translate(275.463 52.442)" fill="#f2f2f2"/>
  <circle id="Ellipse_40" data-name="Ellipse 40" cx="44.622" cy="44.622" r="44.622" transform="translate(18.772)" fill="#ff6584"/>
  <circle id="Ellipse_41" data-name="Ellipse 41" cx="116.845" cy="116.845" r="116.845" transform="translate(26.592 5.98)" fill="#f2f2f2"/>
  <ellipse id="Ellipse_42" data-name="Ellipse 42" cx="128.346" cy="6.9" rx="128.346" ry="6.9" transform="translate(9.571 232.31)" fill="#3f3d56"/>
  <ellipse id="Ellipse_43" data-name="Ellipse 43" cx="96.144" cy="4.759" rx="96.144" ry="4.759" transform="translate(16.011 234.689)" opacity="0.1"/>
  <ellipse id="Ellipse_44" data-name="Ellipse 44" cx="128.346" cy="7.59" rx="128.346" ry="7.59" transform="translate(259.362 279.692)" fill="#3f3d56"/>
  <ellipse id="Ellipse_45" data-name="Ellipse 45" cx="96.144" cy="5.235" rx="96.144" ry="5.235" transform="translate(265.802 282.309)" opacity="0.1"/>
  <ellipse id="Ellipse_46" data-name="Ellipse 46" cx="81.903" cy="4.14" rx="81.903" ry="4.14" transform="translate(102.52 265.431)" fill="#3f3d56"/>
  <ellipse id="Ellipse_47" data-name="Ellipse 47" cx="39.517" cy="1.998" rx="39.517" ry="1.998" transform="translate(0 253.773)" fill="#3f3d56"/>
  <ellipse id="Ellipse_48" data-name="Ellipse 48" cx="73.548" cy="3.718" rx="73.548" ry="3.718" transform="translate(364.818 314.156)" fill="#3f3d56"/>
  <rect id="Rectangle_78" data-name="Rectangle 78" width="147.206" height="87.404" transform="translate(283.283 199.189)" fill="#3f3d56"/>
  <circle id="Ellipse_49" data-name="Ellipse 49" cx="33.121" cy="33.121" r="33.121" transform="translate(297.544 210.689)" fill="#009cd7"/>
  <rect id="Rectangle_79" data-name="Rectangle 79" width="11.04" height="11.04" transform="translate(373.907 212.989)" fill="#009cd7"/>
  <rect id="Rectangle_80" data-name="Rectangle 80" width="11.04" height="11.04" transform="translate(387.707 212.989)" fill="#009cd7" opacity="0.5"/>
  <rect id="Rectangle_81" data-name="Rectangle 81" width="11.04" height="11.04" transform="translate(401.508 212.989)" fill="#009cd7" opacity="0.2"/>
  <rect id="Rectangle_82" data-name="Rectangle 82" width="11.04" height="11.04" transform="translate(373.907 226.79)" fill="#2f2e41"/>
  <rect id="Rectangle_83" data-name="Rectangle 83" width="11.04" height="11.04" transform="translate(387.707 226.79)" fill="#2f2e41" opacity="0.5"/>
  <rect id="Rectangle_84" data-name="Rectangle 84" width="11.04" height="11.04" transform="translate(401.508 226.79)" fill="#2f2e41" opacity="0.2"/>
  <rect id="Rectangle_85" data-name="Rectangle 85" width="11.04" height="11.04" transform="translate(373.907 240.59)" fill="#ff6584"/>
  <rect id="Rectangle_86" data-name="Rectangle 86" width="11.04" height="11.04" transform="translate(387.707 240.59)" fill="#ff6584" opacity="0.5"/>
  <rect id="Rectangle_87" data-name="Rectangle 87" width="11.04" height="11.04" transform="translate(401.508 240.59)" fill="#ff6584" opacity="0.2"/>
  <path id="Path_79" data-name="Path 79" d="M757.9,558.459V624.7c18.292,0,34.041-14.829,34.041-33.121S776.2,558.459,757.9,558.459Z" transform="translate(-427.238 -347.77)" fill="#3f3d56" opacity="0.5"/>
  <path id="Path_80" data-name="Path 80" d="M1011.465,546.959s19.321,8.74,12.421,18.861-27.6,29.441-28.061,33.581a18.38,18.38,0,0,1-3.22,7.82s-9.2-9.66-8.28-10.58,10.12-9.66,10.58-11.96,14.261-20.241,14.261-20.241L996.745,553.4Z" transform="translate(-549.466 -341.56)" fill="#ffb9b9"/>
  <path id="Path_81" data-name="Path 81" d="M1011.465,546.959s19.321,8.74,12.421,18.861-27.6,29.441-28.061,33.581a18.38,18.38,0,0,1-3.22,7.82s-9.2-9.66-8.28-10.58,10.12-9.66,10.58-11.96,14.261-20.241,14.261-20.241L996.745,553.4Z" transform="translate(-549.466 -341.56)" opacity="0.1"/>
  <path id="Path_82" data-name="Path 82" d="M990.4,580.859s13.341,5.52,12.421,14.261,16.1,33.581,16.1,33.581,1.84,5.98,1.38,7.82,11.961,1.38,11.961,1.38v-4.14S1022.6,617.2,1021.684,612.6s-6.44-22.541-6.44-22.541-1.84-16.1-11.041-16.1a17.251,17.251,0,0,0-13.8,6.9Z" transform="translate(-552.783 -356.14)" fill="#ffb9b9"/>
  <path id="Path_83" data-name="Path 83" d="M981.979,498.459s27.6,22.541,26.681,24.381-14.261,8.74-16.561,9.2-18.575-33.581-18.575-33.581Z" transform="translate(-543.67 -315.371)" fill="#2f2e41"/>
  <path id="Path_84" data-name="Path 84" d="M981.979,498.459s27.6,22.541,26.681,24.381-14.261,8.74-16.561,9.2-18.575-33.581-18.575-33.581Z" transform="translate(-543.67 -315.371)" opacity="0.1"/>
  <path id="Path_85" data-name="Path 85" d="M926.308,502.459s-2.76,12.421,4.6,17.481,19.781,24.841,21.161,24.841,21.161-10.58,20.241-12.421-11.04-17.941-11.04-17.941l-3.22-17.021S929.988,496.479,926.308,502.459Z" transform="translate(-517.9 -314.771)" fill="#2f2e41"/>
  <path id="Path_86" data-name="Path 86" d="M991.9,420.459l4.14,26.681L1003.4,466s11.04,11.5,4.6,12.421S997.883,466,997.883,466l-5.98-11.04Z" transform="translate(-553.593 -273.253)" fill="#ffb9b9"/>
  <path id="Path_87" data-name="Path 87" d="M991.9,420.459l4.14,26.681L1003.4,466s11.04,11.5,4.6,12.421S997.883,466,997.883,466l-5.98-11.04Z" transform="translate(-553.593 -273.253)" opacity="0.1"/>
  <path id="Path_88" data-name="Path 88" d="M954.123,355.959s0,9.66-3.22,10.58,12.881,13.341,12.881,13.341-1.84-16.1,4.6-20.241Z" transform="translate(-531.224 -238.424)" fill="#ffb9b9"/>
  <path id="Path_89" data-name="Path 89" d="M954.123,355.959s0,9.66-3.22,10.58,12.881,13.341,12.881,13.341-1.84-16.1,4.6-20.241Z" transform="translate(-531.224 -238.424)" opacity="0.1"/>
  <circle id="Ellipse_50" data-name="Ellipse 50" cx="10.58" cy="10.58" r="10.58" transform="translate(419.679 104.194)" fill="#ffb9b9"/>
  <path id="Path_90" data-name="Path 90" d="M945.363,384.444s-9.66-11.961-11.04-11.5-11.5,10.58-12.421,13.8-2.76,26.221-1.38,30.821,1.38,16.561.92,17.481-3.22,3.22-.46,3.22,12.421-6.9,18.861-5.52,15.181-.46,15.641-1.38-.46-24.841,0-26.681-.92-11.04-1.38-12.881-.46-9.2-5.06-11.04l-1.961-.194-.11,4.55Z" transform="translate(-514.644 -247.588)" fill="#009cd7"/>
  <path id="Path_91" data-name="Path 91" d="M931.4,449.959s.92,14.261,7.82,20.241,21.621,16.1,22.541,17.941,9.66,11.5,11.5,7.36a6.882,6.882,0,0,0,.369-4.079,10.145,10.145,0,0,0-4.556-6.63l-4.094-2.632L944.744,461l-.92-11.04Z" transform="translate(-520.925 -289.182)" fill="#ffb9b9"/>
  <path id="Path_92" data-name="Path 92" d="M979.929,651.225s-5.29-1.15-7.13,2.07,1.84,11.961,1.84,11.961,10.58,22.081,12.421,19.321-1.38-12.88-1.38-12.88,4.6-10.12,2.76-10.581S979.929,656.745,979.929,651.225Z" transform="translate(-542.999 -397.754)" fill="#2f2e41"/>
  <path id="Path_93" data-name="Path 93" d="M1053.814,704.639s-2.76-1.38-3.22,0-3.22,8.28,0,9.2,34.962,1.84,34.042,0-5.98-4.14-9.2-5.06-11.5-7.82-11.5-7.82S1059.334,706.939,1053.814,704.639Z" transform="translate(-584.454 -424.717)" fill="#2f2e41"/>
  <path id="Path_94" data-name="Path 94" d="M967.45,318.613a2.834,2.834,0,0,0-1.229-1.6,6.5,6.5,0,0,0-.259-2.117c-.676-2-2.278-1.884-3.789-2.768-.656-.383-.615-.722-.956-1.352a5.017,5.017,0,0,0-1.933-1.972,6.957,6.957,0,0,0-3.14-1.332c-2.41-.164-4.258,2.1-6.561,2.83-1.015.321-2.106.334-3.127.637a2.876,2.876,0,0,0-2.191,2.081c-.07.487.054.986-.018,1.472-.142.967-.99,1.644-1.557,2.439a6.009,6.009,0,0,0-.108,6.155,8.66,8.66,0,0,0,.724,1.133,6.969,6.969,0,0,0,.764,2.588,12.9,12.9,0,0,0,4.536,4.53,10.706,10.706,0,0,1-.268-1.932,1.332,1.332,0,0,1,.082-.64c.2-.42.732-.532,1.137-.762a2.874,2.874,0,0,0,1.192-2.5c.024-.964-.18-1.93-.079-2.89a1.579,1.579,0,0,1,.54-1.161,1.867,1.867,0,0,1,1.019-.243,11.5,11.5,0,0,0,5.03-.914,7.454,7.454,0,0,1,1.565-.792,3.329,3.329,0,0,1,3.347,1.672c.742,1.105,1.113,2.42,1.8,3.562a3.617,3.617,0,0,0,3.193,2.024.53.53,0,0,0,.4-.176.593.593,0,0,0,.073-.337l.074-5.062A7.652,7.652,0,0,0,967.45,318.613Z" transform="translate(-526.532 -212.235)" fill="#2f2e41"/>
  <path id="Path_95" data-name="Path 95" d="M931.569,398.959s10.12,4.6,9.66,14.261,2.76,10.58-5.06,11.5-9.66,0-10.12.92-3.22-21.161-1.38-23.461S931.569,398.959,931.569,398.959Z" transform="translate(-516.95 -261.643)" fill="#009cd7"/>
  <circle id="Ellipse_51" data-name="Ellipse 51" cx="14.721" cy="14.721" r="14.721" transform="translate(196.339 29.901)" fill="#2f2e41"/>
  <path id="Path_96" data-name="Path 96" d="M504.891,547.959,496.61,570.5s-6.9,5.52-2.76,7.36,12.421-1.84,12.421-1.84l6.44-16.561-.92-11.5Z" transform="translate(-283.94 -342.1)" fill="#2f2e41"/>
  <path id="Path_97" data-name="Path 97" d="M504.891,547.959,496.61,570.5s-6.9,5.52-2.76,7.36,12.421-1.84,12.421-1.84l6.44-16.561-.92-11.5Z" transform="translate(-283.94 -342.1)" opacity="0.1"/>
  <path id="Path_98" data-name="Path 98" d="M517.236,257.459l6.9.92s3.22,25.3,1.84,27.141-8.28,9.2-11.04,7.36S517.236,257.459,517.236,257.459Z" transform="translate(-295.596 -185.236)" fill="#575a89"/>
  <path id="Path_99" data-name="Path 99" d="M360.544,357.959s-9.66,4.14-11.5,4.6-4.6,5.06-1.38,5.98,15.641-8.28,15.641-8.28Z" transform="translate(-204.916 -239.504)" fill="#a0616a"/>
  <path id="Path_100" data-name="Path 100" d="M526.4,564.314l5.06,18.861s.46,6.9,2.76,7.36,9.2-2.3,9.2-3.22-2.76-8.28-2.76-8.28,0-5.52-2.76-7.82-5.247-10.005-5.247-10.005Z" transform="translate(-302.233 -349.255)" fill="#2f2e41"/>
  <path id="Path_101" data-name="Path 101" d="M517.184,423.741c.929,2.167.814,17.886-.2,28.346-.492,5.083-1.2,8.924-2.1,9.375l-6.592-1.647-2.608-.653-.069-5.723-.391-31.539-7.82-32.661v-8.28l19.781,1.84,3.137,4.927.083.133S515.8,420.521,517.184,423.741Z" transform="translate(-286.573 -251.924)" fill="#2f2e41"/>
  <path id="Path_102" data-name="Path 102" d="M513.044,433.861c.984,1.477,2.627,10.318,3.938,18.226-.492,5.083-1.2,8.924-2.1,9.375l-6.592-1.647c-.1-.212-.2-.432-.308-.653-.842-1.766-1.633-3.717-2.369-5.723l-.391-31.539-7.82-32.661v-8.28l19.781,1.84,3.137,4.927L502,386.479l4.14,17.941,5.06,18.861S511.2,431.1,513.044,433.861Z" transform="translate(-286.573 -251.924)" opacity="0.1"/>
  <path id="Path_103" data-name="Path 103" d="M457.831,333.939s-6.44,14.261,2.76,34.041A402.1,402.1,0,0,1,475.771,405.7s3.22,15.181,7.82,24.841,3.68,10.12,3.68,10.12l7.36-4.14s-4.14-28.521-5.98-31.281-1.84-10.58-1.84-10.58l-5.06-18.861-4.14-17.941,20.241,1.38s0-26.221-9.2-31.281Z" transform="translate(-264.022 -223.305)" fill="#2f2e41"/>
  <path id="Path_104" data-name="Path 104" d="M464.353,212.459s0,7.36-2.3,7.82-6.9.46-8.28,2.76,10.58,32.661,10.58,32.661l12.421-7.82,4.14-20.7s-5.98-3.68-5.98-5.52v-8.28Z" transform="translate(-262.954 -160.937)" fill="#a0616a"/>
  <path id="Path_105" data-name="Path 105" d="M464.353,212.459s0,7.36-2.3,7.82-6.9.46-8.28,2.76,10.58,32.661,10.58,32.661l12.421-7.82,4.14-20.7s-5.98-3.68-5.98-5.52v-8.28Z" transform="translate(-262.954 -160.937)" opacity="0.1"/>
  <circle id="Ellipse_52" data-name="Ellipse 52" cx="11.04" cy="11.04" r="11.04" transform="translate(197.489 37.492)" fill="#a0616a"/>
  <path id="Path_106" data-name="Path 106" d="M451.824,255.68s-4.14-26.221-5.06-26.221-13.8,2.76-14.721,3.22-4.14,4.6-4.14,4.6l6.44,18.4s2.76,12.881,4.6,15.181,5.52,8.74,3.68,9.66-3.68,2.3-1.84,2.3,17.021-2.76,17.941-1.38,16.1-5.06,16.1-5.52-1.84-22.081-1.84-22.081l4.6-10.58-13.8-9.66Z" transform="translate(-249.045 -170.117)" fill="#575a89"/>
  <path id="Path_107" data-name="Path 107" d="M403.344,241.459l-4.6,2.3s-12.881,29.441-13.8,29.9-5.52,9.2-5.98,11.04-1.38,7.82-2.76,8.74a23.9,23.9,0,0,1-2.3,1.38s2.76,4.6,4.14,4.6,5.98-6.44,5.98-6.44,10.12,6.44,12.881,1.38,9.66-37.262,9.66-37.262Z" transform="translate(-219.886 -176.596)" fill="#575a89"/>
  <path id="Path_108" data-name="Path 108" d="M503.239,255.583s-6.44-15.641-10.12-13.8,2.76,12.881,6.9,14.721Z" transform="translate(-283.668 -176.69)" fill="#a0616a"/>
  <path id="Path_109" data-name="Path 109" d="M497.847,271.246l6.454-1.459,1.366,6.979s5.98,10.58,4.6,15.181-9.66,11.961-12.421,7.82-5.06-10.58-3.22-14.261S499.227,273.086,497.847,271.246Z" transform="translate(-284.717 -191.893)" opacity="0.1"/>
  <path id="Path_110" data-name="Path 110" d="M500.847,269.246l6.454-1.459,1.366,6.979s5.98,10.58,4.6,15.181-9.66,11.961-12.421,7.82-5.06-10.58-3.22-14.261S502.227,271.086,500.847,269.246Z" transform="translate(-286.337 -190.813)" fill="#575a89"/>
  <ellipse id="Ellipse_53" data-name="Ellipse 53" cx="5.29" cy="11.04" rx="5.29" ry="11.04" transform="translate(199.278 41.739) rotate(-64.899)" fill="#2f2e41"/>
  <circle id="Ellipse_54" data-name="Ellipse 54" cx="6.44" cy="6.44" r="6.44" transform="translate(213.36 25.761)" fill="#2f2e41"/>
  <path id="Path_111" data-name="Path 111" d="M502.271,157.9a6.44,6.44,0,0,1,5.749-6.4,6.44,6.44,0,1,0,0,12.8A6.44,6.44,0,0,1,502.271,157.9Z" transform="translate(-288.451 -127.998)" fill="#2f2e41"/>
  <rect id="Rectangle_88" data-name="Rectangle 88" width="161.007" height="111.785" transform="translate(29.812 127.425)" fill="#3f3d56"/>
  <rect id="Rectangle_89" data-name="Rectangle 89" width="21.161" height="21.161" transform="translate(42.693 138.466)" fill="#f2f2f2"/>
  <rect id="Rectangle_90" data-name="Rectangle 90" width="21.161" height="21.161" transform="translate(42.693 172.967)" fill="#009cd7"/>
  <rect id="Rectangle_91" data-name="Rectangle 91" width="21.161" height="21.161" transform="translate(42.693 207.469)" fill="#f2f2f2"/>
  <rect id="Rectangle_92" data-name="Rectangle 92" width="100.744" height="1.84" transform="translate(73.974 145.136)" fill="#f2f2f2"/>
  <rect id="Rectangle_93" data-name="Rectangle 93" width="31.281" height="1.84" transform="translate(73.974 151.117)" fill="#f2f2f2"/>
  <rect id="Rectangle_94" data-name="Rectangle 94" width="100.744" height="1.84" transform="translate(73.974 179.638)" fill="#f2f2f2"/>
  <rect id="Rectangle_95" data-name="Rectangle 95" width="31.281" height="1.84" transform="translate(73.974 185.618)" fill="#f2f2f2"/>
  <rect id="Rectangle_96" data-name="Rectangle 96" width="100.744" height="1.84" transform="translate(73.974 214.139)" fill="#f2f2f2"/>
  <rect id="Rectangle_97" data-name="Rectangle 97" width="31.281" height="1.84" transform="translate(73.974 220.119)" fill="#f2f2f2"/>
  <path id="Path_112" data-name="Path 112" d="M999.711,744.418c0,9.364-5.566,12.634-12.433,12.634-.159,0-.318,0-.476-.006-.318-.007-.634-.022-.945-.043-6.2-.438-11.012-3.876-11.012-12.585,0-9.011,11.515-20.382,12.382-21.226h0l.05-.049S999.711,735.055,999.711,744.418Z" transform="translate(-544.382 -436.695)" fill="#009cd7"/>
  <path id="Path_113" data-name="Path 113" d="M995.024,755.619l4.548-6.354-4.559,7.052-.011.729c-.318-.007-.634-.022-.945-.044l.49-9.368,0-.073.008-.013.047-.886-4.571-7.069,4.584,6.4.011.188.37-7.078-3.913-7.3,3.961,6.063.386-14.675v0l-.064,11.572,3.9-4.588-3.911,5.585-.1,6.337,3.638-6.082-3.653,7.015-.057,3.523,5.279-8.466-5.3,9.7Z" transform="translate(-552.58 -436.695)" fill="#3f3d56"/>
  <path id="Path_114" data-name="Path 114" d="M122.714,605.418c0,9.364-5.566,12.634-12.434,12.634-.159,0-.318,0-.476-.006-.318-.007-.634-.022-.945-.043-6.2-.438-11.012-3.876-11.012-12.585,0-9.011,11.515-20.382,12.382-21.226h0l.05-.049S122.714,596.055,122.714,605.418Z" transform="translate(-70.821 -361.638)" fill="#009cd7"/>
  <path id="Path_115" data-name="Path 115" d="M118.024,616.619l4.548-6.354-4.559,7.052-.011.729c-.318-.007-.634-.022-.945-.043l.49-9.368,0-.073.008-.013.047-.886-4.571-7.069,4.584,6.4.011.188.37-7.078-3.913-7.3,3.961,6.063.386-14.675v0l-.064,11.572,3.9-4.588-3.911,5.585-.1,6.337,3.638-6.082-3.653,7.015-.057,3.523,5.279-8.466-5.3,9.7Z" transform="translate(-79.017 -361.638)" fill="#3f3d56"/>
</svg>
