<svg xmlns="http://www.w3.org/2000/svg" width="277.101" height="301.259" viewBox="0 0 277.101 301.259">
  <g id="tool-2" transform="translate(-813.9 -1285.797)">
    <path id="Path_764" data-name="Path 764" d="M346.907,183.808c68.464,71.934,125.723,143.685-91.092,91.092-48.891-11.86-91.092-40.783-91.092-91.092a91.091,91.091,0,0,1,91.092-91.092C306.124,92.716,312.223,147.366,346.907,183.808Z" transform="translate(666.229 1630.027) rotate(-68)" fill="#d2dae2" opacity="0.5"/>
    <path id="Path_173" data-name="Path 173" d="M394.521,324.32H320.246a2.525,2.525,0,0,1-2.523-2.522V203.239a2.526,2.526,0,0,1,2.523-2.523h74.275a2.525,2.525,0,0,1,2.523,2.523v9.81h1.682v5.886h-1.682V220.9h1.682v5.886h-1.682V321.8a2.525,2.525,0,0,1-2.523,2.523ZM320.246,201.277a1.964,1.964,0,0,0-1.962,1.962V321.8a1.964,1.964,0,0,0,1.962,1.962h74.275a1.964,1.964,0,0,0,1.962-1.962V226.222h1.682v-4.765h-1.682v-3.083h1.682v-4.765h-1.682v-10.37a1.964,1.964,0,0,0-1.962-1.962Z" transform="translate(555.16 1180.842)" fill="#35b23d"/>
    <path id="Path_174" data-name="Path 174" d="M408.249,334.208H343.224V223.216h65.025Zm-64.465-.561h63.9V223.777h-63.9Z" transform="translate(536.807 1164.648)" fill="#35b23d"/>
    <rect id="Rectangle_22" data-name="Rectangle 22" width="13" height="1" transform="translate(906 1384)" fill="#35b23d"/>
    <path id="Path_175" data-name="Path 175" d="M413.724,286.716" transform="translate(486.066 1118.945)" fill="none" stroke="#35b23d" stroke-miterlimit="10" stroke-width="2"/>
    <rect id="Rectangle_23" data-name="Rectangle 23" width="27" height="3" transform="translate(899 1414)" fill="#d0cde1"/>
    <path id="Path_176" data-name="Path 176" d="M411.54,504.345a4.91,4.91,0,1,1,4.91-4.91A4.91,4.91,0,0,1,411.54,504.345Zm0-9.3a4.393,4.393,0,1,0,4.393,4.393A4.393,4.393,0,0,0,411.54,495.042Z" transform="translate(491.172 969.381)" fill="#d0cde1"/>
    <path id="Path_177" data-name="Path 177" d="M253.246,405.134l-2.5-2.5.731-.731,1.633,1.633,4.556-6.475.846.6Z" transform="translate(649.535 1065.516)" fill="#33ae84"/>
    <path id="Path_178" data-name="Path 178" d="M480.692,504.345a4.91,4.91,0,1,1,4.91-4.91A4.91,4.91,0,0,1,480.692,504.345Zm0-9.3a4.393,4.393,0,1,0,4.393,4.393A4.393,4.393,0,0,0,480.692,495.042Z" transform="translate(441.402 969.381)" fill="#d0cde1"/>
    <path id="Path_179" data-name="Path 179" d="M324.93,411.78l-.732-.73-1.594,1.6-1.594-1.6-.732.73,1.6,1.6L320.3,414.96l.732.73,1.572-1.577,1.572,1.577.732-.73-1.574-1.579Z" transform="translate(599.49 1055.447)" fill="#ff6584"/>
    <rect id="Rectangle_24" data-name="Rectangle 24" width="203.89" height="0.561" transform="translate(860.145 1504.602)" fill="#35b23d"/>
    <circle id="Ellipse_16" data-name="Ellipse 16" cx="4" cy="4" r="4" transform="translate(856 1501)" fill="#35b23d"/>
    <circle id="Ellipse_17" data-name="Ellipse 17" cx="4" cy="4" r="4" transform="translate(1062 1501)" fill="#35b23d"/>
    <path id="Path_180" data-name="Path 180" d="M920.117,576.471l-.355-.133c-.078-.029-7.846-3.005-11.485-9.754s-1.857-14.874-1.839-14.955l.084-.37.355.133c.078.029,7.846,3.005,11.484,9.754s1.857,14.874,1.839,14.955Zm-11.257-10.2c3.076,5.706,9.215,8.63,10.77,9.3.3-1.667,1.223-8.408-1.851-14.108s-9.214-8.629-10.77-9.3c-.3,1.668-1.223,8.408,1.851,14.108Z" transform="translate(131.777 928.549)" fill="#35b23d"/>
    <path id="Path_181" data-name="Path 181" d="M886.531,590.418c6.539,3.934,9.058,11.749,9.058,11.749s-8.084,1.436-14.623-2.5-9.058-11.749-9.058-11.749S879.992,586.484,886.531,590.418Z" transform="translate(156.303 902.348)" fill="#d0cde1"/>
    <path id="Path_182" data-name="Path 182" d="M602.349,281.216l-1.121,7.287-5.045,19.62s-6.447,8.408-.841,10.09,4.765-9.81,4.765-9.81l7.007-14.014V281.777Z" transform="translate(357.002 1122.904)" fill="#a0616a"/>
    <path id="Path_183" data-name="Path 183" d="M519.106,467.5l2.523,4.765-5.886,3.083-2.242-4.485Z" transform="translate(460.426 1014.818)" fill="#a0616a"/>
    <path id="Path_184" data-name="Path 184" d="M675.892,574s4.484-.561,5.325,0,1.4-2.523,2.8-1.962,5.325,5.325,4.484,5.886-4.484,7.287-4.484,7.287-3.924,9.53-7.287,7.848-.841-10.37-.841-10.37Z" transform="translate(298.033 913.643)" fill="#2f2e41"/>
    <path id="Path_185" data-name="Path 185" d="M534.628,522.061l-.841,9.249-7.287-1.121,2.8-8.689Z" transform="translate(451.068 975.953)" fill="#a0616a"/>
    <path id="Path_186" data-name="Path 186" d="M689.785,631.646l1.682.841s2.523-4.2,4.485-1.962,2.523,1.962,2.523,1.962l3.644,8.128s5.045,8.128-1.682,8.128-7.568-3.083-7.568-3.083-3.644-2.523-3.644-3.924S689.785,631.646,689.785,631.646Z" transform="translate(287.783 871.973)" fill="#2f2e41"/>
    <path id="Path_187" data-name="Path 187" d="M653.642,347.216s1.4,7.287,1.121,11.772-2.242,33.634-2.242,33.634l-2.242,32.793-9.53-.841.841-31.392-3.083-22.7-5.325,18.779-11.492.841s-2.242-27.748,1.962-30.831S653.642,347.216,653.642,347.216Z" transform="translate(336.818 1075.402)" fill="#2f2e41"/>
    <path id="Path_188" data-name="Path 188" d="M632.817,487.216l1.682,2.8s6.446,6.446,7.287,9.81,4.765,8.689,4.765,8.689L638.143,513s-16.537-19.339-15.135-22.142Z" transform="translate(335.502 974.643)" fill="#2f2e41"/>
    <circle id="Ellipse_18" data-name="Ellipse 18" cx="7.848" cy="7.848" r="7.848" transform="translate(967.479 1359.836)" fill="#a0616a"/>
    <path id="Path_189" data-name="Path 189" d="M665.806,163.739s-.28,5.886,3.924,7.007S663,177.472,663,177.472s-8.408.28-7.848-3.924l1.962-1.682-.28-10.651Z" transform="translate(312.324 1209.27)" fill="#a0616a"/>
    <path id="Path_190" data-name="Path 190" d="M641.053,190.716s-6.029,6.71-11.353,2.864c0,0-10.088,4.563-9.808,9.889s4.2,13.734,4.2,13.734l-.841,18.5s-9.53,12.052-3.363,12.613,19.059-.28,25.786-8.969c0,0,6.446,1.682,6.446-1.121V220.286l2.242-24.665Z" transform="translate(339.18 1188.039)" fill="#d0cde1"/>
    <path id="Path_191" data-name="Path 191" d="M626.148,224.216a3.846,3.846,0,0,0-3.078,2.844c-.566,2.481-.846,15.374-.846,15.374h6.727Z" transform="translate(336.006 1163.928)" fill="#d0cde1"/>
    <path id="Path_192" data-name="Path 192" d="M572.511,173.5l1.682,13.173L565.5,204.611l-1.121,4.765L562,201.949l4.625-16.116L564.1,175.182Z" transform="translate(425.52 1226.416)" fill="#a0616a"/>
    <path id="Path_193" data-name="Path 193" d="M667.292,112.017l.518-1.161-.91-.082.233-1.085-1.16.8a2.37,2.37,0,0,0-.395-2.262,4.527,4.527,0,0,0-1.94-1.368,8.656,8.656,0,0,0-8.882,1.552l-.084-.327a11.273,11.273,0,0,0-4.306,7.461c-.371,2.925,1.034,5.9,2.86,8.218-.186-1.225-.518-2.426.071-3.516a11.5,11.5,0,0,1,.743-1.147l1.49-2.112c.856-1.214,1.873-2.531,3.343-2.746a5.5,5.5,0,0,1,1.227,0,47.059,47.059,0,0,0,5.55.432c1.475-.064,1.921-1.165,2.339-2.512A4.911,4.911,0,0,0,667.292,112.017Z" transform="translate(315.795 1248.824)" fill="#2f2e41"/>
    <path id="Path_194" data-name="Path 194" d="M567.742,116.061l2.8-.561,6.166,17.377L565.5,135.4Z" transform="translate(423 1268.16)" fill="#d0cde1"/>
    <rect id="Rectangle_25" data-name="Rectangle 25" width="43.163" height="2.199" transform="translate(890.822 1425.641)" fill="#d0cde1"/>
    <rect id="Rectangle_26" data-name="Rectangle 26" width="43.163" height="2.199" transform="translate(890.898 1432.238)" fill="#d0cde1"/>
    <rect id="Rectangle_27" data-name="Rectangle 27" width="43.163" height="2.199" transform="translate(890.977 1438.836)" fill="#d0cde1"/>
    <rect id="Rectangle_28" data-name="Rectangle 28" width="43.163" height="2.199" transform="translate(891.055 1445.434)" fill="#d0cde1"/>
    <rect id="Rectangle_29" data-name="Rectangle 29" width="43.163" height="2.199" transform="translate(891.131 1452.031)" fill="#d0cde1"/>
  </g>
</svg>
