<svg xmlns="http://www.w3.org/2000/svg" width="277.101" height="301.259" viewBox="0 0 277.101 301.259">
  <g id="tool-1" transform="translate(-400 -1285.797)">
    <path id="Path_195" data-name="Path 195" d="M346.907,183.808c68.464,71.934,125.723,143.685-91.092,91.092-48.891-11.86-91.092-40.783-91.092-91.092a91.091,91.091,0,0,1,91.092-91.092C306.124,92.716,312.223,147.366,346.907,183.808Z" transform="translate(252.328 1630.027) rotate(-68)" fill="#d2dae2" opacity="0.5"/>
    <g id="undraw_personal_email_t7nw" transform="translate(417.551 1339)">
      <path id="Path_147" data-name="Path 147" d="M834.349,394.706a93.343,93.343,0,0,1-14.981,21.456c-.138.149-.277.295-.418.443l-14.707-6.963c.09-.15.189-.317.295-.5,6.318-10.809,44.454-76.747,43.249-91.681C847.927,318.691,852.448,359.424,834.349,394.706Z" transform="translate(-664.773 -266.7)" fill="#e6e6e6"/>
      <path id="Path_148" data-name="Path 148" d="M845.5,622.725c-.206.117-.417.232-.629.342l-11.033-5.223c.154-.109.334-.239.541-.384,3.38-2.427,13.431-9.708,23.266-17.534,10.569-8.409,20.89-17.445,22.423-21.758C879.761,579.157,870.086,609.22,845.5,622.725Z" transform="translate(-688.072 -471.92)" fill="#e6e6e6"/>
      <ellipse id="Ellipse_13" data-name="Ellipse 13" cx="56.828" cy="5.626" rx="56.828" ry="5.626" transform="translate(0 146.686)" fill="#e6e6e6"/>
      <circle id="Ellipse_14" data-name="Ellipse 14" cx="17.027" cy="17.027" r="17.027" transform="translate(8.684 120.903)" fill="#35b23d"/>
      <path id="Path_149" data-name="Path 149" d="M242.941,693.448H229.3a2.276,2.276,0,0,0-2.273,2.273v9.743a2.276,2.276,0,0,0,2.273,2.274h13.641a2.276,2.276,0,0,0,2.273-2.273v-9.744A2.276,2.276,0,0,0,242.941,693.448Zm0,1.3a.97.97,0,0,1,.241.031l-7.06,5.632-7.019-5.643a.97.97,0,0,1,.2-.02Zm0,11.692H229.3a.975.975,0,0,1-.974-.974v-9.656l7.388,5.94a.65.65,0,0,0,.812,0l7.39-5.895v9.609a.975.975,0,0,1-.974.974Z" transform="translate(-210.409 -562.664)" fill="#fff"/>
      <path id="Path_150" data-name="Path 150" d="M275.15,389.138l-13.913.895-3.732-13.209,12.228-2.866Z" transform="translate(-202.699 -294.366)" fill="#2f2e41"/>
      <path id="Path_151" data-name="Path 151" d="M498.934,583.827l3.81.031a2.651,2.651,0,0,0,2.639-3.071h0a2.651,2.651,0,0,0-3.79-1.956L498,580.6l-12.288,2.74-5.265-5.382-3.024,4.981,7.1,5.489Z" transform="translate(-407.512 -471.757)" fill="#ffb8b8"/>
      <path id="Path_152" data-name="Path 152" d="M475.532,663.781l-4.489.863c-3.066-9.665-6.388-18.817-6.388-25.9a25.581,25.581,0,0,1-16.055,8.459l.691-10.7,5.179-2.762,7.927-3.659a6.019,6.019,0,0,1,2.206-.546h0a6.019,6.019,0,0,1,6.26,5.06Z" transform="translate(-384.824 -512.349)" fill="#ffb8b8"/>
      <path id="Path_153" data-name="Path 153" d="M543.917,770.167s.43-.182,2.149,2.067c0,0,5.489,1.022,4.581,3.5s-7.966,2.4-8.636,2.019-6.009-.37-5.64-2.052,2.5-3.561,2.5-3.561.978,1.981,2.5,1.989c2.035.011,2.725-1.715,2.38-3.442C543.741,770.669,543.93,770.177,543.917,770.167Z" transform="translate(-453.9 -623.051)" fill="#2f2e41"/>
      <path id="Path_154" data-name="Path 154" d="M377.34,709.685s.672,1.838-2.355,2.946c0,0-2.97,5.623-5.354,3.8s.09-9.474.728-10.075,2.437-6.409,4.141-5.438,3.028,3.919,3.028,3.919-5.486,1.762-2.891,5.839A4.75,4.75,0,0,0,377.34,709.685Z" transform="translate(-321.862 -568.456)" fill="#2f2e41"/>
      <circle id="Ellipse_15" data-name="Ellipse 15" cx="5.653" cy="5.653" r="5.653" transform="translate(56.099 81.165)" fill="#ffb8b8"/>
      <path id="Path_155" data-name="Path 155" d="M417.928,508.093h-9.841l-2.072-6.042c3.592-1.1,2.753-4.21,2.072-7.251h9.841c-1.908,3.8-4.278,9.19.345,10.186Z" transform="translate(-351.303 -406.295)" fill="#ffb8b8"/>
      <path id="Path_156" data-name="Path 156" d="M388.662,657.661l-1.789,1.36a5.54,5.54,0,0,1-5.462.712h0c-5.124-3.841-9.3-2.69-12.6,3.108-3.958-4.466-4.4-10.935-.863-17.609l19.595.432,3.971-1.208Z" transform="translate(-319.448 -524.098)" fill="#2f2e41"/>
      <path id="Path_157" data-name="Path 157" d="M395.073,719.29h0a5,5,0,0,1-5.921-2.495,20.014,20.014,0,0,1-4.535-6.472,50.085,50.085,0,0,1-2.377-6.1,5.183,5.183,0,0,1,3.374-6.587q.124-.037.251-.069a7.416,7.416,0,0,1,8.776,4.795l3.682,10.495a5,5,0,0,1-3.25,6.438Z" transform="translate(-332.384 -565.724)" fill="#ffb8b8"/>
      <path id="Path_158" data-name="Path 158" d="M391.415,752.741s4.316,4.834,5.179,7.6" transform="translate(-339.81 -609.337)" opacity="0.2"/>
      <path id="Path_159" data-name="Path 159" d="M306.694,572.907l-1.444,3.526a2.651,2.651,0,0,0,1.871,3.591h0a2.651,2.651,0,0,0,3.224-2.792l-.311-3.994,2.021-12.427,6.953-2.888-3.5-4.658-7.735,4.557Z" transform="translate(-271.827 -452.316)" fill="#ffb8b8"/>
      <path id="Path_160" data-name="Path 160" d="M371.526,550.414c-4.96,8.332-12.938,6.87-21.407.345,3.572-2.671,1.381-10.358-1.726-10.876-3.213-.536-3.6-7.107-4.834-10.358L358.578,524l4.057,3.194,4.057-.95,1.663.59a5.623,5.623,0,0,1,3.742,5.222C368.689,536.981,366.165,542.234,371.526,550.414Z" transform="translate(-302.138 -429.281)" fill="#35b23d"/>
      <path id="Path_161" data-name="Path 161" d="M461.856,555.813s-.764-3.942-3.274-2.7-2.682-2.216-2.682-2.216l1.985-11.481L466,548.044Z" transform="translate(-390.57 -441.412)" fill="#35b23d"/>
      <path id="Path_162" data-name="Path 162" d="M403.262,446.14a5.077,5.077,0,0,1,2.905,4.888,6.885,6.885,0,0,1-.271,1.9,5.406,5.406,0,0,0,.88,4.257,39.307,39.307,0,0,1,2.181,4.1h0l-3.239.284-.488-5.37a26.632,26.632,0,0,0-1.836-7.581l-.02-.051a5.194,5.194,0,0,1-4.329,2.463l1.045-.97a35.6,35.6,0,0,1-5.471,1.55,1.217,1.217,0,0,0-.751,2.017l.034.037c1.164,1.254,3.478,4.165,1.985,6.329s-.306,2.814-.306,2.814l-2.172-1.291-.985-.642-.03.806-5.217-.8s-1.4-.254,1.746-3.568a3.594,3.594,0,0,0,.541-2.461,5.792,5.792,0,0,1-.12-2.715C390.163,448.384,393.1,440.972,403.262,446.14Z" transform="translate(-336.229 -366.597)" fill="#2f2e41"/>
      <path id="Path_33" data-name="Path 33" d="M662.577,115.778h-.851V92.463a13.494,13.494,0,0,0-13.494-13.494h-49.4a13.494,13.494,0,0,0-13.494,13.494v127.91a13.494,13.494,0,0,0,13.494,13.494h49.4a13.494,13.494,0,0,0,13.494-13.494v-88h.851Z" transform="translate(-492.461 -78.969)" fill="#3f3d56"/>
      <path id="Path_34" data-name="Path 34" d="M662.542,95.462h-6.448a4.788,4.788,0,0,1-4.433,6.6h-28.3a4.788,4.788,0,0,1-4.433-6.6h-6.023a10.077,10.077,0,0,0-10.077,10.077V233.261a10.077,10.077,0,0,0,10.077,10.077H662.54a10.077,10.077,0,0,0,10.077-10.077h0V105.539A10.077,10.077,0,0,0,662.54,95.462h0Z" transform="translate(-506.227 -91.951)" fill="#fff"/>
      <circle id="Ellipse_7" data-name="Ellipse 7" cx="5.534" cy="5.534" r="5.534" transform="translate(126.049 133.182)" fill="#e6e6e6"/>
      <path id="Path_163" data-name="Path 163" d="M658.2,490.267a1.092,1.092,0,0,0,0,2.166h44.726a1.092,1.092,0,0,0,0-2.166Z" transform="translate(-549.064 -402.727)" fill="#e6e6e6"/>
      <path id="Path_164" data-name="Path 164" d="M658.2,610.267a1.092,1.092,0,0,0,0,2.166h44.726a1.092,1.092,0,0,0,0-2.166Z" transform="translate(-549.064 -497.187)" fill="#e6e6e6"/>
      <path id="Path_165" data-name="Path 165" d="M658.2,520.794a1.092,1.092,0,0,0,0,2.166h19.246a1.092,1.092,0,0,0,0-2.166Z" transform="translate(-549.064 -426.757)" fill="#e6e6e6"/>
      <path id="Path_166" data-name="Path 166" d="M658.2,549.893a1.092,1.092,0,0,0,0,2.166h44.726a1.092,1.092,0,0,0,0-2.166Z" transform="translate(-549.064 -449.662)" fill="#e6e6e6"/>
      <path id="Path_167" data-name="Path 167" d="M658.2,580.42a1.092,1.092,0,0,0,0,2.166h19.246a1.092,1.092,0,0,0,0-2.166Z" transform="translate(-549.064 -473.692)" fill="#e6e6e6"/>
      <path id="Path_168" data-name="Path 168" d="M697.086,258.6h27.842a1.161,1.161,0,0,1,1.16,1.16v29a1.161,1.161,0,0,1-1.16,1.16H697.086a1.161,1.161,0,0,1-1.16-1.16v-29A1.161,1.161,0,0,1,697.086,258.6Z" transform="translate(-579.51 -220.364)" fill="#35b23d"/>
      <path id="Path_169" data-name="Path 169" d="M742.315,371.813a.788.788,0,0,0,0-1.575H726.338a.788.788,0,1,0,0,1.575Z" transform="translate(-602.829 -308.245)" fill="#fff"/>
      <path id="Path_170" data-name="Path 170" d="M742.315,350.011a.788.788,0,0,0,0-1.575H726.338a.788.788,0,0,0,0,1.575Z" transform="translate(-602.829 -291.083)" fill="#fff"/>
      <path id="Path_171" data-name="Path 171" d="M748.448,286.69a4.958,4.958,0,1,1-4.958,4.958A4.957,4.957,0,0,1,748.448,286.69Z" transform="translate(-616.951 -242.479)" fill="#fff"/>
    </g>
  </g>
</svg>
