<svg xmlns="http://www.w3.org/2000/svg" width="619" height="445.336" viewBox="0 0 619 445.336">
  <g id="undraw_unlock_24mb" transform="translate(0 0)">
    <path id="Path_347" data-name="Path 347" d="M713.554,689.335q-47.843-7.007-92.021-12.081l11.646-18.846c-3.926-1.16-21.177,9.584-21.177,9.584L627.29,613.2c-19.746,1.9-29.794,57.873-29.794,57.873l-22.062-19.041,10.678,21.342c-90.142-9.3-167.993-12.96-233.475-13.381l9.968-16.13c-3.926-1.16-21.177,9.584-21.177,9.584l15.288-54.791c-19.747,1.9-29.794,57.873-29.794,57.873l-22.059-19.041,11.309,22.6c-54.9.665-99.663,3.6-134.217,7.012,10.083-25.153,44.329-48.962,44.329-48.962-26.151,6.39-39.87,17.238-47.039,27.377-.548-31.117,3.139-88.787,30.528-152.528,0,0-54.066,98.223-47.179,164.354l.823,11.741c-45.824,5.281-68.863,10.89-68.863,10.89Z" transform="translate(-94.554 -243.998)" fill="#3f3d56"/>
    <path id="Path_348" data-name="Path 348" d="M507.479,104.2V501.106a17.843,17.843,0,0,1-17.837,17.825H328.508a17.806,17.806,0,0,1-17.837-17.825V104.2A17.836,17.836,0,0,1,328.51,86.358h24.112V89.45a14.688,14.688,0,0,0,14.685,14.69h81.952a14.567,14.567,0,0,0,8.707-2.866,13.648,13.648,0,0,0,1.445-1.212,14.645,14.645,0,0,0,4.531-10.612V86.358h25.7A17.832,17.832,0,0,1,507.479,104.2Z" transform="translate(-178.337 -86.358)" fill="#3f3d56"/>
    <circle id="Ellipse_66" data-name="Ellipse 66" cx="4.286" cy="4.286" r="4.286" transform="translate(172.937 61.845)" fill="#f2f2f2"/>
    <path id="Path_349" data-name="Path 349" d="M552.666,108.738a13.662,13.662,0,0,1-1.445,1.212,76.692,76.692,0,0,0,49.513,36.856V144.9A74.886,74.886,0,0,1,552.666,108.738Z" transform="translate(-271.591 -95.034)" fill="#35b23d"/>
    <path id="Path_350" data-name="Path 350" d="M492.5,115.4h-2.008a111.24,111.24,0,0,0,86.7,69.224v-1.9A109.331,109.331,0,0,1,492.5,115.4Z" transform="translate(-248.048 -97.616)" fill="#35b23d"/>
    <path id="Path_351" data-name="Path 351" d="M432.126,115.4h-1.935A146.671,146.671,0,0,0,553.814,220.18v-1.868A144.807,144.807,0,0,1,432.126,115.4Z" transform="translate(-224.671 -97.616)" fill="#35b23d"/>
    <path id="Path_352" data-name="Path 352" d="M264.875,159.116H263.76V158h-.217v1.116h-1.116v.218h1.116v1.116h.217v-1.116h1.116Z" transform="translate(-101.735 -61.252)" fill="#f2f2f2"/>
    <path id="Path_353" data-name="Path 353" d="M387.875,68.116H386.76V67h-.217v1.116h-1.116v.218h1.116v1.116h.217V68.334h1.116Z" transform="translate(-149.419 -25.974)" fill="#f2f2f2"/>
    <path id="Path_354" data-name="Path 354" d="M282.875,231.116H281.76V230h-.217v1.116h-1.116v.218h1.116v1.116h.217v-1.116h1.116Z" transform="translate(-108.713 -89.165)" fill="#f2f2f2"/>
    <path id="Path_355" data-name="Path 355" d="M366.875,178.116H365.76V177h-.217v1.116h-1.116v.218h1.116v1.116h.217v-1.116h1.116Z" transform="translate(-141.278 -68.618)" fill="#f2f2f2"/>
    <path id="Path_356" data-name="Path 356" d="M486.875,211.116H485.76V210h-.217v1.116h-1.116v.218h1.116v1.116h.217v-1.116h1.116Z" transform="translate(-187.798 -81.411)" fill="#f2f2f2"/>
    <circle id="Ellipse_67" data-name="Ellipse 67" cx="2.449" cy="2.449" r="2.449" transform="translate(283.769 74.092)" fill="#ff6584"/>
    <path id="Path_357" data-name="Path 357" d="M417.8,305.158l-1.39.214c.435,2.78.778,5.621,1.029,8.432l1.4-.122C418.591,310.834,418.242,307.969,417.8,305.158Z" transform="translate(-219.329 -171.181)" fill="#e6e6e6"/>
    <path id="Path_358" data-name="Path 358" d="M411.618,277.818l-1.347.41c.814,2.694,1.543,5.456,2.162,8.205l1.378-.312C413.18,283.341,412.439,280.549,411.618,277.818Z" transform="translate(-216.949 -160.582)" fill="#e6e6e6"/>
    <path id="Path_359" data-name="Path 359" d="M401.751,251.6l-1.28.588c1.176,2.566,2.278,5.2,3.276,7.832l1.316-.5C404.053,256.858,402.945,254.188,401.751,251.6Z" transform="translate(-213.15 -150.417)" fill="#e6e6e6"/>
    <path id="Path_360" data-name="Path 360" d="M388.409,227.018l-1.188.753c1.512,2.376,2.964,4.837,4.311,7.305l1.237-.674C391.409,231.9,389.94,229.418,388.409,227.018Z" transform="translate(-208.013 -140.888)" fill="#e6e6e6"/>
    <path id="Path_361" data-name="Path 361" d="M371.823,204.488l-1.072.912c1.825,2.143,3.6,4.384,5.278,6.65l1.127-.839C375.466,208.921,373.672,206.656,371.823,204.488Z" transform="translate(-201.628 -132.154)" fill="#e6e6e6"/>
    <path id="Path_362" data-name="Path 362" d="M352.328,184.428l-.937,1.047c2.106,1.88,4.17,3.858,6.136,5.872l1.01-.986C356.547,188.322,354.459,186.326,352.328,184.428Z" transform="translate(-194.123 -124.377)" fill="#e6e6e6"/>
    <path id="Path_363" data-name="Path 363" d="M330.3,167.208l-.79,1.163c2.339,1.574,4.654,3.251,6.876,4.984l.87-1.108C335,170.5,332.664,168.8,330.3,167.208Z" transform="translate(-185.64 -117.701)" fill="#e6e6e6"/>
    <path id="Path_364" data-name="Path 364" d="M310.671,155.248v1.592c1.463.765,2.915,1.568,4.335,2.388l.7-1.219Q313.23,156.577,310.671,155.248Z" transform="translate(-178.337 -113.065)" fill="#e6e6e6"/>
    <path id="Path_365" data-name="Path 365" d="M418.161,518.531c.228-1.369.437-2.767.621-4.155l1.4.185c-.186,1.4-.4,2.816-.628,4.2Z" transform="translate(-220.008 -252.288)" fill="#e6e6e6"/>
    <path id="Path_366" data-name="Path 366" d="M411.752,542.954l1.346.419c.844-2.721,1.608-5.509,2.27-8.286L414,534.763C413.34,537.511,412.59,540.263,411.752,542.954Z" transform="translate(-217.523 -260.192)" fill="#e6e6e6"/>
    <path id="Path_367" data-name="Path 367" d="M401.71,569.032l1.277.6c1.215-2.577,2.352-5.232,3.383-7.889l-1.314-.513C404.037,563.858,402.913,566.484,401.71,569.032Z" transform="translate(-213.63 -270.452)" fill="#e6e6e6"/>
    <path id="Path_368" data-name="Path 368" d="M388.2,593.6l1.181.766c1.557-2.388,3.051-4.863,4.442-7.354l-1.228-.689C391.221,588.786,389.74,591.232,388.2,593.6Z" transform="translate(-208.392 -280.18)" fill="#e6e6e6"/>
    <path id="Path_369" data-name="Path 369" d="M371.482,616.166l1.067.925c1.873-2.161,3.689-4.408,5.411-6.681l-1.128-.843C375.135,611.813,373.337,614.033,371.482,616.166Z" transform="translate(-201.911 -289.191)" fill="#e6e6e6"/>
    <path id="Path_370" data-name="Path 370" d="M351.907,636.309l.927,1.058c2.153-1.878,4.259-3.86,6.27-5.874l-1-1C356.12,632.489,354.032,634.444,351.907,636.309Z" transform="translate(-194.323 -297.305)" fill="#e6e6e6"/>
    <path id="Path_371" data-name="Path 371" d="M329.855,653.669l.778,1.178c2.377-1.57,4.739-3.243,7-4.967l-.851-1.124C334.542,650.466,332.209,652.12,329.855,653.669Z" transform="translate(-185.774 -304.384)" fill="#e6e6e6"/>
    <path id="Path_372" data-name="Path 372" d="M315.87,665.237c-1.7.961-3.441,1.892-5.2,2.774v-1.58c1.519-.772,3.025-1.586,4.5-2.413Z" transform="translate(-178.337 -310.301)" fill="#e6e6e6"/>
    <path id="Path_373" data-name="Path 373" d="M418.836,333.448l1.408-.026c.026,1.421.028,2.85.006,4.247l-1.407-.022C418.863,336.266,418.861,334.853,418.836,333.448Z" transform="translate(-220.269 -182.138)" fill="#e6e6e6"/>
    <path id="Path_374" data-name="Path 374" d="M226.216,301.632H370.242a40.414,40.414,0,0,1,40.414,40.414v5.35H266.63a40.414,40.414,0,0,1-40.414-40.414v-5.35Z" transform="translate(-87.698 -116.934)" fill="#fff"/>
    <path id="Path_375" data-name="Path 375" d="M473.721,693.014c-.141-.23-3.454-5.762-4.6-17.25-1.054-10.54-.376-28.306,8.837-53.088,17.455-46.948-4.023-84.828-4.242-85.2l1.06-.615c.056.1,5.6,9.753,8.872,25.132A109.643,109.643,0,0,1,479.1,623.1c-17.425,46.868-4.47,69.054-4.338,69.273Z" transform="translate(-239.618 -261.003)" fill="#f2f2f2"/>
    <circle id="Ellipse_68" data-name="Ellipse 68" cx="7.96" cy="7.96" r="7.96" transform="translate(219.317 257.79)" fill="#35b23d"/>
    <circle id="Ellipse_69" data-name="Ellipse 69" cx="7.96" cy="7.96" r="7.96" transform="translate(244.423 287.182)" fill="#f2f2f2"/>
    <circle id="Ellipse_70" data-name="Ellipse 70" cx="7.96" cy="7.96" r="7.96" transform="translate(227.278 306.776)" fill="#35b23d"/>
    <circle id="Ellipse_71" data-name="Ellipse 71" cx="7.96" cy="7.96" r="7.96" transform="translate(248.097 323.309)" fill="#35b23d"/>
    <circle id="Ellipse_72" data-name="Ellipse 72" cx="7.96" cy="7.96" r="7.96" transform="translate(221.154 349.027)" fill="#f2f2f2"/>
    <path id="Path_376" data-name="Path 376" d="M483.918,770.648s-7.96-19.594,15.921-34.29Z" transform="translate(-245.006 -338.345)" fill="#f2f2f2"/>
    <path id="Path_377" data-name="Path 377" d="M448.69,778.7s-3.623-20.837-31.663-20.659Z" transform="translate(-219.568 -346.749)" fill="#f2f2f2"/>
    <circle id="Ellipse_73" data-name="Ellipse 73" cx="48.986" cy="48.986" r="48.986" transform="translate(148.444 158.593)" fill="#35b23d" opacity="0.2"/>
    <circle id="Ellipse_74" data-name="Ellipse 74" cx="34.497" cy="34.497" r="34.497" transform="translate(162.933 173.082)" fill="#35b23d" opacity="0.2"/>
    <circle id="Ellipse_75" data-name="Ellipse 75" cx="22.768" cy="22.768" r="22.768" transform="translate(174.662 184.811)" fill="#35b23d"/>
    <path id="Path_378" data-name="Path 378" d="M418.5,414.716a4.14,4.14,0,1,0-6.755,3.208L410.22,428.6H418.5l-1.525-10.672a4.13,4.13,0,0,0,1.525-3.208Z" transform="translate(-216.929 -212.048)" fill="#fff"/>
    <path id="Path_379" data-name="Path 379" d="M736.4,137.6s-13.656-12.243-32.021,10.831S657.29,182.81,650.7,191.757c0,0,27.312-11.3,36.73-16.011s8.947-3.767,8.947-3.767-12.714,8.947-15.069,17.894-.471,16.482-4.709,25.429,81,6.122,81,6.122,8.476-14.6,6.122-29.667S762.771,139.487,736.4,137.6Z" transform="translate(-310.155 -104.966)" fill="#2f2e41"/>
    <path id="Path_380" data-name="Path 380" d="M736.67,202.56s2.97,20.787-9.757,25.453-8.06,11.03-8.06,11.03l19.09,9.333,20.362-6.363,6.787-10.181s-11.03-2.545-8.06-10.181,3.818-10.181,3.818-10.181Z" transform="translate(-336.254 -131.406)" fill="#ffb9b9"/>
    <path id="Path_381" data-name="Path 381" d="M736.67,202.56s2.97,20.787-9.757,25.453-8.06,11.03-8.06,11.03l19.09,9.333,20.362-6.363,6.787-10.181s-11.03-2.545-8.06-10.181,3.818-10.181,3.818-10.181Z" transform="translate(-336.254 -131.406)" opacity="0.1"/>
    <path id="Path_382" data-name="Path 382" d="M824.759,299.551s-2.97,39.028-2.121,40.725,0,60.663,0,60.663,5.939,31.816-1.7,33.513S815,398.817,815,398.817l-7.636-49.209.848-48.785Z" transform="translate(-370.891 -169.007)" fill="#ffb9b9"/>
    <path id="Path_383" data-name="Path 383" d="M824.759,299.551s-2.97,39.028-2.121,40.725,0,60.663,0,60.663,5.939,31.816-1.7,33.513S815,398.817,815,398.817l-7.636-49.209.848-48.785Z" transform="translate(-370.891 -169.007)" opacity="0.1"/>
    <path id="Path_384" data-name="Path 384" d="M692.076,491.454s-14,53.027-13.575,78.9,5.939,61.936,5.939,61.936.848,15.7-.424,17.393,6.363,8.909,6.363,8.909l8.06-4.666,2.97-3.394v-2.97s-4.666-14.423-.848-25.877,5.939-40.3,2.121-49.209l26.3-78.056Z" transform="translate(-320.93 -243.402)" fill="#ffb9b9"/>
    <path id="Path_385" data-name="Path 385" d="M681.7,750.362s-5.091-6.363-8.484-4.242-8.909,16.544-8.909,16.544-19.09,18.241-5.515,19.09,19.514-3.818,21.211-7.212,17.393-12.3,17.393-12.3-1.7-16.12-4.242-16.544-6.363,6.363-6.363,6.363Z" transform="translate(-311.405 -341.957)" fill="#2f2e41"/>
    <path id="Path_386" data-name="Path 386" d="M772.43,488.939v52.6a162.648,162.648,0,0,0,1.273,19.09c1.273,9.333-7.212,78.9-7.212,78.9l.848,12.3,10.605-.849,1.273-10.605,15.272-46.664s5.091-28.422,2.545-39.028,13.151-78.48,13.151-78.48Z" transform="translate(-355.045 -237.493)" fill="#ffb9b9"/>
    <path id="Path_387" data-name="Path 387" d="M761.764,755.1l3.142-.683s2.373-5.256,5.342-3.983a32.028,32.028,0,0,1,5.9,3.538l1.307,2.4a50.7,50.7,0,0,0,6.788,10.605c3.818,4.242,8.06,13.575,1.7,14.423s-14.848,1.273-17.393-.849-.848-5.515-3.394-6.363-4.666-3.394-4.242-4.242S761.764,755.1,761.764,755.1Z" transform="translate(-352.863 -343.724)" fill="#2f2e41"/>
    <circle id="Ellipse_76" data-name="Ellipse 76" cx="18.854" cy="18.854" r="18.854" transform="translate(398.531 48.058)" fill="#ffb9b9"/>
    <path id="Path_388" data-name="Path 388" d="M718,248.431l5.6-1.956s-2.21,3.653,9.668,5.774,24.179,2.872,29.695-4.079c0,0,2.122-1.012,5.091,1.958s4.666,2.121,4.666,2.121l-2.121,11.03-4.242,20.362-5.515,15.272-15.7-3.394-16.969-12.3-6.363-16.545V251.4Z" transform="translate(-336.245 -148.431)" fill="#35b23d"/>
    <path id="Path_389" data-name="Path 389" d="M756.321,255.37l4.242-2.969s14.423,2.545,15.272,9.333l-11.029,21.211a24.148,24.148,0,0,1-.424,18.241c-4.242,9.757-3.818,11.878-3.818,11.878l-2.969,12.726-53.875,4.242s-2.121-5.091-2.969-5.939-.848-3.818,0-3.818,0-1.273-.848-2.545-1.273-1.7,0-3.394-2.121-16.969-2.121-16.969V280.823l-14.423-19.09s5.091-7.636,7.636-8.484,14.653-4.194,14.653-4.194l2.74,4.034,3.818,30.7,5.515,18.665,23.22-3.945,9.02-15.144,5.939-17.817Z" transform="translate(-322.816 -149.431)" fill="#35b23d"/>
    <path id="Path_390" data-name="Path 390" d="M822.121,265.6l3.394,2.545s2.969,23.756,2.121,25.453-15.7,3.394-16.12,2.545S822.121,265.6,822.121,265.6Z" transform="translate(-372.495 -155.847)" fill="#35b23d"/>
    <path id="Path_391" data-name="Path 391" d="M707.277,245.132l4.242,28s-3.818,41.573-2.97,50.057l.849,2.545s-1.7-.848-2.121.848,0,7.212,0,7.212-2.545,2.545-3.394,16.544-11.03,47.512-7.212,48.785,26.726,7.636,39.028,6.363,56.421-16.12,56-19.938-21.635-57.693-21.635-57.693-3.818-6.363-3.818-7.211,5.091-4.242,3.818-7.636S762,273.978,762,273.978l4.666-25.453-6.363-1.7-4.666,24.6s-18.241,8.909-37.331.848l-4.242-28.847Z" transform="translate(-327.648 -147.252)" fill="#2f2e41"/>
    <path id="Path_392" data-name="Path 392" d="M747.864,168.163s31.392,21.635,39.876,11.878S772.893,161.8,772.893,161.8l-19.514-2.121Z" transform="translate(-347.824 -114.783)" fill="#2f2e41"/>
    <path id="Path_393" data-name="Path 393" d="M621.575,530.517a16.55,16.55,0,1,0-5.192-6.444l-43.3,36.049-5.765-6.842-2.59,1.732-2.882-3.421,2.368-2-2.882-3.421-3.684,3.1,1.774,2.105-3.947,3.326L553.7,552.6l-5.789,4.878,2.661,3.158,2.105-1.774,2.882,3.421-2.631,2.217,5.321,6.316-6.316,5.321,6.43,7.631Zm10.81-24.182a10.949,10.949,0,1,1-11.842,9.977,10.949,10.949,0,0,1,11.842-9.977Z" transform="translate(-270.31 -246.983)" fill="#35b23d"/>
    <path id="Path_394" data-name="Path 394" d="M678.457,307.864s2.969,39.028,2.121,40.725,0,60.663,0,60.663-5.939,31.816,1.7,33.513,5.939-35.634,5.939-35.634l7.636-49.209L695,309.137Z" transform="translate(-320.886 -172.23)" fill="#ffb9b9"/>
    <path id="Path_395" data-name="Path 395" d="M683.614,267.682l-3.394,1.273s-6.363,26.726-4.666,26.726,22.059,2.545,22.059,1.7-3.818-21.635-3.818-21.635Z" transform="translate(-319.68 -156.652)" fill="#35b23d"/>
  </g>
</svg>
